<svg width="251" height="26" viewBox="0 0 251 26" fill="none" xmlns="http://www.w3.org/2000/svg">
<path d="M16.704 2.248L10.56 19H6.48L0.336 2.248H3.936L8.544 15.568L13.128 2.248H16.704ZM17.8545 12.304C17.8545 10.96 18.1185 9.768 18.6465 8.728C19.1905 7.688 19.9185 6.888 20.8305 6.328C21.7585 5.768 22.7905 5.488 23.9265 5.488C24.9185 5.488 25.7825 5.688 26.5185 6.088C27.2705 6.488 27.8705 6.992 28.3185 7.6V5.704H31.7025V19H28.3185V17.056C27.8865 17.68 27.2865 18.2 26.5185 18.616C25.7665 19.016 24.8945 19.216 23.9025 19.216C22.7825 19.216 21.7585 18.928 20.8305 18.352C19.9185 17.776 19.1905 16.968 18.6465 15.928C18.1185 14.872 17.8545 13.664 17.8545 12.304ZM28.3185 12.352C28.3185 11.536 28.1585 10.84 27.8385 10.264C27.5185 9.672 27.0865 9.224 26.5425 8.92C25.9985 8.6 25.4145 8.44 24.7905 8.44C24.1665 8.44 23.5905 8.592 23.0625 8.896C22.5345 9.2 22.1025 9.648 21.7665 10.24C21.4465 10.816 21.2865 11.504 21.2865 12.304C21.2865 13.104 21.4465 13.808 21.7665 14.416C22.1025 15.008 22.5345 15.464 23.0625 15.784C23.6065 16.104 24.1825 16.264 24.7905 16.264C25.4145 16.264 25.9985 16.112 26.5425 15.808C27.0865 15.488 27.5185 15.04 27.8385 14.464C28.1585 13.872 28.3185 13.168 28.3185 12.352ZM42.3521 5.512C43.9361 5.512 45.2161 6.016 46.1921 7.024C47.1681 8.016 47.6561 9.408 47.6561 11.2V19H44.2961V11.656C44.2961 10.6 44.0321 9.792 43.5041 9.232C42.9761 8.656 42.2561 8.368 41.3441 8.368C40.4161 8.368 39.6801 8.656 39.1361 9.232C38.6081 9.792 38.3441 10.6 38.3441 11.656V19H34.9841V5.704H38.3441V7.36C38.7921 6.784 39.3601 6.336 40.0481 6.016C40.7521 5.68 41.5201 5.512 42.3521 5.512ZM156.831 19.168C155.663 19.168 154.607 18.968 153.663 18.568C152.735 18.168 151.999 17.592 151.455 16.84C150.911 16.088 150.631 15.2 150.615 14.176H154.215C154.263 14.864 154.503 15.408 154.935 15.808C155.383 16.208 155.991 16.408 156.759 16.408C157.543 16.408 158.159 16.224 158.607 15.856C159.055 15.472 159.279 14.976 159.279 14.368C159.279 13.872 159.127 13.464 158.823 13.144C158.519 12.824 158.135 12.576 157.671 12.4C157.223 12.208 156.599 12 155.799 11.776C154.711 11.456 153.823 11.144 153.135 10.84C152.463 10.52 151.879 10.048 151.383 9.424C150.903 8.784 150.663 7.936 150.663 6.88C150.663 5.888 150.911 5.024 151.407 4.288C151.903 3.552 152.599 2.992 153.495 2.608C154.391 2.208 155.415 2.008 156.567 2.008C158.295 2.008 159.695 2.432 160.767 3.28C161.855 4.112 162.455 5.28 162.567 6.784H158.871C158.839 6.208 158.591 5.736 158.127 5.368C157.679 4.984 157.079 4.792 156.327 4.792C155.671 4.792 155.143 4.96 154.743 5.296C154.359 5.632 154.167 6.12 154.167 6.76C154.167 7.208 154.311 7.584 154.599 7.888C154.903 8.176 155.271 8.416 155.703 8.608C156.151 8.784 156.775 8.992 157.575 9.232C158.663 9.552 159.551 9.872 160.239 10.192C160.927 10.512 161.519 10.992 162.015 11.632C162.511 12.272 162.759 13.112 162.759 14.152C162.759 15.048 162.527 15.88 162.063 16.648C161.599 17.416 160.919 18.032 160.023 18.496C159.127 18.944 158.063 19.168 156.831 19.168ZM248.488 19.168C247.88 19.168 247.376 18.984 246.976 18.616C246.592 18.232 246.4 17.76 246.4 17.2C246.4 16.64 246.592 16.176 246.976 15.808C247.376 15.424 247.88 15.232 248.488 15.232C249.08 15.232 249.568 15.424 249.952 15.808C250.336 16.176 250.528 16.64 250.528 17.2C250.528 17.76 250.336 18.232 249.952 18.616C249.568 18.984 249.08 19.168 248.488 19.168Z" fill="#6552F5"/>
<path d="M56.7553 19.216C55.4753 19.216 54.3233 18.936 53.2993 18.376C52.2753 17.8 51.4673 16.992 50.8753 15.952C50.2993 14.912 50.0113 13.712 50.0113 12.352C50.0113 10.992 50.3073 9.792 50.8993 8.752C51.5073 7.712 52.3313 6.912 53.3713 6.352C54.4113 5.776 55.5713 5.488 56.8513 5.488C58.1313 5.488 59.2913 5.776 60.3313 6.352C61.3713 6.912 62.1873 7.712 62.7793 8.752C63.3873 9.792 63.6913 10.992 63.6913 12.352C63.6913 13.712 63.3793 14.912 62.7553 15.952C62.1473 16.992 61.3153 17.8 60.2593 18.376C59.2193 18.936 58.0513 19.216 56.7553 19.216ZM56.7553 16.288C57.3633 16.288 57.9313 16.144 58.4593 15.856C59.0033 15.552 59.4353 15.104 59.7553 14.512C60.0753 13.92 60.2353 13.2 60.2353 12.352C60.2353 11.088 59.8993 10.12 59.2273 9.448C58.5713 8.76 57.7633 8.416 56.8033 8.416C55.8433 8.416 55.0353 8.76 54.3793 9.448C53.7393 10.12 53.4193 11.088 53.4193 12.352C53.4193 13.616 53.7313 14.592 54.3553 15.28C54.9953 15.952 55.7953 16.288 56.7553 16.288ZM78.708 5.704V19H75.324V17.32C74.892 17.896 74.324 18.352 73.62 18.688C72.932 19.008 72.18 19.168 71.364 19.168C70.324 19.168 69.404 18.952 68.604 18.52C67.804 18.072 67.172 17.424 66.708 16.576C66.26 15.712 66.036 14.688 66.036 13.504V5.704H69.396V13.024C69.396 14.08 69.66 14.896 70.188 15.472C70.716 16.032 71.436 16.312 72.348 16.312C73.276 16.312 74.004 16.032 74.532 15.472C75.06 14.896 75.324 14.08 75.324 13.024V5.704H78.708ZM85.3832 7.624C85.8152 7.016 86.4072 6.512 87.1592 6.112C87.9272 5.696 88.7992 5.488 89.7752 5.488C90.9112 5.488 91.9352 5.768 92.8472 6.328C93.7752 6.888 94.5032 7.688 95.0312 8.728C95.5752 9.752 95.8472 10.944 95.8472 12.304C95.8472 13.664 95.5752 14.872 95.0312 15.928C94.5032 16.968 93.7752 17.776 92.8472 18.352C91.9352 18.928 90.9112 19.216 89.7752 19.216C88.7992 19.216 87.9352 19.016 87.1832 18.616C86.4472 18.216 85.8472 17.712 85.3832 17.104V25.336H82.0232V5.704H85.3832V7.624ZM92.4152 12.304C92.4152 11.504 92.2472 10.816 91.9112 10.24C91.5912 9.648 91.1592 9.2 90.6152 8.896C90.0872 8.592 89.5112 8.44 88.8872 8.44C88.2792 8.44 87.7032 8.6 87.1592 8.92C86.6312 9.224 86.1992 9.672 85.8632 10.264C85.5432 10.856 85.3832 11.552 85.3832 12.352C85.3832 13.152 85.5432 13.848 85.8632 14.44C86.1992 15.032 86.6312 15.488 87.1592 15.808C87.7032 16.112 88.2792 16.264 88.8872 16.264C89.5112 16.264 90.0872 16.104 90.6152 15.784C91.1592 15.464 91.5912 15.008 91.9112 14.416C92.2472 13.824 92.4152 13.12 92.4152 12.304ZM105.777 5.512C106.785 5.512 107.681 5.736 108.465 6.184C109.249 6.616 109.857 7.264 110.289 8.128C110.737 8.976 110.961 10 110.961 11.2V19H107.601V11.656C107.601 10.6 107.337 9.792 106.809 9.232C106.281 8.656 105.561 8.368 104.649 8.368C103.721 8.368 102.985 8.656 102.441 9.232C101.913 9.792 101.649 10.6 101.649 11.656V19H98.2888V1.24H101.649V7.36C102.081 6.784 102.657 6.336 103.377 6.016C104.097 5.68 104.897 5.512 105.777 5.512ZM120.06 19.216C118.78 19.216 117.628 18.936 116.604 18.376C115.58 17.8 114.772 16.992 114.18 15.952C113.604 14.912 113.316 13.712 113.316 12.352C113.316 10.992 113.612 9.792 114.204 8.752C114.812 7.712 115.636 6.912 116.676 6.352C117.716 5.776 118.876 5.488 120.156 5.488C121.436 5.488 122.596 5.776 123.636 6.352C124.676 6.912 125.492 7.712 126.084 8.752C126.692 9.792 126.996 10.992 126.996 12.352C126.996 13.712 126.684 14.912 126.06 15.952C125.452 16.992 124.62 17.8 123.564 18.376C122.524 18.936 121.356 19.216 120.06 19.216ZM120.06 16.288C120.668 16.288 121.236 16.144 121.764 15.856C122.308 15.552 122.74 15.104 123.06 14.512C123.38 13.92 123.54 13.2 123.54 12.352C123.54 11.088 123.204 10.12 122.532 9.448C121.876 8.76 121.068 8.416 120.108 8.416C119.148 8.416 118.34 8.76 117.684 9.448C117.044 10.12 116.724 11.088 116.724 12.352C116.724 13.616 117.036 14.592 117.66 15.28C118.3 15.952 119.1 16.288 120.06 16.288ZM136.829 5.512C138.413 5.512 139.693 6.016 140.669 7.024C141.645 8.016 142.133 9.408 142.133 11.2V19H138.773V11.656C138.773 10.6 138.509 9.792 137.981 9.232C137.453 8.656 136.733 8.368 135.821 8.368C134.893 8.368 134.157 8.656 133.613 9.232C133.085 9.792 132.821 10.6 132.821 11.656V19H129.461V5.704H132.821V7.36C133.269 6.784 133.837 6.336 134.525 6.016C135.229 5.68 135.997 5.512 136.829 5.512ZM167.376 4.12C166.784 4.12 166.288 3.936 165.888 3.568C165.504 3.184 165.312 2.712 165.312 2.152C165.312 1.592 165.504 1.128 165.888 0.759999C166.288 0.375999 166.784 0.183999 167.376 0.183999C167.968 0.183999 168.456 0.375999 168.84 0.759999C169.24 1.128 169.44 1.592 169.44 2.152C169.44 2.712 169.24 3.184 168.84 3.568C168.456 3.936 167.968 4.12 167.376 4.12ZM169.032 5.704V19H165.672V5.704H169.032ZM175.711 7.768C176.143 7.064 176.703 6.512 177.391 6.112C178.095 5.712 178.895 5.512 179.791 5.512V9.04H178.903C177.847 9.04 177.047 9.288 176.503 9.784C175.975 10.28 175.711 11.144 175.711 12.376V19H172.351V5.704H175.711V7.768ZM183.758 4.12C183.166 4.12 182.67 3.936 182.27 3.568C181.886 3.184 181.694 2.712 181.694 2.152C181.694 1.592 181.886 1.128 182.27 0.759999C182.67 0.375999 183.166 0.183999 183.758 0.183999C184.35 0.183999 184.838 0.375999 185.222 0.759999C185.622 1.128 185.822 1.592 185.822 2.152C185.822 2.712 185.622 3.184 185.222 3.568C184.838 3.936 184.35 4.12 183.758 4.12ZM185.414 5.704V19H182.054V5.704H185.414ZM193.822 19.216C192.734 19.216 191.758 19.024 190.894 18.64C190.03 18.24 189.342 17.704 188.83 17.032C188.334 16.36 188.062 15.616 188.014 14.8H191.398C191.462 15.312 191.71 15.736 192.142 16.072C192.59 16.408 193.142 16.576 193.798 16.576C194.438 16.576 194.934 16.448 195.286 16.192C195.654 15.936 195.838 15.608 195.838 15.208C195.838 14.776 195.614 14.456 195.166 14.248C194.734 14.024 194.038 13.784 193.078 13.528C192.086 13.288 191.27 13.04 190.63 12.784C190.006 12.528 189.462 12.136 188.998 11.608C188.55 11.08 188.326 10.368 188.326 9.472C188.326 8.736 188.534 8.064 188.95 7.456C189.382 6.848 189.99 6.368 190.774 6.016C191.574 5.664 192.51 5.488 193.582 5.488C195.166 5.488 196.43 5.888 197.374 6.688C198.318 7.472 198.838 8.536 198.934 9.88H195.718C195.67 9.352 195.446 8.936 195.046 8.632C194.662 8.312 194.142 8.152 193.486 8.152C192.878 8.152 192.406 8.264 192.07 8.488C191.75 8.712 191.59 9.024 191.59 9.424C191.59 9.872 191.814 10.216 192.262 10.456C192.71 10.68 193.406 10.912 194.35 11.152C195.31 11.392 196.102 11.64 196.726 11.896C197.35 12.152 197.886 12.552 198.334 13.096C198.798 13.624 199.038 14.328 199.054 15.208C199.054 15.976 198.838 16.664 198.406 17.272C197.99 17.88 197.382 18.36 196.582 18.712C195.798 19.048 194.878 19.216 193.822 19.216ZM207.716 19.216C206.436 19.216 205.284 18.936 204.26 18.376C203.236 17.8 202.428 16.992 201.836 15.952C201.26 14.912 200.972 13.712 200.972 12.352C200.972 10.992 201.268 9.792 201.86 8.752C202.468 7.712 203.292 6.912 204.332 6.352C205.372 5.776 206.532 5.488 207.812 5.488C209.092 5.488 210.252 5.776 211.292 6.352C212.332 6.912 213.148 7.712 213.74 8.752C214.348 9.792 214.652 10.992 214.652 12.352C214.652 13.712 214.34 14.912 213.716 15.952C213.108 16.992 212.276 17.8 211.22 18.376C210.18 18.936 209.012 19.216 207.716 19.216ZM207.716 16.288C208.324 16.288 208.892 16.144 209.42 15.856C209.964 15.552 210.396 15.104 210.716 14.512C211.036 13.92 211.196 13.2 211.196 12.352C211.196 11.088 210.86 10.12 210.188 9.448C209.532 8.76 208.724 8.416 207.764 8.416C206.804 8.416 205.996 8.76 205.34 9.448C204.7 10.12 204.38 11.088 204.38 12.352C204.38 13.616 204.692 14.592 205.316 15.28C205.956 15.952 206.756 16.288 207.716 16.288ZM229.669 5.704V19H226.285V17.32C225.853 17.896 225.285 18.352 224.581 18.688C223.893 19.008 223.141 19.168 222.325 19.168C221.285 19.168 220.365 18.952 219.565 18.52C218.765 18.072 218.133 17.424 217.669 16.576C217.221 15.712 216.997 14.688 216.997 13.504V5.704H220.357V13.024C220.357 14.08 220.621 14.896 221.149 15.472C221.677 16.032 222.397 16.312 223.309 16.312C224.237 16.312 224.965 16.032 225.493 15.472C226.021 14.896 226.285 14.08 226.285 13.024V5.704H229.669ZM240.856 19L236.344 13.336V19H232.984V1.24H236.344V11.344L240.808 5.704H245.176L239.32 12.376L245.224 19H240.856Z" fill="#221E41"/>
</svg>
