<?xml version="1.0" encoding="UTF-8" standalone="no"?>
<svg
   xmlns:dc="http://purl.org/dc/elements/1.1/"
   xmlns:cc="http://creativecommons.org/ns#"
   xmlns:rdf="http://www.w3.org/1999/02/22-rdf-syntax-ns#"
   xmlns:svg="http://www.w3.org/2000/svg"
   xmlns="http://www.w3.org/2000/svg"
   id="svg8"
   version="1.1"
   viewBox="0 0 257.67189 218.81042"
   height="827"
   width="973.87799">
  <defs
     id="defs2">
    <clipPath
       id="clipPath832"
       clipPathUnits="userSpaceOnUse">
      <rect
         transform="rotate(-90)"
         y="-286.29291"
         x="-281.36548"
         height="863.59998"
         width="863.59998"
         id="rect834"
         style="opacity:0.20400002;fill:#ff0000;fill-opacity:1;stroke:none;stroke-width:1.14248359;stroke-linecap:round;stroke-linejoin:round;stroke-miterlimit:4;stroke-dasharray:none;stroke-dashoffset:0;stroke-opacity:1" />
    </clipPath>
  </defs>
  <metadata
     id="metadata5">
    <rdf:RDF>
      <cc:Work
         rdf:about="">
        <dc:format>image/svg+xml</dc:format>
        <dc:type
           rdf:resource="http://purl.org/dc/dcmitype/StillImage" />
        <dc:title></dc:title>
      </cc:Work>
    </rdf:RDF>
  </metadata>
  <g
     transform="translate(-0.69315777,-52.151451)"
     id="layer1">
    <g
       transform="translate(-10.603157,-5.2916637)"
       id="g1246">
      <path
         id="path1252"
         d="m 41.952018,258.95264 c 0,-16.09633 -0.03224,-17.33825 -0.463021,-17.83727 -0.254662,-0.29501 -7.011459,-4.30531 -15.015104,-8.91177 -8.003646,-4.60647 -14.701753,-8.56939 -14.884684,-8.80649 -0.260972,-0.33825 -0.317952,-4.19105 -0.264583,-17.89003 l 0.06802,-17.45895 113.106774,-65.30251 c 62.20873,-35.916376 113.25593,-65.302504 113.43822,-65.302504 0.26149,0 0.34579,3.688188 0.39947,17.477209 l 0.068,17.47721 15.21355,8.785965 15.21354,8.78596 0.068,17.75534 0.068,17.75533 -113.25229,65.3867 c -62.28876,35.96269 -113.367406,65.3867 -113.508101,65.3867 -0.162079,0 -0.255807,-6.33901 -0.255807,-17.30089 z m 23.623712,2.38131 c 5.680223,-3.28649 8.120216,-5.0932 9.694611,-7.17848 1.359487,-1.80063 2.703068,-4.51648 3.596936,-7.27069 0.657059,-2.02455 0.742556,-2.72843 0.856819,-7.05407 0.102267,-3.87156 0.04106,-5.19107 -0.315042,-6.79168 -0.921012,-4.13978 -3.291165,-5.88227 -6.550872,-4.81607 -2.161092,0.70686 -12.842981,6.98568 -13.022569,7.65467 -0.212365,0.79109 -0.193194,28.08019 0.01987,28.29326 0.09701,0.097 0.251928,0.17639 0.344252,0.17639 0.09233,0 2.51152,-1.356 5.375987,-3.01333 z m 1.10223,-7.9043 c -0.07056,-0.18387 -0.09658,-3.66076 -0.05784,-7.72643 l 0.07044,-7.39213 1.057203,-0.71784 c 1.556793,-1.05705 2.882429,-1.39804 3.773932,-0.97075 1.158481,0.55525 1.47832,1.58881 1.60292,5.17985 0.221152,6.37362 -0.902332,8.92735 -5.010076,11.38814 -1.111678,0.66596 -1.263126,0.69117 -1.436579,0.23916 z m 24.751142,-7.00614 c 4.147343,-2.39127 7.987109,-4.63664 8.532812,-4.98971 l 0.992186,-0.64194 v -3.17125 c 0,-1.74418 -0.0906,-3.17124 -0.20133,-3.17124 -0.11073,0 -2.581273,1.3689 -5.490099,3.042 -2.908829,1.6731 -5.441633,3.04232 -5.628458,3.04271 -0.259977,5.3e-4 -0.322059,-0.65998 -0.264583,-2.81502 l 0.0751,-2.81573 5.027083,-2.90858 c 2.764896,-1.59972 5.114557,-3.04132 5.22147,-3.20355 0.106913,-0.16223 0.19621,-1.45582 0.198438,-2.87465 0.0032,-2.04815 -0.07299,-2.57968 -0.369859,-2.57968 -0.205647,0 -2.436384,1.19062 -4.957188,2.64583 -2.520805,1.45521 -4.738804,2.64583 -4.928889,2.64583 -0.261284,0 -0.326752,-0.49915 -0.26833,-2.04586 l 0.07728,-2.04587 5.290465,-3.07845 c 2.909755,-1.69315 5.43984,-3.21799 5.6224,-3.38853 0.4992,-0.46632 0.46535,-5.84545 -0.0368,-5.84545 -0.543747,0 -16.882107,9.47444 -17.424513,10.10429 -0.428218,0.49725 -0.463021,1.57791 -0.463021,14.37734 0,7.61182 0.07143,14.02582 0.15874,14.25334 0.193082,0.50316 -0.676125,0.9493 8.837094,-4.53583 z m 22.122188,-12.78476 c 1.79708,-1.02792 3.33332,-1.97557 3.41387,-2.10589 0.34011,-0.55031 8.02725,-33.21132 7.85656,-33.38086 -0.29391,-0.29192 -6.16171,3.23917 -6.41726,3.86174 -0.12492,0.30434 -1.19749,5.37537 -2.38348,11.26896 -1.18599,5.89359 -2.26126,10.82675 -2.38949,10.96257 -0.12824,0.13582 -0.30506,0.17503 -0.39296,0.0871 -0.0879,-0.0879 -1.15121,-3.81424 -2.36292,-8.28077 -1.21171,-4.46652 -2.30702,-8.22487 -2.43403,-8.35188 -0.36771,-0.36771 -6.69373,3.4008 -6.69373,3.98757 0,0.35041 6.5142,19.96751 7.80014,23.48964 0.20338,0.55703 0.62033,0.39682 4.0033,-1.53822 z m 21.83281,-12.58672 c 4.71064,-2.71187 8.77315,-5.11157 9.02781,-5.33268 0.39273,-0.34096 0.46303,-0.88212 0.46303,-3.5643 0,-2.71876 -0.0563,-3.14068 -0.4016,-3.00819 -0.22088,0.0848 -2.67047,1.46672 -5.44352,3.07102 -2.77306,1.60429 -5.21574,2.9169 -5.42819,2.9169 -0.31901,0 -0.37319,-0.487 -0.31117,-2.79691 l 0.0751,-2.79692 5.01879,-2.90348 c 2.76034,-1.59691 5.11,-3.04697 5.22147,-3.22235 0.11148,-0.17538 0.2045,-1.47974 0.20673,-2.89857 0.003,-1.90491 -0.0834,-2.57968 -0.33042,-2.57968 -0.18397,0 -2.39696,1.19062 -4.91776,2.64583 -2.52081,1.45521 -4.75655,2.64583 -4.96832,2.64583 -0.3103,0 -0.37004,-0.39474 -0.30776,-2.03374 l 0.0773,-2.03374 5.41494,-3.13631 c 2.97822,-1.72497 5.50648,-3.28034 5.61835,-3.45636 0.34675,-0.54562 0.25595,-5.74401 -0.10034,-5.74401 -0.4979,0 -16.96961,9.52935 -17.48139,10.11347 -0.42833,0.48889 -0.46302,1.56523 -0.46302,14.36816 0,12.09685 0.0691,14.6767 0.39321,14.6767 0.0396,0 3.92616,-2.2188 8.63679,-4.93067 z m -65.783124,2.54177 c 4.065839,-1.25246 8.535382,-4.16196 9.492713,-6.17939 1.38262,-2.91366 -0.77934,-5.98856 -5.523963,-7.85658 -1.397785,-0.55033 -2.030163,-0.62566 -5.291666,-0.63034 -3.911058,-0.006 -5.466221,0.31542 -11.547957,2.38396 -1.048404,0.35658 -2.441504,0.64833 -3.095781,0.64833 -2.006777,0 -2.820924,-1.29167 -1.479315,-2.34698 1.439609,-1.1324 2.69475,-1.26097 6.48897,-0.66473 0.84315,0.13249 1.227598,-0.0393 3.439584,-1.53714 1.369681,-0.92747 2.490332,-1.85601 2.490332,-2.06343 0,-0.22704 -0.737076,-0.64241 -1.852083,-1.04372 -1.624576,-0.58472 -2.2746,-0.666 -5.291667,-0.66166 -3.113797,0.004 -3.622956,0.0746 -5.375585,0.74044 -3.483321,1.32335 -7.010186,3.65744 -8.01411,5.30378 -1.164474,1.90963 -0.400793,4.2105 1.913358,5.7647 2.263442,1.52014 3.76931,1.91186 7.375295,1.91851 3.558799,0.007 5.092071,-0.27072 9.525,-1.72252 3.149997,-1.03163 5.899756,-1.28783 7.109233,-0.66239 1.772811,0.91676 1.519811,2.40403 -0.587592,3.4542 -1.616075,0.80532 -3.652465,0.87731 -6.131417,0.21677 l -1.681007,-0.44793 -2.679544,1.78406 c -1.47375,0.98123 -2.633006,1.92693 -2.576121,2.10157 0.149956,0.46037 2.942051,1.52077 5.09124,1.93358 2.427864,0.46634 5.872782,0.28444 8.202083,-0.43309 z M 28.000909,212.46504 c 1.779516,-1.0318 3.333427,-1.96913 3.453135,-2.08296 0.215297,-0.20473 8.116724,-32.87448 8.116724,-33.55993 0,-0.51258 -0.330579,-0.37406 -3.644718,1.5272 -2.649596,1.52004 -3.012826,1.81596 -3.247607,2.64584 -0.145391,0.51391 -1.200843,5.5548 -2.345449,11.20198 -1.144606,5.64718 -2.15373,10.34023 -2.242497,10.42899 -0.08877,0.0888 -0.235699,0.0871 -0.326515,-0.004 -0.123769,-0.12377 -4.588261,-16.17684 -4.595929,-16.52568 -0.01027,-0.46685 -6.482588,3.17375 -6.940105,3.90372 -0.175903,0.28065 0.879425,3.73921 3.628324,11.89084 4.024754,11.93509 4.216897,12.44972 4.648216,12.44972 0.143515,0 1.716905,-0.8442 3.496421,-1.87599 z m 128.437041,-3.57888 c 4.19061,-2.41522 7.82764,-4.57562 8.0823,-4.8009 0.38984,-0.34484 0.46302,-0.88533 0.46302,-3.41958 0,-2.26786 -0.0872,-3.04346 -0.35362,-3.1457 -0.1945,-0.0746 -2.42523,1.06019 -4.95719,2.52184 -2.53196,1.46165 -4.75409,2.65755 -4.93805,2.65755 -0.26401,0 -0.33447,-2.23143 -0.33447,-10.59164 0,-8.90659 -0.0598,-10.61458 -0.37579,-10.73584 -0.375,-0.1439 -5.93231,2.89238 -6.30089,3.44254 -0.23656,0.35309 -0.27124,28.57591 -0.0354,28.81174 0.20552,0.20552 -0.39891,0.53295 8.7501,-4.74001 z m -66.067182,1.90213 c 6.522122,-1.18086 12.156592,-5.30238 12.169362,-8.90169 0.007,-1.98508 -2.06653,-4.68364 -5.257754,-6.84249 -5.410335,-3.66007 -12.095904,-5.44296 -17.858428,-4.76244 -7.096586,0.83807 -13.381586,5.09883 -13.39337,9.07971 -0.0058,1.97424 2.100477,4.79115 5.111488,6.83589 5.726739,3.88896 13.222123,5.67854 19.228702,4.59102 z m -4.365625,-5.08919 c -4.003236,-0.58044 -10.205029,-4.425 -10.607622,-6.57578 -0.188315,-1.00604 0.563994,-2.02621 2.099821,-2.84748 0.930425,-0.49754 1.506262,-0.5865 3.745301,-0.5786 3.007569,0.0106 4.308179,0.41092 7.427272,2.28601 4.672037,2.80866 5.591562,4.61928 3.238641,6.37716 -1.381887,1.03242 -3.969208,1.61913 -5.903413,1.33869 z m -45.639321,-0.37694 c 1.527252,-0.88579 2.97075,-1.78415 3.207777,-1.99636 0.237024,-0.2122 0.572151,-1.12457 0.744725,-2.02748 0.707477,-3.70157 0.424386,-3.34011 4.397928,-5.61551 2.035733,-1.16575 3.680984,-1.9517 3.805592,-1.81797 0.120727,0.12956 0.412845,0.91412 0.64915,1.74345 0.236302,0.82934 0.538562,1.57521 0.671687,1.65748 0.29908,0.18485 6.371334,-3.32076 6.725994,-3.88302 0.349012,-0.55329 -7.664079,-24.28547 -8.199908,-24.28547 -0.691515,0 -7.029617,3.79399 -7.261932,4.34699 -0.333031,0.79275 -7.917317,32.39386 -7.917317,32.98873 0,0.27484 0.08988,0.4997 0.199742,0.4997 0.109857,0 1.44931,-0.72474 2.976562,-1.61054 z m 6.348696,-15.67487 c 0,-0.59828 1.842764,-9.51638 1.998583,-9.6722 0.08077,-0.0808 0.23101,-0.0107 0.333867,0.15573 0.374735,0.60634 1.964648,7.20408 1.824215,7.57004 -0.149807,0.39039 -3.361613,2.29851 -3.868926,2.29851 -0.158257,0 -0.287739,-0.15844 -0.287739,-0.35208 z m 67.519282,8.35572 c 1.71524,-0.98226 3.11994,-1.90901 3.12154,-2.05943 0.002,-0.15043 -2.07674,-1.46011 -4.61856,-2.91042 -2.76021,-1.57491 -4.62146,-2.79676 -4.62139,-3.03379 6e-5,-0.23335 1.52279,-1.26396 3.69545,-2.50115 2.03244,-1.15735 3.69535,-2.24826 3.69535,-2.42424 0,-0.34626 -3.98381,-2.74753 -4.55827,-2.74753 -0.19228,0 -2.1054,1.01203 -4.25139,2.24896 -2.14599,1.23693 -4.08677,2.24896 -4.31283,2.24896 -0.60475,0 -4.110351,-2.14421 -4.007934,-2.45146 0.04814,-0.14442 2.102794,-1.42682 4.565904,-2.84979 2.4631,-1.42296 4.51326,-2.69186 4.5559,-2.81977 0.10235,-0.30707 -4.51365,-2.99263 -5.13496,-2.98749 -0.67972,0.006 -16.357467,9.10241 -16.357467,9.49118 0,0.29796 24.307217,14.54553 24.858147,14.5705 0.13854,0.006 1.65527,-0.79226 3.37051,-1.77453 z m 60.56061,0.60649 c 4.62472,-1.87688 8.70316,-5.92277 11.01557,-10.92768 3.13909,-6.79415 3.27285,-17.39031 0.26089,-20.66666 -0.75628,-0.82267 -2.47604,-1.60887 -3.53538,-1.61623 -1.32627,-0.009 -3.91711,0.90823 -5.9126,2.09373 -3.63805,2.16133 -6.49151,5.39738 -8.45048,9.58352 -2.90454,6.20676 -3.43524,14.79042 -1.1916,19.27319 1.53187,3.06065 4.04783,3.78841 7.8136,2.26013 z m -1.20582,-7.91826 c -0.34707,-0.34707 -0.77103,-1.15075 -0.94213,-1.78594 -0.43459,-1.61342 -0.19177,-7.88669 0.37398,-9.6615 0.96185,-3.01741 3.52127,-5.6486 5.49454,-5.6486 0.58034,0 1.27114,0.11559 1.53512,0.25687 1.22086,0.65338 1.82389,4.43029 1.36205,8.53081 -0.36765,3.26425 -1.07083,5.13472 -2.54797,6.77765 -1.94857,2.16728 -4.03395,2.77235 -5.27559,1.53071 z m -108.258354,0.22224 c 1.378276,-0.80693 2.633223,-1.62049 2.788772,-1.80791 0.181885,-0.21916 0.307946,-2.97683 0.353227,-7.72714 0.04487,-4.7075 0.166367,-7.38355 0.334991,-7.37862 0.145521,0.004 1.895377,2.26645 3.888571,5.02709 1.993191,2.76064 3.779128,5.04823 3.96875,5.08354 0.189619,0.0353 1.65445,-0.69492 3.255179,-1.62274 l 2.910417,-1.68694 0.06843,-14.50133 c 0.03764,-7.97573 -0.02188,-14.58689 -0.132291,-14.69146 -0.110398,-0.10457 -1.510409,0.5671 -3.111138,1.49261 l -2.910417,1.68274 -0.132291,7.59815 c -0.08213,4.71693 -0.232622,7.62924 -0.396875,7.68017 -0.145521,0.0451 -1.924754,-2.237 -3.953854,-5.07137 -2.029098,-2.83437 -3.818157,-5.1534 -3.975688,-5.1534 -0.15753,0 -1.592985,0.75689 -3.189896,1.68198 l -2.903479,1.68199 -0.06839,14.58989 c -0.05911,12.60996 -0.01625,14.58989 0.31582,14.58989 0.211312,0 1.511885,-0.66022 2.89016,-1.46714 z m 128.962884,-3.87023 c 1.56036,-0.89826 2.95609,-1.73733 3.10161,-1.8646 0.15125,-0.13228 0.32125,-2.51703 0.39687,-5.56732 l 0.13229,-5.33592 2.38125,-1.33229 c 3.00004,-1.6785 6.28378,-4.84412 7.36329,-7.09839 2.29137,-4.78497 2.36752,-11.40039 0.15269,-13.26405 -0.92732,-0.78028 -2.01196,-0.87279 -3.61245,-0.3081 -0.99511,0.3511 -10.98992,5.99136 -12.56863,7.09272 l -0.7276,0.5076 v 14.22539 c 0,12.62937 0.0599,14.57816 0.44821,14.57816 0.0525,0 1.37211,-0.73494 2.93247,-1.6332 z m 3.49848,-22.17395 v -3.16965 l 1.38907,-0.79662 c 2.82895,-1.62239 4.26753,-0.67716 3.61316,2.37406 -0.31516,1.46955 -1.48109,2.9665 -3.12008,4.00592 -1.87479,1.18895 -1.88215,1.17951 -1.88215,-2.41371 z m -58.84891,18.87204 c 1.67224,-0.96806 3.09957,-1.85579 3.17185,-1.97275 0.17407,-0.28164 0.21432,-0.2568 -9.54273,-5.89023 -4.65667,-2.68863 -8.46667,-5.03807 -8.46667,-5.22099 0,-0.18291 1.30537,-1.09061 2.90081,-2.0171 1.59545,-0.9265 2.95521,-1.73894 3.02171,-1.80543 0.0665,-0.0665 -0.16731,-0.43287 -0.51956,-0.81417 l -0.64046,-0.69328 0.66146,0.19532 c 0.3638,0.10742 6.01069,2.28366 12.54863,4.83608 l 11.88717,4.64077 1.07741,-0.57171 c 2.35771,-1.25108 5.31075,-3.12665 5.31075,-3.37303 0,-0.14343 -2.43361,-2.57707 -5.40801,-5.40809 -3.05588,-2.90856 -5.24233,-5.17882 -5.02708,-5.21976 0.20951,-0.0399 4.42707,1.35684 9.37236,3.10375 l 8.99143,3.1762 1.19503,-0.62791 c 2.30173,-1.20941 5.12777,-2.95914 5.21837,-3.23093 0.11484,-0.34452 -19.62561,-17.14487 -20.24056,-17.22597 -0.56216,-0.0742 -6.00779,3.15107 -6.00779,3.55816 0,0.1635 2.02406,1.92313 4.49792,3.91031 4.9295,3.95973 5.59491,4.54686 5.38781,4.75396 -0.0765,0.0765 -3.71267,-1.12449 -8.08045,-2.6688 l -7.94141,-2.80784 -3.0835,1.78504 c -1.69592,0.98177 -3.08349,1.8753 -3.08349,1.98562 0,0.11032 2.09966,2.20796 4.66592,4.66142 2.56626,2.45347 4.50103,4.49359 4.29948,4.53361 -0.20154,0.04 -3.5216,-1.23919 -7.3779,-2.8427 -3.85631,-1.60351 -7.20747,-2.91618 -7.44704,-2.91704 -0.23957,-7.9e-4 -2.79942,1.36419 -5.68855,3.03345 -2.88912,1.66926 -8.73467,5.03277 -12.99009,7.47448 -5.10154,2.92719 -7.7148,4.57063 -7.67157,4.82453 0.0737,0.433 5.11637,3.43549 5.7861,3.44516 0.23736,0.003 1.78517,-0.76704 3.43958,-1.71215 1.65442,-0.9451 3.21634,-1.71901 3.47094,-1.71979 0.2546,-7.9e-4 4.59435,2.37984 9.64388,5.29025 5.04953,2.91042 9.2815,5.29167 9.40439,5.29167 0.12289,0 1.59163,-0.79205 3.26386,-1.76011 z m 82.39683,-12.3202 c 4.58391,-2.63455 8.54273,-4.96801 8.7974,-5.18548 0.39026,-0.33326 0.46302,-0.8646 0.46302,-3.38148 0,-1.64235 -0.099,-3.04724 -0.21989,-3.12198 -0.12093,-0.0747 -2.58159,1.23282 -5.46812,2.9057 -2.88653,1.67287 -5.43672,3.00556 -5.66709,2.96153 -0.55967,-0.10698 -0.75483,-4.60123 -0.22952,-5.28537 0.1869,-0.24341 2.36389,-1.59937 4.83774,-3.01323 2.47386,-1.41387 4.70628,-2.7498 4.96094,-2.96874 0.38548,-0.33141 0.46302,-0.85644 0.46302,-3.13519 0,-1.50541 -0.10394,-2.73712 -0.23098,-2.73712 -0.12704,0 -2.28838,1.19585 -4.80298,2.65744 -2.5146,1.46159 -4.76214,2.62125 -4.99454,2.57703 -0.32348,-0.0616 -0.44115,-0.47289 -0.50191,-1.7545 -0.0463,-0.97618 0.0455,-1.8246 0.22027,-2.03513 0.1648,-0.19857 2.52223,-1.63423 5.23874,-3.19034 2.71651,-1.55612 5.14747,-3.00905 5.40213,-3.22874 0.38847,-0.33513 0.46302,-0.86598 0.46302,-3.29716 0,-2.65072 -0.0395,-2.88263 -0.46302,-2.72083 -0.75174,0.28719 -16.55983,9.43648 -17.06563,9.87712 -0.43036,0.37493 -0.46302,1.41948 -0.46302,14.81047 0,13.61151 0.0256,14.3974 0.46302,14.23159 0.25467,-0.0965 4.21349,-2.33103 8.7974,-4.96559 z m -129.351253,4.20977 c 4.615135,-1.57319 9.337163,-5.64298 11.308363,-9.74637 1.38062,-2.87402 1.89081,-4.94718 1.89081,-7.68345 0,-1.77692 -0.119,-2.45683 -0.59532,-3.40139 -1.13823,-2.25719 -3.01221,-2.5812 -8.057126,-1.39308 -3.474591,0.8183 -3.932661,0.72564 -3.887642,-0.78641 0.03582,-1.2032 0.937241,-2.447 2.263928,-3.12382 1.452182,-0.74085 2.102977,-0.58684 2.701859,0.6394 0.338008,0.69209 0.633209,0.97855 0.928762,0.90126 0.238294,-0.0623 1.652429,-0.91723 3.142519,-1.89981 2.48736,-1.64018 2.70914,-1.85486 2.70779,-2.62104 -0.004,-2.25109 -1.20144,-4.19068 -2.90174,-4.7001 -2.993728,-0.89694 -10.01286,3.42066 -12.950865,7.96632 -2.269053,3.51067 -3.073683,8.34608 -1.806858,10.85828 1.076463,2.13469 2.94689,2.554 7.02822,1.57556 1.209765,-0.29002 2.601997,-0.52731 3.09385,-0.52731 2.418149,0 2.171282,3.42741 -0.405747,5.63325 -1.472094,1.26006 -2.738995,1.5276 -3.523329,0.74405 -0.313828,-0.31351 -0.697862,-0.94674 -0.853408,-1.40717 -0.155549,-0.46043 -0.402699,-0.87711 -0.549228,-0.92595 -0.146529,-0.0488 -1.567076,0.78421 -3.156772,1.85123 l -2.890356,1.94003 0.02939,1.48638 c 0.05301,2.68119 2.048806,5.24415 4.067527,5.22343 0.366072,-0.004 1.452991,-0.27524 2.415376,-0.60329 z m 19.152293,-11.16652 c 1.45521,-0.84207 2.85419,-1.71042 3.10885,-1.92967 0.43039,-0.37053 0.46303,-1.41082 0.46303,-14.76179 0,-7.89974 -0.098,-14.42373 -0.21777,-14.49776 -0.11978,-0.074 -1.63782,0.67705 -3.37344,1.66905 l -3.15567,1.80363 -0.0687,14.38878 c -0.0378,7.91383 -0.009,14.54515 0.0643,14.73628 0.0732,0.19112 0.22316,0.29687 0.33333,0.235 0.11017,-0.0619 1.39093,-0.80145 2.84614,-1.64352 z m 127,-2.76356 1.5875,-0.95026 0.0714,-5.79969 c 0.0794,-6.4445 0.16141,-6.75568 1.78063,-6.75568 1.09599,0 1.33216,0.29206 3.42265,4.23261 0.96481,1.81862 1.89932,3.4517 2.07669,3.62908 0.25363,0.25362 1.05709,-0.10405 3.76158,-1.67446 1.89151,-1.09832 3.5369,-2.09104 3.65644,-2.20602 0.26617,-0.256 -2.95196,-6.74945 -3.90821,-7.88588 -0.37899,-0.45041 -1.04304,-0.89667 -1.47566,-0.99169 -0.43265,-0.095 -0.78661,-0.21499 -0.78661,-0.26659 0,-0.0516 0.63471,-0.93752 1.41044,-1.96871 3.11261,-4.13752 4.14719,-9.64832 2.43348,-12.96224 -0.51594,-0.99771 -1.1462,-1.33735 -2.48169,-1.33735 -1.49317,0 -2.75502,0.60529 -10.01313,4.80325 l -6.43035,3.71919 v 14.34781 c 0,7.89129 0.0777,14.42552 0.17269,14.5205 0.16819,0.16819 1.48398,-0.51557 4.7221,-2.45387 z m 1.89618,-18.97369 c -0.097,-0.097 -0.17639,-1.32871 -0.17639,-2.73711 0,-2.94034 -0.0578,-2.84638 2.66781,-4.3364 2.68561,-1.46817 3.68219,-1.19818 3.68219,0.99758 0,1.97071 -1.28582,3.68713 -4.00336,5.34399 -1.52211,0.92802 -1.86016,1.04203 -2.17025,0.73194 z m -55.76805,14.80155 1.42605,-0.90757 -1.3599,-1.37701 c -0.74795,-0.75735 -1.3599,-1.4536 -1.3599,-1.54721 0,-0.0936 1.67239,-1.13965 3.71643,-2.32452 l 3.71643,-2.15431 2.43578,0.81148 c 1.33969,0.44632 2.58758,0.81148 2.77311,0.81148 0.37134,0 5.78327,-3.05604 6.3925,-3.60975 0.20962,-0.19052 0.32617,-0.40135 0.25901,-0.46851 -0.18944,-0.18944 -32.56704,-9.68007 -33.02389,-9.68007 -0.5204,0 -7.11636,3.74307 -7.271,4.12614 -0.0978,0.24228 7.84076,9.46066 14.96762,17.38064 l 1.85362,2.05991 2.02404,-1.10656 c 1.11323,-0.60861 2.66578,-1.51497 3.4501,-2.01414 z m -8.66905,-11.02013 c -1.50459,-1.50973 -2.62456,-2.81361 -2.48881,-2.89751 0.13575,-0.0839 1.54751,0.29899 3.13723,0.85087 1.58973,0.55187 3.69409,1.27015 4.67636,1.59616 0.98226,0.32602 1.78365,0.73188 1.78086,0.90192 -0.006,0.38945 -3.23125,2.29353 -3.88446,2.29353 -0.26705,0 -1.71658,-1.23523 -3.22118,-2.74497 z m -53.36784,11.54738 3.06397,-1.78093 v -5.7597 c 0,-5.40692 0.0324,-5.79211 0.52917,-6.28886 0.66207,-0.66208 1.63366,-0.67989 2.21223,-0.0406 0.2432,0.26872 1.25718,2.02029 2.2533,3.89236 0.99612,1.87207 1.97868,3.50945 2.18345,3.63862 0.26015,0.1641 1.36731,-0.34131 3.67469,-1.67745 1.8163,-1.05177 3.46024,-2.05911 3.6532,-2.23854 0.28795,-0.26776 0.0184,-0.9898 -1.50404,-4.0289 -1.78534,-3.56388 -2.95921,-5.10177 -3.89418,-5.10177 -0.60881,0 -0.44263,-0.46116 0.67627,-1.87668 3.43999,-4.35191 4.46799,-10.96969 2.1374,-13.75966 -0.68739,-0.82289 -0.87353,-0.89896 -2.16951,-0.88662 -1.08847,0.0104 -1.84762,0.23377 -3.26969,0.96226 -2.88428,1.47754 -12.94189,7.3742 -13.15897,7.71495 -0.10691,0.16782 -0.19621,6.76427 -0.19844,14.65877 -0.003,12.22316 0.0517,14.35365 0.37156,14.35365 0.20659,0 1.7544,-0.80142 3.43959,-1.78093 z m 3.24036,-20.0913 c -0.097,-0.097 -0.17639,-1.2281 -0.17639,-2.51354 0,-2.67244 0.0697,-2.79214 2.40201,-4.12364 1.80569,-1.03086 2.77561,-1.28337 3.28997,-0.85649 0.46301,0.38427 0.52614,2.25595 0.1131,3.35336 -0.39411,1.0471 -1.99223,2.62332 -3.58833,3.53915 -1.39926,0.80287 -1.73865,0.90287 -2.04036,0.60116 z m 81.83482,6.31654 c 1.6682,-0.97599 3.03204,-1.89358 3.03077,-2.03911 -0.001,-0.14552 -2.07508,-1.4686 -4.60846,-2.94018 -2.53338,-1.47158 -4.65104,-2.8103 -4.70592,-2.97494 -0.14802,-0.44406 1.11173,-0.83175 2.70269,-0.83175 0.77114,0 4.28402,0.59612 7.8064,1.32471 l 6.40431,1.32472 3.48731,-2.01957 c 1.91802,-1.11077 3.53891,-2.06606 3.60197,-2.12288 0.34857,-0.31407 -0.93023,-0.69624 -6.06778,-1.81334 -4.3437,-0.94449 -6.29841,-1.24669 -8.26823,-1.27827 -1.41883,-0.0228 -2.57969,-0.11801 -2.57969,-0.21167 0,-0.0937 0.17786,-0.51133 0.39525,-0.92814 0.5284,-1.01316 0.50076,-1.57017 -0.14398,-2.90203 -0.54343,-1.12258 -1.37803,-1.88691 -3.22175,-2.95049 -3.11708,-1.79814 -7.8417,-2.18078 -11.24664,-0.91086 -2.73605,1.02046 -14.89925,8.01485 -14.81461,8.51907 0.0707,0.42134 24.1235,14.50503 24.7984,14.52029 0.21828,0.005 1.76176,-0.78957 3.42996,-1.76556 z m -14.01329,-12.16264 c -1.23693,-0.69145 -2.24896,-1.42853 -2.24896,-1.63795 0,-0.20942 0.9525,-0.89099 2.11666,-1.51459 1.67537,-0.89743 2.39248,-1.13476 3.43959,-1.13836 1.66305,-0.006 3.08667,0.68239 3.42403,1.65499 0.21535,0.62085 0.15447,0.83321 -0.39404,1.37442 -0.60777,0.59968 -3.6154,2.52317 -3.94047,2.52008 -0.0813,-8e-4 -1.15989,-0.56714 -2.39681,-1.25859 z m -46.38323,11.8477 c 5.51977,-1.94005 10.48605,-6.84237 12.22189,-12.06452 0.83985,-2.52663 1.13703,-4.90766 0.84154,-6.7425 -0.35016,-2.17431 -1.07948,-3.27886 -2.53102,-3.8332 -1.37611,-0.52555 -2.72134,-0.41436 -6.59646,0.5452 -1.40635,0.34824 -2.7254,0.56853 -2.93124,0.48954 -0.98246,-0.377 -0.64121,-2.41631 0.6039,-3.60893 1.6159,-1.54776 3.56939,-1.71971 3.91454,-0.34456 0.33824,1.34767 0.67705,1.2905 3.5734,-0.60299 1.5172,-0.99187 2.90218,-1.97725 3.07773,-2.18974 0.24991,-0.3025 0.24143,-0.72077 -0.0391,-1.92743 -0.99828,-4.29445 -3.82318,-4.73747 -9.40823,-1.47546 -5.22684,3.05279 -8.73035,8.57922 -8.7223,13.75855 0.003,1.88143 0.5759,3.48151 1.56061,4.35807 0.90529,0.80587 3.59642,0.85842 6.74156,0.13165 2.01287,-0.46514 2.70331,-0.53004 3.2053,-0.30132 1.87118,0.85257 0.59253,4.81211 -1.97734,6.12316 -1.83342,0.93535 -2.95289,0.61772 -3.46444,-0.98297 -0.17476,-0.54682 -0.40147,-1.08638 -0.50382,-1.19903 -0.18261,-0.201 -5.76692,3.30806 -6.17662,3.88127 -0.33976,0.47535 0.0642,2.83057 0.70692,4.12141 1.15038,2.31044 2.98463,2.88957 5.90315,1.8638 z m 88.99575,-16.2101 c 4.8428,-2.80128 8.84666,-5.21813 8.89749,-5.37078 0.10178,-0.30576 -4.89275,-3.29433 -5.50551,-3.29433 -0.2104,0 -2.84987,1.42875 -5.86547,3.175 -3.0156,1.74625 -5.6903,3.16627 -5.94379,3.15559 -0.68801,-0.029 -4.15211,-2.19103 -4.22496,-2.63692 -0.0409,-0.25056 1.5861,-1.32851 4.62861,-3.06656 2.58045,-1.47411 4.69173,-2.83814 4.69173,-3.03119 0,-0.38341 -3.9878,-2.86248 -4.63021,-2.87844 -0.21828,-0.005 -2.68753,1.30767 -5.48721,2.91797 l -5.09035,2.92783 -1.59038,-0.84767 c -0.87472,-0.46622 -1.59039,-0.99952 -1.59039,-1.18512 0,-0.18559 2.32172,-1.67349 5.15937,-3.30643 2.83766,-1.63295 5.15938,-3.10634 5.15938,-3.27421 0,-0.29628 -4.57293,-3.06235 -5.06274,-3.06235 -0.2425,0 -15.03953,8.45428 -16.99341,9.70917 -0.56662,0.36392 -0.9202,0.75638 -0.79375,0.88104 0.53379,0.52623 24.60934,14.27349 25.00309,14.27689 0.23837,0.002 4.39569,-2.28822 9.2385,-5.08949 z m -65.63127,2.78385 c 3.12888,-1.04306 7.47086,-4.45287 9.5215,-7.47736 3.08622,-4.55188 4.50507,-9.50926 4.4975,-15.71407 -0.008,-6.15194 -1.40864,-9.324806 -4.53094,-10.260269 -3.34953,-1.003543 -10.05102,2.854801 -13.5649,7.809919 -3.38528,4.77376 -4.84527,10.15665 -4.59121,16.92743 0.15208,4.05314 0.72942,5.98079 2.29004,7.64616 1.65693,1.76815 3.40174,2.06037 6.37801,1.06819 z m -0.46298,-8.15154 c -1.82945,-1.2814 -1.87183,-9.54766 -0.0671,-13.08525 0.73227,-1.43538 2.45131,-3.29619 3.41308,-3.69457 1.94809,-0.80693 3.49925,0.0671 4.0074,2.25809 0.63086,2.72009 0.11201,8.21786 -1.01629,10.76857 -1.36658,3.08937 -4.57332,4.98857 -6.33711,3.75316 z m 25.6486,-6.27697 c 6.55183,-3.02714 10.14618,-7.26253 11.90335,-14.02631 0.51766,-1.99263 0.57489,-3.031096 0.67769,-12.296694 0.0978,-8.813927 0.0611,-10.139891 -0.28392,-10.272299 -0.60327,-0.2315 -6.44122,3.240111 -6.62957,3.942363 -0.0849,0.316362 -0.156,4.920983 -0.1581,10.232493 l -0.004,9.657287 -0.7602,1.6069 c -0.81846,1.73006 -2.2223,3.09614 -3.67409,3.57528 -1.04504,0.34489 -2.04452,-0.1615 -2.45627,-1.24449 -0.14338,-0.37715 -0.25276,-4.72537 -0.25276,-10.048629 0,-7.44746 -0.0709,-9.41098 -0.34339,-9.51556 -0.313,-0.12011 -5.13568,2.49078 -6.1392,3.323625 -0.3786,0.314214 -0.41473,1.485294 -0.33806,10.957554 0.0759,9.37107 0.1401,10.74347 0.55178,11.78883 0.51936,1.31878 1.24747,2.20766 2.43241,2.96953 1.11214,0.71505 3.00678,0.49012 5.47417,-0.64988 z m 19.59059,-11.63868 c 1.88417,-1.07157 2.99041,-1.86925 3.14279,-2.26618 0.12934,-0.33689 0.23516,-2.03222 0.23516,-3.767396 v -3.15486 l 1.51603,-3.045624 c 0.83382,-1.675093 1.64809,-3.045624 1.80949,-3.045624 0.16141,0 1.21007,1.905 2.33037,4.233334 1.16778,2.427025 2.19209,4.233333 2.40059,4.233333 0.51459,0 7.84661,-4.26325 7.9944,-4.648391 0.0671,-0.174976 -1.67136,-3.210464 -3.86335,-6.74553 -2.192,-3.535064 -3.98544,-6.593293 -3.98544,-6.796064 0,-0.202769 1.66687,-3.61751 3.70416,-7.588311 2.03729,-3.970803 3.70417,-7.296042 3.70417,-7.389422 0,-0.424128 -0.87768,-0.0171 -4.55644,2.113063 -2.16834,1.255564 -4.10604,2.535486 -4.30599,2.844269 -0.19996,0.308785 -1.68754,3.418928 -3.30573,6.911428 -1.61819,3.4925 -3.05469,6.463109 -3.19221,6.601354 -0.15706,0.157877 -0.25155,-1.465665 -0.2541,-4.365625 -0.002,-2.539339 -0.10618,-4.77815 -0.231,-4.975138 -0.17736,-0.279884 -0.8559,0.0024 -3.10481,1.291421 -1.58281,0.907269 -3.0862,1.831033 -3.34087,2.052812 -0.43021,0.374661 -0.46302,1.409539 -0.46302,14.605627 0,7.811318 0.0794,14.281774 0.17639,14.378784 0.32521,0.32521 0.66861,0.18388 3.58941,-1.47726 z"
         style="fill:#89cff6;stroke-width:0.26458335" />
      <path
         id="path1250"
         d="M 42.216601,258.32809 V 240.8752 l 9.326563,-5.38119 c 5.129609,-2.95966 13.077031,-7.54068 17.660937,-10.18004 4.583907,-2.63936 10.656094,-6.1465 13.49375,-7.79365 2.837657,-1.64715 7.481094,-4.32805 10.318751,-5.95756 2.837656,-1.62951 11.707808,-6.74804 19.711458,-11.37451 8.00365,-4.62647 37.17396,-21.47295 64.82292,-37.43662 27.64896,-15.96368 59.26005,-34.21536 70.24687,-40.55929 10.98683,-6.34393 20.1844,-11.61424 20.43907,-11.7118 0.43809,-0.16782 0.46302,0.76257 0.46302,17.27619 v 17.45356 l -44.38386,25.6093 c -24.41112,14.08511 -44.50291,25.6699 -44.64844,25.74398 -0.14552,0.0741 0.6365,-0.80701 1.73781,-1.95799 3.09196,-3.23137 4.6184,-5.76779 5.88079,-9.77185 1.00274,-3.18047 1.32786,-6.00076 1.18311,-10.26272 -0.15514,-4.56757 -0.69096,-6.30606 -2.47789,-8.03959 -1.99831,-1.93858 -4.55865,-1.93399 -8.40766,0.0151 -4.04187,2.04673 -7.26101,5.37384 -9.50794,9.82682 -2.14086,4.24279 -2.93851,8.1422 -2.75955,13.4905 0.14105,4.21536 0.54636,5.86292 1.86886,7.59683 1.6689,2.18808 3.77466,2.797 6.65309,1.92388 0.7229,-0.21928 1.19915,-0.28428 1.05833,-0.14444 -0.31495,0.31276 1.92744,-0.98575 -71.42895,41.3629 -33.178747,19.15409 -60.533357,34.90491 -60.788018,35.00181 -0.438073,0.16669 -0.463021,-0.76418 -0.463021,-17.27671 z m 23.467619,3.36358 c 5.838737,-3.37832 8.20784,-5.15438 9.927672,-7.44259 1.579269,-2.10118 3.088034,-5.29346 3.84779,-8.14122 0.594678,-2.22901 0.677969,-3.08181 0.699342,-7.16058 0.01918,-3.65992 -0.07374,-4.9906 -0.443426,-6.35 -0.867199,-3.18886 -2.689831,-5.02708 -4.984449,-5.02708 -1.857761,0 -3.435209,0.70669 -9.628089,4.31336 l -5.55625,3.2359 -0.06873,14.54777 c -0.0378,8.00127 -0.01177,14.69659 0.05784,14.87849 0.06962,0.1819 0.243004,0.33073 0.385308,0.33073 0.142303,0 2.735651,-1.43315 5.762992,-3.18478 z m 1.138631,-15.69192 c 0,-8.0987 -0.138557,-7.51396 2.03998,-8.60914 1.493817,-0.75096 2.597933,-0.73152 3.113167,0.0548 0.713573,1.08906 1.046136,4.59711 0.713293,7.5242 -0.300995,2.64701 -0.754729,4.11649 -1.668002,5.40208 -0.491437,0.69178 -3.497649,2.86307 -3.964004,2.86307 -0.130474,0 -0.234434,-3.20839 -0.234434,-7.23503 z m 24.751115,0.76069 c 4.504233,-2.59386 8.516934,-4.94481 8.917114,-5.22432 l 0.72761,-0.5082 v -3.40596 c 0,-1.94907 -0.11141,-3.4748 -0.26044,-3.5669 -0.14324,-0.0885 -2.640335,1.21413 -5.549098,2.8948 -2.908763,1.68066 -5.41541,3.05576 -5.570326,3.05576 -0.184176,0 -0.255336,-0.83747 -0.205592,-2.41965 l 0.07608,-2.41965 5.159375,-2.98639 5.159371,-2.98638 0.0743,-3.19293 c 0.0666,-2.86475 0.0278,-3.19292 -0.378051,-3.19292 -0.248788,0 -2.510751,1.19062 -5.026581,2.64583 -2.51583,1.45521 -4.702871,2.64584 -4.860092,2.64584 -0.182602,0 -0.257402,-0.59572 -0.207084,-1.64927 l 0.07877,-1.64926 5.290465,-3.07819 c 2.909756,-1.69299 5.439833,-3.21771 5.622393,-3.38824 0.2304,-0.21523 0.33193,-1.27804 0.33193,-3.47464 0,-2.73779 -0.0577,-3.16457 -0.42765,-3.16457 -0.49108,0 -17.86077,9.96729 -18.155275,10.41808 -0.106913,0.16365 -0.19621,6.88963 -0.198437,14.94662 l -0.0041,14.64907 0.607885,-0.1162 c 0.334338,-0.0639 4.293167,-2.23846 8.797396,-4.83233 z m 22.063094,-12.7478 c 1.98993,-1.14947 3.60866,-2.26426 3.74581,-2.57969 0.32004,-0.73602 7.9129,-32.64748 7.9129,-33.25654 0,-0.26009 -0.0976,-0.53323 -0.21693,-0.60696 -0.25331,-0.15656 -6.05732,3.09493 -6.70401,3.75569 -0.29895,0.30544 -1.13515,3.88217 -2.62545,11.22996 -1.20274,5.92997 -2.26299,10.78177 -2.3561,10.78177 -0.0931,0 -0.62402,-1.69664 -1.17979,-3.77032 -0.55576,-2.07367 -1.39947,-5.19906 -1.8749,-6.94531 -0.47544,-1.74625 -1.00009,-3.68101 -1.16591,-4.29948 -0.22079,-0.82352 -0.43627,-1.12448 -0.80513,-1.12448 -0.60952,0 -6.64015,3.48601 -6.98994,4.04053 -0.17553,0.27828 0.89845,3.78415 3.67628,12.00078 2.15834,6.38421 4.02089,11.87554 4.13902,12.20296 0.11812,0.32743 0.37791,0.59532 0.57732,0.59532 0.1994,0 1.93948,-0.91091 3.86683,-2.02423 z m 22.01163,-12.69603 c 4.71063,-2.71187 8.77315,-5.11157 9.02781,-5.33267 0.39607,-0.34388 0.46302,-0.89337 0.46302,-3.80058 0,-3.05028 -0.0471,-3.39858 -0.45945,-3.39858 -0.2527,0 -2.73537,1.30969 -5.51704,2.91042 -2.78168,1.60073 -5.19877,2.91042 -5.37132,2.91042 -0.22443,0 -0.29206,-0.68289 -0.23764,-2.39944 l 0.0761,-2.39943 5.15938,-2.98636 5.15937,-2.98635 0.0746,-3.08594 c 0.0602,-2.49176 0.001,-3.1141 -0.30651,-3.23219 -0.2096,-0.0804 -2.45429,1.05295 -4.98819,2.51861 -2.53391,1.46566 -4.75315,2.66485 -4.93164,2.66485 -0.22984,0 -0.30155,-0.47752 -0.24577,-1.63642 l 0.0788,-1.63642 5.55625,-3.21955 5.55625,-3.21956 0.0743,-3.21898 c 0.0598,-2.58938 7.9e-4,-3.24723 -0.30209,-3.36343 -0.34573,-0.13267 -16.90304,9.22385 -17.96235,10.1505 -0.43052,0.3766 -0.46302,1.43303 -0.46302,15.04841 0,14.15304 0.0166,14.64336 0.49719,14.64336 0.27345,0 4.35134,-2.2188 9.06198,-4.93067 z m 20.58528,-11.89775 c 4.44831,-2.56167 8.2962,-4.84231 8.55086,-5.06809 0.39575,-0.35086 0.46302,-0.9055 0.46302,-3.81738 0,-2.76797 -0.0736,-3.43514 -0.39265,-3.55755 -0.22459,-0.0862 -2.36931,0.99317 -5.01097,2.52184 -2.54008,1.46989 -4.74328,2.67252 -4.89601,2.67252 -0.18813,0 -0.3,-3.43497 -0.34685,-10.64948 -0.069,-10.62637 -0.0703,-10.64944 -0.6248,-10.63273 -0.30561,0.009 -1.94272,0.82221 -3.63802,1.80665 l -3.08236,1.78991 v 14.79595 c 0,13.68636 0.0334,14.79595 0.44497,14.79595 0.24473,0 4.0845,-2.09592 8.53281,-4.65759 z m 38.28837,-22.09767 c 1.79809,-1.03644 3.29279,-1.89965 3.32154,-1.91823 0.0287,-0.0186 0.11805,-2.47037 0.19844,-5.44839 l 0.14616,-5.41458 2.38125,-1.33229 c 4.56618,-2.55475 7.58887,-6.26579 8.73565,-10.725 0.63563,-2.47165 0.47886,-7.69853 -0.26899,-8.96818 -1.13363,-1.92462 -2.99857,-2.45803 -5.2723,-1.508 -1.2095,0.50536 -11.99403,6.68516 -12.65322,7.2506 -0.43058,0.36935 -0.46302,1.42007 -0.46302,14.99645 0,8.0296 0.0794,14.67864 0.17639,14.77566 0.27177,0.27177 0.22949,0.29129 3.6981,-1.70804 z m 3.53385,-22.57838 v -2.76697 l 1.14263,-0.66963 c 1.66835,-0.97772 2.70481,-1.13206 3.0663,-0.4566 0.60036,1.12177 0.12039,3.39857 -0.97788,4.6387 -0.67472,0.76188 -2.46545,2.02147 -2.87388,2.02147 -0.27707,0 -0.35717,-0.62051 -0.35717,-2.76697 z m 23.4333,7.02448 c 4.64694,-2.67885 8.65735,-5.04878 8.91201,-5.26653 0.39639,-0.33894 0.46302,-0.88495 0.46302,-3.79448 0,-3.12605 -0.0391,-3.39858 -0.48777,-3.39858 -0.26827,0 -2.85788,1.36855 -5.75469,3.04122 l -5.26692,3.04122 -0.0766,-2.42219 c -0.0422,-1.3322 0.0174,-2.51232 0.13229,-2.62249 0.11491,-0.11016 2.23299,-1.35874 4.70684,-2.77463 2.47386,-1.41589 4.76581,-2.8157 5.09323,-3.11069 0.5431,-0.4893 0.59496,-0.77018 0.59127,-3.20221 -0.004,-2.73268 -0.20183,-3.51074 -0.82915,-3.26361 -0.19658,0.0774 -2.44102,1.34355 -4.98764,2.81358 l -4.63021,2.67277 -0.0804,-1.48863 c -0.0442,-0.81875 -0.0243,-1.63484 0.0442,-1.81354 0.0686,-0.1787 2.46755,-1.67035 5.33105,-3.31477 2.86351,-1.64442 5.37368,-3.15715 5.57816,-3.36163 0.2714,-0.27141 0.37178,-1.11086 0.37178,-3.10937 0,-2.77237 -0.12609,-3.57461 -0.56183,-3.57461 -0.4095,0 -17.80657,10.09219 -18.15744,10.53328 -0.45166,0.56779 -0.48423,28.89489 -0.0337,29.34537 0.16335,0.16334 0.49872,0.21692 0.74529,0.11906 0.24656,-0.0979 4.25034,-2.3697 8.89728,-5.04854 z m 15.02385,-8.68402 c 4.1906,-2.36576 3.87618,-1.68444 3.87618,-8.39942 v -5.70625 l 0.68201,-0.31074 c 0.4769,-0.21729 0.81507,-0.22875 1.12447,-0.0381 0.24337,0.14993 1.35503,1.98896 2.47038,4.08672 1.36937,2.57553 2.18561,3.8362 2.51354,3.88214 0.64196,0.0899 7.60569,-3.99362 7.7121,-4.52239 0.0455,-0.22602 -0.76322,-2.07812 -1.79716,-4.11577 -1.7109,-3.37188 -2.74497,-4.77849 -3.76211,-5.11754 -0.25339,-0.0845 -0.22116,-0.27085 0.13018,-0.75291 2.93933,-4.03313 3.75888,-6.24954 3.75888,-10.16567 0,-2.24071 -0.0915,-2.81717 -0.5979,-3.76485 -0.62492,-1.16959 -1.71527,-1.92369 -2.78141,-1.92369 -0.3451,0 -1.19287,0.19266 -1.88391,0.42812 -1.52551,0.51979 -14.44641,7.88207 -14.91126,8.49638 -0.25513,0.33715 -0.33073,3.71157 -0.33073,14.76218 0,7.87882 0.0794,14.4045 0.17639,14.50152 0.36962,0.36961 1.01667,0.13017 3.62035,-1.33971 z m 3.93275,-23.28543 0.0757,-2.57653 1.74956,-1.0067 c 2.21483,-1.27442 3.12854,-1.38218 3.46255,-0.40835 0.59184,1.72545 -1.01807,4.30925 -3.61208,5.79714 -0.73449,0.4213 -1.42905,0.76712 -1.54346,0.76848 -0.11441,0.001 -0.17395,-1.15695 -0.13229,-2.57404 z m -229.121493,65.79372 0.06804,-17.54343 113.106783,-65.30251 c 62.20872,-35.916376 113.25762,-65.302504 113.44199,-65.302504 0.26787,0 0.32154,3.516424 0.26718,17.503421 l -0.068,17.503423 -20.37292,11.76306 c -11.2051,6.46968 -32.27916,18.63609 -46.83125,27.03647 -14.55208,8.40037 -56.21404,32.45383 -92.582132,53.45212 -36.368093,20.99828 -66.342933,38.23601 -66.610755,38.30604 -0.469759,0.12285 -0.484544,-0.49185 -0.418901,-17.41609 z m 16.676312,6.87348 c 1.779516,-1.0318 3.333427,-1.96913 3.453135,-2.08296 0.215297,-0.20473 8.116724,-32.87448 8.116724,-33.55993 0,-0.51258 -0.330579,-0.37406 -3.644718,1.5272 -2.649596,1.52004 -3.012826,1.81596 -3.247607,2.64584 -0.145391,0.51391 -1.200843,5.5548 -2.345449,11.20198 -1.144606,5.64718 -2.15373,10.34023 -2.242497,10.42899 -0.08877,0.0888 -0.235699,0.0871 -0.326515,-0.004 -0.123769,-0.12377 -4.588261,-16.17684 -4.595929,-16.52568 -0.01027,-0.46685 -6.482588,3.17375 -6.940105,3.90372 -0.175903,0.28065 0.879425,3.73921 3.628324,11.89084 4.024754,11.93509 4.216897,12.44972 4.648216,12.44972 0.143515,0 1.716905,-0.8442 3.496421,-1.87599 z m 12.364913,-7.14288 c 1.527252,-0.88579 2.97075,-1.78415 3.207777,-1.99636 0.237024,-0.2122 0.572151,-1.12457 0.744725,-2.02748 0.707477,-3.70157 0.424386,-3.34011 4.397928,-5.61551 2.035733,-1.16575 3.680984,-1.9517 3.805592,-1.81797 0.120727,0.12956 0.412845,0.91412 0.64915,1.74345 0.236302,0.82934 0.538562,1.57521 0.671687,1.65748 0.29908,0.18485 6.371334,-3.32076 6.725994,-3.88302 0.349012,-0.55329 -7.664079,-24.28547 -8.199908,-24.28547 -0.691515,0 -7.029617,3.79399 -7.261932,4.34699 -0.333031,0.79275 -7.917317,32.39386 -7.917317,32.98873 0,0.27484 0.08988,0.4997 0.199742,0.4997 0.109857,0 1.44931,-0.72474 2.976562,-1.61054 z m 6.348696,-15.67487 c 0,-0.59828 1.842764,-9.51638 1.998583,-9.6722 0.08077,-0.0808 0.23101,-0.0107 0.333867,0.15573 0.374735,0.60634 1.964648,7.20408 1.824215,7.57004 -0.149807,0.39039 -3.361613,2.29851 -3.868926,2.29851 -0.158257,0 -0.287739,-0.15844 -0.287739,-0.35208 z m 18.615718,1.26619 c 1.378276,-0.80693 2.633223,-1.62049 2.788772,-1.80791 0.181885,-0.21916 0.307946,-2.97683 0.353227,-7.72714 0.04487,-4.7075 0.166367,-7.38355 0.334991,-7.37862 0.145521,0.004 1.895377,2.26645 3.888571,5.02709 1.993191,2.76064 3.779128,5.04823 3.96875,5.08354 0.189619,0.0353 1.65445,-0.69492 3.255179,-1.62274 l 2.910417,-1.68694 0.06843,-14.50133 c 0.03764,-7.97573 -0.02188,-14.58689 -0.132291,-14.69146 -0.110398,-0.10457 -1.510409,0.5671 -3.111138,1.49261 l -2.910417,1.68274 -0.132291,7.59815 c -0.08213,4.71693 -0.232622,7.62924 -0.396875,7.68017 -0.145521,0.0451 -1.924754,-2.237 -3.953854,-5.07137 -2.029098,-2.83437 -3.818157,-5.1534 -3.975688,-5.1534 -0.15753,0 -1.592985,0.75689 -3.189896,1.68198 l -2.903479,1.68199 -0.06839,14.58989 c -0.05911,12.60996 -0.01625,14.58989 0.31582,14.58989 0.211312,0 1.511885,-0.66022 2.89016,-1.46714 z m 26.658031,-15.28257 c 4.615135,-1.57319 9.337163,-5.64298 11.308363,-9.74637 1.38062,-2.87402 1.89081,-4.94718 1.89081,-7.68345 0,-1.77692 -0.119,-2.45683 -0.59532,-3.40139 -1.13823,-2.25719 -3.01221,-2.5812 -8.057126,-1.39308 -3.474591,0.8183 -3.932661,0.72564 -3.887642,-0.78641 0.03582,-1.2032 0.937241,-2.447 2.263928,-3.12382 1.452182,-0.74085 2.102977,-0.58684 2.701859,0.6394 0.338008,0.69209 0.633209,0.97855 0.928762,0.90126 0.238294,-0.0623 1.652429,-0.91723 3.142519,-1.89981 2.48736,-1.64018 2.70914,-1.85486 2.70779,-2.62104 -0.004,-2.25109 -1.20144,-4.19068 -2.90174,-4.7001 -2.993728,-0.89694 -10.01286,3.42066 -12.950865,7.96632 -2.269053,3.51067 -3.073683,8.34608 -1.806858,10.85828 1.076463,2.13469 2.94689,2.554 7.02822,1.57556 1.209765,-0.29002 2.601997,-0.52731 3.09385,-0.52731 2.418149,0 2.171282,3.42741 -0.405747,5.63325 -1.472094,1.26006 -2.738995,1.5276 -3.523329,0.74405 -0.313828,-0.31351 -0.697862,-0.94674 -0.853408,-1.40717 -0.155549,-0.46043 -0.402699,-0.87711 -0.549228,-0.92595 -0.146529,-0.0488 -1.567076,0.78421 -3.156772,1.85123 l -2.890356,1.94003 0.02939,1.48638 c 0.05301,2.68119 2.048806,5.24415 4.067527,5.22343 0.366072,-0.004 1.452991,-0.27524 2.415376,-0.60329 z m 19.152293,-11.16652 c 1.45521,-0.84207 2.85419,-1.71042 3.10885,-1.92967 0.43039,-0.37053 0.46303,-1.41082 0.46303,-14.76179 0,-7.89974 -0.098,-14.42373 -0.21777,-14.49776 -0.11978,-0.074 -1.63782,0.67705 -3.37344,1.66905 l -3.15567,1.80363 -0.0687,14.38878 c -0.0378,7.91383 -0.009,14.54515 0.0643,14.73628 0.0732,0.19112 0.22316,0.29687 0.33333,0.235 0.11017,-0.0619 1.39093,-0.80145 2.84614,-1.64352 z m 11.09124,-6.40845 3.06397,-1.78093 v -5.7597 c 0,-5.40692 0.0324,-5.79211 0.52917,-6.28886 0.66207,-0.66208 1.63366,-0.67989 2.21223,-0.0406 0.2432,0.26872 1.25718,2.02029 2.2533,3.89236 0.99612,1.87207 1.97868,3.50945 2.18345,3.63862 0.26015,0.1641 1.36731,-0.34131 3.67469,-1.67745 1.8163,-1.05177 3.46024,-2.05911 3.6532,-2.23854 0.28795,-0.26776 0.0184,-0.9898 -1.50404,-4.0289 -1.78534,-3.56388 -2.95921,-5.10177 -3.89418,-5.10177 -0.60881,0 -0.44263,-0.46116 0.67627,-1.87668 3.43999,-4.35191 4.46799,-10.96969 2.1374,-13.75966 -0.68739,-0.82289 -0.87353,-0.89896 -2.16951,-0.88662 -1.08847,0.0104 -1.84762,0.23377 -3.26969,0.96226 -2.88428,1.47754 -12.94189,7.3742 -13.15897,7.71495 -0.10691,0.16782 -0.19621,6.76427 -0.19844,14.65877 -0.003,12.22316 0.0517,14.35365 0.37156,14.35365 0.20659,0 1.7544,-0.80142 3.43959,-1.78093 z m 3.24036,-20.0913 c -0.097,-0.097 -0.17639,-1.2281 -0.17639,-2.51354 0,-2.67244 0.0697,-2.79214 2.40201,-4.12364 1.80569,-1.03086 2.77561,-1.28337 3.28997,-0.85649 0.46301,0.38427 0.52614,2.25595 0.1131,3.35336 -0.39411,1.0471 -1.99223,2.62332 -3.58833,3.53915 -1.39926,0.80287 -1.73865,0.90287 -2.04036,0.60116 z m 21.4383,6.0016 c 5.51977,-1.94005 10.48605,-6.84237 12.22189,-12.06452 0.83985,-2.52663 1.13703,-4.90766 0.84154,-6.7425 -0.35016,-2.17431 -1.07948,-3.27886 -2.53102,-3.8332 -1.37611,-0.52555 -2.72134,-0.41436 -6.59646,0.5452 -1.40635,0.34824 -2.7254,0.56853 -2.93124,0.48954 -0.98246,-0.377 -0.64121,-2.41631 0.6039,-3.60893 1.6159,-1.54776 3.56939,-1.71971 3.91454,-0.34456 0.33824,1.34767 0.67705,1.2905 3.5734,-0.60299 1.5172,-0.99187 2.90218,-1.97725 3.07773,-2.18974 0.24991,-0.3025 0.24143,-0.72077 -0.0391,-1.92743 -0.99828,-4.29445 -3.82318,-4.73747 -9.40823,-1.47546 -5.22684,3.05279 -8.73035,8.57922 -8.7223,13.75855 0.003,1.88143 0.5759,3.48151 1.56061,4.35807 0.90529,0.80587 3.59642,0.85842 6.74156,0.13165 2.01287,-0.46514 2.70331,-0.53004 3.2053,-0.30132 1.87118,0.85257 0.59253,4.81211 -1.97734,6.12316 -1.83342,0.93535 -2.95289,0.61772 -3.46444,-0.98297 -0.17476,-0.54682 -0.40147,-1.08638 -0.50382,-1.19903 -0.18261,-0.201 -5.76692,3.30806 -6.17662,3.88127 -0.33976,0.47535 0.0642,2.83057 0.70692,4.12141 1.15038,2.31044 2.98463,2.88957 5.90315,1.8638 z m 23.36448,-13.42625 c 3.12888,-1.04306 7.47086,-4.45287 9.5215,-7.47736 3.08622,-4.55188 4.50507,-9.50926 4.4975,-15.71407 -0.008,-6.15194 -1.40864,-9.324806 -4.53094,-10.260269 -3.34953,-1.003543 -10.05102,2.854801 -13.5649,7.809919 -3.38528,4.77376 -4.84527,10.15665 -4.59121,16.92743 0.15208,4.05314 0.72942,5.98079 2.29004,7.64616 1.65693,1.76815 3.40174,2.06037 6.37801,1.06819 z m -0.46298,-8.15154 c -1.82945,-1.2814 -1.87183,-9.54766 -0.0671,-13.08525 0.73227,-1.43538 2.45131,-3.29619 3.41308,-3.69457 1.94809,-0.80693 3.49925,0.0671 4.0074,2.25809 0.63086,2.72009 0.11201,8.21786 -1.01629,10.76857 -1.36658,3.08937 -4.57332,4.98857 -6.33711,3.75316 z m 25.6486,-6.27697 c 6.55183,-3.02714 10.14618,-7.26253 11.90335,-14.02631 0.51766,-1.99263 0.57489,-3.031096 0.67769,-12.296694 0.0978,-8.813927 0.0611,-10.139891 -0.28392,-10.272299 -0.60327,-0.2315 -6.44122,3.240111 -6.62957,3.942363 -0.0849,0.316362 -0.156,4.920983 -0.1581,10.232493 l -0.004,9.657287 -0.7602,1.6069 c -0.81846,1.73006 -2.2223,3.09614 -3.67409,3.57528 -1.04504,0.34489 -2.04452,-0.1615 -2.45627,-1.24449 -0.14338,-0.37715 -0.25276,-4.72537 -0.25276,-10.048629 0,-7.44746 -0.0709,-9.41098 -0.34339,-9.51556 -0.313,-0.12011 -5.13568,2.49078 -6.1392,3.323625 -0.3786,0.314214 -0.41473,1.485294 -0.33806,10.957554 0.0759,9.37107 0.1401,10.74347 0.55178,11.78883 0.51936,1.31878 1.24747,2.20766 2.43241,2.96953 1.11214,0.71505 3.00678,0.49012 5.47417,-0.64988 z m 19.59059,-11.63868 c 1.88417,-1.07157 2.99041,-1.86925 3.14279,-2.26618 0.12934,-0.33689 0.23516,-2.03222 0.23516,-3.767396 v -3.15486 l 1.51603,-3.045624 c 0.83382,-1.675093 1.64809,-3.045624 1.80949,-3.045624 0.16141,0 1.21007,1.905 2.33037,4.233334 1.16778,2.427025 2.19209,4.233333 2.40059,4.233333 0.51459,0 7.84661,-4.26325 7.9944,-4.648391 0.0671,-0.174976 -1.67136,-3.210464 -3.86335,-6.74553 -2.192,-3.535064 -3.98544,-6.593293 -3.98544,-6.796064 0,-0.202769 1.66687,-3.61751 3.70416,-7.588311 2.03729,-3.970803 3.70417,-7.296042 3.70417,-7.389422 0,-0.424128 -0.87768,-0.0171 -4.55644,2.113063 -2.16834,1.255564 -4.10604,2.535486 -4.30599,2.844269 -0.19996,0.308785 -1.68754,3.418928 -3.30573,6.911428 -1.61819,3.4925 -3.05469,6.463109 -3.19221,6.601354 -0.15706,0.157877 -0.25155,-1.465665 -0.2541,-4.365625 -0.002,-2.539339 -0.10618,-4.77815 -0.231,-4.975138 -0.17736,-0.279884 -0.8559,0.0024 -3.10481,1.291421 -1.58281,0.907269 -3.0862,1.831033 -3.34087,2.052812 -0.43021,0.374661 -0.46302,1.409539 -0.46302,14.605627 0,7.811318 0.0794,14.281774 0.17639,14.378784 0.32521,0.32521 0.66861,0.18388 3.58941,-1.47726 z m -41.18517,85.96666 c -1.65574,-1.65574 -1.56736,-9.31691 0.14623,-12.67582 0.71474,-1.40101 2.1837,-2.97178 3.25424,-3.47979 2.67325,-1.26854 3.85634,0.43037 3.85033,5.52906 -0.007,5.71184 -1.70707,9.53861 -4.81407,10.83451 -1.32368,0.55208 -1.70963,0.51914 -2.43673,-0.20796 z"
         style="fill:#5cd0cd;stroke-width:0.26458335" />
      <path
         id="path1248"
         d="m 11.324597,205.59156 0.06804,-17.54343 113.106783,-65.30251 c 62.20872,-35.916376 113.25762,-65.302504 113.44199,-65.302504 0.26787,0 0.32154,3.516424 0.26718,17.503421 l -0.068,17.503423 -20.37292,11.76306 c -11.2051,6.46968 -32.27916,18.63609 -46.83125,27.03647 -14.55208,8.40037 -56.21404,32.45383 -92.582132,53.45212 -36.368093,20.99828 -66.342933,38.23601 -66.610755,38.30604 -0.469759,0.12285 -0.484544,-0.49185 -0.418901,-17.41609 z m 16.676312,6.87348 c 1.779516,-1.0318 3.333427,-1.96913 3.453135,-2.08296 0.215297,-0.20473 8.116724,-32.87448 8.116724,-33.55993 0,-0.51258 -0.330579,-0.37406 -3.644718,1.5272 -2.649596,1.52004 -3.012826,1.81596 -3.247607,2.64584 -0.145391,0.51391 -1.200843,5.5548 -2.345449,11.20198 -1.144606,5.64718 -2.15373,10.34023 -2.242497,10.42899 -0.08877,0.0888 -0.235699,0.0871 -0.326515,-0.004 -0.123769,-0.12377 -4.588261,-16.17684 -4.595929,-16.52568 -0.01027,-0.46685 -6.482588,3.17375 -6.940105,3.90372 -0.175903,0.28065 0.879425,3.73921 3.628324,11.89084 4.024754,11.93509 4.216897,12.44972 4.648216,12.44972 0.143515,0 1.716905,-0.8442 3.496421,-1.87599 z m 12.364913,-7.14288 c 1.527252,-0.88579 2.97075,-1.78415 3.207777,-1.99636 0.237024,-0.2122 0.572151,-1.12457 0.744725,-2.02748 0.707477,-3.70157 0.424386,-3.34011 4.397928,-5.61551 2.035733,-1.16575 3.680984,-1.9517 3.805592,-1.81797 0.120727,0.12956 0.412845,0.91412 0.64915,1.74345 0.236302,0.82934 0.538562,1.57521 0.671687,1.65748 0.29908,0.18485 6.371334,-3.32076 6.725994,-3.88302 0.349012,-0.55329 -7.664079,-24.28547 -8.199908,-24.28547 -0.691515,0 -7.029617,3.79399 -7.261932,4.34699 -0.333031,0.79275 -7.917317,32.39386 -7.917317,32.98873 0,0.27484 0.08988,0.4997 0.199742,0.4997 0.109857,0 1.44931,-0.72474 2.976562,-1.61054 z m 6.348696,-15.67487 c 0,-0.59828 1.842764,-9.51638 1.998583,-9.6722 0.08077,-0.0808 0.23101,-0.0107 0.333867,0.15573 0.374735,0.60634 1.964648,7.20408 1.824215,7.57004 -0.149807,0.39039 -3.361613,2.29851 -3.868926,2.29851 -0.158257,0 -0.287739,-0.15844 -0.287739,-0.35208 z m 18.615718,1.26619 c 1.378276,-0.80693 2.633223,-1.62049 2.788772,-1.80791 0.181885,-0.21916 0.307946,-2.97683 0.353227,-7.72714 0.04487,-4.7075 0.166367,-7.38355 0.334991,-7.37862 0.145521,0.004 1.895377,2.26645 3.888571,5.02709 1.993191,2.76064 3.779128,5.04823 3.96875,5.08354 0.189619,0.0353 1.65445,-0.69492 3.255179,-1.62274 l 2.910417,-1.68694 0.06843,-14.50133 c 0.03764,-7.97573 -0.02188,-14.58689 -0.132291,-14.69146 -0.110398,-0.10457 -1.510409,0.5671 -3.111138,1.49261 l -2.910417,1.68274 -0.132291,7.59815 c -0.08213,4.71693 -0.232622,7.62924 -0.396875,7.68017 -0.145521,0.0451 -1.924754,-2.237 -3.953854,-5.07137 -2.029098,-2.83437 -3.818157,-5.1534 -3.975688,-5.1534 -0.15753,0 -1.592985,0.75689 -3.189896,1.68198 l -2.903479,1.68199 -0.06839,14.58989 c -0.05911,12.60996 -0.01625,14.58989 0.31582,14.58989 0.211312,0 1.511885,-0.66022 2.89016,-1.46714 z m 26.658031,-15.28257 c 4.615135,-1.57319 9.337163,-5.64298 11.308363,-9.74637 1.38062,-2.87402 1.89081,-4.94718 1.89081,-7.68345 0,-1.77692 -0.119,-2.45683 -0.59532,-3.40139 -1.13823,-2.25719 -3.01221,-2.5812 -8.057126,-1.39308 -3.474591,0.8183 -3.932661,0.72564 -3.887642,-0.78641 0.03582,-1.2032 0.937241,-2.447 2.263928,-3.12382 1.452182,-0.74085 2.102977,-0.58684 2.701859,0.6394 0.338008,0.69209 0.633209,0.97855 0.928762,0.90126 0.238294,-0.0623 1.652429,-0.91723 3.142519,-1.89981 2.48736,-1.64018 2.70914,-1.85486 2.70779,-2.62104 -0.004,-2.25109 -1.20144,-4.19068 -2.90174,-4.7001 -2.993728,-0.89694 -10.01286,3.42066 -12.950865,7.96632 -2.269053,3.51067 -3.073683,8.34608 -1.806858,10.85828 1.076463,2.13469 2.94689,2.554 7.02822,1.57556 1.209765,-0.29002 2.601997,-0.52731 3.09385,-0.52731 2.418149,0 2.171282,3.42741 -0.405747,5.63325 -1.472094,1.26006 -2.738995,1.5276 -3.523329,0.74405 -0.313828,-0.31351 -0.697862,-0.94674 -0.853408,-1.40717 -0.155549,-0.46043 -0.402699,-0.87711 -0.549228,-0.92595 -0.146529,-0.0488 -1.567076,0.78421 -3.156772,1.85123 l -2.890356,1.94003 0.02939,1.48638 c 0.05301,2.68119 2.048806,5.24415 4.067527,5.22343 0.366072,-0.004 1.452991,-0.27524 2.415376,-0.60329 z m 19.152293,-11.16652 c 1.45521,-0.84207 2.85419,-1.71042 3.10885,-1.92967 0.43039,-0.37053 0.46303,-1.41082 0.46303,-14.76179 0,-7.89974 -0.098,-14.42373 -0.21777,-14.49776 -0.11978,-0.074 -1.63782,0.67705 -3.37344,1.66905 l -3.15567,1.80363 -0.0687,14.38878 c -0.0378,7.91383 -0.009,14.54515 0.0643,14.73628 0.0732,0.19112 0.22316,0.29687 0.33333,0.235 0.11017,-0.0619 1.39093,-0.80145 2.84614,-1.64352 z m 11.09124,-6.40845 3.06397,-1.78093 v -5.7597 c 0,-5.40692 0.0324,-5.79211 0.52917,-6.28886 0.66207,-0.66208 1.63366,-0.67989 2.21223,-0.0406 0.2432,0.26872 1.25718,2.02029 2.2533,3.89236 0.99612,1.87207 1.97868,3.50945 2.18345,3.63862 0.26015,0.1641 1.36731,-0.34131 3.67469,-1.67745 1.8163,-1.05177 3.46024,-2.05911 3.6532,-2.23854 0.28795,-0.26776 0.0184,-0.9898 -1.50404,-4.0289 -1.78534,-3.56388 -2.95921,-5.10177 -3.89418,-5.10177 -0.60881,0 -0.44263,-0.46116 0.67627,-1.87668 3.43999,-4.35191 4.46799,-10.96969 2.1374,-13.75966 -0.68739,-0.82289 -0.87353,-0.89896 -2.16951,-0.88662 -1.08847,0.0104 -1.84762,0.23377 -3.26969,0.96226 -2.88428,1.47754 -12.94189,7.3742 -13.15897,7.71495 -0.10691,0.16782 -0.19621,6.76427 -0.19844,14.65877 -0.003,12.22316 0.0517,14.35365 0.37156,14.35365 0.20659,0 1.7544,-0.80142 3.43959,-1.78093 z m 3.24036,-20.0913 c -0.097,-0.097 -0.17639,-1.2281 -0.17639,-2.51354 0,-2.67244 0.0697,-2.79214 2.40201,-4.12364 1.80569,-1.03086 2.77561,-1.28337 3.28997,-0.85649 0.46301,0.38427 0.52614,2.25595 0.1131,3.35336 -0.39411,1.0471 -1.99223,2.62332 -3.58833,3.53915 -1.39926,0.80287 -1.73865,0.90287 -2.04036,0.60116 z m 21.4383,6.0016 c 5.51977,-1.94005 10.48605,-6.84237 12.22189,-12.06452 0.83985,-2.52663 1.13703,-4.90766 0.84154,-6.7425 -0.35016,-2.17431 -1.07948,-3.27886 -2.53102,-3.8332 -1.37611,-0.52555 -2.72134,-0.41436 -6.59646,0.5452 -1.40635,0.34824 -2.7254,0.56853 -2.93124,0.48954 -0.98246,-0.377 -0.64121,-2.41631 0.6039,-3.60893 1.6159,-1.54776 3.56939,-1.71971 3.91454,-0.34456 0.33824,1.34767 0.67705,1.2905 3.5734,-0.60299 1.5172,-0.99187 2.90218,-1.97725 3.07773,-2.18974 0.24991,-0.3025 0.24143,-0.72077 -0.0391,-1.92743 -0.99828,-4.29445 -3.82318,-4.73747 -9.40823,-1.47546 -5.22684,3.05279 -8.73035,8.57922 -8.7223,13.75855 0.003,1.88143 0.5759,3.48151 1.56061,4.35807 0.90529,0.80587 3.59642,0.85842 6.74156,0.13165 2.01287,-0.46514 2.70331,-0.53004 3.2053,-0.30132 1.87118,0.85257 0.59253,4.81211 -1.97734,6.12316 -1.83342,0.93535 -2.95289,0.61772 -3.46444,-0.98297 -0.17476,-0.54682 -0.40147,-1.08638 -0.50382,-1.19903 -0.18261,-0.201 -5.76692,3.30806 -6.17662,3.88127 -0.33976,0.47535 0.0642,2.83057 0.70692,4.12141 1.15038,2.31044 2.98463,2.88957 5.90315,1.8638 z m 23.36448,-13.42625 c 3.12888,-1.04306 7.47086,-4.45287 9.5215,-7.47736 3.08622,-4.55188 4.50507,-9.50926 4.4975,-15.71407 -0.008,-6.15194 -1.40864,-9.324806 -4.53094,-10.260269 -3.34953,-1.003543 -10.05102,2.854801 -13.5649,7.809919 -3.38528,4.77376 -4.84527,10.15665 -4.59121,16.92743 0.15208,4.05314 0.72942,5.98079 2.29004,7.64616 1.65693,1.76815 3.40174,2.06037 6.37801,1.06819 z m -0.46298,-8.15154 c -1.82945,-1.2814 -1.87183,-9.54766 -0.0671,-13.08525 0.73227,-1.43538 2.45131,-3.29619 3.41308,-3.69457 1.94809,-0.80693 3.49925,0.0671 4.0074,2.25809 0.63086,2.72009 0.11201,8.21786 -1.01629,10.76857 -1.36658,3.08937 -4.57332,4.98857 -6.33711,3.75316 z m 25.6486,-6.27697 c 6.55183,-3.02714 10.14618,-7.26253 11.90335,-14.02631 0.51766,-1.99263 0.57489,-3.031096 0.67769,-12.296694 0.0978,-8.813927 0.0611,-10.139891 -0.28392,-10.272299 -0.60327,-0.2315 -6.44122,3.240111 -6.62957,3.942363 -0.0849,0.316362 -0.156,4.920983 -0.1581,10.232493 l -0.004,9.657287 -0.7602,1.6069 c -0.81846,1.73006 -2.2223,3.09614 -3.67409,3.57528 -1.04504,0.34489 -2.04452,-0.1615 -2.45627,-1.24449 -0.14338,-0.37715 -0.25276,-4.72537 -0.25276,-10.048629 0,-7.44746 -0.0709,-9.41098 -0.34339,-9.51556 -0.313,-0.12011 -5.13568,2.49078 -6.1392,3.323625 -0.3786,0.314214 -0.41473,1.485294 -0.33806,10.957554 0.0759,9.37107 0.1401,10.74347 0.55178,11.78883 0.51936,1.31878 1.24747,2.20766 2.43241,2.96953 1.11214,0.71505 3.00678,0.49012 5.47417,-0.64988 z m 19.59059,-11.63868 c 1.88417,-1.07157 2.99041,-1.86925 3.14279,-2.26618 0.12934,-0.33689 0.23516,-2.03222 0.23516,-3.767396 v -3.15486 l 1.51603,-3.045624 c 0.83382,-1.675093 1.64809,-3.045624 1.80949,-3.045624 0.16141,0 1.21007,1.905 2.33037,4.233334 1.16778,2.427025 2.19209,4.233333 2.40059,4.233333 0.51459,0 7.84661,-4.26325 7.9944,-4.648391 0.0671,-0.174976 -1.67136,-3.210464 -3.86335,-6.74553 -2.192,-3.535064 -3.98544,-6.593293 -3.98544,-6.796064 0,-0.202769 1.66687,-3.61751 3.70416,-7.588311 2.03729,-3.970803 3.70417,-7.296042 3.70417,-7.389422 0,-0.424128 -0.87768,-0.0171 -4.55644,2.113063 -2.16834,1.255564 -4.10604,2.535486 -4.30599,2.844269 -0.19996,0.308785 -1.68754,3.418928 -3.30573,6.911428 -1.61819,3.4925 -3.05469,6.463109 -3.19221,6.601354 -0.15706,0.157877 -0.25155,-1.465665 -0.2541,-4.365625 -0.002,-2.539339 -0.10618,-4.77815 -0.231,-4.975138 -0.17736,-0.279884 -0.8559,0.0024 -3.10481,1.291421 -1.58281,0.907269 -3.0862,1.831033 -3.34087,2.052812 -0.43021,0.374661 -0.46302,1.409539 -0.46302,14.605627 0,7.811318 0.0794,14.281774 0.17639,14.378784 0.32521,0.32521 0.66861,0.18388 3.58941,-1.47726 z"
         style="fill:#ee7d6d;stroke-width:0.26458335" />
    </g>
  </g>
</svg>
