<svg width="2023" height="1567" viewBox="0 0 2023 1567" fill="none" xmlns="http://www.w3.org/2000/svg">
<g filter="url(#filter0_f_14_16)">
<path d="M1673.59 659.12C1673.59 848.495 1498.33 1002.01 1282.14 1002.01C1214.53 621.38 890.701 848.495 890.701 659.12C1243.06 488.212 1065.96 316.226 1282.14 316.226C1393.19 -44.4587 2029.67 104.883 1673.59 659.12Z" fill="#F4E1FD"/>
</g>
<g filter="url(#filter1_f_14_16)">
<path d="M829.906 587.772C565.635 726.331 780.278 1092.41 636.976 856.264C463.271 856.264 200.866 780.72 200.866 587.772C200.866 394.824 476.924 241.104 749.88 470.239C565.014 613.111 584.245 660.556 829.906 587.772Z" fill="#F7FFC9"/>
</g>
<g filter="url(#filter2_f_14_16)">
<path d="M1454 1150.92C1454 1345.97 1275.36 1434.33 1104.45 1434.33C470.73 1528.61 1236.08 1065.36 795 1081.16C795 886.117 933.546 728 1104.45 728C1275.36 728 1454 955.877 1454 1150.92Z" fill="#D6DCFF"/>
</g>
<g filter="url(#filter3_f_14_16)">
<path d="M1902.5 1150.82C1739.35 1165.37 1808.9 1243.01 1693.44 1243.01C1619.62 1150.82 1414.9 1251.64 1484.38 1150.82C1605.97 1135.72 1577.98 1058.62 1693.44 1058.62C1798.28 1097.98 1902.5 1099.9 1902.5 1150.82Z" fill="#DDFFA7"/>
</g>
<g filter="url(#filter4_f_14_16)">
<path d="M709.205 891.438C833.257 1039.83 613.354 975.952 478.921 1060.84C344.489 1145.72 346.436 1347.22 222.384 1198.83C98.332 1050.44 77.7509 912.964 212.183 828.08C403.121 869.455 585.154 743.048 709.205 891.438Z" fill="#FFE9D0"/>
</g>
<defs>
<filter id="filter0_f_14_16" x="770.701" y="0" width="1130" height="1122.01" filterUnits="userSpaceOnUse" color-interpolation-filters="sRGB">
<feFlood flood-opacity="0" result="BackgroundImageFix"/>
<feBlend mode="normal" in="SourceGraphic" in2="BackgroundImageFix" result="shape"/>
<feGaussianBlur stdDeviation="60" result="effect1_foregroundBlur_14_16"/>
</filter>
<filter id="filter1_f_14_16" x="80.8658" y="235.584" width="869.04" height="818.159" filterUnits="userSpaceOnUse" color-interpolation-filters="sRGB">
<feFlood flood-opacity="0" result="BackgroundImageFix"/>
<feBlend mode="normal" in="SourceGraphic" in2="BackgroundImageFix" result="shape"/>
<feGaussianBlur stdDeviation="60" result="effect1_foregroundBlur_14_16"/>
</filter>
<filter id="filter2_f_14_16" x="675" y="608" width="899" height="959" filterUnits="userSpaceOnUse" color-interpolation-filters="sRGB">
<feFlood flood-opacity="0" result="BackgroundImageFix"/>
<feBlend mode="normal" in="SourceGraphic" in2="BackgroundImageFix" result="shape"/>
<feGaussianBlur stdDeviation="60" result="effect1_foregroundBlur_14_16"/>
</filter>
<filter id="filter3_f_14_16" x="1350.21" y="938.623" width="672.291" height="424.386" filterUnits="userSpaceOnUse" color-interpolation-filters="sRGB">
<feFlood flood-opacity="0" result="BackgroundImageFix"/>
<feBlend mode="normal" in="SourceGraphic" in2="BackgroundImageFix" result="shape"/>
<feGaussianBlur stdDeviation="60" result="effect1_foregroundBlur_14_16"/>
</filter>
<filter id="filter4_f_14_16" x="0.00964355" y="696.945" width="865.826" height="674.884" filterUnits="userSpaceOnUse" color-interpolation-filters="sRGB">
<feFlood flood-opacity="0" result="BackgroundImageFix"/>
<feBlend mode="normal" in="SourceGraphic" in2="BackgroundImageFix" result="shape"/>
<feGaussianBlur stdDeviation="60" result="effect1_foregroundBlur_14_16"/>
</filter>
</defs>
</svg>
