<svg width="964" height="212" viewBox="0 0 964 212" fill="none" xmlns="http://www.w3.org/2000/svg">
<path d="M31.968 131.16C31.136 132.696 30.368 133.816 29.664 134.52C29.024 135.224 28.192 135.576 27.168 135.576C26.144 135.576 25.248 135.224 24.48 134.52C23.712 133.816 22.88 132.728 21.984 131.256C20.832 129.336 19.52 126.68 18.048 123.288C16.64 119.896 15.2 116.216 13.728 112.248C12.256 108.216 10.816 104.056 9.408 99.768C8 95.48 6.72 91.448 5.568 87.672C4.48 83.896 3.584 80.6 2.88 77.784C2.24 74.904 1.92 72.856 1.92 71.64C1.92 70.36 2.176 69.4 2.688 68.76C3.2 68.12 4.192 67.8 5.664 67.8C6.496 67.8 7.2 68.024 7.776 68.472C8.416 68.856 9.216 70.008 10.176 71.928C10.944 73.4 11.776 75.32 12.672 77.688C13.568 80.056 14.496 82.68 15.456 85.56C16.48 88.44 17.504 91.48 18.528 94.68C19.552 97.816 20.576 100.952 21.6 104.088C22.624 107.224 23.584 110.232 24.48 113.112C25.376 115.992 26.208 118.584 26.976 120.888C27.744 118.52 28.608 115.896 29.568 113.016C30.528 110.072 31.52 107.064 32.544 103.992C33.568 100.856 34.592 97.72 35.616 94.584C36.64 91.384 37.664 88.376 38.688 85.56C39.712 82.744 40.672 80.152 41.568 77.784C42.464 75.416 43.264 73.464 43.968 71.928C44.864 70.072 45.632 68.92 46.272 68.472C46.976 68.024 47.68 67.8 48.384 67.8C49.856 67.8 50.848 68.184 51.36 68.952C51.936 69.656 52.224 70.712 52.224 72.12C52.224 73.4 52.032 74.936 51.648 76.728C51.264 78.52 50.592 80.92 49.632 83.928C48.736 86.872 47.52 90.552 45.984 94.968C44.448 99.384 42.56 104.792 40.32 111.192C39.744 112.92 39.072 114.712 38.304 116.568C37.6 118.424 36.864 120.248 36.096 122.04C35.392 123.768 34.688 125.432 33.984 127.032C33.28 128.632 32.608 130.008 31.968 131.16ZM96.4973 135.384C95.4733 135.384 94.6413 135.224 94.0013 134.904C93.4253 134.52 92.9773 134.04 92.6573 133.464C92.3373 132.888 92.1133 132.216 91.9853 131.448C91.8573 130.616 91.7613 129.752 91.6973 128.856C90.0973 130.84 88.0173 132.504 85.4573 133.848C82.9613 135.192 79.7613 135.864 75.8573 135.864C73.3613 135.864 70.8013 135.512 68.1773 134.808C65.6173 134.04 63.2813 132.76 61.1693 130.968C59.0573 129.112 57.3293 126.648 55.9853 123.576C54.6413 120.504 53.9693 116.632 53.9693 111.96C53.9693 108.312 54.4173 104.888 55.3133 101.688C56.2093 98.488 57.5533 95.704 59.3453 93.336C61.2013 90.904 63.5053 88.984 66.2573 87.576C69.0093 86.168 72.2413 85.464 75.9532 85.464C79.2173 85.464 82.1293 86.072 84.6893 87.288C87.2493 88.44 89.5533 90.36 91.6013 93.048C91.6013 92.28 91.6333 91.512 91.6973 90.744C91.7613 89.912 91.9213 89.176 92.1773 88.536C92.4973 87.832 92.9773 87.288 93.6173 86.904C94.2573 86.456 95.1213 86.232 96.2093 86.232C97.1693 86.232 98.0653 86.616 98.8973 87.384C99.7293 88.152 100.209 89.816 100.337 92.376C100.529 95.768 100.657 98.808 100.721 101.496C100.849 104.184 100.913 106.968 100.913 109.848C100.913 113.368 100.881 116.6 100.817 119.544C100.753 122.488 100.593 125.624 100.337 128.952C100.209 130.424 100.017 131.608 99.7612 132.504C99.5693 133.336 99.3133 133.976 98.9933 134.424C98.6733 134.808 98.2893 135.064 97.8413 135.192C97.3933 135.32 96.9453 135.384 96.4973 135.384ZM91.3133 111C91.3133 107.672 90.8013 104.952 89.7773 102.84C88.8173 100.728 87.5693 99.096 86.0333 97.944C84.5613 96.728 82.9613 95.896 81.2333 95.448C79.5053 95 77.9053 94.776 76.4333 94.776C74.1293 94.776 72.1453 95.192 70.4813 96.024C68.8813 96.856 67.5693 98.008 66.5453 99.48C65.5213 100.888 64.7533 102.584 64.2413 104.568C63.7933 106.488 63.5693 108.6 63.5693 110.904C63.5693 116.536 64.7853 120.696 67.2173 123.384C69.7133 126.072 73.0733 127.416 77.2973 127.416C79.7933 127.416 81.9053 127 83.6333 126.168C85.4253 125.272 86.8653 124.088 87.9533 122.616C89.1053 121.144 89.9373 119.416 90.4493 117.432C91.0253 115.384 91.3133 113.24 91.3133 111ZM134.729 94.104C132.361 94.104 130.217 94.488 128.297 95.256C126.441 96.024 124.329 97.176 121.961 98.712C121.961 100.056 121.961 102.04 121.961 104.664C121.961 107.224 121.929 110.04 121.865 113.112C121.801 116.12 121.737 119.096 121.673 122.04C121.609 124.984 121.481 127.448 121.289 129.432C121.161 130.712 121.001 131.736 120.809 132.504C120.681 133.208 120.457 133.752 120.137 134.136C119.881 134.52 119.497 134.776 118.984 134.904C118.536 134.968 117.929 135 117.161 135C116.393 135 115.753 134.968 115.241 134.904C114.793 134.776 114.409 134.552 114.089 134.232C113.769 133.848 113.513 133.304 113.321 132.6C113.129 131.896 112.969 130.936 112.841 129.72C112.713 128.568 112.585 127.032 112.457 125.112C112.393 123.192 112.329 121.112 112.265 118.872C112.201 116.568 112.137 114.264 112.073 111.96C112.073 109.592 112.073 107.416 112.073 105.432C112.073 102.168 112.105 99.512 112.169 97.464C112.297 95.416 112.489 93.592 112.745 91.992C113.129 89.304 113.641 87.608 114.281 86.904C114.921 86.2 115.785 85.848 116.873 85.848C118.473 85.848 119.657 86.296 120.424 87.192C121.257 88.088 121.769 89.56 121.961 91.608C124.329 89.56 126.857 87.928 129.545 86.712C132.297 85.496 135.113 84.888 137.993 84.888C140.745 84.888 143.241 85.528 145.481 86.808C147.785 88.088 149.673 90.168 151.145 93.048C152.041 94.776 152.713 96.696 153.161 98.808C153.609 100.856 153.929 103.032 154.121 105.336C154.185 106.36 154.249 107.384 154.312 108.408C154.377 109.368 154.409 110.424 154.409 111.576C154.473 112.664 154.505 113.912 154.505 115.32C154.505 116.728 154.505 118.392 154.505 120.312C154.505 122.36 154.473 124.28 154.409 126.072C154.345 127.864 154.153 129.432 153.833 130.776C153.577 132.056 153.097 133.08 152.393 133.848C151.689 134.552 150.729 134.904 149.513 134.904C146.569 134.904 145.033 133.496 144.905 130.68C144.905 130.488 144.905 129.688 144.905 128.28C144.905 126.808 144.873 125.112 144.809 123.192C144.809 121.272 144.777 119.32 144.713 117.336C144.713 115.352 144.681 113.72 144.617 112.44C144.553 111.416 144.457 110.328 144.329 109.176C144.265 107.96 144.137 106.744 143.945 105.528C143.817 104.312 143.625 103.16 143.369 102.072C143.113 100.92 142.793 99.896 142.409 99C141.513 96.888 140.393 95.544 139.049 94.968C137.705 94.392 136.265 94.104 134.729 94.104ZM532.715 67.224C534.507 67.224 536.555 67.384 538.859 67.704C541.227 67.96 543.435 68.472 545.483 69.24C547.531 69.944 549.259 70.904 550.667 72.12C552.075 73.272 552.779 74.712 552.779 76.44C552.779 77.464 552.491 78.328 551.915 79.032C551.339 79.736 550.411 80.088 549.131 80.088C548.171 80.088 547.179 79.896 546.155 79.512C545.195 79.128 544.075 78.744 542.795 78.36C541.579 77.912 540.139 77.496 538.475 77.112C536.875 76.728 534.987 76.536 532.811 76.536C528.587 76.536 525.451 77.304 523.403 78.84C521.419 80.312 520.427 82.36 520.427 84.984C520.427 86.776 520.875 88.28 521.771 89.496C522.667 90.712 523.851 91.768 525.323 92.664C526.859 93.496 528.555 94.2 530.411 94.776C532.331 95.352 534.283 95.896 536.267 96.408C538.507 96.984 540.715 97.688 542.891 98.52C545.131 99.352 547.115 100.44 548.843 101.784C550.571 103.128 551.947 104.824 552.971 106.872C554.059 108.92 554.603 111.512 554.603 114.648C554.603 117.912 553.995 120.856 552.779 123.48C551.563 126.04 549.899 128.248 547.787 130.104C545.675 131.896 543.147 133.304 540.203 134.328C537.259 135.288 534.059 135.768 530.603 135.768C528.683 135.768 526.443 135.576 523.883 135.192C521.323 134.872 518.891 134.296 516.587 133.464C514.283 132.568 512.331 131.416 510.731 130.008C509.131 128.536 508.331 126.744 508.331 124.632C508.331 123.352 508.651 122.328 509.291 121.56C509.995 120.792 511.019 120.408 512.363 120.408C513.451 120.408 514.347 120.632 515.051 121.08C515.755 121.464 516.363 121.912 516.875 122.424C518.795 124.088 520.971 125.208 523.403 125.784C525.835 126.36 528.331 126.648 530.891 126.648C532.363 126.648 533.899 126.552 535.499 126.36C537.163 126.104 538.667 125.624 540.011 124.92C541.355 124.216 542.475 123.224 543.371 121.944C544.267 120.6 544.715 118.808 544.715 116.568C544.715 114.52 544.299 112.856 543.467 111.576C542.699 110.232 541.643 109.112 540.299 108.216C538.955 107.32 537.355 106.584 535.499 106.008C533.707 105.432 531.755 104.856 529.643 104.28C527.275 103.64 524.939 102.936 522.635 102.168C520.331 101.4 518.283 100.376 516.491 99.096C514.699 97.752 513.227 96.088 512.075 94.104C510.987 92.056 510.443 89.464 510.443 86.328C510.443 83.192 511.019 80.44 512.171 78.072C513.323 75.704 514.891 73.72 516.875 72.12C518.859 70.52 521.195 69.304 523.883 68.472C526.635 67.64 529.579 67.224 532.715 67.224ZM847.87 124.44C849.342 124.44 850.686 125.016 851.902 126.168C853.182 127.32 853.822 128.696 853.822 130.296C853.822 131.832 853.182 133.176 851.902 134.328C850.622 135.416 849.182 135.96 847.582 135.96C846.238 135.96 844.958 135.416 843.742 134.328C842.59 133.176 842.014 131.768 842.014 130.104C842.014 128.568 842.59 127.256 843.742 126.168C844.958 125.016 846.334 124.44 847.87 124.44Z" fill="#6552F5"/>
<path d="M187.782 86.328C191.43 86.328 194.694 86.904 197.574 88.056C200.454 89.144 202.886 90.712 204.87 92.76C206.918 94.808 208.486 97.304 209.574 100.248C210.662 103.192 211.206 106.488 211.206 110.136C211.206 114.168 210.566 117.784 209.286 120.984C208.07 124.184 206.342 126.904 204.102 129.144C201.926 131.384 199.302 133.112 196.23 134.328C193.222 135.544 189.926 136.152 186.342 136.152C182.438 136.152 178.982 135.48 175.974 134.136C173.03 132.792 170.534 130.968 168.486 128.664C166.502 126.36 164.998 123.704 163.974 120.696C162.95 117.688 162.438 114.52 162.438 111.192C162.438 107.544 163.014 104.216 164.166 101.208C165.382 98.136 167.078 95.512 169.254 93.336C171.494 91.096 174.182 89.368 177.318 88.152C180.454 86.936 183.942 86.328 187.782 86.328ZM186.726 127.32C189.35 127.32 191.59 126.872 193.446 125.976C195.302 125.016 196.806 123.768 197.958 122.232C199.174 120.696 200.038 118.968 200.55 117.048C201.126 115.064 201.414 113.016 201.414 110.904C201.414 108.728 201.126 106.712 200.55 104.856C200.038 102.936 199.206 101.272 198.054 99.864C196.966 98.456 195.526 97.368 193.734 96.6C192.006 95.768 189.926 95.352 187.494 95.352C184.998 95.352 182.822 95.768 180.966 96.6C179.11 97.432 177.542 98.584 176.262 100.056C175.046 101.464 174.118 103.16 173.478 105.144C172.838 107.128 172.518 109.272 172.518 111.576C172.518 116.248 173.702 120.056 176.07 123C178.502 125.88 182.054 127.32 186.726 127.32ZM228.242 91.512C228.37 93.176 228.402 95.192 228.338 97.56C228.338 99.928 228.37 102.424 228.434 105.048C228.562 107.608 228.786 110.2 229.106 112.824C229.426 115.384 229.97 117.688 230.738 119.736C231.57 121.784 232.69 123.448 234.098 124.728C235.57 126.008 237.458 126.648 239.762 126.648C242.066 126.648 243.922 126.008 245.33 124.728C246.802 123.448 247.922 121.784 248.69 119.736C249.522 117.688 250.098 115.384 250.418 112.824C250.738 110.2 250.93 107.608 250.994 105.048C251.122 102.424 251.154 99.928 251.09 97.56C251.09 95.192 251.154 93.176 251.282 91.512C251.538 87.544 253.17 85.56 256.178 85.56C257.33 85.56 258.226 85.88 258.866 86.52C259.506 87.16 259.954 88.056 260.21 89.208C260.53 90.36 260.722 91.736 260.786 93.336C260.85 94.936 260.882 96.728 260.882 98.712C260.882 102.808 260.658 107.064 260.21 111.48C259.826 115.832 258.898 119.832 257.426 123.48C256.018 127.128 253.906 130.136 251.09 132.504C248.274 134.872 244.498 136.056 239.762 136.056C235.026 136.056 231.25 134.872 228.434 132.504C225.618 130.136 223.474 127.128 222.002 123.48C220.594 119.832 219.666 115.832 219.218 111.48C218.834 107.064 218.642 102.808 218.642 98.712C218.642 96.728 218.674 94.936 218.738 93.336C218.802 91.736 218.962 90.36 219.218 89.208C219.538 88.056 220.018 87.16 220.658 86.52C221.298 85.88 222.194 85.56 223.346 85.56C226.354 85.56 227.986 87.544 228.242 91.512ZM282.383 148.824C282.383 150.04 282.351 151.192 282.287 152.28C282.223 153.432 281.999 154.456 281.615 155.352C281.295 156.248 280.783 156.952 280.079 157.464C279.439 158.04 278.511 158.328 277.295 158.328C275.887 158.328 274.703 157.816 273.743 156.792C272.847 155.832 272.335 154.104 272.207 151.608C272.143 150.008 272.047 148.056 271.919 145.752C271.791 143.448 271.663 141.016 271.535 138.456C271.471 135.896 271.375 133.336 271.247 130.776C271.183 128.216 271.151 125.848 271.151 123.672C271.151 116.184 271.663 110.008 272.687 105.144C273.775 100.28 275.375 96.408 277.487 93.528C279.599 90.648 282.191 88.632 285.263 87.48C288.399 86.328 292.015 85.752 296.111 85.752C299.375 85.752 302.447 86.264 305.327 87.288C308.207 88.248 310.703 89.784 312.815 91.896C314.991 93.944 316.719 96.632 317.999 99.96C319.279 103.224 319.919 107.16 319.919 111.768C319.919 115.608 319.247 119 317.903 121.944C316.623 124.888 314.831 127.384 312.527 129.432C310.223 131.416 307.503 132.952 304.367 134.04C301.295 135.064 297.999 135.576 294.479 135.576C291.471 135.576 288.751 134.968 286.319 133.752C283.951 132.472 282.255 131.096 281.231 129.624C281.551 133.208 281.807 136.536 281.999 139.608C282.255 142.68 282.383 145.752 282.383 148.824ZM295.631 95.352C293.391 95.352 291.439 95.736 289.775 96.504C288.175 97.272 286.863 98.328 285.839 99.672C284.815 101.016 284.047 102.616 283.535 104.472C283.087 106.328 282.863 108.344 282.863 110.52C282.863 112.632 283.055 114.648 283.439 116.568C283.887 118.424 284.591 120.056 285.551 121.464C286.511 122.872 287.791 123.992 289.391 124.824C290.991 125.656 292.943 126.072 295.247 126.072C297.039 126.072 298.767 125.848 300.431 125.4C302.095 124.888 303.567 124.056 304.847 122.904C306.191 121.752 307.247 120.216 308.015 118.296C308.847 116.376 309.263 113.976 309.263 111.096C309.263 108.152 308.847 105.688 308.015 103.704C307.247 101.656 306.191 100.024 304.847 98.808C303.567 97.528 302.095 96.632 300.431 96.12C298.831 95.608 297.231 95.352 295.631 95.352ZM350.914 95.544C348.546 95.544 346.402 95.896 344.482 96.6C342.626 97.304 340.514 98.264 338.146 99.48C338.146 99.544 338.146 100.152 338.146 101.304C338.146 102.456 338.114 103.928 338.05 105.72C338.05 107.512 338.018 109.528 337.954 111.768C337.954 113.944 337.922 116.152 337.858 118.392C337.858 120.568 337.794 122.648 337.666 124.632C337.602 126.616 337.538 128.28 337.474 129.624C337.346 130.968 337.186 132.024 336.994 132.792C336.866 133.56 336.674 134.136 336.418 134.52C336.226 134.84 335.938 135.032 335.554 135.096C335.17 135.16 334.754 135.192 334.306 135.192C333.218 135.192 332.354 135.128 331.714 135C331.138 134.936 330.658 134.744 330.274 134.424C329.89 134.04 329.602 133.496 329.41 132.792C329.282 132.088 329.154 131.128 329.026 129.912C328.898 128.696 328.77 127.032 328.642 124.92C328.578 122.744 328.514 120.344 328.45 117.72C328.386 115.032 328.322 112.184 328.258 109.176C328.258 106.168 328.258 103.192 328.258 100.248C328.258 97.304 328.258 94.2 328.258 90.936C328.322 87.608 328.386 84.44 328.45 81.432C328.514 78.36 328.578 75.64 328.642 73.272C328.706 70.84 328.802 69.048 328.93 67.896C329.058 66.232 329.346 64.792 329.794 63.576C330.306 62.36 331.394 61.752 333.058 61.752C334.338 61.752 335.362 62.2 336.13 63.096C336.962 63.992 337.442 65.688 337.57 68.184C337.698 70.424 337.794 73.56 337.858 77.592C337.986 81.56 338.082 86.04 338.146 91.032C339.042 90.328 340.13 89.688 341.41 89.112C342.69 88.472 344.034 87.96 345.442 87.576C346.85 87.128 348.29 86.776 349.762 86.52C351.234 86.264 352.61 86.136 353.89 86.136C356.962 86.136 359.618 86.872 361.858 88.344C364.162 89.752 365.986 91.8 367.33 94.488C368.226 96.216 368.898 98.136 369.346 100.248C369.794 102.296 370.114 104.472 370.306 106.776C370.37 107.8 370.434 108.824 370.498 109.848C370.562 110.808 370.594 111.864 370.594 113.016C370.658 114.104 370.69 115.352 370.69 116.76C370.69 118.168 370.69 119.832 370.69 121.752C370.69 123.672 370.658 125.464 370.594 127.128C370.53 128.728 370.338 130.136 370.018 131.352C369.762 132.504 369.314 133.432 368.674 134.136C368.034 134.776 367.138 135.096 365.986 135.096C364.322 135.096 363.074 134.584 362.242 133.56C361.474 132.472 361.09 131.192 361.09 129.72C361.09 129.656 361.09 128.984 361.09 127.704C361.09 126.424 361.058 124.952 360.994 123.288C360.994 121.56 360.962 119.832 360.898 118.104C360.898 116.376 360.866 114.968 360.802 113.88C360.738 112.856 360.642 111.768 360.514 110.616C360.45 109.4 360.322 108.184 360.13 106.968C360.002 105.752 359.81 104.6 359.554 103.512C359.298 102.36 358.978 101.336 358.594 100.44C357.698 98.328 356.578 96.984 355.234 96.408C353.89 95.832 352.45 95.544 350.914 95.544ZM403.876 86.328C407.524 86.328 410.788 86.904 413.668 88.056C416.548 89.144 418.98 90.712 420.964 92.76C423.012 94.808 424.58 97.304 425.668 100.248C426.756 103.192 427.3 106.488 427.3 110.136C427.3 114.168 426.66 117.784 425.38 120.984C424.164 124.184 422.436 126.904 420.196 129.144C418.02 131.384 415.396 133.112 412.324 134.328C409.316 135.544 406.02 136.152 402.436 136.152C398.532 136.152 395.076 135.48 392.068 134.136C389.124 132.792 386.628 130.968 384.58 128.664C382.596 126.36 381.092 123.704 380.068 120.696C379.044 117.688 378.532 114.52 378.532 111.192C378.532 107.544 379.108 104.216 380.26 101.208C381.476 98.136 383.172 95.512 385.348 93.336C387.588 91.096 390.276 89.368 393.412 88.152C396.548 86.936 400.036 86.328 403.876 86.328ZM402.82 127.32C405.444 127.32 407.684 126.872 409.54 125.976C411.396 125.016 412.9 123.768 414.052 122.232C415.268 120.696 416.132 118.968 416.644 117.048C417.22 115.064 417.508 113.016 417.508 110.904C417.508 108.728 417.22 106.712 416.644 104.856C416.132 102.936 415.3 101.272 414.148 99.864C413.06 98.456 411.62 97.368 409.828 96.6C408.1 95.768 406.02 95.352 403.588 95.352C401.092 95.352 398.916 95.768 397.06 96.6C395.204 97.432 393.636 98.584 392.356 100.056C391.14 101.464 390.212 103.16 389.572 105.144C388.932 107.128 388.612 109.272 388.612 111.576C388.612 116.248 389.796 120.056 392.164 123C394.596 125.88 398.148 127.32 402.82 127.32ZM458.447 94.104C456.079 94.104 453.935 94.488 452.015 95.256C450.159 96.024 448.047 97.176 445.679 98.712C445.679 100.056 445.679 102.04 445.679 104.664C445.679 107.224 445.647 110.04 445.583 113.112C445.519 116.12 445.455 119.096 445.391 122.04C445.327 124.984 445.199 127.448 445.007 129.432C444.879 130.712 444.719 131.736 444.527 132.504C444.399 133.208 444.175 133.752 443.855 134.136C443.599 134.52 443.215 134.776 442.703 134.904C442.255 134.968 441.647 135 440.879 135C440.111 135 439.471 134.968 438.959 134.904C438.511 134.776 438.127 134.552 437.807 134.232C437.487 133.848 437.231 133.304 437.039 132.6C436.847 131.896 436.687 130.936 436.559 129.72C436.431 128.568 436.303 127.032 436.175 125.112C436.111 123.192 436.047 121.112 435.983 118.872C435.919 116.568 435.855 114.264 435.791 111.96C435.791 109.592 435.791 107.416 435.791 105.432C435.791 102.168 435.823 99.512 435.887 97.464C436.015 95.416 436.207 93.592 436.463 91.992C436.847 89.304 437.359 87.608 437.999 86.904C438.639 86.2 439.503 85.848 440.591 85.848C442.191 85.848 443.375 86.296 444.143 87.192C444.975 88.088 445.487 89.56 445.679 91.608C448.047 89.56 450.575 87.928 453.263 86.712C456.015 85.496 458.831 84.888 461.711 84.888C464.463 84.888 466.959 85.528 469.199 86.808C471.503 88.088 473.391 90.168 474.863 93.048C475.759 94.776 476.431 96.696 476.879 98.808C477.327 100.856 477.647 103.032 477.839 105.336C477.903 106.36 477.967 107.384 478.031 108.408C478.095 109.368 478.127 110.424 478.127 111.576C478.191 112.664 478.223 113.912 478.223 115.32C478.223 116.728 478.223 118.392 478.223 120.312C478.223 122.36 478.191 124.28 478.127 126.072C478.063 127.864 477.871 129.432 477.551 130.776C477.295 132.056 476.815 133.08 476.111 133.848C475.407 134.552 474.447 134.904 473.231 134.904C470.287 134.904 468.751 133.496 468.623 130.68C468.623 130.488 468.623 129.688 468.623 128.28C468.623 126.808 468.591 125.112 468.527 123.192C468.527 121.272 468.495 119.32 468.431 117.336C468.431 115.352 468.399 113.72 468.335 112.44C468.271 111.416 468.175 110.328 468.047 109.176C467.983 107.96 467.855 106.744 467.663 105.528C467.535 104.312 467.343 103.16 467.087 102.072C466.831 100.92 466.511 99.896 466.127 99C465.231 96.888 464.111 95.544 462.767 94.968C461.423 94.392 459.983 94.104 458.447 94.104ZM565.934 129.048C565.806 126.68 565.678 123.992 565.55 120.984C565.486 117.912 565.454 114.552 565.454 110.904C565.454 106.36 565.486 102.488 565.55 99.288C565.614 96.024 565.774 93.368 566.03 91.32C566.35 89.208 566.83 87.672 567.47 86.712C568.11 85.688 569.006 85.176 570.158 85.176C571.246 85.176 572.206 85.56 573.038 86.328C573.87 87.096 574.35 88.76 574.478 91.32C574.862 98.04 575.054 104.536 575.054 110.808C575.054 114.008 574.99 117.016 574.862 119.832C574.734 122.584 574.606 125.624 574.478 128.952C574.414 130.488 574.254 131.672 573.998 132.504C573.806 133.336 573.518 133.976 573.134 134.424C572.75 134.872 572.302 135.128 571.79 135.192C571.342 135.32 570.798 135.384 570.158 135.384C569.006 135.384 568.046 135 567.278 134.232C566.51 133.4 566.062 131.672 565.934 129.048ZM570.254 67.8C571.726 67.8 573.07 68.376 574.286 69.528C575.566 70.68 576.206 72.056 576.206 73.656C576.206 75.192 575.566 76.536 574.286 77.688C573.006 78.776 571.566 79.32 569.966 79.32C568.622 79.32 567.342 78.776 566.126 77.688C564.974 76.536 564.398 75.128 564.398 73.464C564.398 71.928 564.974 70.616 566.126 69.528C567.342 68.376 568.718 67.8 570.254 67.8ZM587.398 129.144C587.143 126.904 586.983 124.184 586.919 120.984C586.855 117.784 586.823 113.912 586.823 109.368C586.823 104.888 586.823 101.272 586.823 98.52C586.887 95.768 587.079 93.336 587.398 91.224C587.719 88.6 588.199 86.904 588.839 86.136C589.543 85.368 590.439 84.984 591.527 84.984C592.295 84.984 592.967 85.048 593.543 85.176C594.183 85.304 594.727 85.592 595.174 86.04C595.687 86.424 596.071 87 596.327 87.768C596.583 88.536 596.711 89.592 596.711 90.936C596.711 91.192 596.743 91.448 596.807 91.704C596.807 91.96 596.807 92.248 596.807 92.568C596.871 92.824 596.903 93.144 596.903 93.528C598.631 91.352 600.583 89.496 602.759 87.96C604.999 86.424 607.527 85.656 610.343 85.656C614.119 85.656 616.007 87.224 616.007 90.36C616.007 91.512 615.751 92.472 615.239 93.24C614.791 94.008 614.119 94.648 613.223 95.16C612.391 95.608 611.399 95.96 610.247 96.216C609.159 96.472 607.943 96.728 606.599 96.984C604.551 97.368 602.631 98.104 600.839 99.192C599.047 100.216 597.831 101.528 597.191 103.128C597.191 104.344 597.191 105.24 597.191 105.816C597.255 106.392 597.287 106.872 597.287 107.256C597.351 107.64 597.383 108.056 597.383 108.504C597.383 108.952 597.383 109.656 597.383 110.616C597.383 113.88 597.319 116.952 597.191 119.832C597.063 122.648 596.935 125.72 596.807 129.048C596.743 130.584 596.551 131.768 596.231 132.6C595.975 133.432 595.623 134.072 595.174 134.52C594.791 134.968 594.343 135.224 593.831 135.288C593.319 135.416 592.807 135.48 592.295 135.48C590.503 135.48 589.287 135.096 588.647 134.328C588.071 133.496 587.655 131.768 587.398 129.144ZM623.778 129.048C623.65 126.68 623.522 123.992 623.394 120.984C623.33 117.912 623.298 114.552 623.298 110.904C623.298 106.36 623.33 102.488 623.394 99.288C623.458 96.024 623.618 93.368 623.874 91.32C624.194 89.208 624.674 87.672 625.314 86.712C625.954 85.688 626.85 85.176 628.002 85.176C629.09 85.176 630.05 85.56 630.882 86.328C631.714 87.096 632.194 88.76 632.322 91.32C632.706 98.04 632.898 104.536 632.898 110.808C632.898 114.008 632.834 117.016 632.706 119.832C632.578 122.584 632.45 125.624 632.322 128.952C632.258 130.488 632.098 131.672 631.842 132.504C631.65 133.336 631.362 133.976 630.978 134.424C630.594 134.872 630.146 135.128 629.634 135.192C629.186 135.32 628.642 135.384 628.002 135.384C626.85 135.384 625.89 135 625.122 134.232C624.354 133.4 623.906 131.672 623.778 129.048ZM628.098 67.8C629.57 67.8 630.914 68.376 632.13 69.528C633.41 70.68 634.05 72.056 634.05 73.656C634.05 75.192 633.41 76.536 632.13 77.688C630.85 78.776 629.41 79.32 627.81 79.32C626.466 79.32 625.186 78.776 623.97 77.688C622.818 76.536 622.242 75.128 622.242 73.464C622.242 71.928 622.818 70.616 623.97 69.528C625.186 68.376 626.562 67.8 628.098 67.8ZM661.658 84.888C663.002 84.888 664.698 85.016 666.746 85.272C668.794 85.464 670.746 85.88 672.602 86.52C674.458 87.096 676.058 87.928 677.402 89.016C678.746 90.104 679.418 91.48 679.418 93.144C679.418 94.104 679.13 94.936 678.554 95.64C678.042 96.344 677.21 96.696 676.058 96.696C675.226 96.696 674.266 96.568 673.178 96.312C672.154 96.056 671.002 95.768 669.722 95.448C668.506 95.064 667.162 94.744 665.69 94.488C664.282 94.232 662.778 94.104 661.178 94.104C658.49 94.104 656.282 94.52 654.554 95.352C652.89 96.184 652.058 97.496 652.058 99.288C652.058 100.312 652.346 101.176 652.922 101.88C653.562 102.584 654.394 103.224 655.418 103.8C656.506 104.312 657.754 104.76 659.162 105.144C660.634 105.528 662.17 105.912 663.77 106.296C665.754 106.808 667.706 107.384 669.626 108.024C671.61 108.664 673.37 109.56 674.906 110.712C676.442 111.8 677.69 113.208 678.65 114.936C679.61 116.6 680.09 118.68 680.09 121.176C680.09 125.912 678.298 129.688 674.714 132.504C671.13 135.256 665.85 136.632 658.874 136.632C657.338 136.632 655.514 136.504 653.402 136.248C651.29 136.056 649.306 135.64 647.45 135C645.594 134.424 643.994 133.592 642.65 132.504C641.37 131.352 640.73 129.848 640.73 127.992C640.73 126.712 641.018 125.752 641.594 125.112C642.234 124.408 643.002 124.056 643.898 124.056C644.602 124.056 645.338 124.28 646.106 124.728C646.874 125.176 647.802 125.656 648.89 126.168C649.978 126.68 651.29 127.16 652.826 127.608C654.362 128.056 656.25 128.28 658.49 128.28C659.322 128.28 660.41 128.248 661.754 128.184C663.098 128.056 664.41 127.768 665.69 127.32C667.034 126.872 668.154 126.264 669.05 125.496C670.01 124.664 670.49 123.512 670.49 122.04C670.49 120.888 670.17 119.928 669.53 119.16C668.89 118.328 668.026 117.624 666.938 117.048C665.85 116.472 664.57 115.992 663.098 115.608C661.69 115.16 660.186 114.712 658.586 114.264C656.73 113.752 654.842 113.176 652.922 112.536C651.066 111.896 649.37 111.064 647.834 110.04C646.298 109.016 645.05 107.736 644.09 106.2C643.13 104.6 642.65 102.648 642.65 100.344C642.65 98.168 643.098 96.152 643.994 94.296C644.89 92.376 646.17 90.712 647.834 89.304C649.498 87.896 651.482 86.808 653.786 86.04C656.154 85.272 658.778 84.888 661.658 84.888ZM711.095 86.328C714.743 86.328 718.007 86.904 720.887 88.056C723.767 89.144 726.199 90.712 728.183 92.76C730.231 94.808 731.799 97.304 732.887 100.248C733.975 103.192 734.519 106.488 734.519 110.136C734.519 114.168 733.879 117.784 732.599 120.984C731.383 124.184 729.655 126.904 727.415 129.144C725.239 131.384 722.615 133.112 719.543 134.328C716.535 135.544 713.239 136.152 709.655 136.152C705.751 136.152 702.295 135.48 699.287 134.136C696.343 132.792 693.847 130.968 691.799 128.664C689.815 126.36 688.311 123.704 687.287 120.696C686.263 117.688 685.751 114.52 685.751 111.192C685.751 107.544 686.327 104.216 687.479 101.208C688.695 98.136 690.391 95.512 692.567 93.336C694.807 91.096 697.495 89.368 700.631 88.152C703.767 86.936 707.255 86.328 711.095 86.328ZM710.039 127.32C712.663 127.32 714.903 126.872 716.759 125.976C718.615 125.016 720.119 123.768 721.271 122.232C722.487 120.696 723.351 118.968 723.863 117.048C724.439 115.064 724.727 113.016 724.727 110.904C724.727 108.728 724.439 106.712 723.863 104.856C723.351 102.936 722.519 101.272 721.367 99.864C720.279 98.456 718.839 97.368 717.047 96.6C715.319 95.768 713.239 95.352 710.807 95.352C708.311 95.352 706.135 95.768 704.279 96.6C702.423 97.432 700.855 98.584 699.575 100.056C698.359 101.464 697.431 103.16 696.791 105.144C696.151 107.128 695.831 109.272 695.831 111.576C695.831 116.248 697.015 120.056 699.383 123C701.815 125.88 705.367 127.32 710.039 127.32ZM751.554 91.512C751.682 93.176 751.714 95.192 751.65 97.56C751.65 99.928 751.682 102.424 751.746 105.048C751.874 107.608 752.098 110.2 752.418 112.824C752.738 115.384 753.282 117.688 754.05 119.736C754.882 121.784 756.002 123.448 757.41 124.728C758.882 126.008 760.77 126.648 763.074 126.648C765.378 126.648 767.234 126.008 768.642 124.728C770.114 123.448 771.234 121.784 772.002 119.736C772.834 117.688 773.41 115.384 773.73 112.824C774.05 110.2 774.242 107.608 774.306 105.048C774.434 102.424 774.466 99.928 774.402 97.56C774.402 95.192 774.466 93.176 774.594 91.512C774.85 87.544 776.482 85.56 779.49 85.56C780.642 85.56 781.538 85.88 782.178 86.52C782.818 87.16 783.266 88.056 783.522 89.208C783.842 90.36 784.034 91.736 784.098 93.336C784.162 94.936 784.194 96.728 784.194 98.712C784.194 102.808 783.97 107.064 783.522 111.48C783.138 115.832 782.21 119.832 780.738 123.48C779.33 127.128 777.218 130.136 774.402 132.504C771.586 134.872 767.81 136.056 763.074 136.056C758.338 136.056 754.562 134.872 751.746 132.504C748.93 130.136 746.786 127.128 745.314 123.48C743.906 119.832 742.978 115.832 742.53 111.48C742.146 107.064 741.954 102.808 741.954 98.712C741.954 96.728 741.986 94.936 742.05 93.336C742.114 91.736 742.274 90.36 742.53 89.208C742.85 88.056 743.33 87.16 743.97 86.52C744.61 85.88 745.506 85.56 746.658 85.56C749.666 85.56 751.298 87.544 751.554 91.512ZM795.615 129.912C795.487 128.504 795.391 126.392 795.327 123.576C795.263 120.696 795.199 117.4 795.135 113.688C795.071 109.912 795.039 105.816 795.039 101.4C795.039 96.984 795.039 92.472 795.039 87.864C795.039 82.424 795.071 77.976 795.135 74.52C795.199 71.064 795.391 68.344 795.711 66.36C796.031 64.376 796.543 63.032 797.247 62.328C797.951 61.56 798.975 61.176 800.319 61.176C801.471 61.176 802.303 61.56 802.815 62.328C803.327 63.032 803.711 64.632 803.967 67.128C804.095 68.664 804.191 70.744 804.255 73.368C804.383 75.928 804.447 78.744 804.447 81.816C804.511 84.888 804.543 88.088 804.543 91.416C804.607 94.744 804.639 97.912 804.639 100.92V108.696L825.951 89.4C826.655 88.76 827.487 88.152 828.447 87.576C829.471 86.936 830.527 86.616 831.615 86.616C832.895 86.616 833.855 87.128 834.495 88.152C835.135 89.112 835.455 90.232 835.455 91.512C835.455 92.216 835.327 92.888 835.071 93.528C834.879 94.104 834.431 94.648 833.727 95.16L820.767 105.816L836.511 128.664C837.087 129.432 837.375 130.296 837.375 131.256C837.375 132.664 836.927 133.72 836.031 134.424C835.135 135.128 833.983 135.48 832.575 135.48C831.551 135.48 830.655 135.288 829.887 134.904C829.119 134.52 828.383 133.784 827.679 132.696L813.279 111.864L804.543 119.064C804.479 121.432 804.415 123.544 804.351 125.4C804.287 127.256 804.191 128.728 804.063 129.816C803.807 132.056 803.391 133.528 802.815 134.232C802.239 134.936 801.215 135.288 799.743 135.288C798.271 135.288 797.247 134.936 796.671 134.232C796.159 133.528 795.807 132.088 795.615 129.912Z" fill="#221E41"/>
<path d="M431.448 198.252C430.8 198.252 430.272 198.048 429.864 197.64C429.456 197.232 429.252 196.716 429.252 196.092C429.252 195.252 429.564 194.532 430.188 193.932C430.836 193.308 431.568 192.996 432.384 192.996C433.032 192.996 433.548 193.2 433.932 193.608C434.34 194.016 434.544 194.532 434.544 195.156C434.544 195.996 434.232 196.728 433.608 197.352C432.984 197.952 432.264 198.252 431.448 198.252ZM440.132 198.252C439.484 198.252 438.956 198.048 438.548 197.64C438.14 197.232 437.936 196.716 437.936 196.092C437.936 195.252 438.248 194.532 438.872 193.932C439.52 193.308 440.252 192.996 441.068 192.996C441.716 192.996 442.232 193.2 442.616 193.608C443.024 194.016 443.228 194.532 443.228 195.156C443.228 195.996 442.916 196.728 442.292 197.352C441.668 197.952 440.948 198.252 440.132 198.252ZM448.815 198.252C448.167 198.252 447.639 198.048 447.231 197.64C446.823 197.232 446.619 196.716 446.619 196.092C446.619 195.252 446.931 194.532 447.555 193.932C448.203 193.308 448.935 192.996 449.751 192.996C450.399 192.996 450.915 193.2 451.299 193.608C451.707 194.016 451.911 194.532 451.911 195.156C451.911 195.996 451.599 196.728 450.975 197.352C450.351 197.952 449.631 198.252 448.815 198.252ZM456.275 187.992C456.635 186 457.355 184.236 458.435 182.7C459.539 181.164 460.883 179.976 462.467 179.136C464.051 178.272 465.707 177.84 467.435 177.84C468.995 177.84 470.303 178.152 471.359 178.776C472.415 179.376 473.207 180.132 473.735 181.044L474.239 178.164H478.379L474.887 198H470.747L471.287 195.048C470.423 195.984 469.331 196.764 468.011 197.388C466.715 198.012 465.299 198.324 463.763 198.324C462.275 198.324 460.943 197.988 459.767 197.316C458.615 196.644 457.703 195.696 457.031 194.472C456.383 193.224 456.059 191.796 456.059 190.188C456.059 189.468 456.131 188.736 456.275 187.992ZM472.511 188.064C472.607 187.608 472.655 187.116 472.655 186.588C472.655 184.98 472.175 183.72 471.215 182.808C470.279 181.872 469.103 181.404 467.687 181.404C466.631 181.404 465.599 181.668 464.591 182.196C463.583 182.7 462.707 183.456 461.963 184.464C461.219 185.448 460.727 186.624 460.487 187.992C460.391 188.448 460.343 188.94 460.343 189.468C460.343 191.1 460.811 192.396 461.747 193.356C462.707 194.292 463.895 194.76 465.311 194.76C466.367 194.76 467.399 194.496 468.407 193.968C469.415 193.44 470.291 192.672 471.035 191.664C471.779 190.632 472.271 189.432 472.511 188.064ZM493.849 177.84C495.937 177.84 497.593 178.404 498.817 179.532C500.065 180.636 500.689 182.232 500.689 184.32C500.689 184.848 500.629 185.508 500.509 186.3L498.421 198H494.353L496.333 186.912C496.429 186.24 496.477 185.76 496.477 185.472C496.477 184.152 496.105 183.144 495.361 182.448C494.641 181.752 493.633 181.404 492.337 181.404C490.777 181.404 489.457 181.884 488.377 182.844C487.321 183.78 486.649 185.136 486.361 186.912V186.804L484.381 198H480.277L483.769 178.164H487.873L487.477 180.468C488.293 179.652 489.253 179.016 490.357 178.56C491.485 178.08 492.649 177.84 493.849 177.84ZM504.052 187.992C504.412 186 505.132 184.236 506.212 182.7C507.316 181.164 508.66 179.976 510.244 179.136C511.828 178.272 513.496 177.84 515.248 177.84C516.544 177.84 517.768 178.128 518.92 178.704C520.072 179.256 520.948 180 521.548 180.936L523.24 171.36H527.38L522.664 198H518.524L519.064 195.012C518.2 195.996 517.12 196.8 515.824 197.424C514.552 198.024 513.148 198.324 511.612 198.324C510.1 198.324 508.756 197.988 507.58 197.316C506.404 196.644 505.48 195.696 504.808 194.472C504.16 193.224 503.836 191.796 503.836 190.188C503.836 189.468 503.908 188.736 504.052 187.992ZM520.288 188.064C520.384 187.608 520.432 187.116 520.432 186.588C520.432 184.98 519.952 183.72 518.992 182.808C518.056 181.872 516.88 181.404 515.464 181.404C514.408 181.404 513.376 181.668 512.368 182.196C511.36 182.7 510.484 183.456 509.74 184.464C508.996 185.448 508.504 186.624 508.264 187.992C508.168 188.448 508.12 188.94 508.12 189.468C508.12 191.1 508.588 192.396 509.524 193.356C510.484 194.292 511.672 194.76 513.088 194.76C514.144 194.76 515.176 194.496 516.184 193.968C517.192 193.44 518.068 192.672 518.812 191.664C519.556 190.632 520.048 189.432 520.288 188.064ZM547.38 172.98L542.952 198H538.848L543.276 172.98H547.38ZM586.709 177.84C588.797 177.84 590.465 178.404 591.713 179.532C592.961 180.66 593.585 182.256 593.585 184.32C593.585 184.872 593.525 185.532 593.405 186.3L591.317 198H587.249L589.229 186.912C589.325 186.24 589.373 185.76 589.373 185.472C589.373 184.152 589.001 183.144 588.257 182.448C587.537 181.752 586.529 181.404 585.233 181.404C583.673 181.404 582.353 181.884 581.273 182.844C580.217 183.78 579.545 185.136 579.257 186.912L577.277 198H573.209L575.189 186.912C575.285 186.24 575.333 185.76 575.333 185.472C575.333 184.152 574.961 183.144 574.217 182.448C573.497 181.752 572.489 181.404 571.193 181.404C569.633 181.404 568.313 181.884 567.233 182.844C566.177 183.78 565.505 185.136 565.217 186.912V186.804L563.237 198H559.133L562.625 178.164H566.729L566.333 180.468C567.125 179.652 568.073 179.016 569.177 178.56C570.305 178.08 571.469 177.84 572.669 177.84C574.253 177.84 575.609 178.176 576.737 178.848C577.889 179.52 578.693 180.492 579.149 181.764C579.941 180.564 581.033 179.616 582.425 178.92C583.817 178.2 585.245 177.84 586.709 177.84ZM596.935 187.992C597.295 186 598.015 184.236 599.095 182.7C600.199 181.164 601.543 179.976 603.127 179.136C604.711 178.272 606.367 177.84 608.095 177.84C609.655 177.84 610.963 178.152 612.019 178.776C613.075 179.376 613.867 180.132 614.395 181.044L614.899 178.164H619.039L615.547 198H611.407L611.947 195.048C611.083 195.984 609.991 196.764 608.671 197.388C607.375 198.012 605.959 198.324 604.423 198.324C602.935 198.324 601.603 197.988 600.427 197.316C599.275 196.644 598.363 195.696 597.691 194.472C597.043 193.224 596.719 191.796 596.719 190.188C596.719 189.468 596.791 188.736 596.935 187.992ZM613.171 188.064C613.267 187.608 613.315 187.116 613.315 186.588C613.315 184.98 612.835 183.72 611.875 182.808C610.939 181.872 609.763 181.404 608.347 181.404C607.291 181.404 606.259 181.668 605.251 182.196C604.243 182.7 603.367 183.456 602.623 184.464C601.879 185.448 601.387 186.624 601.147 187.992C601.051 188.448 601.003 188.94 601.003 189.468C601.003 191.1 601.471 192.396 602.407 193.356C603.367 194.292 604.555 194.76 605.971 194.76C607.027 194.76 608.059 194.496 609.067 193.968C610.075 193.44 610.951 192.672 611.695 191.664C612.439 190.632 612.931 189.432 613.171 188.064ZM630.513 188.1L637.929 198H632.385L626.553 189.468L625.041 198H620.937L625.653 171.36H629.757L627.021 186.804L635.733 178.164H641.421L630.513 188.1ZM652.967 177.84C655.439 177.84 657.407 178.536 658.871 179.928C660.359 181.32 661.103 183.192 661.103 185.544C661.103 186.096 661.043 186.756 660.923 187.524C660.827 188.052 660.659 188.7 660.419 189.468H645.263C645.239 189.636 645.227 189.888 645.227 190.224C645.227 191.64 645.659 192.768 646.523 193.608C647.411 194.448 648.563 194.868 649.979 194.868C652.211 194.868 653.927 193.944 655.127 192.096H659.555C658.643 193.92 657.299 195.42 655.523 196.596C653.747 197.748 651.695 198.324 649.367 198.324C647.711 198.324 646.259 198 645.011 197.352C643.763 196.704 642.791 195.78 642.095 194.58C641.399 193.356 641.051 191.928 641.051 190.296C641.051 189.6 641.123 188.856 641.267 188.064C641.627 186.024 642.359 184.236 643.463 182.7C644.567 181.14 645.935 179.94 647.567 179.1C649.223 178.26 651.023 177.84 652.967 177.84ZM656.819 186.516C656.867 186.084 656.891 185.772 656.891 185.58C656.891 184.26 656.447 183.216 655.559 182.448C654.695 181.68 653.567 181.296 652.175 181.296C650.711 181.296 649.391 181.764 648.215 182.7C647.039 183.636 646.235 184.908 645.803 186.516H656.819ZM680.975 181.08C681.839 180.168 682.919 179.4 684.215 178.776C685.535 178.152 686.951 177.84 688.463 177.84C689.975 177.84 691.319 178.164 692.495 178.812C693.671 179.46 694.583 180.384 695.231 181.584C695.879 182.784 696.203 184.188 696.203 185.796C696.203 186.492 696.131 187.224 695.987 187.992C695.627 189.984 694.895 191.772 693.791 193.356C692.711 194.916 691.379 196.14 689.795 197.028C688.235 197.892 686.591 198.324 684.863 198.324C683.351 198.324 682.055 198.024 680.975 197.424C679.919 196.8 679.091 196.032 678.491 195.12L676.331 207.432H672.227L677.375 178.164H681.479L680.975 181.08ZM691.811 187.992C691.907 187.536 691.955 187.044 691.955 186.516C691.955 184.908 691.475 183.66 690.515 182.772C689.579 181.86 688.391 181.404 686.951 181.404C685.919 181.404 684.887 181.668 683.855 182.196C682.847 182.724 681.971 183.492 681.227 184.5C680.483 185.508 679.991 186.696 679.751 188.064C679.655 188.52 679.607 189.012 679.607 189.54C679.607 191.148 680.075 192.42 681.011 193.356C681.971 194.292 683.159 194.76 684.575 194.76C685.631 194.76 686.663 194.496 687.671 193.968C688.703 193.416 689.591 192.624 690.335 191.592C691.079 190.56 691.571 189.36 691.811 187.992ZM705.265 181.656C706.081 180.456 707.041 179.52 708.145 178.848C709.273 178.176 710.521 177.84 711.889 177.84L711.133 182.088H710.089C708.505 182.088 707.233 182.484 706.273 183.276C705.313 184.068 704.641 185.436 704.257 187.38L702.385 198H698.281L701.773 178.164H705.877L705.265 181.656ZM724.194 177.84C726.666 177.84 728.634 178.536 730.098 179.928C731.586 181.32 732.33 183.192 732.33 185.544C732.33 186.096 732.27 186.756 732.15 187.524C732.054 188.052 731.886 188.7 731.646 189.468H716.49C716.466 189.636 716.454 189.888 716.454 190.224C716.454 191.64 716.886 192.768 717.75 193.608C718.638 194.448 719.79 194.868 721.206 194.868C723.438 194.868 725.154 193.944 726.354 192.096H730.782C729.87 193.92 728.526 195.42 726.75 196.596C724.974 197.748 722.922 198.324 720.594 198.324C718.938 198.324 717.486 198 716.238 197.352C714.99 196.704 714.018 195.78 713.322 194.58C712.626 193.356 712.278 191.928 712.278 190.296C712.278 189.6 712.35 188.856 712.494 188.064C712.854 186.024 713.586 184.236 714.69 182.7C715.794 181.14 717.162 179.94 718.794 179.1C720.45 178.26 722.25 177.84 724.194 177.84ZM728.046 186.516C728.094 186.084 728.118 185.772 728.118 185.58C728.118 184.26 727.674 183.216 726.786 182.448C725.922 181.68 724.794 181.296 723.402 181.296C721.938 181.296 720.618 181.764 719.442 182.7C718.266 183.636 717.462 184.908 717.03 186.516H728.046ZM740.076 192.492C740.028 192.828 740.004 193.044 740.004 193.14C740.004 193.644 740.16 194.016 740.472 194.256C740.784 194.472 741.3 194.58 742.02 194.58H744.54L743.928 198H740.688C739.104 198 737.892 197.688 737.052 197.064C736.212 196.416 735.792 195.396 735.792 194.004C735.792 193.476 735.84 192.972 735.936 192.492L737.88 181.512H735.54L736.116 178.164H738.492L739.356 173.232H743.496L742.632 178.164H747.42L746.844 181.512H742.02L740.076 192.492ZM753.471 192.492C753.423 192.828 753.399 193.044 753.399 193.14C753.399 193.644 753.555 194.016 753.867 194.256C754.179 194.472 754.695 194.58 755.415 194.58H757.935L757.323 198H754.083C752.499 198 751.287 197.688 750.447 197.064C749.607 196.416 749.187 195.396 749.187 194.004C749.187 193.476 749.235 192.972 749.331 192.492L751.275 181.512H748.935L749.511 178.164H751.887L752.751 173.232H756.891L756.027 178.164H760.815L760.239 181.512H755.415L753.471 192.492ZM766.829 178.164L769.745 193.284L778.205 178.164H782.453L765.173 207.324H760.925L766.649 197.676L762.257 178.164H766.829ZM822.983 178.164L813.335 198H809.015L807.647 183.348L801.023 198H796.703L794.003 178.164H798.179L799.547 194.112L806.531 178.164H810.815L812.075 194.04L818.951 178.164H822.983ZM834.654 177.84C837.126 177.84 839.094 178.536 840.558 179.928C842.046 181.32 842.79 183.192 842.79 185.544C842.79 186.096 842.73 186.756 842.61 187.524C842.514 188.052 842.346 188.7 842.106 189.468H826.95C826.926 189.636 826.914 189.888 826.914 190.224C826.914 191.64 827.346 192.768 828.21 193.608C829.098 194.448 830.25 194.868 831.666 194.868C833.898 194.868 835.614 193.944 836.814 192.096H841.242C840.33 193.92 838.986 195.42 837.21 196.596C835.434 197.748 833.382 198.324 831.054 198.324C829.398 198.324 827.946 198 826.698 197.352C825.45 196.704 824.478 195.78 823.782 194.58C823.086 193.356 822.738 191.928 822.738 190.296C822.738 189.6 822.81 188.856 822.954 188.064C823.314 186.024 824.046 184.236 825.15 182.7C826.254 181.14 827.622 179.94 829.254 179.1C830.91 178.26 832.71 177.84 834.654 177.84ZM838.506 186.516C838.554 186.084 838.578 185.772 838.578 185.58C838.578 184.26 838.134 183.216 837.246 182.448C836.382 181.68 835.254 181.296 833.862 181.296C832.398 181.296 831.078 181.764 829.902 182.7C828.726 183.636 827.922 184.908 827.49 186.516H838.506ZM851.869 181.116C852.733 180.156 853.825 179.376 855.145 178.776C856.465 178.152 857.869 177.84 859.357 177.84C860.893 177.84 862.237 178.164 863.389 178.812C864.565 179.46 865.477 180.384 866.125 181.584C866.773 182.76 867.097 184.152 867.097 185.76C867.097 186.456 867.025 187.2 866.881 187.992C866.521 189.984 865.789 191.772 864.685 193.356C863.605 194.916 862.273 196.14 860.689 197.028C859.129 197.892 857.485 198.324 855.757 198.324C854.221 198.324 852.913 198.024 851.833 197.424C850.753 196.824 849.937 196.056 849.385 195.12L848.881 198H844.777L849.493 171.36H853.597L851.869 181.116ZM862.705 187.992C862.801 187.536 862.849 187.044 862.849 186.516C862.849 184.908 862.369 183.66 861.409 182.772C860.473 181.86 859.285 181.404 857.845 181.404C856.813 181.404 855.781 181.668 854.749 182.196C853.741 182.724 852.865 183.492 852.121 184.5C851.377 185.508 850.885 186.696 850.645 188.064C850.549 188.52 850.501 189.012 850.501 189.54C850.501 191.148 850.969 192.42 851.905 193.356C852.865 194.292 854.053 194.76 855.469 194.76C856.525 194.76 857.557 194.496 858.565 193.968C859.597 193.416 860.485 192.624 861.229 191.592C861.973 190.56 862.465 189.36 862.705 187.992ZM876.484 198.324C875.116 198.324 873.868 198.096 872.74 197.64C871.612 197.16 870.724 196.5 870.076 195.66C869.428 194.796 869.104 193.812 869.104 192.708C869.104 192.516 869.128 192.252 869.176 191.916H873.172C873.076 192.828 873.352 193.584 874 194.184C874.648 194.784 875.56 195.084 876.736 195.084C877.888 195.084 878.836 194.88 879.58 194.472C880.324 194.064 880.696 193.464 880.696 192.672C880.696 192 880.384 191.46 879.76 191.052C879.16 190.644 878.188 190.188 876.844 189.684C875.572 189.18 874.54 188.712 873.748 188.28C872.956 187.848 872.272 187.26 871.696 186.516C871.12 185.748 870.832 184.8 870.832 183.672C870.832 182.52 871.156 181.512 871.804 180.648C872.476 179.76 873.4 179.076 874.576 178.596C875.776 178.092 877.144 177.84 878.68 177.84C880.072 177.84 881.308 178.08 882.388 178.56C883.492 179.016 884.344 179.676 884.944 180.54C885.568 181.38 885.88 182.352 885.88 183.456C885.88 183.792 885.868 184.044 885.844 184.212H881.956C882.052 183.276 881.776 182.52 881.128 181.944C880.504 181.368 879.604 181.08 878.428 181.08C877.396 181.08 876.556 181.296 875.908 181.728C875.284 182.16 874.972 182.748 874.972 183.492C874.972 184.236 875.296 184.836 875.944 185.292C876.592 185.724 877.588 186.204 878.932 186.732C880.156 187.212 881.152 187.668 881.92 188.1C882.688 188.532 883.348 189.108 883.9 189.828C884.452 190.548 884.728 191.448 884.728 192.528C884.728 193.704 884.368 194.736 883.648 195.624C882.952 196.488 881.98 197.16 880.732 197.64C879.484 198.096 878.068 198.324 876.484 198.324ZM894.454 175.536C893.806 175.536 893.278 175.332 892.87 174.924C892.462 174.516 892.258 174 892.258 173.376C892.258 172.536 892.57 171.816 893.194 171.216C893.842 170.592 894.574 170.28 895.39 170.28C896.038 170.28 896.554 170.484 896.938 170.892C897.346 171.3 897.55 171.816 897.55 172.44C897.55 173.28 897.238 174.012 896.614 174.636C895.99 175.236 895.27 175.536 894.454 175.536ZM896.002 178.164L892.51 198H888.406L891.898 178.164H896.002ZM903.658 192.492C903.61 192.828 903.586 193.044 903.586 193.14C903.586 193.644 903.742 194.016 904.054 194.256C904.366 194.472 904.882 194.58 905.602 194.58H908.122L907.51 198H904.27C902.686 198 901.474 197.688 900.634 197.064C899.794 196.416 899.374 195.396 899.374 194.004C899.374 193.476 899.422 192.972 899.518 192.492L901.462 181.512H899.122L899.698 178.164H902.074L902.938 173.232H907.078L906.214 178.164H911.002L910.426 181.512H905.602L903.658 192.492ZM923.389 177.84C925.861 177.84 927.829 178.536 929.293 179.928C930.781 181.32 931.525 183.192 931.525 185.544C931.525 186.096 931.465 186.756 931.345 187.524C931.249 188.052 931.081 188.7 930.841 189.468H915.685C915.661 189.636 915.649 189.888 915.649 190.224C915.649 191.64 916.081 192.768 916.945 193.608C917.833 194.448 918.985 194.868 920.401 194.868C922.633 194.868 924.349 193.944 925.549 192.096H929.977C929.065 193.92 927.721 195.42 925.945 196.596C924.169 197.748 922.117 198.324 919.789 198.324C918.133 198.324 916.681 198 915.433 197.352C914.185 196.704 913.213 195.78 912.517 194.58C911.821 193.356 911.473 191.928 911.473 190.296C911.473 189.6 911.545 188.856 911.689 188.064C912.049 186.024 912.781 184.236 913.885 182.7C914.989 181.14 916.357 179.94 917.989 179.1C919.645 178.26 921.445 177.84 923.389 177.84ZM927.241 186.516C927.289 186.084 927.313 185.772 927.313 185.58C927.313 184.26 926.869 183.216 925.981 182.448C925.117 181.68 923.989 181.296 922.597 181.296C921.133 181.296 919.813 181.764 918.637 182.7C917.461 183.636 916.657 184.908 916.225 186.516H927.241ZM940.82 198.324C939.452 198.324 938.204 198.096 937.076 197.64C935.948 197.16 935.06 196.5 934.412 195.66C933.764 194.796 933.44 193.812 933.44 192.708C933.44 192.516 933.464 192.252 933.512 191.916H937.508C937.412 192.828 937.688 193.584 938.336 194.184C938.984 194.784 939.896 195.084 941.072 195.084C942.224 195.084 943.172 194.88 943.916 194.472C944.66 194.064 945.032 193.464 945.032 192.672C945.032 192 944.72 191.46 944.096 191.052C943.496 190.644 942.524 190.188 941.18 189.684C939.908 189.18 938.876 188.712 938.084 188.28C937.292 187.848 936.608 187.26 936.032 186.516C935.456 185.748 935.168 184.8 935.168 183.672C935.168 182.52 935.492 181.512 936.14 180.648C936.812 179.76 937.736 179.076 938.912 178.596C940.112 178.092 941.48 177.84 943.016 177.84C944.408 177.84 945.644 178.08 946.724 178.56C947.828 179.016 948.68 179.676 949.28 180.54C949.904 181.38 950.216 182.352 950.216 183.456C950.216 183.792 950.204 184.044 950.18 184.212H946.292C946.388 183.276 946.112 182.52 945.464 181.944C944.84 181.368 943.94 181.08 942.764 181.08C941.732 181.08 940.892 181.296 940.244 181.728C939.62 182.16 939.308 182.748 939.308 183.492C939.308 184.236 939.632 184.836 940.28 185.292C940.928 185.724 941.924 186.204 943.268 186.732C944.492 187.212 945.488 187.668 946.256 188.1C947.024 188.532 947.684 189.108 948.236 189.828C948.788 190.548 949.064 191.448 949.064 192.528C949.064 193.704 948.704 194.736 947.984 195.624C947.288 196.488 946.316 197.16 945.068 197.64C943.82 198.096 942.404 198.324 940.82 198.324ZM962.318 172.98L958.754 190.44H955.334L957.962 172.98H962.318ZM955.802 198.252C955.154 198.252 954.626 198.048 954.218 197.64C953.81 197.232 953.606 196.716 953.606 196.092C953.606 195.252 953.918 194.532 954.542 193.932C955.19 193.308 955.922 192.996 956.738 192.996C957.386 192.996 957.902 193.2 958.286 193.608C958.694 194.016 958.898 194.532 958.898 195.156C958.898 195.996 958.586 196.728 957.962 197.352C957.338 197.952 956.618 198.252 955.802 198.252Z" fill="#221E41"/>
<path d="M31.552 35.288C30.6987 35.288 30.0907 35.032 29.728 34.52C29.3867 33.9867 29.2907 33.2613 29.44 32.344L32.256 14.648C32.512 12.984 33.4507 12.152 35.072 12.152C35.904 12.152 36.4907 12.4187 36.832 12.952C37.1947 13.464 37.3013 14.1787 37.152 15.096L36.128 21.496H46.592L47.712 14.648C47.968 12.984 48.896 12.152 50.496 12.152C51.328 12.152 51.9253 12.408 52.288 12.92C52.6507 13.432 52.7467 14.1573 52.576 15.096L49.792 32.76C49.5147 34.4453 48.576 35.288 46.976 35.288C46.1227 35.288 45.5253 35.032 45.184 34.52C44.8427 33.9867 44.7467 33.2613 44.896 32.344L45.952 25.624H35.456L34.336 32.76C34.08 34.4453 33.152 35.288 31.552 35.288ZM62.1208 35.352C60.4781 35.352 59.0488 35.0533 57.8328 34.456C56.6168 33.8373 55.6781 32.9947 55.0168 31.928C54.3554 30.84 54.0247 29.5707 54.0247 28.12C54.0247 26.328 54.3981 24.7493 55.1448 23.384C55.9128 21.9973 56.9581 20.92 58.2808 20.152C59.6248 19.3627 61.1501 18.968 62.8568 18.968C64.6274 18.968 66.0354 19.3627 67.0808 20.152C68.1261 20.92 68.8408 21.9227 69.2248 23.16C69.6088 24.376 69.7261 25.6667 69.5768 27.032C69.5128 27.5227 69.3741 27.8427 69.1608 27.992C68.9474 28.12 68.6594 28.184 68.2968 28.184H58.5048C58.5261 29.3147 58.8888 30.1893 59.5928 30.808C60.2968 31.4267 61.2994 31.736 62.6008 31.736C63.1554 31.736 63.7528 31.672 64.3928 31.544C65.0541 31.416 65.6408 31.224 66.1528 30.968C66.7501 30.6693 67.2408 30.616 67.6248 30.808C68.0301 30.9787 68.2968 31.2773 68.4248 31.704C68.5528 32.1307 68.5208 32.5787 68.3288 33.048C68.1581 33.496 67.8061 33.8587 67.2728 34.136C66.5261 34.5627 65.6834 34.872 64.7448 35.064C63.8061 35.256 62.9314 35.352 62.1208 35.352ZM62.8248 22.168C61.6728 22.168 60.7768 22.52 60.1368 23.224C59.4968 23.9067 59.0701 24.728 58.8568 25.688H65.8328C65.8968 24.6853 65.6834 23.8533 65.1928 23.192C64.7234 22.5093 63.9341 22.168 62.8248 22.168ZM74.314 41.048C73.3967 41.048 72.7887 40.7493 72.49 40.152C72.2127 39.5547 72.3087 38.8827 72.778 38.136L75.242 34.136L71.946 22.296C71.6687 21.336 71.7433 20.5573 72.17 19.96C72.5967 19.3413 73.2473 19.032 74.122 19.032C74.7833 19.032 75.2847 19.192 75.626 19.512C75.9673 19.832 76.2233 20.3973 76.394 21.208L78.314 29.272L83.178 20.76C83.5193 20.1413 83.882 19.704 84.266 19.448C84.65 19.1707 85.1513 19.032 85.77 19.032C86.6873 19.032 87.2953 19.3307 87.594 19.928C87.914 20.504 87.85 21.176 87.402 21.944L76.938 39.32C76.5753 39.9387 76.202 40.376 75.818 40.632C75.434 40.9093 74.9327 41.048 74.314 41.048ZM91.4405 27.864C90.9498 27.864 90.5765 27.7253 90.3205 27.448C90.0645 27.1707 89.9472 26.712 89.9685 26.072L90.7045 15.032C90.8112 13.112 91.7818 12.152 93.6165 12.152C94.5765 12.152 95.2698 12.4613 95.6965 13.08C96.1232 13.6987 96.1978 14.52 95.9205 15.544L93.2005 26.392C92.9232 27.3733 92.3365 27.864 91.4405 27.864ZM90.6725 35.16C89.8192 35.16 89.1472 34.904 88.6565 34.392C88.1658 33.88 87.9205 33.2187 87.9205 32.408C87.9205 31.6187 88.1658 30.9787 88.6565 30.488C89.1472 29.976 89.8192 29.72 90.6725 29.72C91.5258 29.72 92.1978 29.976 92.6885 30.488C93.1792 30.9787 93.4245 31.6187 93.4245 32.408C93.4245 33.2187 93.1792 33.88 92.6885 34.392C92.1978 34.904 91.5258 35.16 90.6725 35.16Z" fill="#6552F5"/>
<path d="M112.539 12.76L108.603 35H104.955L108.891 12.76H112.539ZM118.544 12.76H122.512L117.808 20.376H115.248L118.544 12.76ZM145.654 17.08C147.51 17.08 148.993 17.5813 150.102 18.584C151.212 19.5867 151.766 21.0053 151.766 22.84C151.766 23.3307 151.713 23.9173 151.606 24.6L149.75 35H146.134L147.894 25.144C147.98 24.5467 148.022 24.12 148.022 23.864C148.022 22.6907 147.692 21.7947 147.03 21.176C146.39 20.5573 145.494 20.248 144.342 20.248C142.956 20.248 141.782 20.6747 140.822 21.528C139.884 22.36 139.286 23.5653 139.03 25.144L137.27 35H133.654L135.414 25.144C135.5 24.5467 135.542 24.12 135.542 23.864C135.542 22.6907 135.212 21.7947 134.55 21.176C133.91 20.5573 133.014 20.248 131.862 20.248C130.476 20.248 129.302 20.6747 128.342 21.528C127.404 22.36 126.806 23.5653 126.55 25.144V25.048L124.79 35H121.142L124.246 17.368H127.894L127.542 19.416C128.246 18.6907 129.089 18.1253 130.07 17.72C131.073 17.2933 132.108 17.08 133.174 17.08C134.582 17.08 135.788 17.3787 136.79 17.976C137.814 18.5733 138.529 19.4373 138.934 20.568C139.638 19.5013 140.609 18.6587 141.846 18.04C143.084 17.4 144.353 17.08 145.654 17.08ZM165.426 35.224C164.85 35.224 164.381 35.0427 164.018 34.68C163.655 34.3173 163.474 33.8587 163.474 33.304C163.474 32.5573 163.751 31.9173 164.306 31.384C164.882 30.8293 165.533 30.552 166.258 30.552C166.834 30.552 167.293 30.7333 167.634 31.096C167.997 31.4587 168.178 31.9173 168.178 32.472C168.178 33.2187 167.901 33.8693 167.346 34.424C166.791 34.9573 166.151 35.224 165.426 35.224ZM173.145 35.224C172.569 35.224 172.099 35.0427 171.737 34.68C171.374 34.3173 171.193 33.8587 171.193 33.304C171.193 32.5573 171.47 31.9173 172.025 31.384C172.601 30.8293 173.251 30.552 173.977 30.552C174.553 30.552 175.011 30.7333 175.353 31.096C175.715 31.4587 175.897 31.9173 175.897 32.472C175.897 33.2187 175.619 33.8693 175.065 34.424C174.51 34.9573 173.87 35.224 173.145 35.224ZM180.864 35.224C180.288 35.224 179.818 35.0427 179.456 34.68C179.093 34.3173 178.912 33.8587 178.912 33.304C178.912 32.5573 179.189 31.9173 179.743 31.384C180.32 30.8293 180.97 30.552 181.696 30.552C182.272 30.552 182.73 30.7333 183.072 31.096C183.434 31.4587 183.616 31.9173 183.616 32.472C183.616 33.2187 183.338 33.8693 182.784 34.424C182.229 34.9573 181.589 35.224 180.864 35.224Z" fill="#221E41"/>
</svg>
