<svg width="1097" height="105" viewBox="0 0 1097 105" fill="none" xmlns="http://www.w3.org/2000/svg">
<path d="M17.632 51.224V52.224H18.4566L18.6137 51.4145L17.632 51.224ZM6.432 51.224L5.50933 50.8384L4.93028 52.224H6.432V51.224ZM13.6 34.072V33.072H12.9341L12.6773 33.6864L13.6 34.072ZM20.96 34.072L21.9417 34.2625L22.1727 33.072H20.96V34.072ZM32.16 51.224V52.224H32.9846L33.1417 51.4145L32.16 51.224ZM21.024 51.224L20.1013 50.8384L19.5223 52.224H21.024V51.224ZM28.192 34.072V33.072H27.5261L27.2693 33.6864L28.192 34.072ZM35.488 34.072L36.4697 34.2625L36.7007 33.072H35.488V34.072ZM17.632 50.224H6.432V52.224H17.632V50.224ZM7.35467 51.6096L14.5227 34.4576L12.6773 33.6864L5.50933 50.8384L7.35467 51.6096ZM13.6 35.072H20.96V33.072H13.6V35.072ZM19.9783 33.8815L16.6503 51.0335L18.6137 51.4145L21.9417 34.2625L19.9783 33.8815ZM32.16 50.224H21.024V52.224H32.16V50.224ZM21.9467 51.6096L29.1147 34.4576L27.2693 33.6864L20.1013 50.8384L21.9467 51.6096ZM28.192 35.072H35.488V33.072H28.192V35.072ZM34.5063 33.8815L31.1783 51.0335L33.1417 51.4145L36.4697 34.2625L34.5063 33.8815ZM104.417 34.072L105.385 34.3243L105.711 33.072H104.417V34.072ZM92.705 79V80H93.4777L93.6727 79.2523L92.705 79ZM79.457 79L78.4852 79.2356L78.6705 80H79.457V79ZM72.289 49.432L73.2608 49.1964L71.3191 49.1885L72.289 49.432ZM64.865 79V80H65.645L65.8349 79.2435L64.865 79ZM51.617 79L50.6477 79.2458L50.8389 80H51.617V79ZM40.225 34.072V33.072H38.9398L39.2557 34.3178L40.225 34.072ZM51.937 34.072L52.918 33.8781L52.7587 33.072H51.937V34.072ZM58.401 66.776L57.42 66.9699L59.3724 67.0136L58.401 66.776ZM66.401 34.072V33.072H65.6161L65.4296 33.8344L66.401 34.072ZM78.433 34.072L79.4065 33.8434L79.2254 33.072H78.433V34.072ZM86.113 66.776L85.1395 67.0046L87.0937 66.9717L86.113 66.776ZM92.641 34.072V33.072H91.8209L91.6603 33.8763L92.641 34.072ZM103.449 33.8197L91.7373 78.7477L93.6727 79.2523L105.385 34.3243L103.449 33.8197ZM92.705 78H79.457V80H92.705V78ZM80.4288 78.7644L73.2608 49.1964L71.3172 49.6676L78.4852 79.2356L80.4288 78.7644ZM71.3191 49.1885L63.8951 78.7565L65.8349 79.2435L73.2589 49.6755L71.3191 49.1885ZM64.865 78H51.617V80H64.865V78ZM52.5863 78.7542L41.1943 33.8262L39.2557 34.3178L50.6477 79.2458L52.5863 78.7542ZM40.225 35.072H51.937V33.072H40.225V35.072ZM50.956 34.2659L57.42 66.9699L59.382 66.5821L52.918 33.8781L50.956 34.2659ZM59.3724 67.0136L67.3724 34.3096L65.4296 33.8344L57.4296 66.5384L59.3724 67.0136ZM66.401 35.072H78.433V33.072H66.401V35.072ZM77.4595 34.3006L85.1395 67.0046L87.0865 66.5474L79.4065 33.8434L77.4595 34.3006ZM87.0937 66.9717L93.6217 34.2677L91.6603 33.8763L85.1323 66.5803L87.0937 66.9717ZM92.641 35.072H104.417V33.072H92.641V35.072ZM141.714 47L140.972 47.6715L140.978 47.6773L141.714 47ZM145.426 79V80H146.426V79H145.426ZM134.546 79H133.546V80H134.546V79ZM132.689 54.04L131.959 54.7232L132.689 54.04ZM122.706 54.04L123.436 54.7232L122.706 54.04ZM120.85 79V80H121.85V79H120.85ZM109.906 79H108.906V80H109.906V79ZM109.906 31.64V30.64H108.906V31.64H109.906ZM120.85 31.64H121.85V30.64H120.85V31.64ZM120.85 48.088H119.85V51.2504L121.668 48.6629L120.85 48.088ZM125.394 44.312L124.954 43.4136L125.394 44.312ZM131.857 43.904C135.706 43.904 138.71 45.1746 140.973 47.6715L142.454 46.3285C139.768 43.364 136.201 41.904 131.857 41.904V43.904ZM140.978 47.6773C143.237 50.1312 144.426 53.5743 144.426 58.136H146.426C146.426 53.2257 145.139 49.2448 142.449 46.3227L140.978 47.6773ZM144.426 58.136V79H146.426V58.136H144.426ZM145.426 78H134.546V80H145.426V78ZM135.546 79V59.608H133.546V79H135.546ZM135.546 59.608C135.546 57.0481 134.88 54.9177 133.42 53.3568L131.959 54.7232C132.974 55.8077 133.546 57.3892 133.546 59.608H135.546ZM133.42 53.3568C131.964 51.8003 130.018 51.056 127.698 51.056V53.056C129.558 53.056 130.941 53.6344 131.959 54.7232L133.42 53.3568ZM127.698 51.056C125.377 51.056 123.431 51.8003 121.975 53.3568L123.436 54.7232C124.454 53.6344 125.837 53.056 127.698 53.056V51.056ZM121.975 53.3568C120.515 54.9177 119.85 57.0481 119.85 59.608H121.85C121.85 57.3892 122.421 55.8077 123.436 54.7232L121.975 53.3568ZM119.85 59.608V79H121.85V59.608H119.85ZM120.85 78H109.906V80H120.85V78ZM110.906 79V31.64H108.906V79H110.906ZM109.906 32.64H120.85V30.64H109.906V32.64ZM119.85 31.64V48.088H121.85V31.64H119.85ZM121.668 48.6629C122.67 47.2368 124.048 46.0831 125.833 45.2104L124.954 43.4136C122.899 44.4182 121.248 45.7819 120.031 47.5131L121.668 48.6629ZM125.833 45.2104C127.601 44.3461 129.602 43.904 131.857 43.904V41.904C129.334 41.904 127.026 42.4006 124.954 43.4136L125.833 45.2104ZM152.902 51.416L152.011 50.9633L152.005 50.9743L152.902 51.416ZM158.598 45.016L159.128 45.864L158.598 45.016ZM173.191 44.312L172.712 45.1899L172.72 45.1943L173.191 44.312ZM177.607 48.344L176.755 48.8681L178.607 51.877V48.344H177.607ZM177.607 43.288V42.288H176.607V43.288H177.607ZM188.551 43.288H189.551V42.288H188.551V43.288ZM188.551 79V80H189.551V79H188.551ZM177.607 79H176.607V80H177.607V79ZM177.607 73.944H178.607V70.531L176.765 73.4043L177.607 73.944ZM173.126 77.976L172.656 77.0936L172.648 77.0981L173.126 77.976ZM158.598 77.272L158.058 78.1132L158.068 78.12L158.598 77.272ZM152.902 70.808L152.003 71.2443L152.007 71.2525L152.011 71.2607L152.902 70.808ZM175.303 54.68L174.576 55.3673L174.586 55.3774L175.303 54.68ZM164.23 54.68L163.514 53.9826L163.514 53.9829L164.23 54.68ZM164.23 67.608L163.495 68.2855L163.504 68.2955L163.514 68.3054L164.23 67.608ZM175.303 67.608L174.586 66.9106L174.576 66.9208L175.303 67.608ZM151.855 61.08C151.855 57.5354 152.514 54.4702 153.8 51.8577L152.005 50.9743C150.561 53.9085 149.855 57.2859 149.855 61.08H151.855ZM153.794 51.8687C155.129 49.2402 156.909 47.2511 159.128 45.864L158.068 44.168C155.509 45.7676 153.492 48.0451 152.011 50.9633L153.794 51.8687ZM159.128 45.864C161.352 44.4746 163.833 43.776 166.598 43.776V41.776C163.476 41.776 160.624 42.5708 158.068 44.168L159.128 45.864ZM166.598 43.776C168.978 43.776 171.005 44.2591 172.712 45.1899L173.669 43.4341C171.621 42.3169 169.253 41.776 166.598 41.776V43.776ZM172.72 45.1943C174.502 46.1446 175.834 47.3719 176.755 48.8681L178.458 47.8199C177.331 45.9881 175.719 44.5274 173.661 43.4296L172.72 45.1943ZM178.607 48.344V43.288H176.607V48.344H178.607ZM177.607 44.288H188.551V42.288H177.607V44.288ZM187.551 43.288V79H189.551V43.288H187.551ZM188.551 78H177.607V80H188.551V78ZM178.607 79V73.944H176.607V79H178.607ZM176.765 73.4043C175.799 74.91 174.44 76.1419 172.656 77.0936L173.597 78.8584C175.653 77.7621 177.28 76.306 178.448 74.4837L176.765 73.4043ZM172.648 77.0981C170.941 78.0289 168.914 78.512 166.535 78.512V80.512C169.189 80.512 171.557 79.9711 173.605 78.8539L172.648 77.0981ZM166.535 78.512C163.815 78.512 161.354 77.8149 159.128 76.424L158.068 78.12C160.622 79.7157 163.452 80.512 166.535 80.512V78.512ZM159.139 76.4308C156.913 74.9998 155.13 72.9858 153.794 70.3553L152.011 71.2607C153.491 74.1769 155.505 76.4722 158.058 78.1132L159.139 76.4308ZM153.802 70.3717C152.513 67.7133 151.855 64.6241 151.855 61.08H149.855C149.855 64.8745 150.561 68.2707 152.003 71.2443L153.802 70.3717ZM178.607 61.144C178.607 58.2187 177.778 55.7904 176.019 53.9826L174.586 55.3774C175.899 56.7269 176.607 58.6079 176.607 61.144H178.607ZM176.029 53.9928C174.346 52.2142 172.249 51.312 169.798 51.312V53.312C171.7 53.312 173.272 53.9885 174.576 55.3672L176.029 53.9928ZM169.798 51.312C167.349 51.312 165.235 52.2132 163.514 53.9826L164.947 55.3774C166.298 53.9895 167.896 53.312 169.798 53.312V51.312ZM163.514 53.9829C161.793 55.7531 160.99 58.1637 160.99 61.08H162.99C162.99 58.535 163.682 56.6789 164.947 55.3771L163.514 53.9829ZM160.99 61.08C160.99 63.999 161.793 66.438 163.495 68.2855L164.966 66.9305C163.681 65.5353 162.99 63.6224 162.99 61.08H160.99ZM163.514 68.3054C165.235 70.0748 167.349 70.976 169.798 70.976V68.976C167.896 68.976 166.298 68.2985 164.947 66.9106L163.514 68.3054ZM169.798 70.976C172.249 70.976 174.346 70.0738 176.029 68.2952L174.576 66.9208C173.272 68.2995 171.7 68.976 169.798 68.976V70.976ZM176.019 68.3054C177.778 66.4976 178.607 64.0693 178.607 61.144H176.607C176.607 63.6801 175.899 65.5611 174.586 66.9106L176.019 68.3054ZM216.372 69.72H217.372V68.72H216.372V69.72ZM216.372 79V80H217.372V79H216.372ZM201.524 76.12L200.861 76.869L200.87 76.8762L201.524 76.12ZM198.196 52.376H199.196V51.376H198.196V52.376ZM193.844 52.376H192.844V53.376H193.844V52.376ZM193.844 43.288V42.288H192.844V43.288H193.844ZM198.196 43.288V44.288H199.196V43.288H198.196ZM198.196 34.584V33.584H197.196V34.584H198.196ZM209.14 34.584H210.14V33.584H209.14V34.584ZM209.14 43.288H208.14V44.288H209.14V43.288ZM216.308 43.288H217.308V42.288H216.308V43.288ZM216.308 52.376V53.376H217.308V52.376H216.308ZM209.14 52.376V51.376H208.14V52.376H209.14ZM209.908 69.016L209.232 69.7532L209.908 69.016ZM215.372 69.72V79H217.372V69.72H215.372ZM216.372 78H210.804V80H216.372V78ZM210.804 78C206.991 78 204.16 77.0786 202.178 75.3638L200.87 76.8762C203.326 79.0014 206.681 80 210.804 80V78ZM202.187 75.371C200.269 73.6746 199.196 70.8324 199.196 66.584H197.196C197.196 71.1249 198.342 74.6401 200.861 76.869L202.187 75.371ZM199.196 66.584V52.376H197.196V66.584H199.196ZM198.196 51.376H193.844V53.376H198.196V51.376ZM194.844 52.376V43.288H192.844V52.376H194.844ZM193.844 44.288H198.196V42.288H193.844V44.288ZM199.196 43.288V34.584H197.196V43.288H199.196ZM198.196 35.584H209.14V33.584H198.196V35.584ZM208.14 34.584V43.288H210.14V34.584H208.14ZM209.14 44.288H216.308V42.288H209.14V44.288ZM215.308 43.288V52.376H217.308V43.288H215.308ZM216.308 51.376H209.14V53.376H216.308V51.376ZM208.14 52.376V66.712H210.14V52.376H208.14ZM208.14 66.712C208.14 67.91 208.425 69.0129 209.232 69.7532L210.584 68.2788C210.367 68.0804 210.14 67.6474 210.14 66.712H208.14ZM209.232 69.7532C210.022 70.4775 211.189 70.72 212.468 70.72V68.72C211.358 68.72 210.818 68.4932 210.584 68.2788L209.232 69.7532ZM212.468 70.72H216.372V68.72H212.468V70.72ZM246.975 48.344H245.975V51.757L247.816 48.8837L246.975 48.344ZM251.391 44.312L250.912 43.4341L251.391 44.312ZM265.983 45.016L265.453 45.864L265.983 45.016ZM271.615 51.416L270.717 51.8577L270.723 51.8687L271.615 51.416ZM271.615 70.808L270.72 70.3608L270.717 70.3663L271.615 70.808ZM265.983 77.272L266.513 78.1201L266.523 78.1132L265.983 77.272ZM251.391 77.976L250.912 78.8539L250.92 78.8584L251.391 77.976ZM246.975 74.008L247.81 73.4584L245.975 70.6685V74.008H246.975ZM246.975 96.024V97.024H247.975V96.024H246.975ZM236.031 96.024H235.031V97.024H236.031V96.024ZM236.031 43.288V42.288H235.031V43.288H236.031ZM246.975 43.288H247.975V42.288H246.975V43.288ZM260.286 54.68L259.56 55.3672L259.57 55.3773L259.579 55.3871L260.286 54.68ZM249.15 54.68L248.434 53.9826L248.424 53.9928L249.15 54.68ZM249.15 67.608L248.424 68.2953L248.434 68.3054L249.15 67.608ZM260.286 67.608L261.003 68.3054L261.012 68.2957L260.286 67.608ZM247.816 48.8837C248.785 47.3726 250.127 46.1402 251.869 45.1899L250.912 43.4341C248.899 44.5318 247.297 45.9874 246.133 47.8043L247.816 48.8837ZM251.869 45.1899C253.576 44.2591 255.603 43.776 257.982 43.776V41.776C255.328 41.776 252.96 42.3169 250.912 43.4341L251.869 45.1899ZM257.982 43.776C260.748 43.776 263.229 44.4746 265.453 45.864L266.513 44.168C263.957 42.5708 261.105 41.776 257.982 41.776V43.776ZM265.453 45.864C267.669 47.2492 269.426 49.2345 270.717 51.8577L272.512 50.9743C271.072 48.0508 269.075 45.7694 266.513 44.168L265.453 45.864ZM270.723 51.8687C272.048 54.4786 272.727 57.5398 272.727 61.08H274.727C274.727 57.2815 273.997 53.9 272.506 50.9633L270.723 51.8687ZM272.727 61.08C272.727 64.6197 272.048 67.7049 270.72 70.3608L272.509 71.2552C273.997 68.2791 274.727 64.8789 274.727 61.08H272.727ZM270.717 70.3663C269.425 72.9915 267.665 75.0017 265.442 76.4308L266.523 78.1132C269.079 76.4703 271.073 74.1712 272.512 71.2497L270.717 70.3663ZM265.453 76.424C263.229 77.8134 260.748 78.512 257.982 78.512V80.512C261.105 80.512 263.957 79.7172 266.513 78.12L265.453 76.424ZM257.982 78.512C255.649 78.512 253.617 78.0304 251.861 77.0937L250.92 78.8584C253.004 79.9696 255.366 80.512 257.982 80.512V78.512ZM251.869 77.0981C250.121 76.1445 248.778 74.9291 247.81 73.4584L246.139 74.5576C247.305 76.3295 248.905 77.7595 250.912 78.8539L251.869 77.0981ZM245.975 74.008V96.024H247.975V74.008H245.975ZM246.975 95.024H236.031V97.024H246.975V95.024ZM237.031 96.024V43.288H235.031V96.024H237.031ZM236.031 44.288H246.975V42.288H236.031V44.288ZM245.975 43.288V48.344H247.975V43.288H245.975ZM263.591 61.08C263.591 58.156 262.763 55.7418 260.994 53.9729L259.579 55.3871C260.883 56.6902 261.591 58.5427 261.591 61.08H263.591ZM261.013 53.9928C259.326 52.2098 257.205 51.312 254.719 51.312V53.312C256.669 53.312 258.26 53.9929 259.56 55.3672L261.013 53.9928ZM254.719 51.312C252.269 51.312 250.155 52.2132 248.434 53.9826L249.867 55.3774C251.218 53.9895 252.816 53.312 254.719 53.312V51.312ZM248.424 53.9928C246.713 55.8016 245.911 58.2263 245.911 61.144H247.911C247.911 58.6004 248.601 56.7157 249.877 55.3672L248.424 53.9928ZM245.911 61.144C245.911 64.0617 246.713 66.4864 248.424 68.2952L249.877 66.9208C248.601 65.5723 247.911 63.6876 247.911 61.144H245.911ZM248.434 68.3054C250.155 70.0748 252.269 70.976 254.719 70.976V68.976C252.816 68.976 251.218 68.2985 249.867 66.9106L248.434 68.3054ZM254.719 70.976C257.168 70.976 259.282 70.0748 261.003 68.3054L259.57 66.9106C258.219 68.2985 256.621 68.976 254.719 68.976V70.976ZM261.012 68.2957C262.762 66.4492 263.591 64.0064 263.591 61.08H261.591C261.591 63.6149 260.883 65.5241 259.561 66.9203L261.012 68.2957ZM290.412 49.24H289.412V52.6039L291.25 49.7863L290.412 49.24ZM295.212 44.632L295.712 45.4979L295.719 45.4937L295.727 45.4895L295.212 44.632ZM301.612 42.904H302.612V41.904H301.612V42.904ZM301.612 54.488V55.488H302.612V54.488H301.612ZM292.46 56.28L293.105 57.0443L293.112 57.0385L293.118 57.0326L292.46 56.28ZM290.412 79V80H291.412V79H290.412ZM279.468 79H278.468V80H279.468V79ZM279.468 43.288V42.288H278.468V43.288H279.468ZM290.412 43.288H291.412V42.288H290.412V43.288ZM291.25 49.7863C292.449 47.9475 293.936 46.5242 295.712 45.4979L294.712 43.7661C292.648 44.9585 290.935 46.6072 289.574 48.6937L291.25 49.7863ZM295.727 45.4895C297.483 44.4353 299.437 43.904 301.612 43.904V41.904C299.093 41.904 296.781 42.5247 294.698 43.7745L295.727 45.4895ZM300.612 42.904V54.488H302.612V42.904H300.612ZM301.612 53.488H298.604V55.488H301.612V53.488ZM298.604 53.488C295.75 53.488 293.422 54.1095 291.801 55.5274L293.118 57.0326C294.229 56.0611 295.997 55.488 298.604 55.488V53.488ZM291.815 55.5157C290.113 56.9518 289.412 59.3717 289.412 62.424H291.412C291.412 59.5883 292.076 57.9122 293.105 57.0443L291.815 55.5157ZM289.412 62.424V79H291.412V62.424H289.412ZM290.412 78H279.468V80H290.412V78ZM280.468 79V43.288H278.468V79H280.468ZM279.468 44.288H290.412V42.288H279.468V44.288ZM289.412 43.288V49.24H291.412V43.288H289.412ZM313.627 77.272L313.153 78.1525L313.159 78.1555L313.627 77.272ZM307.035 70.872L306.166 71.3667L306.172 71.3767L307.035 70.872ZM307.099 51.48L307.962 51.9847L307.966 51.979L307.099 51.48ZM313.755 45.016L314.224 45.8995L313.755 45.016ZM332.699 45.016L332.23 45.8995L332.699 45.016ZM339.355 51.48L338.488 51.979L338.492 51.9847L339.355 51.48ZM339.291 70.872L338.43 70.3633L338.428 70.3673L339.291 70.872ZM332.571 77.272L332.108 76.3856L332.103 76.3885L332.571 77.272ZM328.411 67.736L327.694 67.0389L327.689 67.0441L327.684 67.0494L328.411 67.736ZM328.475 54.552L327.738 55.2277L327.743 55.2332L327.748 55.2386L328.475 54.552ZM317.915 54.552L318.643 55.2381L318.652 55.2277L317.915 54.552ZM317.851 67.736L317.104 68.4004L317.109 68.4061L317.114 68.4117L317.851 67.736ZM323.099 78.512C319.747 78.512 316.753 77.7981 314.095 76.3885L313.159 78.1555C316.133 79.7326 319.453 80.512 323.099 80.512V78.512ZM314.101 76.3915C311.493 74.9871 309.429 72.9853 307.898 70.3673L306.172 71.3767C307.884 74.3053 310.214 76.5702 313.153 78.1525L314.101 76.3915ZM307.904 70.3773C306.424 67.7777 305.667 64.7111 305.667 61.144H303.667C303.667 65.0009 304.488 68.4196 306.166 71.3667L307.904 70.3773ZM305.667 61.144C305.667 57.6264 306.443 54.5842 307.962 51.9847L306.236 50.9753C304.513 53.9225 303.667 57.3229 303.667 61.144H305.667ZM307.966 51.979C309.495 49.3227 311.577 47.3028 314.224 45.8995L313.286 44.1325C310.301 45.7158 307.946 48.0053 306.232 50.981L307.966 51.979ZM314.224 45.8995C316.881 44.4899 319.875 43.776 323.227 43.776V41.776C319.581 41.776 316.261 42.5554 313.286 44.1325L314.224 45.8995ZM323.227 43.776C326.579 43.776 329.573 44.4899 332.23 45.8995L333.168 44.1325C330.193 42.5554 326.873 41.776 323.227 41.776V43.776ZM332.23 45.8995C334.877 47.3028 336.959 49.3227 338.488 51.979L340.222 50.981C338.508 48.0053 336.153 45.7158 333.168 44.1325L332.23 45.8995ZM338.492 51.9847C340.011 54.5842 340.787 57.6264 340.787 61.144H342.787C342.787 57.3229 341.941 53.9225 340.218 50.9753L338.492 51.9847ZM340.787 61.144C340.787 64.6567 339.992 67.7195 338.43 70.3633L340.152 71.3807C341.918 68.3925 342.787 64.97 342.787 61.144H340.787ZM338.428 70.3673C336.902 72.9776 334.801 74.979 332.108 76.3857L333.034 78.1583C336.059 76.5783 338.438 74.313 340.154 71.3767L338.428 70.3673ZM332.103 76.3885C329.445 77.7981 326.451 78.512 323.099 78.512V80.512C326.745 80.512 330.065 79.7326 333.039 78.1555L332.103 76.3885ZM323.099 71.04C325.468 71.04 327.501 70.1562 329.138 68.4226L327.684 67.0494C326.42 68.3878 324.911 69.04 323.099 69.04V71.04ZM329.128 68.4331C330.857 66.6548 331.651 64.1735 331.651 61.144H329.651C329.651 63.8319 328.952 65.7452 327.694 67.0389L329.128 68.4331ZM331.651 61.144C331.651 58.1218 330.882 55.6445 329.202 53.8654L327.748 55.2386C328.969 56.5315 329.651 58.4488 329.651 61.144H331.651ZM329.212 53.8763C327.614 52.1329 325.597 51.248 323.227 51.248V53.248C325.038 53.248 326.52 53.8991 327.738 55.2277L329.212 53.8763ZM323.227 51.248C320.821 51.248 318.78 52.1281 317.178 53.8763L318.652 55.2277C319.866 53.9039 321.366 53.248 323.227 53.248V51.248ZM317.187 53.866C315.543 55.6097 314.803 58.0934 314.803 61.144H316.803C316.803 58.392 317.471 56.481 318.643 55.238L317.187 53.866ZM314.803 61.144C314.803 64.1518 315.522 66.6206 317.104 68.4004L318.598 67.0716C317.45 65.7794 316.803 63.8535 316.803 61.144H314.803ZM317.114 68.4117C318.712 70.1551 320.729 71.04 323.099 71.04V69.04C321.288 69.04 319.806 68.3889 318.588 67.0603L317.114 68.4117ZM348.297 37.912L347.603 38.6318L347.616 38.6444L347.629 38.6566L348.297 37.912ZM348.297 29.464L348.977 30.1968L348.978 30.1959L348.297 29.464ZM357.641 29.464L356.947 30.1838L356.96 30.1964L356.973 30.2086L357.641 29.464ZM357.641 37.912L358.321 38.6448L358.322 38.6439L357.641 37.912ZM355.209 93.08L354.555 92.3238L354.546 92.331L355.209 93.08ZM341.641 96.024H340.641V97.024H341.641V96.024ZM341.641 86.744V85.744H340.641V86.744H341.641ZM346.825 86.04L346.149 85.3028L346.825 86.04ZM347.593 43.288V42.288H346.593V43.288H347.593ZM358.537 43.288H359.537V42.288H358.537V43.288ZM353.033 38.576C351.319 38.576 349.99 38.087 348.965 37.1674L347.629 38.6566C349.078 39.9557 350.907 40.576 353.033 40.576V38.576ZM348.991 37.1922C347.992 36.2292 347.505 35.0813 347.505 33.688H345.505C345.505 35.6227 346.212 37.2908 347.603 38.6318L348.991 37.1922ZM347.505 33.688C347.505 32.2447 347.997 31.1071 348.977 30.1968L347.617 28.7312C346.208 30.0395 345.505 31.7179 345.505 33.688H347.505ZM348.978 30.1959C350.005 29.2398 351.329 28.736 353.033 28.736V26.736C350.897 26.736 349.063 27.3842 347.616 28.7321L348.978 30.1959ZM353.033 28.736C354.688 28.736 355.964 29.2356 356.947 30.1838L358.335 28.7442C356.929 27.3884 355.132 26.736 353.033 26.736V28.736ZM356.973 30.2086C357.993 31.1225 358.497 32.2567 358.497 33.688H360.497C360.497 31.7059 359.764 30.0242 358.309 28.7194L356.973 30.2086ZM358.497 33.688C358.497 35.0694 357.997 36.2138 356.96 37.1801L358.322 38.6439C359.759 37.3062 360.497 35.6346 360.497 33.688H358.497ZM356.961 37.1792C355.979 38.0908 354.699 38.576 353.033 38.576V40.576C355.122 40.576 356.914 39.9519 358.321 38.6448L356.961 37.1792ZM357.537 83.608C357.537 87.8586 356.463 90.6721 354.555 92.3238L355.863 93.8362C358.392 91.6479 359.537 88.1467 359.537 83.608H357.537ZM354.546 92.331C352.565 94.0838 349.737 95.024 345.929 95.024V97.024C350.057 97.024 353.416 96.0015 355.872 93.829L354.546 92.331ZM345.929 95.024H341.641V97.024H345.929V95.024ZM342.641 96.024V86.744H340.641V96.024H342.641ZM341.641 87.744H344.265V85.744H341.641V87.744ZM344.265 87.744C345.544 87.744 346.711 87.5015 347.501 86.7772L346.149 85.3028C345.915 85.5172 345.375 85.744 344.265 85.744V87.744ZM347.501 86.7772C348.308 86.0369 348.593 84.934 348.593 83.736H346.593C346.593 84.6714 346.366 85.1044 346.149 85.3028L347.501 86.7772ZM348.593 83.736V43.288H346.593V83.736H348.593ZM347.593 44.288H358.537V42.288H347.593V44.288ZM357.537 43.288V83.608H359.537V43.288H357.537ZM399.878 63.768V64.768H400.769L400.871 63.8826L399.878 63.768ZM375.109 63.768V62.768H374.03L374.112 63.8447L375.109 63.768ZM377.221 68.888L376.527 69.6074L376.54 69.6196L376.553 69.6313L377.221 68.888ZM387.59 67.16V66.16H386.951L386.682 66.7399L387.59 67.16ZM399.237 67.16L400.207 67.4067L400.524 66.16H399.237V67.16ZM395.974 73.496L395.208 72.8523L395.2 72.8628L395.974 73.496ZM390.15 77.912L390.563 78.8224L390.15 77.912ZM372.934 77.272L372.454 78.1494L372.934 77.272ZM366.534 70.872L367.408 70.3875L366.534 70.872ZM366.47 51.416L365.595 50.9315L365.589 50.9419L366.47 51.416ZM372.87 45.016L373.349 45.8934L372.87 45.016ZM391.493 44.952L391.019 45.832V45.832L391.493 44.952ZM397.766 51.16L396.891 51.6457L396.897 51.6561L397.766 51.16ZM388.87 57.688V58.688H389.87V57.688H388.87ZM386.949 53.208L387.604 52.4523L386.949 53.208ZM377.478 53.144L376.837 52.3758L376.831 52.3811L376.825 52.3866L377.478 53.144ZM375.173 57.688L374.185 57.5376L374.01 58.688H375.173V57.688ZM399.069 60.568C399.069 61.5504 399.008 62.5787 398.884 63.6534L400.871 63.8826C401.003 62.7386 401.069 61.6336 401.069 60.568H399.069ZM399.878 62.768H375.109V64.768H399.878V62.768ZM374.112 63.8447C374.296 66.2339 375.067 68.1977 376.527 69.6074L377.916 68.1686C376.902 67.189 376.264 65.7395 376.107 63.6913L374.112 63.8447ZM376.553 69.6313C378.029 70.96 379.829 71.616 381.893 71.616V69.616C380.288 69.616 378.974 69.12 377.89 68.1447L376.553 69.6313ZM381.893 71.616C383.4 71.616 384.746 71.2974 385.884 70.6069C387.027 69.9136 387.892 68.8858 388.497 67.5801L386.682 66.7399C386.22 67.7382 385.603 68.4384 384.847 68.8971C384.086 69.3586 383.118 69.616 381.893 69.616V71.616ZM387.59 68.16H399.237V66.16H387.59V68.16ZM398.268 66.9133C397.709 69.1121 396.691 71.0888 395.208 72.8524L396.739 74.1396C398.413 72.1485 399.572 69.9013 400.207 67.4067L398.268 66.9133ZM395.2 72.8628C393.767 74.6139 391.952 75.9944 389.736 77.0016L390.563 78.8224C393.041 77.6963 395.108 76.1328 396.747 74.1292L395.2 72.8628ZM389.736 77.0016C387.534 78.0022 385.054 78.512 382.277 78.512V80.512C385.304 80.512 388.071 79.9551 390.563 78.8224L389.736 77.0016ZM382.277 78.512C378.925 78.512 375.979 77.7979 373.413 76.3946L372.454 78.1494C375.349 79.7327 378.632 80.512 382.277 80.512V78.512ZM373.413 76.3946C370.852 74.994 368.854 72.9984 367.408 70.3875L365.659 71.3565C367.285 74.2923 369.554 76.5634 372.454 78.1494L373.413 76.3946ZM367.408 70.3875C365.967 67.786 365.229 64.7156 365.229 61.144H363.229C363.229 64.9964 364.028 68.4114 365.659 71.3565L367.408 70.3875ZM365.229 61.144C365.229 57.5679 365.948 54.4937 367.35 51.8901L365.589 50.9419C364.004 53.8849 363.229 57.2961 363.229 61.144H365.229ZM367.344 51.9005C368.79 49.2896 370.788 47.294 373.349 45.8934L372.39 44.1386C369.49 45.7246 367.221 47.9957 365.595 50.9315L367.344 51.9005ZM373.349 45.8934C375.914 44.491 378.88 43.776 382.277 43.776V41.776C378.592 41.776 375.287 42.5543 372.39 44.1386L373.349 45.8934ZM382.277 43.776C385.59 43.776 388.495 44.47 391.019 45.832L391.968 44.072C389.116 42.5327 385.877 41.776 382.277 41.776V43.776ZM391.019 45.832C393.537 47.1914 395.49 49.1233 396.891 51.6456L398.64 50.6744C397.054 47.8207 394.826 45.6139 391.968 44.072L391.019 45.832ZM396.897 51.6561C398.334 54.1707 399.069 57.1303 399.069 60.568H401.069C401.069 56.8377 400.269 53.5253 398.634 50.6639L396.897 51.6561ZM389.87 57.688C389.87 55.5559 389.129 53.7735 387.604 52.4523L386.295 53.9637C387.33 54.8611 387.87 56.0654 387.87 57.688H389.87ZM387.604 52.4523C386.118 51.1643 384.276 50.544 382.15 50.544V52.544C383.863 52.544 385.221 53.033 386.295 53.9637L387.604 52.4523ZM382.15 50.544C380.106 50.544 378.316 51.1439 376.837 52.3758L378.118 53.9122C379.199 53.0107 380.523 52.544 382.15 52.544V50.544ZM376.825 52.3866C375.37 53.6408 374.511 55.3919 374.185 57.5376L376.162 57.8384C376.433 56.0588 377.111 54.7806 378.13 53.9014L376.825 52.3866ZM375.173 58.688H388.87V56.688H375.173V58.688ZM405.907 51.416L405.032 50.9315L405.027 50.9419L405.907 51.416ZM412.243 45.016L411.763 44.1386L411.757 44.1418L412.243 45.016ZM432.787 46.296L432.169 47.0823L432.175 47.0865L432.787 46.296ZM438.739 56.216V57.216H439.983L439.716 56.0011L438.739 56.216ZM427.091 56.216L426.15 56.5542L426.388 57.216H427.091V56.216ZM416.595 54.488L417.384 55.102L417.392 55.0914L416.595 54.488ZM416.595 67.864L415.798 68.4675L415.806 68.4779L416.595 67.864ZM427.091 66.072V65.072H426.388L426.15 65.7338L427.091 66.072ZM438.739 66.072L439.715 66.291L439.988 65.072H438.739V66.072ZM432.787 75.928L432.168 75.1428L432.787 75.928ZM412.243 77.272L411.757 78.1462L411.763 78.1494L412.243 77.272ZM405.907 70.872L405.026 71.3461L405.032 71.3565L405.907 70.872ZM404.667 61.144C404.667 57.5679 405.385 54.4937 406.787 51.8901L405.027 50.9419C403.442 53.8849 402.667 57.2961 402.667 61.144H404.667ZM406.782 51.9005C408.23 49.2856 410.21 47.2897 412.729 45.8902L411.757 44.1418C408.9 45.729 406.656 47.9998 405.032 50.9315L406.782 51.9005ZM412.723 45.8934C415.289 44.4901 418.235 43.776 421.587 43.776V41.776C417.942 41.776 414.658 42.5553 411.763 44.1386L412.723 45.8934ZM421.587 43.776C425.885 43.776 429.389 44.8979 432.169 47.0823L433.405 45.5097C430.212 43.0008 426.249 41.776 421.587 41.776V43.776ZM432.175 47.0865C434.993 49.27 436.867 52.3589 437.762 56.4309L439.716 56.0011C438.734 51.5398 436.639 48.0154 433.399 45.5054L432.175 47.0865ZM438.739 55.216H427.091V57.216H438.739V55.216ZM428.032 55.8778C427.49 54.3683 426.664 53.1586 425.515 52.3321C424.363 51.5039 422.969 51.12 421.395 51.12V53.12C422.637 53.12 423.6 53.4188 424.347 53.9559C425.096 54.4947 425.711 55.3331 426.15 56.5542L428.032 55.8778ZM421.395 51.12C419.081 51.12 417.184 52.0523 415.798 53.8846L417.392 55.0914C418.395 53.7663 419.698 53.12 421.395 53.12V51.12ZM415.806 53.8741C414.422 55.6533 413.803 58.1248 413.803 61.144H415.803C415.803 58.3606 416.379 56.3947 417.384 55.1019L415.806 53.8741ZM413.803 61.144C413.803 64.1658 414.423 66.6508 415.798 68.4674L417.392 67.2606C416.378 65.9199 415.803 63.9249 415.803 61.144H413.803ZM415.806 68.4779C417.196 70.2661 419.092 71.168 421.395 71.168V69.168C419.687 69.168 418.383 68.5339 417.384 67.2501L415.806 68.4779ZM421.395 71.168C422.969 71.168 424.363 70.7841 425.515 69.9559C426.664 69.1294 427.49 67.9197 428.032 66.4102L426.15 65.7338C425.711 66.9549 425.096 67.7933 424.347 68.3321C423.6 68.8692 422.637 69.168 421.395 69.168V71.168ZM427.091 67.072H438.739V65.072H427.091V67.072ZM437.763 65.853C436.869 69.8366 434.997 72.9116 432.168 75.1428L433.406 76.7132C436.636 74.1658 438.732 70.67 439.715 66.291L437.763 65.853ZM432.168 75.1428C429.341 77.3726 425.835 78.512 421.587 78.512V80.512C426.214 80.512 430.175 79.2621 433.406 76.7132L432.168 75.1428ZM421.587 78.512C418.235 78.512 415.289 77.7979 412.723 76.3946L411.763 78.1494C414.658 79.7327 417.942 80.512 421.587 80.512V78.512ZM412.729 76.3978C410.21 74.9983 408.23 73.0024 406.782 70.3875L405.032 71.3565C406.656 74.2882 408.9 76.559 411.757 78.1462L412.729 76.3978ZM406.787 70.3979C405.385 67.7943 404.667 64.7201 404.667 61.144H402.667C402.667 64.9919 403.442 68.4031 405.027 71.3461L406.787 70.3979ZM464.497 69.72H465.497V68.72H464.497V69.72ZM464.497 79V80H465.497V79H464.497ZM449.649 76.12L448.986 76.869L448.995 76.8762L449.649 76.12ZM446.321 52.376H447.321V51.376H446.321V52.376ZM441.969 52.376H440.969V53.376H441.969V52.376ZM441.969 43.288V42.288H440.969V43.288H441.969ZM446.321 43.288V44.288H447.321V43.288H446.321ZM446.321 34.584V33.584H445.321V34.584H446.321ZM457.265 34.584H458.265V33.584H457.265V34.584ZM457.265 43.288H456.265V44.288H457.265V43.288ZM464.433 43.288H465.433V42.288H464.433V43.288ZM464.433 52.376V53.376H465.433V52.376H464.433ZM457.265 52.376V51.376H456.265V52.376H457.265ZM458.033 69.016L457.357 69.7532L458.033 69.016ZM463.497 69.72V79H465.497V69.72H463.497ZM464.497 78H458.929V80H464.497V78ZM458.929 78C455.116 78 452.285 77.0786 450.303 75.3638L448.995 76.8762C451.451 79.0014 454.806 80 458.929 80V78ZM450.312 75.371C448.394 73.6746 447.321 70.8324 447.321 66.584H445.321C445.321 71.1249 446.467 74.6401 448.986 76.869L450.312 75.371ZM447.321 66.584V52.376H445.321V66.584H447.321ZM446.321 51.376H441.969V53.376H446.321V51.376ZM442.969 52.376V43.288H440.969V52.376H442.969ZM441.969 44.288H446.321V42.288H441.969V44.288ZM447.321 43.288V34.584H445.321V43.288H447.321ZM446.321 35.584H457.265V33.584H446.321V35.584ZM456.265 34.584V43.288H458.265V34.584H456.265ZM457.265 44.288H464.433V42.288H457.265V44.288ZM463.433 43.288V52.376H465.433V43.288H463.433ZM464.433 51.376H457.265V53.376H464.433V51.376ZM456.265 52.376V66.712H458.265V52.376H456.265ZM456.265 66.712C456.265 67.91 456.55 69.0129 457.357 69.7532L458.709 68.2788C458.492 68.0804 458.265 67.6474 458.265 66.712H456.265ZM457.357 69.7532C458.147 70.4775 459.314 70.72 460.593 70.72V68.72C459.483 68.72 458.943 68.4932 458.709 68.2788L457.357 69.7532ZM460.593 70.72H464.497V68.72H460.593V70.72ZM476.801 77.912L477.203 76.9962L476.801 77.912ZM471.041 73.56L470.241 74.16L470.248 74.1688L471.041 73.56ZM468.673 67.288V66.288H467.596L467.676 67.3619L468.673 67.288ZM479.489 67.288L480.484 67.1851L480.391 66.288H479.489V67.288ZM481.217 70.296L481.817 69.496L481.217 70.296ZM488.129 70.68L488.706 71.497L488.714 71.4907L488.129 70.68ZM487.681 66.328L487.248 67.2295L487.263 67.2367L487.278 67.2433L487.681 66.328ZM482.497 64.664L482.74 63.6939L482.732 63.6919L482.724 63.6902L482.497 64.664ZM476.097 62.808L475.726 63.7365L475.736 63.7405L475.746 63.7443L476.097 62.808ZM471.681 59.672L470.92 60.3209L470.925 60.3266L470.93 60.3321L471.681 59.672ZM471.489 48.28L470.66 47.7205L470.657 47.7253L471.489 48.28ZM476.481 44.248L476.076 43.3334L476.07 43.3364L476.481 44.248ZM494.913 46.104L494.258 46.8597L494.264 46.865L494.913 46.104ZM499.393 54.936V55.936H500.503L500.388 54.8319L499.393 54.936ZM489.281 54.936L488.29 55.0726L488.409 55.936H489.281V54.936ZM487.617 51.992L486.988 52.7692L486.997 52.7764L487.006 52.7833L487.617 51.992ZM481.089 51.672L481.656 52.496L481.673 52.4844L481.689 52.472L481.089 51.672ZM481.665 55.96L481.232 56.8615L481.239 56.8648L481.246 56.868L481.665 55.96ZM486.785 57.496L487.035 56.5277L487.018 56.5235L487.002 56.5198L486.785 57.496ZM493.249 59.544L492.869 60.4692L492.88 60.4734L492.89 60.4773L493.249 59.544ZM497.601 62.744L496.831 63.382L496.841 63.394L496.851 63.4056L497.601 62.744ZM499.585 68.632H500.585V68.6234L500.585 68.6148L499.585 68.632ZM497.793 74.264L496.981 73.6808L496.978 73.6848L497.793 74.264ZM492.737 78.104L492.347 77.183L492.341 77.1858L492.737 78.104ZM485.121 78.512C482.121 78.512 479.488 77.9986 477.203 76.9962L476.399 78.8278C478.978 79.9588 481.892 80.512 485.121 80.512V78.512ZM477.203 76.9962C474.902 75.9871 473.125 74.6335 471.834 72.9512L470.248 74.1688C471.773 76.1559 473.836 77.7036 476.399 78.8278L477.203 76.9962ZM471.841 72.96C470.546 71.233 469.827 69.3243 469.67 67.2141L467.676 67.3619C467.861 69.8596 468.72 72.1323 470.241 74.16L471.841 72.96ZM468.673 68.288H479.489V66.288H468.673V68.288ZM478.494 67.3909C478.652 68.9144 479.377 70.1663 480.617 71.096L481.817 69.496C481.009 68.8897 480.582 68.1362 480.484 67.1851L478.494 67.3909ZM480.617 71.096C481.842 72.0146 483.321 72.448 484.993 72.448V70.448C483.679 70.448 482.64 70.1134 481.817 69.496L480.617 71.096ZM484.993 72.448C486.461 72.448 487.743 72.1765 488.706 71.497L487.552 69.863C487.064 70.2075 486.256 70.448 484.993 70.448V72.448ZM488.714 71.4907C489.71 70.772 490.281 69.7814 490.281 68.568H488.281C488.281 69.0613 488.084 69.4786 487.544 69.8693L488.714 71.4907ZM490.281 68.568C490.281 67.8728 490.096 67.2212 489.695 66.6588C489.299 66.1046 488.738 65.7005 488.084 65.4127L487.278 67.2433C487.691 67.4248 487.93 67.6287 488.067 67.8212C488.199 68.0055 488.281 68.2392 488.281 68.568H490.281ZM488.114 65.4265C486.951 64.8682 485.14 64.294 482.74 63.6939L482.254 65.6341C484.633 66.2287 486.278 66.7638 487.248 67.2295L488.114 65.4265ZM482.724 63.6902C480.19 63.0988 478.101 62.4915 476.448 61.8717L475.746 63.7443C477.506 64.4045 479.684 65.0346 482.27 65.6378L482.724 63.6902ZM476.468 61.8795C474.911 61.2564 473.568 60.3042 472.432 59.0119L470.93 60.3321C472.269 61.8558 473.87 62.9943 475.726 63.7365L476.468 61.8795ZM472.442 59.0231C471.397 57.7986 470.825 56.1093 470.825 53.848H468.825C468.825 56.4507 469.49 58.644 470.92 60.3209L472.442 59.0231ZM470.825 53.848C470.825 51.9924 471.324 50.3303 472.321 48.8347L470.657 47.7253C469.435 49.5577 468.825 51.6076 468.825 53.848H470.825ZM472.318 48.8395C473.35 47.3098 474.858 46.077 476.892 45.1596L476.07 43.3364C473.752 44.3817 471.932 45.8368 470.66 47.7205L472.318 48.8395ZM476.885 45.1625C478.949 44.2497 481.429 43.776 484.353 43.776V41.776C481.218 41.776 478.45 42.2836 476.077 43.3335L476.885 45.1625ZM484.353 43.776C488.671 43.776 491.932 44.8435 494.258 46.8597L495.568 45.3483C492.774 42.9272 488.995 41.776 484.353 41.776V43.776ZM494.264 46.865C496.655 48.9034 498.039 51.604 498.398 55.0401L500.388 54.8319C499.979 50.9294 498.376 47.742 495.562 45.343L494.264 46.865ZM499.393 53.936H489.281V55.936H499.393V53.936ZM490.272 54.7994C490.067 53.3178 489.386 52.0953 488.228 51.2007L487.006 52.7833C487.725 53.3393 488.153 54.0795 488.29 55.0726L490.272 54.7994ZM488.246 51.2148C487.125 50.3074 485.687 49.904 484.033 49.904V51.904C485.366 51.904 486.317 52.2259 486.988 52.7692L488.246 51.2148ZM484.033 49.904C482.639 49.904 481.412 50.1797 480.489 50.872L481.689 52.472C482.131 52.1403 482.867 51.904 484.033 51.904V49.904ZM480.522 50.848C479.559 51.5104 479.065 52.4852 479.065 53.656H481.065C481.065 53.1201 481.254 52.7722 481.656 52.496L480.522 50.848ZM479.065 53.656C479.065 54.3516 479.25 55.003 479.644 55.5704C480.032 56.1295 480.584 56.5502 481.232 56.8615L482.098 55.0585C481.68 54.8578 481.431 54.6385 481.286 54.4296C481.147 54.229 481.065 53.9844 481.065 53.656H479.065ZM481.246 56.868C482.455 57.4259 484.246 57.9562 486.568 58.4722L487.002 56.5198C484.716 56.0118 483.094 55.518 482.084 55.052L481.246 56.868ZM486.535 58.4643C489.156 59.1407 491.263 59.8102 492.869 60.4692L493.629 58.6188C491.907 57.9124 489.704 57.2166 487.035 56.5277L486.535 58.4643ZM492.89 60.4773C494.38 61.0505 495.693 62.0088 496.831 63.382L498.371 62.106C497.034 60.4925 495.446 59.3175 493.608 58.6107L492.89 60.4773ZM496.851 63.4056C497.934 64.6329 498.545 66.3443 498.585 68.6492L500.585 68.6148C500.539 65.9704 499.828 63.7564 498.351 62.0824L496.851 63.4056ZM498.585 68.632C498.585 70.518 498.051 72.1905 496.981 73.6808L498.605 74.8472C499.925 73.0095 500.585 70.9273 500.585 68.632H498.585ZM496.978 73.6848C495.954 75.1258 494.431 76.3013 492.347 77.183L493.127 79.025C495.48 78.0294 497.328 76.6449 498.608 74.8432L496.978 73.6848ZM492.341 77.1858C490.315 78.0598 487.916 78.512 485.121 78.512V80.512C488.129 80.512 490.807 80.0255 493.133 79.0222L492.341 77.1858ZM551.651 47L550.91 47.6715L550.915 47.6773L551.651 47ZM555.363 79V80H556.363V79H555.363ZM544.483 79H543.483V80H544.483V79ZM542.627 54.04L541.897 54.7232L542.627 54.04ZM532.643 54.04L533.373 54.7232L532.643 54.04ZM530.787 79V80H531.787V79H530.787ZM519.843 79H518.843V80H519.843V79ZM519.843 31.64V30.64H518.843V31.64H519.843ZM530.787 31.64H531.787V30.64H530.787V31.64ZM530.787 48.088H529.787V51.2504L531.605 48.6629L530.787 48.088ZM535.331 44.312L534.892 43.4136L535.331 44.312ZM541.795 43.904C545.644 43.904 548.647 45.1746 550.91 47.6715L552.392 46.3285C549.705 43.364 546.138 41.904 541.795 41.904V43.904ZM550.915 47.6773C553.174 50.1312 554.363 53.5743 554.363 58.136H556.363C556.363 53.2257 555.077 49.2448 552.387 46.3227L550.915 47.6773ZM554.363 58.136V79H556.363V58.136H554.363ZM555.363 78H544.483V80H555.363V78ZM545.483 79V59.608H543.483V79H545.483ZM545.483 59.608C545.483 57.0481 544.817 54.9177 543.357 53.3568L541.897 54.7232C542.911 55.8077 543.483 57.3892 543.483 59.608H545.483ZM543.357 53.3568C541.901 51.8003 539.956 51.056 537.635 51.056V53.056C539.496 53.056 540.878 53.6344 541.897 54.7232L543.357 53.3568ZM537.635 51.056C535.314 51.056 533.369 51.8003 531.913 53.3568L533.373 54.7232C534.392 53.6344 535.774 53.056 537.635 53.056V51.056ZM531.913 53.3568C530.453 54.9177 529.787 57.0481 529.787 59.608H531.787C531.787 57.3892 532.359 55.8077 533.373 54.7232L531.913 53.3568ZM529.787 59.608V79H531.787V59.608H529.787ZM530.787 78H519.843V80H530.787V78ZM520.843 79V31.64H518.843V79H520.843ZM519.843 32.64H530.787V30.64H519.843V32.64ZM529.787 31.64V48.088H531.787V31.64H529.787ZM531.605 48.6629C532.607 47.2368 533.985 46.0831 535.77 45.2104L534.892 43.4136C532.837 44.4182 531.185 45.7819 529.969 47.5131L531.605 48.6629ZM535.77 45.2104C537.538 44.3461 539.54 43.904 541.795 43.904V41.904C539.272 41.904 536.964 42.4006 534.892 43.4136L535.77 45.2104ZM562.84 51.416L561.948 50.9633L561.943 50.9743L562.84 51.416ZM568.536 45.016L569.066 45.864L568.536 45.016ZM583.128 44.312L582.649 45.1899L582.657 45.1943L583.128 44.312ZM587.544 48.344L586.692 48.8681L588.544 51.877V48.344H587.544ZM587.544 43.288V42.288H586.544V43.288H587.544ZM598.488 43.288H599.488V42.288H598.488V43.288ZM598.488 79V80H599.488V79H598.488ZM587.544 79H586.544V80H587.544V79ZM587.544 73.944H588.544V70.531L586.702 73.4043L587.544 73.944ZM583.064 77.976L582.593 77.0936L582.585 77.0981L583.064 77.976ZM568.536 77.272L567.995 78.1132L568.006 78.12L568.536 77.272ZM562.84 70.808L561.94 71.2443L561.944 71.2525L561.948 71.2607L562.84 70.808ZM585.24 54.68L584.513 55.3673L584.523 55.3774L585.24 54.68ZM574.168 54.68L573.451 53.9826L573.451 53.9829L574.168 54.68ZM574.168 67.608L573.432 68.2855L573.442 68.2955L573.451 68.3054L574.168 67.608ZM585.24 67.608L584.523 66.9106L584.514 66.9208L585.24 67.608ZM561.792 61.08C561.792 57.5354 562.451 54.4702 563.737 51.8577L561.943 50.9743C560.498 53.9085 559.792 57.2859 559.792 61.08H561.792ZM563.732 51.8687C565.066 49.2402 566.847 47.2511 569.066 45.864L568.006 44.168C565.447 45.7676 563.43 48.0451 561.948 50.9633L563.732 51.8687ZM569.066 45.864C571.289 44.4746 573.771 43.776 576.536 43.776V41.776C573.413 41.776 570.562 42.5708 568.006 44.168L569.066 45.864ZM576.536 43.776C578.916 43.776 580.943 44.2591 582.649 45.1899L583.607 43.4341C581.559 42.3169 579.191 41.776 576.536 41.776V43.776ZM582.657 45.1943C584.439 46.1446 585.772 47.3719 586.692 48.8681L588.396 47.8199C587.268 45.9881 585.657 44.5274 583.599 43.4296L582.657 45.1943ZM588.544 48.344V43.288H586.544V48.344H588.544ZM587.544 44.288H598.488V42.288H587.544V44.288ZM597.488 43.288V79H599.488V43.288H597.488ZM598.488 78H587.544V80H598.488V78ZM588.544 79V73.944H586.544V79H588.544ZM586.702 73.4043C585.737 74.91 584.378 76.1419 582.593 77.0936L583.535 78.8584C585.59 77.7621 587.218 76.306 588.386 74.4837L586.702 73.4043ZM582.585 77.0981C580.879 78.0289 578.852 78.512 576.472 78.512V80.512C579.127 80.512 581.495 79.9711 583.543 78.8539L582.585 77.0981ZM576.472 78.512C573.752 78.512 571.292 77.8149 569.066 76.424L568.006 78.12C570.559 79.7157 573.389 80.512 576.472 80.512V78.512ZM569.077 76.4308C566.851 74.9998 565.067 72.9858 563.732 70.3553L561.948 71.2607C563.429 74.1769 565.443 76.4722 567.995 78.1132L569.077 76.4308ZM563.74 70.3717C562.451 67.7133 561.792 64.6241 561.792 61.08H559.792C559.792 64.8745 560.498 68.2707 561.94 71.2443L563.74 70.3717ZM588.544 61.144C588.544 58.2187 587.716 55.7904 585.957 53.9826L584.523 55.3774C585.836 56.7269 586.544 58.6079 586.544 61.144H588.544ZM585.966 53.9928C584.284 52.2142 582.186 51.312 579.736 51.312V53.312C581.638 53.312 583.209 53.9885 584.514 55.3672L585.966 53.9928ZM579.736 51.312C577.286 51.312 575.173 52.2132 573.451 53.9826L574.885 55.3774C576.235 53.9895 577.834 53.312 579.736 53.312V51.312ZM573.451 53.9829C571.73 55.7531 570.928 58.1637 570.928 61.08H572.928C572.928 58.535 573.619 56.6789 574.885 55.3771L573.451 53.9829ZM570.928 61.08C570.928 63.999 571.731 66.438 573.432 68.2855L574.904 66.9305C573.618 65.5353 572.928 63.6224 572.928 61.08H570.928ZM573.451 68.3054C575.173 70.0748 577.286 70.976 579.736 70.976V68.976C577.834 68.976 576.235 68.2985 574.885 66.9106L573.451 68.3054ZM579.736 70.976C582.186 70.976 584.284 70.0738 585.966 68.2952L584.514 66.9208C583.209 68.2995 581.638 68.976 579.736 68.976V70.976ZM585.957 68.3054C587.716 66.4976 588.544 64.0693 588.544 61.144H586.544C586.544 63.6801 585.836 65.5611 584.523 66.9106L585.957 68.3054ZM622.469 68.76L621.513 69.0509L622.469 72.1979L623.426 69.0509L622.469 68.76ZM630.214 43.288V42.288H629.472L629.257 42.9971L630.214 43.288ZM641.862 43.288L642.804 43.6224L643.277 42.288H641.862V43.288ZM629.19 79V80H629.896L630.132 79.3344L629.19 79ZM615.685 79L614.743 79.3344L614.979 80H615.685V79ZM603.013 43.288V42.288H601.598L602.071 43.6224L603.013 43.288ZM614.726 43.288L615.682 42.9971L615.467 42.288H614.726V43.288ZM623.426 69.0509L631.17 43.5789L629.257 42.9971L621.513 68.4691L623.426 69.0509ZM630.214 44.288H641.862V42.288H630.214V44.288ZM640.919 42.9536L628.247 78.6656L630.132 79.3344L642.804 43.6224L640.919 42.9536ZM629.19 78H615.685V80H629.19V78ZM616.628 78.6656L603.956 42.9536L602.071 43.6224L614.743 79.3344L616.628 78.6656ZM603.013 44.288H614.726V42.288H603.013V44.288ZM613.769 43.5789L621.513 69.0509L623.426 68.4691L615.682 42.9971L613.769 43.5789ZM679.94 63.768V64.768H680.831L680.933 63.8826L679.94 63.768ZM655.172 63.768V62.768H654.092L654.175 63.8447L655.172 63.768ZM657.284 68.888L656.589 69.6074L656.602 69.6196L656.615 69.6313L657.284 68.888ZM667.652 67.16V66.16H667.013L666.745 66.7399L667.652 67.16ZM679.3 67.16L680.269 67.4067L680.586 66.16H679.3V67.16ZM676.036 73.496L675.271 72.8523L675.262 72.8628L676.036 73.496ZM670.212 77.912L670.626 78.8224L670.212 77.912ZM652.996 77.272L652.516 78.1494L652.996 77.272ZM646.596 70.872L647.471 70.3875L646.596 70.872ZM646.532 51.416L645.657 50.9315L645.652 50.9419L646.532 51.416ZM652.932 45.016L653.412 45.8934L652.932 45.016ZM671.556 44.952L671.081 45.832V45.832L671.556 44.952ZM677.828 51.16L676.954 51.6457L676.96 51.6561L677.828 51.16ZM668.932 57.688V58.688H669.932V57.688H668.932ZM667.012 53.208L667.667 52.4523L667.012 53.208ZM657.54 53.144L656.9 52.3758L656.893 52.3811L656.887 52.3866L657.54 53.144ZM655.236 57.688L654.247 57.5376L654.072 58.688H655.236V57.688ZM679.132 60.568C679.132 61.5504 679.071 62.5787 678.947 63.6534L680.933 63.8826C681.065 62.7386 681.132 61.6336 681.132 60.568H679.132ZM679.94 62.768H655.172V64.768H679.94V62.768ZM654.175 63.8447C654.359 66.2339 655.129 68.1977 656.589 69.6074L657.979 68.1686C656.964 67.189 656.327 65.7395 656.169 63.6913L654.175 63.8447ZM656.615 69.6313C658.091 70.96 659.892 71.616 661.956 71.616V69.616C660.351 69.616 659.037 69.12 657.953 68.1447L656.615 69.6313ZM661.956 71.616C663.462 71.616 664.809 71.2974 665.947 70.6069C667.089 69.9136 667.955 68.8858 668.559 67.5801L666.745 66.7399C666.282 67.7382 665.665 68.4384 664.909 68.8971C664.149 69.3586 663.18 69.616 661.956 69.616V71.616ZM667.652 68.16H679.3V66.16H667.652V68.16ZM678.331 66.9133C677.771 69.1121 676.754 71.0888 675.271 72.8524L676.801 74.1396C678.476 72.1485 679.634 69.9013 680.269 67.4067L678.331 66.9133ZM675.262 72.8628C673.829 74.6139 672.014 75.9944 669.798 77.0016L670.626 78.8224C673.103 77.6963 675.171 76.1328 676.81 74.1292L675.262 72.8628ZM669.798 77.0016C667.597 78.0022 665.117 78.512 662.34 78.512V80.512C665.366 80.512 668.134 79.9551 670.626 78.8224L669.798 77.0016ZM662.34 78.512C658.988 78.512 656.042 77.7979 653.476 76.3946L652.516 78.1494C655.411 79.7327 658.695 80.512 662.34 80.512V78.512ZM653.476 76.3946C650.915 74.994 648.917 72.9984 647.471 70.3875L645.721 71.3565C647.347 74.2923 649.616 76.5634 652.516 78.1494L653.476 76.3946ZM647.471 70.3875C646.03 67.786 645.292 64.7156 645.292 61.144H643.292C643.292 64.9964 644.09 68.4114 645.721 71.3565L647.471 70.3875ZM645.292 61.144C645.292 57.5679 646.01 54.4937 647.412 51.8901L645.652 50.9419C644.067 53.8849 643.292 57.2961 643.292 61.144H645.292ZM647.407 51.9005C648.853 49.2896 650.851 47.294 653.412 45.8934L652.452 44.1386C649.552 45.7246 647.283 47.9957 645.657 50.9315L647.407 51.9005ZM653.412 45.8934C655.976 44.491 658.943 43.776 662.34 43.776V41.776C658.654 41.776 655.349 42.5543 652.452 44.1386L653.412 45.8934ZM662.34 43.776C665.652 43.776 668.557 44.47 671.081 45.832L672.031 44.072C669.179 42.5327 665.94 41.776 662.34 41.776V43.776ZM671.081 45.832C673.6 47.1914 675.553 49.1233 676.954 51.6456L678.702 50.6744C677.117 47.8207 674.888 45.6139 672.031 44.072L671.081 45.832ZM676.96 51.6561C678.397 54.1707 679.132 57.1303 679.132 60.568H681.132C681.132 56.8377 680.331 53.5253 678.696 50.6639L676.96 51.6561ZM669.932 57.688C669.932 55.5559 669.191 53.7735 667.667 52.4523L666.357 53.9637C667.393 54.8611 667.932 56.0654 667.932 57.688H669.932ZM667.667 52.4523C666.181 51.1643 664.338 50.544 662.212 50.544V52.544C663.926 52.544 665.283 53.033 666.357 53.9637L667.667 52.4523ZM662.212 50.544C660.169 50.544 658.378 51.1439 656.9 52.3758L658.18 53.9122C659.262 53.0107 660.586 52.544 662.212 52.544V50.544ZM656.887 52.3866C655.432 53.6408 654.574 55.3919 654.247 57.5376L656.225 57.8384C656.495 56.0588 657.173 54.7806 658.193 53.9014L656.887 52.3866ZM655.236 58.688H668.932V56.688H655.236V58.688ZM735.948 43.288L736.868 43.6794L737.46 42.288H735.948V43.288ZM713.548 95.96V96.96H714.209L714.468 96.3514L713.548 95.96ZM701.772 95.96L700.86 95.5491L700.224 96.96H701.772V95.96ZM709.964 77.784L710.876 78.1949L711.055 77.7975L710.886 77.3959L709.964 77.784ZM695.436 43.288V42.288H693.93L694.514 43.6761L695.436 43.288ZM707.66 43.288L708.598 42.9413L708.357 42.288H707.66V43.288ZM715.916 65.624L714.978 65.9707L715.92 68.5182L716.855 65.9683L715.916 65.624ZM724.108 43.288V42.288H723.41L723.169 42.9437L724.108 43.288ZM735.028 42.8966L712.628 95.5686L714.468 96.3514L736.868 43.6794L735.028 42.8966ZM713.548 94.96H701.772V96.96H713.548V94.96ZM702.684 96.3709L710.876 78.1949L709.052 77.3731L700.86 95.5491L702.684 96.3709ZM710.886 77.3959L696.358 42.8999L694.514 43.6761L709.042 78.1721L710.886 77.3959ZM695.436 44.288H707.66V42.288H695.436V44.288ZM706.722 43.6347L714.978 65.9707L716.854 65.2773L708.598 42.9413L706.722 43.6347ZM716.855 65.9683L725.047 43.6323L723.169 42.9437L714.977 65.2797L716.855 65.9683ZM724.108 44.288H735.948V42.288H724.108V44.288ZM746.69 77.272L746.215 78.1525L746.221 78.1555L746.69 77.272ZM740.097 70.872L739.228 71.3667L739.234 71.3767L740.097 70.872ZM740.161 51.48L741.025 51.9847L741.028 51.979L740.161 51.48ZM746.818 45.016L747.286 45.8995L746.818 45.016ZM765.761 45.016L765.293 45.8995L765.761 45.016ZM772.417 51.48L771.551 51.979L771.554 51.9847L772.417 51.48ZM772.354 70.872L771.493 70.3633L771.49 70.3673L772.354 70.872ZM765.633 77.272L765.17 76.3856L765.165 76.3885L765.633 77.272ZM761.474 67.736L760.757 67.0389L760.751 67.0441L760.746 67.0494L761.474 67.736ZM761.537 54.552L760.8 55.2277L760.805 55.2332L760.81 55.2386L761.537 54.552ZM750.977 54.552L751.705 55.2381L751.715 55.2277L750.977 54.552ZM750.914 67.736L750.166 68.4004L750.171 68.4061L750.176 68.4117L750.914 67.736ZM756.161 78.512C752.81 78.512 749.816 77.7981 747.158 76.3885L746.221 78.1555C749.195 79.7326 752.516 80.512 756.161 80.512V78.512ZM747.164 76.3915C744.555 74.9871 742.491 72.9853 740.961 70.3673L739.234 71.3767C740.946 74.3053 743.277 76.5702 746.215 78.1525L747.164 76.3915ZM740.967 70.3773C739.487 67.7777 738.729 64.7111 738.729 61.144H736.729C736.729 65.0009 737.551 68.4196 739.228 71.3667L740.967 70.3773ZM738.729 61.144C738.729 57.6264 739.505 54.5842 741.025 51.9847L739.298 50.9753C737.575 53.9225 736.729 57.3229 736.729 61.144H738.729ZM741.028 51.979C742.557 49.3227 744.64 47.3028 747.286 45.8995L746.349 44.1325C743.363 45.7158 741.008 48.0053 739.295 50.981L741.028 51.979ZM747.286 45.8995C749.944 44.4899 752.938 43.776 756.289 43.776V41.776C752.644 41.776 749.323 42.5554 746.349 44.1325L747.286 45.8995ZM756.289 43.776C759.641 43.776 762.635 44.4899 765.293 45.8995L766.23 44.1325C763.256 42.5554 759.935 41.776 756.289 41.776V43.776ZM765.293 45.8995C767.939 47.3028 770.021 49.3227 771.551 51.979L773.284 50.981C771.571 48.0053 769.216 45.7158 766.23 44.1325L765.293 45.8995ZM771.554 51.9847C773.074 54.5842 773.849 57.6264 773.849 61.144H775.849C775.849 57.3229 775.004 53.9225 773.281 50.9753L771.554 51.9847ZM773.849 61.144C773.849 64.6567 773.055 67.7195 771.493 70.3633L773.214 71.3807C774.98 68.3925 775.849 64.97 775.849 61.144H773.849ZM771.49 70.3673C769.964 72.9776 767.863 74.979 765.17 76.3857L766.096 78.1583C769.121 76.5783 771.5 74.313 773.217 71.3767L771.49 70.3673ZM765.165 76.3885C762.507 77.7981 759.513 78.512 756.161 78.512V80.512C759.807 80.512 763.128 79.7326 766.102 78.1555L765.165 76.3885ZM756.161 71.04C758.531 71.04 760.563 70.1562 762.201 68.4226L760.746 67.0494C759.482 68.3878 757.974 69.04 756.161 69.04V71.04ZM762.19 68.4331C763.919 66.6548 764.714 64.1735 764.714 61.144H762.714C762.714 63.8319 762.014 65.7452 760.757 67.0389L762.19 68.4331ZM764.714 61.144C764.714 58.1218 763.945 55.6445 762.265 53.8654L760.81 55.2386C762.032 56.5315 762.714 58.4488 762.714 61.144H764.714ZM762.275 53.8763C760.677 52.1329 758.659 51.248 756.289 51.248V53.248C758.101 53.248 759.582 53.8991 760.8 55.2277L762.275 53.8763ZM756.289 51.248C753.883 51.248 751.843 52.1281 750.24 53.8763L751.715 55.2277C752.928 53.9039 754.429 53.248 756.289 53.248V51.248ZM750.25 53.866C748.606 55.6097 747.865 58.0934 747.865 61.144H749.865C749.865 58.392 750.533 56.481 751.705 55.238L750.25 53.866ZM747.865 61.144C747.865 64.1518 748.584 66.6206 750.166 68.4004L751.661 67.0716C750.512 65.7794 749.865 63.8535 749.865 61.144H747.865ZM750.176 68.4117C751.774 70.1551 753.792 71.04 756.161 71.04V69.04C754.35 69.04 752.869 68.3889 751.651 67.0603L750.176 68.4117ZM815.919 43.288H816.919V42.288H815.919V43.288ZM815.919 79V80H816.919V79H815.919ZM804.976 79H803.976V80H804.976V79ZM804.976 74.136H805.976V70.9736L804.157 73.5611L804.976 74.136ZM800.432 77.976L800.879 78.8705L800.887 78.8664L800.432 77.976ZM786.927 77.592L786.418 78.4526L786.425 78.4565L786.431 78.4602L786.927 77.592ZM782.063 72.28L781.169 72.7272L782.063 72.28ZM780.336 43.288V42.288H779.336V43.288H780.336ZM791.216 43.288H792.216V42.288H791.216V43.288ZM793.071 68.248L792.341 68.9312L793.071 68.248ZM804.976 43.288V42.288H803.976V43.288H804.976ZM814.919 43.288V79H816.919V43.288H814.919ZM815.919 78H804.976V80H815.919V78ZM805.976 79V74.136H803.976V79H805.976ZM804.157 73.5611C803.152 74.9916 801.769 76.1694 799.976 77.0856L800.887 78.8664C802.934 77.8199 804.58 76.4378 805.794 74.7109L804.157 73.5611ZM799.984 77.0816C798.259 77.9442 796.324 78.384 794.159 78.384V80.384C796.603 80.384 798.849 79.8851 800.879 78.8704L799.984 77.0816ZM794.159 78.384C791.579 78.384 789.344 77.821 787.424 76.7238L786.431 78.4602C788.692 79.7523 791.279 80.384 794.159 80.384V78.384ZM787.437 76.7314C785.522 75.598 784.029 73.9757 782.958 71.8328L781.169 72.7272C782.402 75.1923 784.152 77.1113 786.418 78.4526L787.437 76.7314ZM782.958 71.8328C781.888 69.6937 781.336 67.1435 781.336 64.152H779.336C779.336 67.3899 779.935 70.2583 781.169 72.7272L782.958 71.8328ZM781.336 64.152V43.288H779.336V64.152H781.336ZM780.336 44.288H791.216V42.288H780.336V44.288ZM790.216 43.288V62.68H792.216V43.288H790.216ZM790.216 62.68C790.216 65.2399 790.881 67.3703 792.341 68.9312L793.802 67.5648C792.787 66.4803 792.216 64.8988 792.216 62.68H790.216ZM792.341 68.9312C793.797 70.4877 795.743 71.232 798.063 71.232V69.232C796.203 69.232 794.82 68.6536 793.802 67.5648L792.341 68.9312ZM798.063 71.232C800.42 71.232 802.39 70.492 803.85 68.9312L802.389 67.5648C801.375 68.6493 799.974 69.232 798.063 69.232V71.232ZM803.85 68.9312C805.31 67.3703 805.976 65.2399 805.976 62.68H803.976C803.976 64.8988 803.404 66.4803 802.389 67.5648L803.85 68.9312ZM805.976 62.68V43.288H803.976V62.68H805.976ZM804.976 44.288H815.919V42.288H804.976V44.288ZM893.471 46.936L892.753 47.6316L892.758 47.6374L893.471 46.936ZM897.439 79V80H898.439V79H897.439ZM886.559 79H885.559V80H886.559V79ZM884.703 54.296L883.972 54.9783L883.984 54.9909L883.996 55.0031L884.703 54.296ZM874.655 54.296L873.936 53.601L873.936 53.6014L874.655 54.296ZM872.863 79V80H873.863V79H872.863ZM861.983 79H860.983V80H861.983V79ZM860.127 54.296L859.396 54.9783L859.408 54.9909L859.42 55.0031L860.127 54.296ZM850.079 54.296L849.36 53.601L849.36 53.6014L850.079 54.296ZM848.287 79V80H849.287V79H848.287ZM837.343 79H836.343V80H837.343V79ZM837.343 43.288V42.288H836.343V43.288H837.343ZM848.287 43.288H849.287V42.288H848.287V43.288ZM848.287 47.768H847.287V50.7911L849.09 48.3643L848.287 47.768ZM852.639 44.248L853.069 45.1509L853.078 45.1467L853.086 45.1424L852.639 44.248ZM865.887 44.632L865.404 45.5079L865.412 45.5119L865.887 44.632ZM870.879 49.56L870.006 50.0486L870.828 51.5158L871.725 50.0933L870.879 49.56ZM882.911 43.904C887.132 43.904 890.373 45.174 892.753 47.6316L894.189 46.2404C891.364 43.322 887.565 41.904 882.911 41.904V43.904ZM892.758 47.6374C895.174 50.0918 896.439 53.5463 896.439 58.136H898.439C898.439 53.1684 897.059 49.1562 894.184 46.2346L892.758 47.6374ZM896.439 58.136V79H898.439V58.136H896.439ZM897.439 78H886.559V80H897.439V78ZM887.559 79V59.608H885.559V79H887.559ZM887.559 59.608C887.559 57.1259 886.889 55.0675 885.41 53.5889L883.996 55.0031C884.992 55.9992 885.559 57.4821 885.559 59.608H887.559ZM885.434 53.6137C884.01 52.0878 882.056 51.376 879.711 51.376V53.376C881.632 53.376 883.007 53.9441 883.972 54.9783L885.434 53.6137ZM879.711 51.376C877.364 51.376 875.398 52.088 873.936 53.601L875.374 54.991C876.386 53.944 877.791 53.376 879.711 53.376V51.376ZM873.936 53.6014C872.507 55.0813 871.863 57.1351 871.863 59.608H873.863C873.863 57.4729 874.414 55.9853 875.374 54.9906L873.936 53.6014ZM871.863 59.608V79H873.863V59.608H871.863ZM872.863 78H861.983V80H872.863V78ZM862.983 79V59.608H860.983V79H862.983ZM862.983 59.608C862.983 57.1259 862.313 55.0675 860.834 53.5889L859.42 55.0031C860.416 55.9992 860.983 57.4821 860.983 59.608H862.983ZM860.858 53.6137C859.434 52.0878 857.48 51.376 855.135 51.376V53.376C857.056 53.376 858.431 53.9441 859.396 54.9783L860.858 53.6137ZM855.135 51.376C852.788 51.376 850.823 52.088 849.36 53.601L850.798 54.991C851.81 53.944 853.215 53.376 855.135 53.376V51.376ZM849.36 53.6014C847.931 55.0813 847.287 57.1351 847.287 59.608H849.287C849.287 57.4729 849.838 55.9853 850.798 54.9906L849.36 53.6014ZM847.287 59.608V79H849.287V59.608H847.287ZM848.287 78H837.343V80H848.287V78ZM838.343 79V43.288H836.343V79H838.343ZM837.343 44.288H848.287V42.288H837.343V44.288ZM847.287 43.288V47.768H849.287V43.288H847.287ZM849.09 48.3643C850.095 47.0108 851.414 45.9388 853.069 45.1509L852.209 43.3451C850.28 44.2638 848.697 45.5385 847.484 47.1717L849.09 48.3643ZM853.086 45.1424C854.722 44.3243 856.593 43.904 858.719 43.904V41.904C856.323 41.904 854.14 42.3797 852.192 43.3536L853.086 45.1424ZM858.719 43.904C861.26 43.904 863.479 44.4471 865.404 45.5078L866.37 43.7562C864.113 42.5129 861.554 41.904 858.719 41.904V43.904ZM865.412 45.5119C867.377 46.573 868.904 48.0793 870.006 50.0486L871.752 49.0714C870.465 46.7741 868.664 44.995 866.362 43.7521L865.412 45.5119ZM871.725 50.0933C872.871 48.276 874.434 46.7865 876.437 45.625L875.433 43.895C873.169 45.2082 871.362 46.9187 870.033 49.0267L871.725 50.0933ZM876.437 45.625C878.414 44.478 880.566 43.904 882.911 43.904V41.904C880.221 41.904 877.722 42.5673 875.433 43.895L876.437 45.625ZM904.965 51.416L904.073 50.9633L904.068 50.9743L904.965 51.416ZM910.661 45.016L911.191 45.864L910.661 45.016ZM925.253 44.312L924.774 45.1899L924.782 45.1943L925.253 44.312ZM929.669 48.344L928.817 48.8681L930.669 51.877V48.344H929.669ZM929.669 43.288V42.288H928.669V43.288H929.669ZM940.613 43.288H941.613V42.288H940.613V43.288ZM940.613 79V80H941.613V79H940.613ZM929.669 79H928.669V80H929.669V79ZM929.669 73.944H930.669V70.531L928.827 73.4043L929.669 73.944ZM925.189 77.976L924.718 77.0936L924.71 77.0981L925.189 77.976ZM910.661 77.272L910.12 78.1132L910.131 78.12L910.661 77.272ZM904.965 70.808L904.065 71.2443L904.069 71.2525L904.073 71.2607L904.965 70.808ZM927.365 54.68L926.638 55.3673L926.648 55.3774L927.365 54.68ZM916.293 54.68L915.576 53.9826L915.576 53.9829L916.293 54.68ZM916.293 67.608L915.557 68.2855L915.567 68.2955L915.576 68.3054L916.293 67.608ZM927.365 67.608L926.648 66.9106L926.639 66.9208L927.365 67.608ZM903.917 61.08C903.917 57.5354 904.576 54.4702 905.862 51.8577L904.068 50.9743C902.623 53.9085 901.917 57.2859 901.917 61.08H903.917ZM905.857 51.8687C907.191 49.2402 908.972 47.2511 911.191 45.864L910.131 44.168C907.572 45.7676 905.555 48.0451 904.073 50.9633L905.857 51.8687ZM911.191 45.864C913.414 44.4746 915.896 43.776 918.661 43.776V41.776C915.538 41.776 912.687 42.5708 910.131 44.168L911.191 45.864ZM918.661 43.776C921.041 43.776 923.068 44.2591 924.774 45.1899L925.732 43.4341C923.684 42.3169 921.316 41.776 918.661 41.776V43.776ZM924.782 45.1943C926.564 46.1446 927.897 47.3719 928.817 48.8681L930.521 47.8199C929.393 45.9881 927.782 44.5274 925.724 43.4296L924.782 45.1943ZM930.669 48.344V43.288H928.669V48.344H930.669ZM929.669 44.288H940.613V42.288H929.669V44.288ZM939.613 43.288V79H941.613V43.288H939.613ZM940.613 78H929.669V80H940.613V78ZM930.669 79V73.944H928.669V79H930.669ZM928.827 73.4043C927.862 74.91 926.503 76.1419 924.718 77.0936L925.66 78.8584C927.715 77.7621 929.343 76.306 930.511 74.4837L928.827 73.4043ZM924.71 77.0981C923.004 78.0289 920.977 78.512 918.597 78.512V80.512C921.252 80.512 923.62 79.9711 925.668 78.8539L924.71 77.0981ZM918.597 78.512C915.877 78.512 913.417 77.8149 911.191 76.424L910.131 78.12C912.684 79.7157 915.514 80.512 918.597 80.512V78.512ZM911.202 76.4308C908.976 74.9998 907.192 72.9858 905.857 70.3553L904.073 71.2607C905.554 74.1769 907.568 76.4722 910.12 78.1132L911.202 76.4308ZM905.865 70.3717C904.576 67.7133 903.917 64.6241 903.917 61.08H901.917C901.917 64.8745 902.623 68.2707 904.065 71.2443L905.865 70.3717ZM930.669 61.144C930.669 58.2187 929.841 55.7904 928.082 53.9826L926.648 55.3774C927.961 56.7269 928.669 58.6079 928.669 61.144H930.669ZM928.091 53.9928C926.409 52.2142 924.311 51.312 921.861 51.312V53.312C923.763 53.312 925.334 53.9885 926.639 55.3672L928.091 53.9928ZM921.861 51.312C919.411 51.312 917.298 52.2132 915.576 53.9826L917.01 55.3774C918.36 53.9895 919.959 53.312 921.861 53.312V51.312ZM915.576 53.9829C913.855 55.7531 913.053 58.1637 913.053 61.08H915.053C915.053 58.535 915.744 56.6789 917.01 55.3771L915.576 53.9829ZM913.053 61.08C913.053 63.999 913.856 66.438 915.557 68.2855L917.029 66.9305C915.743 65.5353 915.053 63.6224 915.053 61.08H913.053ZM915.576 68.3054C917.298 70.0748 919.411 70.976 921.861 70.976V68.976C919.959 68.976 918.36 68.2985 917.01 66.9106L915.576 68.3054ZM921.861 70.976C924.311 70.976 926.409 70.0738 928.091 68.2952L926.639 66.9208C925.334 68.2995 923.763 68.976 921.861 68.976V70.976ZM928.082 68.3054C929.841 66.4976 930.669 64.0693 930.669 61.144H928.669C928.669 63.6801 927.961 65.5611 926.648 66.9106L928.082 68.3054ZM948.403 51.416L947.511 50.9633L947.505 50.9743L948.403 51.416ZM954.099 45.016L954.628 45.864L954.099 45.016ZM968.498 44.248L968.043 45.1385L968.051 45.1424L968.498 44.248ZM973.107 48.216L972.274 48.7707L974.107 51.5188V48.216H973.107ZM973.107 31.64V30.64H972.107V31.64H973.107ZM984.05 31.64H985.05V30.64H984.05V31.64ZM984.05 79V80H985.05V79H984.05ZM973.107 79H972.107V80H973.107V79ZM973.107 73.88H974.107V70.2697L972.249 73.3655L973.107 73.88ZM968.69 77.976L968.22 77.0936L968.212 77.0981L968.69 77.976ZM954.099 77.272L953.558 78.1132L953.568 78.12L954.099 77.272ZM948.403 70.808L947.503 71.2443L947.507 71.2525L947.511 71.2607L948.403 70.808ZM970.802 54.68L970.076 55.3673L970.086 55.3774L970.802 54.68ZM959.731 54.68L959.014 53.9826L959.013 53.9829L959.731 54.68ZM959.731 67.608L958.995 68.2855L959.004 68.2955L959.014 68.3054L959.731 67.608ZM970.802 67.608L970.086 66.9106L970.076 66.9208L970.802 67.608ZM947.354 61.08C947.354 57.5354 948.013 54.4702 949.3 51.8577L947.505 50.9743C946.061 53.9085 945.354 57.2859 945.354 61.08H947.354ZM949.294 51.8687C950.629 49.2402 952.409 47.2511 954.628 45.864L953.568 44.168C951.009 45.7676 948.992 48.0451 947.511 50.9633L949.294 51.8687ZM954.628 45.864C956.852 44.4746 959.333 43.776 962.099 43.776V41.776C958.976 41.776 956.124 42.5708 953.568 44.168L954.628 45.864ZM962.099 43.776C964.301 43.776 966.276 44.2353 968.043 45.1384L968.954 43.3576C966.881 42.298 964.589 41.776 962.099 41.776V43.776ZM968.051 45.1424C969.874 46.0537 971.271 47.2653 972.274 48.7707L973.939 47.6613C972.724 45.8387 971.049 44.405 968.946 43.3536L968.051 45.1424ZM974.107 48.216V31.64H972.107V48.216H974.107ZM973.107 32.64H984.05V30.64H973.107V32.64ZM983.05 31.64V79H985.05V31.64H983.05ZM984.05 78H973.107V80H984.05V78ZM974.107 79V73.88H972.107V79H974.107ZM972.249 73.3655C971.327 74.9024 969.995 76.1467 968.22 77.0936L969.161 78.8584C971.226 77.7573 972.838 76.2709 973.964 74.3945L972.249 73.3655ZM968.212 77.0981C966.505 78.0289 964.478 78.512 962.099 78.512V80.512C964.753 80.512 967.121 79.9711 969.169 78.8539L968.212 77.0981ZM962.099 78.512C959.333 78.512 956.852 77.8134 954.628 76.424L953.568 78.12C956.124 79.7172 958.976 80.512 962.099 80.512V78.512ZM954.639 76.4308C952.413 74.9998 950.63 72.9858 949.294 70.3553L947.511 71.2607C948.991 74.1769 951.005 76.4722 953.558 78.1132L954.639 76.4308ZM949.302 70.3717C948.013 67.7133 947.354 64.6241 947.354 61.08H945.354C945.354 64.8745 946.061 68.2707 947.503 71.2443L949.302 70.3717ZM974.107 61.144C974.107 58.2187 973.278 55.7904 971.519 53.9826L970.086 55.3774C971.399 56.7269 972.107 58.6079 972.107 61.144H974.107ZM971.529 53.9928C969.846 52.2142 967.749 51.312 965.299 51.312V53.312C967.2 53.312 968.772 53.9885 970.076 55.3672L971.529 53.9928ZM965.299 51.312C962.849 51.312 960.735 52.2132 959.014 53.9826L960.447 55.3774C961.798 53.9895 963.396 53.312 965.299 53.312V51.312ZM959.013 53.9829C957.293 55.7531 956.49 58.1637 956.49 61.08H958.49C958.49 58.535 959.182 56.6789 960.448 55.3771L959.013 53.9829ZM956.49 61.08C956.49 63.999 957.293 66.438 958.995 68.2855L960.466 66.9305C959.181 65.5353 958.49 63.6224 958.49 61.08H956.49ZM959.014 68.3054C960.735 70.0748 962.849 70.976 965.299 70.976V68.976C963.396 68.976 961.798 68.2985 960.447 66.9106L959.014 68.3054ZM965.299 70.976C967.749 70.976 969.846 70.0738 971.529 68.2952L970.076 66.9208C968.772 68.2995 967.2 68.976 965.299 68.976V70.976ZM971.519 68.3054C973.278 66.4976 974.107 64.0693 974.107 61.144H972.107C972.107 63.6801 971.399 65.5611 970.086 66.9106L971.519 68.3054ZM1025.44 63.768V64.768H1026.33L1026.43 63.8826L1025.44 63.768ZM1000.67 63.768V62.768H999.592L999.675 63.8447L1000.67 63.768ZM1002.78 68.888L1002.09 69.6074L1002.1 69.6196L1002.12 69.6313L1002.78 68.888ZM1013.15 67.16V66.16H1012.51L1012.24 66.7399L1013.15 67.16ZM1024.8 67.16L1025.77 67.4067L1026.09 66.16H1024.8V67.16ZM1021.54 73.496L1020.77 72.8523L1020.76 72.8628L1021.54 73.496ZM1015.71 77.912L1016.13 78.8224L1015.71 77.912ZM998.496 77.272L998.016 78.1494L998.496 77.272ZM992.096 70.872L992.971 70.3875L992.096 70.872ZM992.032 51.416L991.157 50.9315L991.152 50.9419L992.032 51.416ZM998.432 45.016L998.912 45.8934L998.432 45.016ZM1017.06 44.952L1016.58 45.832V45.832L1017.06 44.952ZM1023.33 51.16L1022.45 51.6457L1022.46 51.6561L1023.33 51.16ZM1014.43 57.688V58.688H1015.43V57.688H1014.43ZM1012.51 53.208L1013.17 52.4523L1012.51 53.208ZM1003.04 53.144L1002.4 52.3758L1002.39 52.3811L1002.39 52.3866L1003.04 53.144ZM1000.74 57.688L999.747 57.5376L999.572 58.688H1000.74V57.688ZM1024.63 60.568C1024.63 61.5504 1024.57 62.5787 1024.45 63.6534L1026.43 63.8826C1026.57 62.7386 1026.63 61.6336 1026.63 60.568H1024.63ZM1025.44 62.768H1000.67V64.768H1025.44V62.768ZM999.675 63.8447C999.859 66.2339 1000.63 68.1977 1002.09 69.6074L1003.48 68.1686C1002.46 67.189 1001.83 65.7395 1001.67 63.6913L999.675 63.8447ZM1002.12 69.6313C1003.59 70.96 1005.39 71.616 1007.46 71.616V69.616C1005.85 69.616 1004.54 69.12 1003.45 68.1447L1002.12 69.6313ZM1007.46 71.616C1008.96 71.616 1010.31 71.2974 1011.45 70.6069C1012.59 69.9136 1013.45 68.8858 1014.06 67.5801L1012.24 66.7399C1011.78 67.7382 1011.17 68.4384 1010.41 68.8971C1009.65 69.3586 1008.68 69.616 1007.46 69.616V71.616ZM1013.15 68.16H1024.8V66.16H1013.15V68.16ZM1023.83 66.9133C1023.27 69.1121 1022.25 71.0888 1020.77 72.8524L1022.3 74.1396C1023.98 72.1485 1025.13 69.9013 1025.77 67.4067L1023.83 66.9133ZM1020.76 72.8628C1019.33 74.6139 1017.51 75.9944 1015.3 77.0016L1016.13 78.8224C1018.6 77.6963 1020.67 76.1328 1022.31 74.1292L1020.76 72.8628ZM1015.3 77.0016C1013.1 78.0022 1010.62 78.512 1007.84 78.512V80.512C1010.87 80.512 1013.63 79.9551 1016.13 78.8224L1015.3 77.0016ZM1007.84 78.512C1004.49 78.512 1001.54 77.7979 998.976 76.3946L998.016 78.1494C1000.91 79.7327 1004.19 80.512 1007.84 80.512V78.512ZM998.976 76.3946C996.415 74.994 994.417 72.9984 992.971 70.3875L991.221 71.3565C992.847 74.2923 995.116 76.5634 998.016 78.1494L998.976 76.3946ZM992.971 70.3875C991.53 67.786 990.792 64.7156 990.792 61.144H988.792C988.792 64.9964 989.59 68.4114 991.221 71.3565L992.971 70.3875ZM990.792 61.144C990.792 57.5679 991.51 54.4937 992.912 51.8901L991.152 50.9419C989.567 53.8849 988.792 57.2961 988.792 61.144H990.792ZM992.907 51.9005C994.353 49.2896 996.351 47.294 998.912 45.8934L997.952 44.1386C995.052 45.7246 992.783 47.9957 991.157 50.9315L992.907 51.9005ZM998.912 45.8934C1001.48 44.491 1004.44 43.776 1007.84 43.776V41.776C1004.15 41.776 1000.85 42.5543 997.952 44.1386L998.912 45.8934ZM1007.84 43.776C1011.15 43.776 1014.06 44.47 1016.58 45.832L1017.53 44.072C1014.68 42.5327 1011.44 41.776 1007.84 41.776V43.776ZM1016.58 45.832C1019.1 47.1914 1021.05 49.1233 1022.45 51.6456L1024.2 50.6744C1022.62 47.8207 1020.39 45.6139 1017.53 44.072L1016.58 45.832ZM1022.46 51.6561C1023.9 54.1707 1024.63 57.1303 1024.63 60.568H1026.63C1026.63 56.8377 1025.83 53.5253 1024.2 50.6639L1022.46 51.6561ZM1015.43 57.688C1015.43 55.5559 1014.69 53.7735 1013.17 52.4523L1011.86 53.9637C1012.89 54.8611 1013.43 56.0654 1013.43 57.688H1015.43ZM1013.17 52.4523C1011.68 51.1643 1009.84 50.544 1007.71 50.544V52.544C1009.43 52.544 1010.78 53.033 1011.86 53.9637L1013.17 52.4523ZM1007.71 50.544C1005.67 50.544 1003.88 51.1439 1002.4 52.3758L1003.68 53.9122C1004.76 53.0107 1006.09 52.544 1007.71 52.544V50.544ZM1002.39 52.3866C1000.93 53.6408 1000.07 55.3919 999.747 57.5376L1001.72 57.8384C1002 56.0588 1002.67 54.7806 1003.69 53.9014L1002.39 52.3866ZM1000.74 58.688H1014.43V56.688H1000.74V58.688ZM1055.47 35.16L1054.81 35.9126L1054.82 35.9176L1055.47 35.16ZM1055.66 54.68L1056.31 55.441L1056.31 55.4401L1055.66 54.68ZM1045.29 58.072L1045.28 57.072L1044.36 57.0812L1044.3 58.0055L1045.29 58.072ZM1044.97 62.872V63.872H1045.91L1045.97 62.9385L1044.97 62.872ZM1035.37 62.872L1034.37 62.8989L1034.4 63.872H1035.37V62.872ZM1035.05 50.968V49.968H1034.03L1034.05 50.9949L1035.05 50.968ZM1046.38 49.752L1045.96 48.8446L1045.95 48.8487L1046.38 49.752ZM1040.81 41.88L1041.52 42.5871L1041.53 42.5785L1041.54 42.5697L1040.81 41.88ZM1039.53 45.4V46.4H1040.53V45.4H1039.53ZM1029.23 45.4L1028.23 45.4328L1028.26 46.4H1029.23V45.4ZM1030.83 38.36L1029.96 37.8639L1029.96 37.8706L1029.95 37.8774L1030.83 38.36ZM1036.08 33.432L1036.54 34.3198L1036.54 34.3166L1036.08 33.432ZM1035.57 77.848L1034.87 78.5678L1034.88 78.5805L1034.9 78.5926L1035.57 77.848ZM1035.57 69.336L1034.88 68.6041L1034.88 68.6101L1034.87 68.6162L1035.57 69.336ZM1044.91 69.336L1044.22 70.0558L1044.22 70.0619L1044.23 70.0679L1044.91 69.336ZM1044.91 77.848L1045.59 78.5808L1045.59 78.5799L1044.91 77.848ZM1044.53 32.576C1048.91 32.576 1052.31 33.7207 1054.81 35.9126L1056.13 34.4074C1053.17 31.8206 1049.27 30.576 1044.53 30.576V32.576ZM1054.82 35.9176C1057.33 38.0808 1058.63 41.1506 1058.63 45.272H1060.63C1060.63 40.6894 1059.16 37.0179 1056.12 34.4024L1054.82 35.9176ZM1058.63 45.272C1058.63 49.0398 1057.4 51.8785 1055.01 53.9199L1056.31 55.4401C1059.21 52.9588 1060.63 49.5255 1060.63 45.272H1058.63ZM1055.01 53.919C1052.63 55.9494 1049.42 57.0311 1045.28 57.072L1045.3 59.0719C1049.78 59.0276 1053.49 57.8479 1056.31 55.441L1055.01 53.919ZM1044.3 58.0055L1043.98 62.8055L1045.97 62.9385L1046.29 58.1385L1044.3 58.0055ZM1044.97 61.872H1035.37V63.872H1044.97V61.872ZM1036.37 62.8451L1036.05 50.9411L1034.05 50.9949L1034.37 62.8989L1036.37 62.8451ZM1035.05 51.968H1038.89V49.968H1035.05V51.968ZM1038.89 51.968C1042.23 51.968 1044.91 51.5604 1046.81 50.6553L1045.95 48.8487C1044.44 49.5649 1042.12 49.968 1038.89 49.968V51.968ZM1046.8 50.6593C1047.84 50.1802 1048.66 49.4816 1049.21 48.5508C1049.76 47.6265 1050.01 46.5386 1050.01 45.336H1048.01C1048.01 46.2667 1047.82 46.9815 1047.49 47.5292C1047.17 48.0704 1046.68 48.5131 1045.96 48.8447L1046.8 50.6593ZM1050.01 45.336C1050.01 43.6582 1049.55 42.2127 1048.51 41.1272L1047.06 42.5047C1047.65 43.126 1048.01 44.0272 1048.01 45.336H1050.01ZM1048.51 41.1272C1047.47 40.0306 1046.05 39.536 1044.4 39.536V41.536C1045.64 41.536 1046.48 41.8947 1047.06 42.5047L1048.51 41.1272ZM1044.4 39.536C1042.66 39.536 1041.18 40.0503 1040.09 41.1903L1041.54 42.5697C1042.16 41.9177 1043.06 41.536 1044.4 41.536V39.536ZM1040.11 41.1729C1039.02 42.2562 1038.53 43.7082 1038.53 45.4H1040.53C1040.53 44.1051 1040.9 43.2105 1041.52 42.5871L1040.11 41.1729ZM1039.53 44.4H1029.23V46.4H1039.53V44.4ZM1030.23 45.3672C1030.15 42.9275 1030.65 40.7616 1031.71 38.8426L1029.95 37.8774C1028.71 40.1398 1028.14 42.6672 1028.23 45.4328L1030.23 45.3672ZM1031.7 38.8561C1032.79 36.9456 1034.39 35.433 1036.54 34.3198L1035.62 32.5442C1033.16 33.8203 1031.26 35.5931 1029.96 37.8639L1031.7 38.8561ZM1036.54 34.3166C1038.72 33.171 1041.36 32.576 1044.53 32.576V30.576C1041.12 30.576 1038.13 31.2183 1035.61 32.5474L1036.54 34.3166ZM1040.3 78.512C1038.59 78.512 1037.26 78.023 1036.23 77.1034L1034.9 78.5926C1036.35 79.8917 1038.18 80.512 1040.3 80.512V78.512ZM1036.26 77.1282C1035.26 76.1652 1034.77 75.0173 1034.77 73.624H1032.77C1032.77 75.5587 1033.48 77.2268 1034.87 78.5678L1036.26 77.1282ZM1034.77 73.624C1034.77 72.1802 1035.27 71.0134 1036.26 70.0558L1034.87 68.6162C1033.48 69.9626 1032.77 71.6545 1032.77 73.624H1034.77ZM1036.25 70.0679C1037.27 69.1118 1038.6 68.608 1040.3 68.608V66.608C1038.17 66.608 1036.33 67.2562 1034.88 68.6041L1036.25 70.0679ZM1040.3 68.608C1041.96 68.608 1043.23 69.1076 1044.22 70.0558L1045.6 68.6162C1044.2 67.2604 1042.4 66.608 1040.3 66.608V68.608ZM1044.23 70.0679C1045.26 71.0287 1045.77 72.1919 1045.77 73.624H1047.77C1047.77 71.6427 1047.03 69.9473 1045.59 68.6041L1044.23 70.0679ZM1045.77 73.624C1045.77 75.0054 1045.27 76.1498 1044.23 77.1161L1045.59 78.5799C1047.03 77.2422 1047.77 75.5706 1047.77 73.624H1045.77ZM1044.23 77.1152C1043.25 78.0268 1041.97 78.512 1040.3 78.512V80.512C1042.39 80.512 1044.18 79.8879 1045.59 78.5808L1044.23 77.1152ZM1068.34 34.072V33.072H1067.51L1067.36 33.8815L1068.34 34.072ZM1079.54 34.072L1080.46 34.4576L1081.04 33.072H1079.54V34.072ZM1072.37 51.224V52.224H1073.04L1073.29 51.6096L1072.37 51.224ZM1065.01 51.224L1064.03 51.0335L1063.8 52.224H1065.01V51.224ZM1082.87 34.072V33.072H1082.04L1081.89 33.8815L1082.87 34.072ZM1094.07 34.072L1094.99 34.4576L1095.57 33.072H1094.07V34.072ZM1086.9 51.224V52.224H1087.56L1087.82 51.6096L1086.9 51.224ZM1079.54 51.224L1078.56 51.0335L1078.33 52.224H1079.54V51.224ZM1068.34 35.072H1079.54V33.072H1068.34V35.072ZM1078.62 33.6864L1071.45 50.8384L1073.29 51.6096L1080.46 34.4576L1078.62 33.6864ZM1072.37 50.224H1065.01V52.224H1072.37V50.224ZM1065.99 51.4145L1069.32 34.2625L1067.36 33.8815L1064.03 51.0335L1065.99 51.4145ZM1082.87 35.072H1094.07V33.072H1082.87V35.072ZM1093.14 33.6864L1085.98 50.8384L1087.82 51.6096L1094.99 34.4576L1093.14 33.6864ZM1086.9 50.224H1079.54V52.224H1086.9V50.224ZM1080.52 51.4145L1083.85 34.2625L1081.89 33.8815L1078.56 51.0335L1080.52 51.4145Z" fill="#FFD941"/>
<path d="M13.632 42.224H2.432L9.6 25.072H16.96L13.632 42.224ZM28.16 42.224H17.024L24.192 25.072H31.488L28.16 42.224ZM100.417 25.072L88.705 70H75.457L68.289 40.432L60.865 70H47.617L36.225 25.072H47.937L54.401 57.776L62.401 25.072H74.433L82.113 57.776L88.641 25.072H100.417ZM127.858 33.904C131.954 33.904 135.239 35.2693 137.714 38C140.188 40.688 141.426 44.4 141.426 49.136V70H130.546V50.608C130.546 48.2187 129.927 46.3627 128.69 45.04C127.452 43.7173 125.788 43.056 123.698 43.056C121.607 43.056 119.943 43.7173 118.706 45.04C117.468 46.3627 116.85 48.2187 116.85 50.608V70H105.906V22.64H116.85V39.088C117.959 37.5093 119.474 36.2507 121.394 35.312C123.314 34.3733 125.468 33.904 127.858 33.904ZM146.855 52.08C146.855 48.4107 147.537 45.1893 148.903 42.416C150.311 39.6427 152.209 37.5093 154.599 36.016C156.988 34.5227 159.655 33.776 162.599 33.776C165.116 33.776 167.313 34.288 169.191 35.312C171.111 36.336 172.583 37.68 173.607 39.344V34.288H184.551V70H173.607V64.944C172.54 66.608 171.047 67.952 169.127 68.976C167.249 70 165.052 70.512 162.535 70.512C159.633 70.512 156.988 69.7653 154.599 68.272C152.209 66.736 150.311 64.5813 148.903 61.808C147.537 58.992 146.855 55.7493 146.855 52.08ZM173.607 52.144C173.607 49.4133 172.839 47.2587 171.303 45.68C169.809 44.1013 167.975 43.312 165.799 43.312C163.623 43.312 161.767 44.1013 160.231 45.68C158.737 47.216 157.991 49.3493 157.991 52.08C157.991 54.8107 158.737 56.9867 160.231 58.608C161.767 60.1867 163.623 60.976 165.799 60.976C167.975 60.976 169.809 60.1867 171.303 58.608C172.839 57.0293 173.607 54.8747 173.607 52.144ZM212.372 60.72V70H206.804C202.836 70 199.743 69.04 197.524 67.12C195.305 65.1573 194.196 61.9787 194.196 57.584V43.376H189.844V34.288H194.196V25.584H205.14V34.288H212.308V43.376H205.14V57.712C205.14 58.7787 205.396 59.5467 205.908 60.016C206.42 60.4853 207.273 60.72 208.468 60.72H212.372ZM242.975 39.344C244.041 37.68 245.513 36.336 247.391 35.312C249.268 34.288 251.465 33.776 253.983 33.776C256.927 33.776 259.593 34.5227 261.983 36.016C264.372 37.5093 266.249 39.6427 267.615 42.416C269.023 45.1893 269.727 48.4107 269.727 52.08C269.727 55.7493 269.023 58.992 267.615 61.808C266.249 64.5813 264.372 66.736 261.983 68.272C259.593 69.7653 256.927 70.512 253.983 70.512C251.508 70.512 249.311 70 247.391 68.976C245.513 67.952 244.041 66.6293 242.975 65.008V87.024H232.031V34.288H242.975V39.344ZM258.591 52.08C258.591 49.3493 257.823 47.216 256.287 45.68C254.793 44.1013 252.937 43.312 250.719 43.312C248.543 43.312 246.687 44.1013 245.151 45.68C243.657 47.2587 242.911 49.4133 242.911 52.144C242.911 54.8747 243.657 57.0293 245.151 58.608C246.687 60.1867 248.543 60.976 250.719 60.976C252.895 60.976 254.751 60.1867 256.287 58.608C257.823 56.9867 258.591 54.8107 258.591 52.08ZM286.412 40.24C287.692 38.2773 289.292 36.7413 291.212 35.632C293.132 34.48 295.265 33.904 297.612 33.904V45.488H294.604C291.873 45.488 289.825 46.0853 288.46 47.28C287.095 48.432 286.412 50.48 286.412 53.424V70H275.468V34.288H286.412V40.24ZM319.099 70.512C315.6 70.512 312.443 69.7653 309.627 68.272C306.854 66.7787 304.656 64.6453 303.035 61.872C301.456 59.0987 300.667 55.856 300.667 52.144C300.667 48.4747 301.478 45.2533 303.099 42.48C304.72 39.664 306.939 37.5093 309.755 36.016C312.571 34.5227 315.728 33.776 319.227 33.776C322.726 33.776 325.883 34.5227 328.699 36.016C331.515 37.5093 333.734 39.664 335.355 42.48C336.976 45.2533 337.787 48.4747 337.787 52.144C337.787 55.8133 336.955 59.056 335.291 61.872C333.67 64.6453 331.43 66.7787 328.571 68.272C325.755 69.7653 322.598 70.512 319.099 70.512ZM319.099 61.04C321.19 61.04 322.96 60.272 324.411 58.736C325.904 57.2 326.651 55.0027 326.651 52.144C326.651 49.2853 325.926 47.088 324.475 45.552C323.067 44.016 321.318 43.248 319.227 43.248C317.094 43.248 315.323 44.016 313.915 45.552C312.507 47.0453 311.803 49.2427 311.803 52.144C311.803 55.0027 312.486 57.2 313.851 58.736C315.259 60.272 317.008 61.04 319.099 61.04ZM349.033 30.576C347.113 30.576 345.534 30.0213 344.297 28.912C343.102 27.76 342.505 26.352 342.505 24.688C342.505 22.9813 343.102 21.5733 344.297 20.464C345.534 19.312 347.113 18.736 349.033 18.736C350.91 18.736 352.446 19.312 353.641 20.464C354.878 21.5733 355.497 22.9813 355.497 24.688C355.497 26.352 354.878 27.76 353.641 28.912C352.446 30.0213 350.91 30.576 349.033 30.576ZM354.537 74.608C354.537 79.0027 353.428 82.16 351.209 84.08C348.99 86.0427 345.897 87.024 341.929 87.024H337.641V77.744H340.265C341.46 77.744 342.313 77.5093 342.825 77.04C343.337 76.5707 343.593 75.8027 343.593 74.736V34.288H354.537V74.608ZM396.069 51.568C396.069 52.592 396.006 53.6587 395.878 54.768H371.11C371.28 56.9867 371.984 58.6933 373.222 59.888C374.502 61.04 376.059 61.616 377.894 61.616C380.624 61.616 382.523 60.464 383.59 58.16H395.238C394.64 60.5067 393.552 62.6187 391.974 64.496C390.438 66.3733 388.496 67.8453 386.15 68.912C383.803 69.9787 381.179 70.512 378.278 70.512C374.779 70.512 371.664 69.7653 368.934 68.272C366.203 66.7787 364.07 64.6453 362.534 61.872C360.998 59.0987 360.23 55.856 360.23 52.144C360.23 48.432 360.976 45.1893 362.47 42.416C364.006 39.6427 366.139 37.5093 368.87 36.016C371.6 34.5227 374.736 33.776 378.278 33.776C381.734 33.776 384.806 34.5013 387.494 35.952C390.182 37.4027 392.272 39.472 393.766 42.16C395.302 44.848 396.069 47.984 396.069 51.568ZM384.87 48.688C384.87 46.8107 384.23 45.3173 382.95 44.208C381.67 43.0987 380.07 42.544 378.15 42.544C376.315 42.544 374.758 43.0773 373.478 44.144C372.24 45.2107 371.472 46.7253 371.174 48.688H384.87ZM399.667 52.144C399.667 48.432 400.414 45.1893 401.907 42.416C403.443 39.6427 405.555 37.5093 408.243 36.016C410.974 34.5227 414.088 33.776 417.587 33.776C422.067 33.776 425.8 34.9493 428.787 37.296C431.816 39.6427 433.8 42.9493 434.739 47.216H423.091C422.11 44.4853 420.211 43.12 417.395 43.12C415.39 43.12 413.79 43.9093 412.595 45.488C411.4 47.024 410.803 49.2427 410.803 52.144C410.803 55.0453 411.4 57.2853 412.595 58.864C413.79 60.4 415.39 61.168 417.395 61.168C420.211 61.168 422.11 59.8027 423.091 57.072H434.739C433.8 61.2533 431.816 64.5387 428.787 66.928C425.758 69.3173 422.024 70.512 417.587 70.512C414.088 70.512 410.974 69.7653 408.243 68.272C405.555 66.7787 403.443 64.6453 401.907 61.872C400.414 59.0987 399.667 55.856 399.667 52.144ZM460.497 60.72V70H454.929C450.961 70 447.868 69.04 445.649 67.12C443.43 65.1573 442.321 61.9787 442.321 57.584V43.376H437.969V34.288H442.321V25.584H453.265V34.288H460.433V43.376H453.265V57.712C453.265 58.7787 453.521 59.5467 454.033 60.016C454.545 60.4853 455.398 60.72 456.593 60.72H460.497ZM481.121 70.512C478.006 70.512 475.233 69.9787 472.801 68.912C470.369 67.8453 468.449 66.3947 467.041 64.56C465.633 62.6827 464.844 60.592 464.673 58.288H475.489C475.617 59.5253 476.193 60.528 477.217 61.296C478.241 62.064 479.5 62.448 480.993 62.448C482.358 62.448 483.404 62.192 484.129 61.68C484.897 61.1253 485.281 60.4213 485.281 59.568C485.281 58.544 484.748 57.7973 483.681 57.328C482.614 56.816 480.886 56.2613 478.497 55.664C475.937 55.0667 473.804 54.448 472.097 53.808C470.39 53.1253 468.918 52.08 467.681 50.672C466.444 49.2213 465.825 47.28 465.825 44.848C465.825 42.8 466.38 40.944 467.489 39.28C468.641 37.5733 470.305 36.2293 472.481 35.248C474.7 34.2667 477.324 33.776 480.353 33.776C484.833 33.776 488.353 34.8853 490.913 37.104C493.516 39.3227 495.009 42.2667 495.393 45.936H485.281C485.11 44.6987 484.556 43.7173 483.617 42.992C482.721 42.2667 481.526 41.904 480.033 41.904C478.753 41.904 477.772 42.16 477.089 42.672C476.406 43.1413 476.065 43.8027 476.065 44.656C476.065 45.68 476.598 46.448 477.665 46.96C478.774 47.472 480.481 47.984 482.785 48.496C485.43 49.1787 487.585 49.8613 489.249 50.544C490.913 51.184 492.364 52.2507 493.601 53.744C494.881 55.1947 495.542 57.1573 495.585 59.632C495.585 61.7227 494.988 63.6 493.793 65.264C492.641 66.8853 490.956 68.1653 488.737 69.104C486.561 70.0427 484.022 70.512 481.121 70.512ZM537.795 33.904C541.891 33.904 545.176 35.2693 547.651 38C550.126 40.688 551.363 44.4 551.363 49.136V70H540.483V50.608C540.483 48.2187 539.864 46.3627 538.627 45.04C537.39 43.7173 535.726 43.056 533.635 43.056C531.544 43.056 529.88 43.7173 528.643 45.04C527.406 46.3627 526.787 48.2187 526.787 50.608V70H515.843V22.64H526.787V39.088C527.896 37.5093 529.411 36.2507 531.331 35.312C533.251 34.3733 535.406 33.904 537.795 33.904ZM556.792 52.08C556.792 48.4107 557.475 45.1893 558.84 42.416C560.248 39.6427 562.147 37.5093 564.536 36.016C566.925 34.5227 569.592 33.776 572.536 33.776C575.053 33.776 577.251 34.288 579.128 35.312C581.048 36.336 582.52 37.68 583.544 39.344V34.288H594.488V70H583.544V64.944C582.477 66.608 580.984 67.952 579.064 68.976C577.187 70 574.989 70.512 572.472 70.512C569.571 70.512 566.925 69.7653 564.536 68.272C562.147 66.736 560.248 64.5813 558.84 61.808C557.475 58.992 556.792 55.7493 556.792 52.08ZM583.544 52.144C583.544 49.4133 582.776 47.2587 581.24 45.68C579.747 44.1013 577.912 43.312 575.736 43.312C573.56 43.312 571.704 44.1013 570.168 45.68C568.675 47.216 567.928 49.3493 567.928 52.08C567.928 54.8107 568.675 56.9867 570.168 58.608C571.704 60.1867 573.56 60.976 575.736 60.976C577.912 60.976 579.747 60.1867 581.24 58.608C582.776 57.0293 583.544 54.8747 583.544 52.144ZM618.47 59.76L626.214 34.288H637.862L625.19 70H611.686L599.014 34.288H610.726L618.47 59.76ZM676.132 51.568C676.132 52.592 676.068 53.6587 675.94 54.768H651.172C651.343 56.9867 652.047 58.6933 653.284 59.888C654.564 61.04 656.121 61.616 657.956 61.616C660.687 61.616 662.585 60.464 663.652 58.16H675.3C674.703 60.5067 673.615 62.6187 672.036 64.496C670.5 66.3733 668.559 67.8453 666.212 68.912C663.865 69.9787 661.241 70.512 658.34 70.512C654.841 70.512 651.727 69.7653 648.996 68.272C646.265 66.7787 644.132 64.6453 642.596 61.872C641.06 59.0987 640.292 55.856 640.292 52.144C640.292 48.432 641.039 45.1893 642.532 42.416C644.068 39.6427 646.201 37.5093 648.932 36.016C651.663 34.5227 654.799 33.776 658.34 33.776C661.796 33.776 664.868 34.5013 667.556 35.952C670.244 37.4027 672.335 39.472 673.828 42.16C675.364 44.848 676.132 47.984 676.132 51.568ZM664.932 48.688C664.932 46.8107 664.292 45.3173 663.012 44.208C661.732 43.0987 660.132 42.544 658.212 42.544C656.377 42.544 654.82 43.0773 653.54 44.144C652.303 45.2107 651.535 46.7253 651.236 48.688H664.932ZM731.948 34.288L709.548 86.96H697.772L705.964 68.784L691.436 34.288H703.66L711.916 56.624L720.108 34.288H731.948ZM752.162 70.512C748.663 70.512 745.506 69.7653 742.69 68.272C739.916 66.7787 737.719 64.6453 736.098 61.872C734.519 59.0987 733.73 55.856 733.73 52.144C733.73 48.4747 734.54 45.2533 736.161 42.48C737.783 39.664 740.002 37.5093 742.818 36.016C745.634 34.5227 748.791 33.776 752.29 33.776C755.788 33.776 758.946 34.5227 761.762 36.016C764.578 37.5093 766.796 39.664 768.418 42.48C770.039 45.2533 770.85 48.4747 770.85 52.144C770.85 55.8133 770.018 59.056 768.354 61.872C766.732 64.6453 764.492 66.7787 761.634 68.272C758.818 69.7653 755.66 70.512 752.162 70.512ZM752.162 61.04C754.252 61.04 756.023 60.272 757.474 58.736C758.967 57.2 759.714 55.0027 759.714 52.144C759.714 49.2853 758.988 47.088 757.538 45.552C756.13 44.016 754.38 43.248 752.29 43.248C750.156 43.248 748.386 44.016 746.978 45.552C745.57 47.0453 744.866 49.2427 744.866 52.144C744.866 55.0027 745.548 57.2 746.914 58.736C748.322 60.272 750.071 61.04 752.162 61.04ZM811.92 34.288V70H800.976V65.136C799.866 66.7147 798.352 67.9947 796.432 68.976C794.554 69.9147 792.464 70.384 790.16 70.384C787.429 70.384 785.018 69.7867 782.928 68.592C780.837 67.3547 779.216 65.584 778.064 63.28C776.912 60.976 776.336 58.2667 776.336 55.152V34.288H787.216V53.68C787.216 56.0693 787.834 57.9253 789.072 59.248C790.309 60.5707 791.973 61.232 794.064 61.232C796.197 61.232 797.882 60.5707 799.12 59.248C800.357 57.9253 800.976 56.0693 800.976 53.68V34.288H811.92ZM878.911 33.904C883.348 33.904 886.868 35.248 889.471 37.936C892.116 40.624 893.439 44.3573 893.439 49.136V70H882.559V50.608C882.559 48.304 881.94 46.5333 880.703 45.296C879.508 44.016 877.844 43.376 875.711 43.376C873.578 43.376 871.892 44.016 870.655 45.296C869.46 46.5333 868.863 48.304 868.863 50.608V70H857.983V50.608C857.983 48.304 857.364 46.5333 856.127 45.296C854.932 44.016 853.268 43.376 851.135 43.376C849.002 43.376 847.316 44.016 846.079 45.296C844.884 46.5333 844.287 48.304 844.287 50.608V70H833.343V34.288H844.287V38.768C845.396 37.2747 846.847 36.1013 848.639 35.248C850.431 34.352 852.458 33.904 854.719 33.904C857.407 33.904 859.796 34.48 861.887 35.632C864.02 36.784 865.684 38.4267 866.879 40.56C868.116 38.5973 869.802 36.9973 871.935 35.76C874.068 34.5227 876.394 33.904 878.911 33.904ZM898.917 52.08C898.917 48.4107 899.6 45.1893 900.965 42.416C902.373 39.6427 904.272 37.5093 906.661 36.016C909.05 34.5227 911.717 33.776 914.661 33.776C917.178 33.776 919.376 34.288 921.253 35.312C923.173 36.336 924.645 37.68 925.669 39.344V34.288H936.613V70H925.669V64.944C924.602 66.608 923.109 67.952 921.189 68.976C919.312 70 917.114 70.512 914.597 70.512C911.696 70.512 909.05 69.7653 906.661 68.272C904.272 66.736 902.373 64.5813 900.965 61.808C899.6 58.992 898.917 55.7493 898.917 52.08ZM925.669 52.144C925.669 49.4133 924.901 47.2587 923.365 45.68C921.872 44.1013 920.037 43.312 917.861 43.312C915.685 43.312 913.829 44.1013 912.293 45.68C910.8 47.216 910.053 49.3493 910.053 52.08C910.053 54.8107 910.8 56.9867 912.293 58.608C913.829 60.1867 915.685 60.976 917.861 60.976C920.037 60.976 921.872 60.1867 923.365 58.608C924.901 57.0293 925.669 54.8747 925.669 52.144ZM942.355 52.08C942.355 48.4107 943.037 45.1893 944.403 42.416C945.811 39.6427 947.709 37.5093 950.099 36.016C952.488 34.5227 955.155 33.776 958.099 33.776C960.445 33.776 962.579 34.2667 964.499 35.248C966.461 36.2293 967.997 37.552 969.107 39.216V22.64H980.051V70H969.107V64.88C968.083 66.5867 966.611 67.952 964.691 68.976C962.813 70 960.616 70.512 958.099 70.512C955.155 70.512 952.488 69.7653 950.099 68.272C947.709 66.736 945.811 64.5813 944.403 61.808C943.037 58.992 942.355 55.7493 942.355 52.08ZM969.107 52.144C969.107 49.4133 968.339 47.2587 966.803 45.68C965.309 44.1013 963.475 43.312 961.299 43.312C959.123 43.312 957.267 44.1013 955.731 45.68C954.237 47.216 953.491 49.3493 953.491 52.08C953.491 54.8107 954.237 56.9867 955.731 58.608C957.267 60.1867 959.123 60.976 961.299 60.976C963.475 60.976 965.309 60.1867 966.803 58.608C968.339 57.0293 969.107 54.8747 969.107 52.144ZM1021.63 51.568C1021.63 52.592 1021.57 53.6587 1021.44 54.768H996.672C996.843 56.9867 997.547 58.6933 998.784 59.888C1000.06 61.04 1001.62 61.616 1003.46 61.616C1006.19 61.616 1008.09 60.464 1009.15 58.16H1020.8C1020.2 60.5067 1019.11 62.6187 1017.54 64.496C1016 66.3733 1014.06 67.8453 1011.71 68.912C1009.37 69.9787 1006.74 70.512 1003.84 70.512C1000.34 70.512 997.227 69.7653 994.496 68.272C991.765 66.7787 989.632 64.6453 988.096 61.872C986.56 59.0987 985.792 55.856 985.792 52.144C985.792 48.432 986.539 45.1893 988.032 42.416C989.568 39.6427 991.701 37.5093 994.432 36.016C997.163 34.5227 1000.3 33.776 1003.84 33.776C1007.3 33.776 1010.37 34.5013 1013.06 35.952C1015.74 37.4027 1017.83 39.472 1019.33 42.16C1020.86 44.848 1021.63 47.984 1021.63 51.568ZM1010.43 48.688C1010.43 46.8107 1009.79 45.3173 1008.51 44.208C1007.23 43.0987 1005.63 42.544 1003.71 42.544C1001.88 42.544 1000.32 43.0773 999.04 44.144C997.803 45.2107 997.035 46.7253 996.736 48.688H1010.43ZM1040.53 22.576C1045.09 22.576 1048.74 23.7707 1051.47 26.16C1054.24 28.5493 1055.63 31.92 1055.63 36.272C1055.63 40.2827 1054.31 43.4187 1051.66 45.68C1049.06 47.8987 1045.6 49.0293 1041.29 49.072L1040.97 53.872H1031.37L1031.05 41.968H1034.89C1038.18 41.968 1040.67 41.5627 1042.38 40.752C1044.13 39.9413 1045.01 38.4693 1045.01 36.336C1045.01 34.8427 1044.6 33.6693 1043.79 32.816C1042.98 31.9627 1041.85 31.536 1040.4 31.536C1038.86 31.536 1037.67 31.984 1036.81 32.88C1035.96 33.7333 1035.53 34.9067 1035.53 36.4H1025.23C1025.14 33.7973 1025.68 31.4507 1026.83 29.36C1028.02 27.2693 1029.77 25.6267 1032.08 24.432C1034.42 23.1947 1037.24 22.576 1040.53 22.576ZM1036.3 70.512C1034.38 70.512 1032.8 69.9573 1031.57 68.848C1030.37 67.696 1029.77 66.288 1029.77 64.624C1029.77 62.9173 1030.37 61.488 1031.57 60.336C1032.8 59.184 1034.38 58.608 1036.3 58.608C1038.18 58.608 1039.71 59.184 1040.91 60.336C1042.15 61.488 1042.77 62.9173 1042.77 64.624C1042.77 66.288 1042.15 67.696 1040.91 68.848C1039.71 69.9573 1038.18 70.512 1036.3 70.512ZM1064.34 25.072H1075.54L1068.37 42.224H1061.01L1064.34 25.072ZM1078.87 25.072H1090.07L1082.9 42.224H1075.54L1078.87 25.072Z" fill="#6552F5"/>
</svg>
