<svg width="1084" height="105" viewBox="0 0 1084 105" fill="none" xmlns="http://www.w3.org/2000/svg">
<path d="M17.632 51.224H6.432L13.6 34.072H20.96L17.632 51.224ZM32.16 51.224H21.024L28.192 34.072H35.488L32.16 51.224ZM104.417 34.072L92.705 79H79.457L72.289 49.432L64.865 79H51.617L40.225 34.072H51.937L58.401 66.776L66.401 34.072H78.433L86.113 66.776L92.641 34.072H104.417ZM131.858 42.904C135.954 42.904 139.239 44.2693 141.714 47C144.188 49.688 145.426 53.4 145.426 58.136V79H134.546V59.608C134.546 57.2187 133.927 55.3627 132.69 54.04C131.452 52.7173 129.788 52.056 127.698 52.056C125.607 52.056 123.943 52.7173 122.706 54.04C121.468 55.3627 120.85 57.2187 120.85 59.608V79H109.906V31.64H120.85V48.088C121.959 46.5093 123.474 45.2507 125.394 44.312C127.314 43.3733 129.468 42.904 131.858 42.904ZM150.855 61.08C150.855 57.4107 151.537 54.1893 152.903 51.416C154.311 48.6427 156.209 46.5093 158.599 45.016C160.988 43.5227 163.655 42.776 166.599 42.776C169.116 42.776 171.313 43.288 173.191 44.312C175.111 45.336 176.583 46.68 177.607 48.344V43.288H188.551V79H177.607V73.944C176.54 75.608 175.047 76.952 173.127 77.976C171.249 79 169.052 79.512 166.535 79.512C163.633 79.512 160.988 78.7653 158.599 77.272C156.209 75.736 154.311 73.5813 152.903 70.808C151.537 67.992 150.855 64.7493 150.855 61.08ZM177.607 61.144C177.607 58.4133 176.839 56.2587 175.303 54.68C173.809 53.1013 171.975 52.312 169.799 52.312C167.623 52.312 165.767 53.1013 164.231 54.68C162.737 56.216 161.991 58.3493 161.991 61.08C161.991 63.8107 162.737 65.9867 164.231 67.608C165.767 69.1867 167.623 69.976 169.799 69.976C171.975 69.976 173.809 69.1867 175.303 67.608C176.839 66.0293 177.607 63.8747 177.607 61.144ZM216.372 69.72V79H210.804C206.836 79 203.743 78.04 201.524 76.12C199.305 74.1573 198.196 70.9787 198.196 66.584V52.376H193.844V43.288H198.196V34.584H209.14V43.288H216.308V52.376H209.14V66.712C209.14 67.7787 209.396 68.5467 209.908 69.016C210.42 69.4853 211.273 69.72 212.468 69.72H216.372ZM269.694 60.568C269.694 61.592 269.631 62.6587 269.503 63.768H244.735C244.905 65.9867 245.609 67.6933 246.847 68.888C248.127 70.04 249.684 70.616 251.519 70.616C254.249 70.616 256.148 69.464 257.215 67.16H268.863C268.265 69.5067 267.177 71.6187 265.599 73.496C264.063 75.3733 262.121 76.8453 259.775 77.912C257.428 78.9787 254.804 79.512 251.903 79.512C248.404 79.512 245.289 78.7653 242.559 77.272C239.828 75.7787 237.695 73.6453 236.159 70.872C234.623 68.0987 233.855 64.856 233.855 61.144C233.855 57.432 234.601 54.1893 236.095 51.416C237.631 48.6427 239.764 46.5093 242.495 45.016C245.225 43.5227 248.361 42.776 251.903 42.776C255.359 42.776 258.431 43.5013 261.119 44.952C263.807 46.4027 265.897 48.472 267.391 51.16C268.927 53.848 269.694 56.984 269.694 60.568ZM258.495 57.688C258.495 55.8107 257.855 54.3173 256.575 53.208C255.295 52.0987 253.695 51.544 251.775 51.544C249.94 51.544 248.383 52.0773 247.103 53.144C245.865 54.2107 245.097 55.7253 244.799 57.688H258.495ZM296.588 79L289.74 69.08L283.98 79H272.14L283.916 60.76L271.82 43.288H284.108L290.956 53.144L296.716 43.288H308.556L296.588 61.272L308.876 79H296.588ZM324.037 48.344C325.104 46.68 326.576 45.336 328.453 44.312C330.33 43.288 332.528 42.776 335.045 42.776C337.989 42.776 340.656 43.5227 343.045 45.016C345.434 46.5093 347.312 48.6427 348.677 51.416C350.085 54.1893 350.789 57.4107 350.789 61.08C350.789 64.7493 350.085 67.992 348.677 70.808C347.312 73.5813 345.434 75.736 343.045 77.272C340.656 78.7653 337.989 79.512 335.045 79.512C332.57 79.512 330.373 79 328.453 77.976C326.576 76.952 325.104 75.6293 324.037 74.008V96.024H313.093V43.288H324.037V48.344ZM339.653 61.08C339.653 58.3493 338.885 56.216 337.349 54.68C335.856 53.1013 334 52.312 331.781 52.312C329.605 52.312 327.749 53.1013 326.213 54.68C324.72 56.2587 323.973 58.4133 323.973 61.144C323.973 63.8747 324.72 66.0293 326.213 67.608C327.749 69.1867 329.605 69.976 331.781 69.976C333.957 69.976 335.813 69.1867 337.349 67.608C338.885 65.9867 339.653 63.8107 339.653 61.08ZM390.194 60.568C390.194 61.592 390.131 62.6587 390.003 63.768H365.235C365.405 65.9867 366.109 67.6933 367.347 68.888C368.627 70.04 370.184 70.616 372.019 70.616C374.749 70.616 376.648 69.464 377.715 67.16H389.363C388.765 69.5067 387.677 71.6187 386.099 73.496C384.563 75.3733 382.621 76.8453 380.275 77.912C377.928 78.9787 375.304 79.512 372.403 79.512C368.904 79.512 365.789 78.7653 363.059 77.272C360.328 75.7787 358.195 73.6453 356.659 70.872C355.123 68.0987 354.355 64.856 354.355 61.144C354.355 57.432 355.101 54.1893 356.595 51.416C358.131 48.6427 360.264 46.5093 362.995 45.016C365.725 43.5227 368.861 42.776 372.403 42.776C375.859 42.776 378.931 43.5013 381.619 44.952C384.307 46.4027 386.397 48.472 387.891 51.16C389.427 53.848 390.194 56.984 390.194 60.568ZM378.995 57.688C378.995 55.8107 378.355 54.3173 377.075 53.208C375.795 52.0987 374.195 51.544 372.275 51.544C370.44 51.544 368.883 52.0773 367.603 53.144C366.365 54.2107 365.597 55.7253 365.299 57.688H378.995ZM406.912 49.24C408.192 47.2773 409.792 45.7413 411.712 44.632C413.632 43.48 415.765 42.904 418.112 42.904V54.488H415.104C412.373 54.488 410.325 55.0853 408.96 56.28C407.595 57.432 406.912 59.48 406.912 62.424V79H395.968V43.288H406.912V49.24ZM428.847 39.576C426.927 39.576 425.348 39.0213 424.111 37.912C422.916 36.76 422.319 35.352 422.319 33.688C422.319 31.9813 422.916 30.5733 424.111 29.464C425.348 28.312 426.927 27.736 428.847 27.736C430.724 27.736 432.26 28.312 433.455 29.464C434.692 30.5733 435.311 31.9813 435.311 33.688C435.311 35.352 434.692 36.76 433.455 37.912C432.26 39.0213 430.724 39.576 428.847 39.576ZM434.287 43.288V79H423.343V43.288H434.287ZM475.882 60.568C475.882 61.592 475.818 62.6587 475.69 63.768H450.922C451.093 65.9867 451.797 67.6933 453.034 68.888C454.314 70.04 455.871 70.616 457.706 70.616C460.437 70.616 462.335 69.464 463.402 67.16H475.05C474.453 69.5067 473.365 71.6187 471.786 73.496C470.25 75.3733 468.309 76.8453 465.962 77.912C463.615 78.9787 460.991 79.512 458.09 79.512C454.591 79.512 451.477 78.7653 448.746 77.272C446.015 75.7787 443.882 73.6453 442.346 70.872C440.81 68.0987 440.042 64.856 440.042 61.144C440.042 57.432 440.789 54.1893 442.282 51.416C443.818 48.6427 445.951 46.5093 448.682 45.016C451.413 43.5227 454.549 42.776 458.09 42.776C461.546 42.776 464.618 43.5013 467.306 44.952C469.994 46.4027 472.085 48.472 473.578 51.16C475.114 53.848 475.882 56.984 475.882 60.568ZM464.682 57.688C464.682 55.8107 464.042 54.3173 462.762 53.208C461.482 52.0987 459.882 51.544 457.962 51.544C456.127 51.544 454.57 52.0773 453.29 53.144C452.053 54.2107 451.285 55.7253 450.986 57.688H464.682ZM503.416 42.904C507.597 42.904 510.925 44.2693 513.4 47C515.917 49.688 517.176 53.4 517.176 58.136V79H506.296V59.608C506.296 57.2187 505.677 55.3627 504.44 54.04C503.202 52.7173 501.538 52.056 499.448 52.056C497.357 52.056 495.693 52.7173 494.456 54.04C493.218 55.3627 492.6 57.2187 492.6 59.608V79H481.656V43.288H492.6V48.024C493.709 46.4453 495.202 45.208 497.08 44.312C498.957 43.3733 501.069 42.904 503.416 42.904ZM522.605 61.144C522.605 57.432 523.351 54.1893 524.845 51.416C526.381 48.6427 528.493 46.5093 531.181 45.016C533.911 43.5227 537.026 42.776 540.525 42.776C545.005 42.776 548.738 43.9493 551.725 46.296C554.754 48.6427 556.738 51.9493 557.677 56.216H546.029C545.047 53.4853 543.149 52.12 540.333 52.12C538.327 52.12 536.727 52.9093 535.533 54.488C534.338 56.024 533.741 58.2427 533.741 61.144C533.741 64.0453 534.338 66.2853 535.533 67.864C536.727 69.4 538.327 70.168 540.333 70.168C543.149 70.168 545.047 68.8027 546.029 66.072H557.677C556.738 70.2533 554.754 73.5387 551.725 75.928C548.695 78.3173 544.962 79.512 540.525 79.512C537.026 79.512 533.911 78.7653 531.181 77.272C528.493 75.7787 526.381 73.6453 524.845 70.872C523.351 68.0987 522.605 64.856 522.605 61.144ZM597.194 60.568C597.194 61.592 597.131 62.6587 597.003 63.768H572.235C572.405 65.9867 573.109 67.6933 574.347 68.888C575.627 70.04 577.184 70.616 579.019 70.616C581.749 70.616 583.648 69.464 584.715 67.16H596.363C595.765 69.5067 594.677 71.6187 593.099 73.496C591.563 75.3733 589.621 76.8453 587.275 77.912C584.928 78.9787 582.304 79.512 579.403 79.512C575.904 79.512 572.789 78.7653 570.059 77.272C567.328 75.7787 565.195 73.6453 563.659 70.872C562.123 68.0987 561.355 64.856 561.355 61.144C561.355 57.432 562.101 54.1893 563.595 51.416C565.131 48.6427 567.264 46.5093 569.995 45.016C572.725 43.5227 575.861 42.776 579.403 42.776C582.859 42.776 585.931 43.5013 588.619 44.952C591.307 46.4027 593.397 48.472 594.891 51.16C596.427 53.848 597.194 56.984 597.194 60.568ZM585.995 57.688C585.995 55.8107 585.355 54.3173 584.075 53.208C582.795 52.0987 581.195 51.544 579.275 51.544C577.44 51.544 575.883 52.0773 574.603 53.144C573.365 54.2107 572.597 55.7253 572.299 57.688H585.995ZM614.355 61.08C614.355 57.4107 615.037 54.1893 616.403 51.416C617.811 48.6427 619.709 46.5093 622.099 45.016C624.488 43.5227 627.155 42.776 630.099 42.776C632.445 42.776 634.579 43.2667 636.499 44.248C638.461 45.2293 639.997 46.552 641.107 48.216V31.64H652.051V79H641.107V73.88C640.083 75.5867 638.611 76.952 636.691 77.976C634.813 79 632.616 79.512 630.099 79.512C627.155 79.512 624.488 78.7653 622.099 77.272C619.709 75.736 617.811 73.5813 616.403 70.808C615.037 67.992 614.355 64.7493 614.355 61.08ZM641.107 61.144C641.107 58.4133 640.339 56.2587 638.803 54.68C637.309 53.1013 635.475 52.312 633.299 52.312C631.123 52.312 629.267 53.1013 627.731 54.68C626.237 56.216 625.491 58.3493 625.491 61.08C625.491 63.8107 626.237 65.9867 627.731 67.608C629.267 69.1867 631.123 69.976 633.299 69.976C635.475 69.976 637.309 69.1867 638.803 67.608C640.339 66.0293 641.107 63.8747 641.107 61.144ZM676.224 79.512C672.725 79.512 669.568 78.7653 666.752 77.272C663.979 75.7787 661.781 73.6453 660.16 70.872C658.581 68.0987 657.792 64.856 657.792 61.144C657.792 57.4747 658.603 54.2533 660.224 51.48C661.845 48.664 664.064 46.5093 666.88 45.016C669.696 43.5227 672.853 42.776 676.352 42.776C679.851 42.776 683.008 43.5227 685.824 45.016C688.64 46.5093 690.859 48.664 692.48 51.48C694.101 54.2533 694.912 57.4747 694.912 61.144C694.912 64.8133 694.08 68.056 692.416 70.872C690.795 73.6453 688.555 75.7787 685.696 77.272C682.88 78.7653 679.723 79.512 676.224 79.512ZM676.224 70.04C678.315 70.04 680.085 69.272 681.536 67.736C683.029 66.2 683.776 64.0027 683.776 61.144C683.776 58.2853 683.051 56.088 681.6 54.552C680.192 53.016 678.443 52.248 676.352 52.248C674.219 52.248 672.448 53.016 671.04 54.552C669.632 56.0453 668.928 58.2427 668.928 61.144C668.928 64.0027 669.611 66.2 670.976 67.736C672.384 69.272 674.133 70.04 676.224 70.04ZM750.761 43.288L728.361 95.96H716.585L724.777 77.784L710.248 43.288H722.473L730.729 65.624L738.921 43.288H750.761ZM770.974 79.512C767.475 79.512 764.318 78.7653 761.502 77.272C758.729 75.7787 756.531 73.6453 754.91 70.872C753.331 68.0987 752.542 64.856 752.542 61.144C752.542 57.4747 753.353 54.2533 754.974 51.48C756.595 48.664 758.814 46.5093 761.63 45.016C764.446 43.5227 767.603 42.776 771.102 42.776C774.601 42.776 777.758 43.5227 780.574 45.016C783.39 46.5093 785.609 48.664 787.23 51.48C788.851 54.2533 789.662 57.4747 789.662 61.144C789.662 64.8133 788.83 68.056 787.166 70.872C785.545 73.6453 783.305 75.7787 780.446 77.272C777.63 78.7653 774.473 79.512 770.974 79.512ZM770.974 70.04C773.065 70.04 774.835 69.272 776.286 67.736C777.779 66.2 778.526 64.0027 778.526 61.144C778.526 58.2853 777.801 56.088 776.35 54.552C774.942 53.016 773.193 52.248 771.102 52.248C768.969 52.248 767.198 53.016 765.79 54.552C764.382 56.0453 763.678 58.2427 763.678 61.144C763.678 64.0027 764.361 66.2 765.726 67.736C767.134 69.272 768.883 70.04 770.974 70.04ZM830.732 43.288V79H819.788V74.136C818.679 75.7147 817.164 76.9947 815.244 77.976C813.367 78.9147 811.276 79.384 808.972 79.384C806.241 79.384 803.831 78.7867 801.74 77.592C799.649 76.3547 798.028 74.584 796.876 72.28C795.724 69.976 795.148 67.2667 795.148 64.152V43.288H806.028V62.68C806.028 65.0693 806.647 66.9253 807.884 68.248C809.121 69.5707 810.785 70.232 812.876 70.232C815.009 70.232 816.695 69.5707 817.932 68.248C819.169 66.9253 819.788 65.0693 819.788 62.68V43.288H830.732ZM874.108 42.904C878.204 42.904 881.489 44.2693 883.964 47C886.438 49.688 887.676 53.4 887.676 58.136V79H876.796V59.608C876.796 57.2187 876.177 55.3627 874.94 54.04C873.702 52.7173 872.038 52.056 869.948 52.056C867.857 52.056 866.193 52.7173 864.956 54.04C863.718 55.3627 863.1 57.2187 863.1 59.608V79H852.156V31.64H863.1V48.088C864.209 46.5093 865.724 45.2507 867.644 44.312C869.564 43.3733 871.718 42.904 874.108 42.904ZM893.105 61.08C893.105 57.4107 893.787 54.1893 895.153 51.416C896.561 48.6427 898.459 46.5093 900.849 45.016C903.238 43.5227 905.905 42.776 908.849 42.776C911.366 42.776 913.563 43.288 915.441 44.312C917.361 45.336 918.833 46.68 919.857 48.344V43.288H930.801V79H919.857V73.944C918.79 75.608 917.297 76.952 915.377 77.976C913.499 79 911.302 79.512 908.785 79.512C905.883 79.512 903.238 78.7653 900.849 77.272C898.459 75.736 896.561 73.5813 895.153 70.808C893.787 67.992 893.105 64.7493 893.105 61.08ZM919.857 61.144C919.857 58.4133 919.089 56.2587 917.553 54.68C916.059 53.1013 914.225 52.312 912.049 52.312C909.873 52.312 908.017 53.1013 906.481 54.68C904.987 56.216 904.241 58.3493 904.241 61.08C904.241 63.8107 904.987 65.9867 906.481 67.608C908.017 69.1867 909.873 69.976 912.049 69.976C914.225 69.976 916.059 69.1867 917.553 67.608C919.089 66.0293 919.857 63.8747 919.857 61.144ZM954.782 68.76L962.526 43.288H974.174L961.502 79H947.998L935.326 43.288H947.038L954.782 68.76ZM1012.44 60.568C1012.44 61.592 1012.38 62.6587 1012.25 63.768H987.485C987.655 65.9867 988.359 67.6933 989.597 68.888C990.877 70.04 992.434 70.616 994.269 70.616C996.999 70.616 998.898 69.464 999.965 67.16H1011.61C1011.02 69.5067 1009.93 71.6187 1008.35 73.496C1006.81 75.3733 1004.87 76.8453 1002.52 77.912C1000.18 78.9787 997.554 79.512 994.653 79.512C991.154 79.512 988.039 78.7653 985.309 77.272C982.578 75.7787 980.445 73.6453 978.909 70.872C977.373 68.0987 976.605 64.856 976.605 61.144C976.605 57.432 977.351 54.1893 978.845 51.416C980.381 48.6427 982.514 46.5093 985.245 45.016C987.975 43.5227 991.111 42.776 994.653 42.776C998.109 42.776 1001.18 43.5013 1003.87 44.952C1006.56 46.4027 1008.65 48.472 1010.14 51.16C1011.68 53.848 1012.44 56.984 1012.44 60.568ZM1001.24 57.688C1001.24 55.8107 1000.6 54.3173 999.325 53.208C998.045 52.0987 996.445 51.544 994.525 51.544C992.69 51.544 991.133 52.0773 989.853 53.144C988.615 54.2107 987.847 55.7253 987.549 57.688H1001.24ZM1031.34 31.576C1035.9 31.576 1039.55 32.7707 1042.28 35.16C1045.06 37.5493 1046.44 40.92 1046.44 45.272C1046.44 49.2827 1045.12 52.4187 1042.47 54.68C1039.87 56.8987 1036.42 58.0293 1032.11 58.072L1031.79 62.872H1022.19L1021.87 50.968H1025.71C1028.99 50.968 1031.49 50.5627 1033.19 49.752C1034.94 48.9413 1035.82 47.4693 1035.82 45.336C1035.82 43.8427 1035.41 42.6693 1034.6 41.816C1033.79 40.9627 1032.66 40.536 1031.21 40.536C1029.67 40.536 1028.48 40.984 1027.63 41.88C1026.77 42.7333 1026.35 43.9067 1026.35 45.4H1016.04C1015.96 42.7973 1016.49 40.4507 1017.64 38.36C1018.84 36.2693 1020.59 34.6267 1022.89 33.432C1025.24 32.1947 1028.05 31.576 1031.34 31.576ZM1027.11 79.512C1025.19 79.512 1023.62 78.9573 1022.38 77.848C1021.18 76.696 1020.59 75.288 1020.59 73.624C1020.59 71.9173 1021.18 70.488 1022.38 69.336C1023.62 68.184 1025.19 67.608 1027.11 67.608C1028.99 67.608 1030.53 68.184 1031.72 69.336C1032.96 70.488 1033.58 71.9173 1033.58 73.624C1033.58 75.288 1032.96 76.696 1031.72 77.848C1030.53 78.9573 1028.99 79.512 1027.11 79.512ZM1055.15 34.072H1066.35L1059.18 51.224H1051.82L1055.15 34.072ZM1069.68 34.072H1080.88L1073.71 51.224H1066.35L1069.68 34.072Z" fill="#FFD941"/>
<path d="M13.632 42.224V44.224H15.2812L15.5954 42.605L13.632 42.224ZM2.432 42.224L0.586662 41.4528L-0.571445 44.224H2.432V42.224ZM9.6 25.072V23.072H8.2682L7.75466 24.3008L9.6 25.072ZM16.96 25.072L18.9234 25.453L19.3854 23.072H16.96V25.072ZM28.16 42.224V44.224H29.8092L30.1234 42.605L28.16 42.224ZM17.024 42.224L15.1787 41.4528L14.0206 44.224H17.024V42.224ZM24.192 25.072V23.072H22.8602L22.3467 24.3008L24.192 25.072ZM31.488 25.072L33.4514 25.453L33.9134 23.072H31.488V25.072ZM13.632 40.224H2.432V44.224H13.632V40.224ZM4.27734 42.9952L11.4453 25.8432L7.75466 24.3008L0.586662 41.4528L4.27734 42.9952ZM9.6 27.072H16.96V23.072H9.6V27.072ZM14.9966 24.691L11.6686 41.843L15.5954 42.605L18.9234 25.453L14.9966 24.691ZM28.16 40.224H17.024V44.224H28.16V40.224ZM18.8693 42.9952L26.0373 25.8432L22.3467 24.3008L15.1787 41.4528L18.8693 42.9952ZM24.192 27.072H31.488V23.072H24.192V27.072ZM29.5246 24.691L26.1966 41.843L30.1234 42.605L33.4514 25.453L29.5246 24.691ZM100.417 25.072L102.352 25.5765L103.005 23.072H100.417V25.072ZM88.705 70V72H90.2505L90.6403 70.5045L88.705 70ZM75.457 70L73.5133 70.4712L73.8839 72H75.457V70ZM68.289 40.432L70.2327 39.9608L66.3492 39.945L68.289 40.432ZM60.865 70V72H62.4249L62.8048 70.487L60.865 70ZM47.617 70L45.6784 70.4916L46.0608 72H47.617V70ZM36.225 25.072V23.072H33.6546L34.2864 25.5636L36.225 25.072ZM47.937 25.072L49.899 24.6842L49.5804 23.072H47.937V25.072ZM54.401 57.776L52.439 58.1638L56.3437 58.2512L54.401 57.776ZM62.401 25.072V23.072H60.8313L60.4583 24.5968L62.401 25.072ZM74.433 25.072L76.38 24.6148L76.0177 23.072H74.433V25.072ZM82.113 57.776L80.166 58.2332L84.0743 58.1675L82.113 57.776ZM88.641 25.072V23.072H87.0008L86.6797 24.6805L88.641 25.072ZM98.4817 24.5675L86.7697 69.4955L90.6403 70.5045L102.352 25.5765L98.4817 24.5675ZM88.705 68H75.457V72H88.705V68ZM77.4007 69.5288L70.2327 39.9608L66.3453 40.9032L73.5133 70.4712L77.4007 69.5288ZM66.3492 39.945L58.9252 69.513L62.8048 70.487L70.2288 40.919L66.3492 39.945ZM60.865 68H47.617V72H60.865V68ZM49.5556 69.5084L38.1637 24.5804L34.2864 25.5636L45.6784 70.4916L49.5556 69.5084ZM36.225 27.072H47.937V23.072H36.225V27.072ZM45.975 25.4598L52.439 58.1638L56.363 57.3882L49.899 24.6842L45.975 25.4598ZM56.3437 58.2512L64.3437 25.5472L60.4583 24.5968L52.4583 57.3008L56.3437 58.2512ZM62.401 27.072H74.433V23.072H62.401V27.072ZM72.486 25.5292L80.166 58.2332L84.06 57.3188L76.38 24.6148L72.486 25.5292ZM84.0743 58.1675L90.6023 25.4635L86.6797 24.6805L80.1517 57.3845L84.0743 58.1675ZM88.641 27.072H100.417V23.072H88.641V27.072ZM137.714 38L136.232 39.343L136.237 39.3489L136.242 39.3546L137.714 38ZM141.426 70V72H143.426V70H141.426ZM130.546 70H128.546V72H130.546V70ZM128.689 45.04L127.229 46.4063V46.4063L128.689 45.04ZM118.706 45.04L120.166 46.4063V46.4063L118.706 45.04ZM116.85 70V72H118.85V70H116.85ZM105.906 70H103.906V72H105.906V70ZM105.906 22.64V20.64H103.906V22.64H105.906ZM116.85 22.64H118.85V20.64H116.85V22.64ZM116.85 39.088H114.85V45.4128L118.486 40.2379L116.85 39.088ZM121.394 35.312L120.515 33.5152L121.394 35.312ZM127.857 35.904C131.459 35.904 134.181 37.08 136.232 39.343L139.195 36.657C136.297 33.4587 132.448 31.904 127.857 31.904V35.904ZM136.242 39.3546C138.286 41.5743 139.426 44.7487 139.426 49.136H143.426C143.426 44.0513 142.091 39.8017 139.185 36.6454L136.242 39.3546ZM139.426 49.136V70H143.426V49.136H139.426ZM141.426 68H130.546V72H141.426V68ZM132.546 70V50.608H128.546V70H132.546ZM132.546 50.608C132.546 47.8776 131.833 45.4727 130.15 43.6737L127.229 46.4063C128.021 47.2527 128.546 48.5598 128.546 50.608H132.546ZM130.15 43.6737C128.475 41.8832 126.248 41.056 123.698 41.056V45.056C125.328 45.056 126.429 45.5515 127.229 46.4063L130.15 43.6737ZM123.698 41.056C121.147 41.056 118.92 41.8832 117.245 43.6737L120.166 46.4063C120.966 45.5515 122.067 45.056 123.698 45.056V41.056ZM117.245 43.6737C115.562 45.4727 114.85 47.8776 114.85 50.608H118.85C118.85 48.5598 119.374 47.2527 120.166 46.4063L117.245 43.6737ZM114.85 50.608V70H118.85V50.608H114.85ZM116.85 68H105.906V72H116.85V68ZM107.906 70V22.64H103.906V70H107.906ZM105.906 24.64H116.85V20.64H105.906V24.64ZM114.85 22.64V39.088H118.85V22.64H114.85ZM118.486 40.2379C119.381 38.9642 120.622 37.9155 122.272 37.1088L120.515 33.5152C118.325 34.5858 116.537 36.0545 115.213 37.9381L118.486 40.2379ZM122.272 37.1088C123.888 36.3189 125.736 35.904 127.857 35.904V31.904C125.2 31.904 122.739 32.4278 120.515 33.5152L122.272 37.1088ZM148.902 42.416L147.119 41.5106L147.114 41.5216L147.108 41.5326L148.902 42.416ZM154.598 36.016L155.658 37.712L154.598 36.016ZM169.191 35.312L168.233 37.0678L168.241 37.0723L168.249 37.0767L169.191 35.312ZM173.607 39.344L171.903 40.3922L175.607 46.4101V39.344H173.607ZM173.607 34.288V32.288H171.607V34.288H173.607ZM184.551 34.288H186.551V32.288H184.551V34.288ZM184.551 70V72H186.551V70H184.551ZM173.607 70H171.607V72H173.607V70ZM173.607 64.944H175.607V58.118L171.923 63.8647L173.607 64.944ZM169.126 68.976L168.185 67.2113L168.177 67.2157L168.169 67.2202L169.126 68.976ZM154.598 68.272L153.517 69.9544L153.528 69.9612L153.538 69.968L154.598 68.272ZM148.902 61.808L147.103 62.6805L147.111 62.697L147.119 62.7134L148.902 61.808ZM171.303 45.68L169.85 47.0544L169.859 47.0646L169.869 47.0747L171.303 45.68ZM160.23 45.68L158.797 44.2853L158.797 44.2858L160.23 45.68ZM160.23 58.608L158.759 59.963L158.778 59.9831L158.797 60.0027L160.23 58.608ZM171.303 58.608L169.869 57.2133L169.859 57.2234L169.85 57.2336L171.303 58.608ZM148.855 52.08C148.855 48.6602 149.49 45.7511 150.697 43.2994L147.108 41.5326C145.584 44.6276 144.855 48.1612 144.855 52.08H148.855ZM150.686 43.3214C151.947 40.8378 153.609 38.9929 155.658 37.712L153.538 34.32C150.809 36.0258 148.674 38.4476 147.119 41.5106L150.686 43.3214ZM155.658 37.712C157.715 36.4265 160.012 35.776 162.598 35.776V31.776C159.297 31.776 156.26 32.6189 153.538 34.32L155.658 37.712ZM162.598 35.776C164.841 35.776 166.697 36.2303 168.233 37.0678L170.148 33.5562C167.929 32.3457 165.391 31.776 162.598 31.776V35.776ZM168.249 37.0767C169.893 37.9532 171.086 39.0638 171.903 40.3922L175.31 38.2958C174.079 36.2962 172.328 34.7188 170.132 33.5473L168.249 37.0767ZM175.607 39.344V34.288H171.607V39.344H175.607ZM173.607 36.288H184.551V32.288H173.607V36.288ZM182.551 34.288V70H186.551V34.288H182.551ZM184.551 68H173.607V72H184.551V68ZM175.607 70V64.944H171.607V70H175.607ZM171.923 63.8647C171.059 65.212 169.834 66.3318 168.185 67.2113L170.068 70.7407C172.259 69.5722 174.021 68.004 175.29 66.0233L171.923 63.8647ZM168.169 67.2202C166.633 68.0577 164.777 68.512 162.535 68.512V72.512C165.327 72.512 167.865 71.9423 170.084 70.7318L168.169 67.2202ZM162.535 68.512C159.996 68.512 157.72 67.8645 155.658 66.576L153.538 69.968C156.256 71.6661 159.27 72.512 162.535 72.512V68.512ZM155.68 66.5896C153.617 65.2637 151.949 63.3902 150.686 60.9026L147.119 62.7134C148.672 65.7725 150.801 68.2083 153.517 69.9544L155.68 66.5896ZM150.702 60.9355C149.49 58.4345 148.855 55.4989 148.855 52.08H144.855C144.855 55.9997 145.585 59.5495 147.103 62.6805L150.702 60.9355ZM175.607 52.144C175.607 49.0241 174.718 46.3222 172.736 44.2853L169.869 47.0747C170.959 48.1952 171.607 49.8026 171.607 52.144H175.607ZM172.755 44.3056C170.884 42.327 168.523 41.312 165.798 41.312V45.312C167.426 45.312 168.735 45.8757 169.85 47.0544L172.755 44.3056ZM165.798 41.312C163.075 41.312 160.704 42.325 158.797 44.2853L161.664 47.0747C162.829 45.8777 164.17 45.312 165.798 45.312V41.312ZM158.797 44.2858C156.848 46.2901 155.99 48.9781 155.99 52.08H159.99C159.99 49.7206 160.626 48.1419 161.664 47.0742L158.797 44.2858ZM155.99 52.08C155.99 55.1872 156.85 57.8894 158.759 59.963L161.702 57.253C160.625 56.0839 159.99 54.4341 159.99 52.08H155.99ZM158.797 60.0027C160.704 61.963 163.075 62.976 165.798 62.976V58.976C164.17 58.976 162.829 58.4103 161.664 57.2133L158.797 60.0027ZM165.798 62.976C168.523 62.976 170.884 61.961 172.755 59.9824L169.85 57.2336C168.735 58.4123 167.426 58.976 165.798 58.976V62.976ZM172.736 60.0027C174.718 57.9658 175.607 55.2639 175.607 52.144H171.607C171.607 54.4854 170.959 56.0928 169.869 57.2133L172.736 60.0027ZM212.372 60.72H214.372V58.72H212.372V60.72ZM212.372 70V72H214.372V70H212.372ZM197.524 67.12L196.199 68.618L196.207 68.6252L196.215 68.6323L197.524 67.12ZM194.196 43.376H196.196V41.376H194.196V43.376ZM189.844 43.376H187.844V45.376H189.844V43.376ZM189.844 34.288V32.288H187.844V34.288H189.844ZM194.196 34.288V36.288H196.196V34.288H194.196ZM194.196 25.584V23.584H192.196V25.584H194.196ZM205.14 25.584H207.14V23.584H205.14V25.584ZM205.14 34.288H203.14V36.288H205.14V34.288ZM212.308 34.288H214.308V32.288H212.308V34.288ZM212.308 43.376V45.376H214.308V43.376H212.308ZM205.14 43.376V41.376H203.14V43.376H205.14ZM205.908 60.016L204.557 61.4903L205.908 60.016ZM210.372 60.72V70H214.372V60.72H210.372ZM212.372 68H206.804V72H212.372V68ZM206.804 68C203.146 68 200.577 67.1171 198.833 65.6077L196.215 68.6323C198.908 70.9629 202.526 72 206.804 72V68ZM198.849 65.622C197.232 64.1918 196.196 61.6861 196.196 57.584H192.196C192.196 62.2712 193.378 66.1228 196.199 68.618L198.849 65.622ZM196.196 57.584V43.376H192.196V57.584H196.196ZM194.196 41.376H189.844V45.376H194.196V41.376ZM191.844 43.376V34.288H187.844V43.376H191.844ZM189.844 36.288H194.196V32.288H189.844V36.288ZM196.196 34.288V25.584H192.196V34.288H196.196ZM194.196 27.584H205.14V23.584H194.196V27.584ZM203.14 25.584V34.288H207.14V25.584H203.14ZM205.14 36.288H212.308V32.288H205.14V36.288ZM210.308 34.288V43.376H214.308V34.288H210.308ZM212.308 41.376H205.14V45.376H212.308V41.376ZM203.14 43.376V57.712H207.14V43.376H203.14ZM203.14 57.712C203.14 59.0413 203.454 60.4792 204.557 61.4903L207.259 58.5417C207.339 58.6142 207.14 58.5161 207.14 57.712H203.14ZM204.557 61.4903C205.625 62.4697 207.105 62.72 208.468 62.72V58.72C207.992 58.72 207.668 58.6721 207.462 58.6156C207.26 58.5599 207.226 58.5114 207.259 58.5417L204.557 61.4903ZM208.468 62.72H212.372V58.72H208.468V62.72ZM265.503 54.768V56.768H267.285L267.489 54.9972L265.503 54.768ZM240.734 54.768V52.768H238.575L238.74 54.9214L240.734 54.768ZM242.846 59.888L241.457 61.3268L241.483 61.3511L241.509 61.3746L242.846 59.888ZM253.215 58.16V56.16H251.936L251.4 57.3198L253.215 58.16ZM264.862 58.16L266.801 58.6534L267.435 56.16H264.862V58.16ZM261.599 64.496L260.068 63.2088L260.059 63.2191L260.051 63.2295L261.599 64.496ZM255.775 68.912L256.602 70.7327L255.775 68.912ZM238.559 68.272L237.599 70.0267L238.559 68.272ZM232.158 61.872L233.908 60.903L232.158 61.872ZM232.094 42.416L230.345 41.447L230.339 41.4574L230.334 41.4678L232.094 42.416ZM238.495 36.016L239.454 37.7707L238.495 36.016ZM257.118 35.952L256.169 37.712L257.118 35.952ZM263.391 42.16L261.642 43.1313L261.648 43.1418L261.654 43.1523L263.391 42.16ZM254.495 48.688V50.688H256.495V48.688H254.495ZM252.574 44.208L253.884 42.6966L252.574 44.208ZM243.103 44.144L241.822 42.6076L241.809 42.6183L241.797 42.6292L243.103 44.144ZM240.799 48.688L238.821 48.3871L238.471 50.688H240.799V48.688ZM263.694 51.568C263.694 52.5089 263.636 53.4988 263.516 54.5388L267.489 54.9972C267.625 53.8186 267.694 52.6751 267.694 51.568H263.694ZM265.503 52.768H240.734V56.768H265.503V52.768ZM238.74 54.9214C238.937 57.481 239.774 59.702 241.457 61.3268L244.236 58.4492C243.444 57.6847 242.873 56.4923 242.729 54.6146L238.74 54.9214ZM241.509 61.3746C243.181 62.88 245.225 63.616 247.518 63.616V59.616C246.143 59.616 245.072 59.2 244.184 58.4014L241.509 61.3746ZM247.518 63.616C249.166 63.616 250.701 63.2669 252.028 62.4619C253.364 61.6512 254.354 60.4597 255.029 59.0002L251.4 57.3198C251.009 58.1643 250.516 58.7008 249.953 59.0421C249.381 59.3891 248.602 59.616 247.518 59.616V63.616ZM253.215 60.16H264.862V56.16H253.215V60.16ZM262.924 57.6666C262.402 59.7175 261.455 61.5589 260.068 63.2088L263.129 65.7832C264.899 63.6784 266.128 61.2958 266.801 58.6534L262.924 57.6666ZM260.051 63.2295C258.721 64.8545 257.032 66.1435 254.947 67.0913L256.602 70.7327C259.21 69.5472 261.404 67.8922 263.146 65.7625L260.051 63.2295ZM254.947 67.0913C252.891 68.0258 250.554 68.512 247.902 68.512V72.512C251.053 72.512 253.965 71.9316 256.602 70.7327L254.947 67.0913ZM247.902 68.512C244.697 68.512 241.92 67.8305 239.518 66.5173L237.599 70.0267C240.659 71.7001 244.111 72.512 247.902 72.512V68.512ZM239.518 66.5173C237.126 65.2093 235.264 63.3514 233.908 60.903L230.409 62.841C232.125 65.9393 234.529 68.3481 237.599 70.0267L239.518 66.5173ZM233.908 60.903C232.562 58.4733 231.855 55.5752 231.855 52.144H227.855C227.855 56.1368 228.683 59.724 230.409 62.841L233.908 60.903ZM231.855 52.144C231.855 48.7039 232.545 45.7982 233.855 43.3642L230.334 41.4678C228.657 44.5805 227.855 48.1601 227.855 52.144H231.855ZM233.844 43.385C235.2 40.9366 237.062 39.0787 239.454 37.7707L237.535 34.2613C234.465 35.9399 232.061 38.3487 230.345 41.447L233.844 43.385ZM239.454 37.7707C241.852 36.4594 244.65 35.776 247.902 35.776V31.776C244.073 31.776 240.598 32.5859 237.535 34.2613L239.454 37.7707ZM247.902 35.776C251.071 35.776 253.809 36.4386 256.169 37.712L258.068 34.192C255.052 32.5641 251.646 31.776 247.902 31.776V35.776ZM256.169 37.712C258.518 38.9801 260.333 40.7746 261.642 43.1313L265.139 41.1887C263.461 38.1693 261.095 35.8252 258.068 34.192L256.169 37.712ZM261.654 43.1523C262.992 45.4933 263.694 48.2766 263.694 51.568H267.694C267.694 47.6914 266.861 44.2027 265.127 41.1677L261.654 43.1523ZM256.495 48.688C256.495 46.3012 255.653 44.2297 253.884 42.6966L251.265 45.7194C252.056 46.4049 252.495 47.3202 252.495 48.688H256.495ZM253.884 42.6966C252.192 41.23 250.107 40.544 247.775 40.544V44.544C249.282 44.544 250.397 44.9673 251.265 45.7194L253.884 42.6966ZM247.775 40.544C245.523 40.544 243.499 41.2105 241.822 42.6076L244.383 45.6804C245.266 44.9442 246.357 44.544 247.775 44.544V40.544ZM241.797 42.6292C240.124 44.0709 239.176 46.0585 238.821 48.3871L242.776 48.9889C243.019 47.3922 243.606 46.3505 244.408 45.6588L241.797 42.6292ZM240.799 50.688H254.495V46.688H240.799V50.688ZM292.588 70L290.942 71.1362L291.538 72H292.588V70ZM285.74 60.08L287.386 58.9438L285.594 56.3482L284.01 59.0757L285.74 60.08ZM279.98 70V72H281.131L281.71 71.0043L279.98 70ZM268.14 70L266.46 68.9152L264.468 72H268.14V70ZM279.916 51.76L281.596 52.8448L282.322 51.7212L281.56 50.6216L279.916 51.76ZM267.82 34.288V32.288H264.003L266.176 35.4264L267.82 34.288ZM280.108 34.288L281.75 33.1468L281.154 32.288H280.108V34.288ZM286.956 44.144L285.314 45.2852L287.102 47.8587L288.683 45.1531L286.956 44.144ZM292.716 34.288V32.288H291.568L290.989 33.2789L292.716 34.288ZM304.556 34.288L306.221 35.396L308.289 32.288H304.556V34.288ZM292.588 52.272L290.923 51.164L290.17 52.2949L290.944 53.4113L292.588 52.272ZM304.876 70V72H308.696L306.52 68.8607L304.876 70ZM294.234 68.8638L287.386 58.9438L284.094 61.2162L290.942 71.1362L294.234 68.8638ZM284.01 59.0757L278.25 68.9957L281.71 71.0043L287.47 61.0843L284.01 59.0757ZM279.98 68H268.14V72H279.98V68ZM269.82 71.0848L281.596 52.8448L278.236 50.6752L266.46 68.9152L269.82 71.0848ZM281.56 50.6216L269.464 33.1496L266.176 35.4264L278.272 52.8984L281.56 50.6216ZM267.82 36.288H280.108V32.288H267.82V36.288ZM278.466 35.4292L285.314 45.2852L288.598 43.0028L281.75 33.1468L278.466 35.4292ZM288.683 45.1531L294.443 35.2971L290.989 33.2789L285.229 43.1349L288.683 45.1531ZM292.716 36.288H304.556V32.288H292.716V36.288ZM302.891 33.18L290.923 51.164L294.253 53.38L306.221 35.396L302.891 33.18ZM290.944 53.4113L303.232 71.1393L306.52 68.8607L294.232 51.1327L290.944 53.4113ZM304.876 68H292.588V72H304.876V68ZM320.037 39.344H318.037V46.17L321.721 40.4233L320.037 39.344ZM324.453 35.312L323.495 33.5562L324.453 35.312ZM339.045 36.016L337.985 37.712L339.045 36.016ZM344.677 42.416L342.883 43.2994L342.888 43.3104L342.894 43.3214L344.677 42.416ZM344.677 61.808L342.888 60.9136L342.883 60.9246L344.677 61.808ZM339.045 68.272L340.105 69.968L340.116 69.9612L340.127 69.9544L339.045 68.272ZM324.453 68.976L323.495 70.7318L323.504 70.7363L323.512 70.7407L324.453 68.976ZM320.037 65.008L321.708 63.9088L318.037 58.3291V65.008H320.037ZM320.037 87.024V89.024H322.037V87.024H320.037ZM309.093 87.024H307.093V89.024H309.093V87.024ZM309.093 34.288V32.288H307.093V34.288H309.093ZM320.037 34.288H322.037V32.288H320.037V34.288ZM333.349 45.68L331.896 47.0544L331.915 47.0746L331.935 47.0942L333.349 45.68ZM322.213 45.68L320.78 44.2853L320.77 44.2954L320.76 44.3056L322.213 45.68ZM322.213 58.608L320.76 59.9824L320.77 59.9926L320.78 60.0027L322.213 58.608ZM333.349 58.608L334.782 60.0027L334.792 59.9932L334.801 59.9835L333.349 58.608ZM321.721 40.4233C322.591 39.0651 323.804 37.9444 325.411 37.0678L323.495 33.5562C321.348 34.7276 319.616 36.2949 318.353 38.2647L321.721 40.4233ZM325.411 37.0678C326.946 36.2303 328.803 35.776 331.045 35.776V31.776C328.252 31.776 325.714 32.3457 323.495 33.5562L325.411 37.0678ZM331.045 35.776C333.632 35.776 335.928 36.4265 337.985 37.712L340.105 34.32C337.383 32.6189 334.346 31.776 331.045 31.776V35.776ZM337.985 37.712C340.028 38.9891 341.665 40.8264 342.883 43.2994L346.471 41.5326C344.958 38.4589 342.84 36.0295 340.105 34.32L337.985 37.712ZM342.894 43.3214C344.136 45.7679 344.789 48.669 344.789 52.08H348.789C348.789 48.1524 348.034 44.6107 346.46 41.5106L342.894 43.3214ZM344.789 52.08C344.789 55.4901 344.136 58.4178 342.888 60.9136L346.466 62.7024C348.034 59.5662 348.789 56.0085 348.789 52.08H344.789ZM342.883 60.9246C341.663 63.4016 340.02 65.2674 337.964 66.5896L340.127 69.9544C342.848 68.2046 344.96 65.7611 346.471 62.6914L342.883 60.9246ZM337.985 66.576C335.928 67.8615 333.632 68.512 331.045 68.512V72.512C334.346 72.512 337.383 71.6691 340.105 69.968L337.985 66.576ZM331.045 68.512C328.853 68.512 326.987 68.0607 325.394 67.2113L323.512 70.7407C325.759 71.9393 328.288 72.512 331.045 72.512V68.512ZM325.411 67.2202C323.791 66.337 322.576 65.229 321.708 63.9088L318.366 66.1072C319.631 68.0297 321.36 69.567 323.495 70.7318L325.411 67.2202ZM318.037 65.008V87.024H322.037V65.008H318.037ZM320.037 85.024H309.093V89.024H320.037V85.024ZM311.093 87.024V34.288H307.093V87.024H311.093ZM309.093 36.288H320.037V32.288H309.093V36.288ZM318.037 34.288V39.344H322.037V34.288H318.037ZM337.653 52.08C337.653 48.9627 336.765 46.2676 334.763 44.2658L331.935 47.0942C333.005 48.1644 333.653 49.736 333.653 52.08H337.653ZM334.802 44.3056C332.922 42.3182 330.536 41.312 327.781 41.312V45.312C329.463 45.312 330.789 45.8845 331.896 47.0544L334.802 44.3056ZM327.781 41.312C325.058 41.312 322.687 42.325 320.78 44.2853L323.646 47.0747C324.811 45.8777 326.152 45.312 327.781 45.312V41.312ZM320.76 44.3056C318.831 46.3446 317.973 49.0393 317.973 52.144H321.973C321.973 49.7874 322.608 48.1728 323.666 47.0544L320.76 44.3056ZM317.973 52.144C317.973 55.2487 318.831 57.9434 320.76 59.9824L323.666 57.2336C322.608 56.1152 321.973 54.5006 321.973 52.144H317.973ZM320.78 60.0027C322.687 61.963 325.058 62.976 327.781 62.976V58.976C326.152 58.976 324.811 58.4103 323.646 57.2133L320.78 60.0027ZM327.781 62.976C330.504 62.976 332.875 61.963 334.782 60.0027L331.916 57.2133C330.751 58.4103 329.41 58.976 327.781 58.976V62.976ZM334.801 59.9835C336.764 57.9117 337.653 55.2022 337.653 52.08H333.653C333.653 54.4192 333.006 56.0616 331.897 57.2325L334.801 59.9835ZM386.003 54.768V56.768H387.785L387.989 54.9972L386.003 54.768ZM361.234 54.768V52.768H359.075L359.24 54.9214L361.234 54.768ZM363.346 59.888L361.957 61.3268L361.983 61.3511L362.009 61.3746L363.346 59.888ZM373.715 58.16V56.16H372.436L371.9 57.3198L373.715 58.16ZM385.362 58.16L387.301 58.6534L387.935 56.16H385.362V58.16ZM382.099 64.496L380.568 63.2088L380.559 63.2191L380.551 63.2295L382.099 64.496ZM376.275 68.912L377.102 70.7327L376.275 68.912ZM359.059 68.272L358.099 70.0267L359.059 68.272ZM352.659 61.872L354.408 60.903L352.659 61.872ZM352.595 42.416L350.845 41.447L350.839 41.4574L350.834 41.4678L352.595 42.416ZM358.995 36.016L359.954 37.7707L358.995 36.016ZM377.618 35.952L376.669 37.712L377.618 35.952ZM383.891 42.16L382.142 43.1313L382.148 43.1418L382.154 43.1523L383.891 42.16ZM374.995 48.688V50.688H376.995V48.688H374.995ZM373.074 44.208L374.384 42.6966L373.074 44.208ZM363.603 44.144L362.322 42.6076L362.309 42.6183L362.297 42.6292L363.603 44.144ZM361.298 48.688L359.321 48.3871L358.971 50.688H361.298V48.688ZM384.194 51.568C384.194 52.5089 384.136 53.4988 384.016 54.5388L387.989 54.9972C388.125 53.8186 388.194 52.6751 388.194 51.568H384.194ZM386.003 52.768H361.234V56.768H386.003V52.768ZM359.24 54.9214C359.437 57.481 360.274 59.702 361.957 61.3268L364.736 58.4492C363.944 57.6847 363.373 56.4923 363.229 54.6146L359.24 54.9214ZM362.009 61.3746C363.681 62.88 365.725 63.616 368.018 63.616V59.616C366.643 59.616 365.572 59.2 364.684 58.4014L362.009 61.3746ZM368.018 63.616C369.666 63.616 371.201 63.2669 372.528 62.4619C373.864 61.6512 374.854 60.4597 375.529 59.0002L371.9 57.3198C371.509 58.1643 371.016 58.7008 370.453 59.0421C369.881 59.3891 369.102 59.616 368.018 59.616V63.616ZM373.715 60.16H385.362V56.16H373.715V60.16ZM383.424 57.6666C382.902 59.7175 381.955 61.5589 380.568 63.2088L383.629 65.7832C385.399 63.6784 386.628 61.2958 387.301 58.6534L383.424 57.6666ZM380.551 63.2295C379.221 64.8545 377.532 66.1435 375.447 67.0913L377.102 70.7327C379.71 69.5472 381.904 67.8922 383.646 65.7625L380.551 63.2295ZM375.447 67.0913C373.391 68.0258 371.054 68.512 368.402 68.512V72.512C371.553 72.512 374.465 71.9316 377.102 70.7327L375.447 67.0913ZM368.402 68.512C365.197 68.512 362.42 67.8305 360.018 66.5173L358.099 70.0267C361.159 71.7001 364.611 72.512 368.402 72.512V68.512ZM360.018 66.5173C357.626 65.2093 355.764 63.3514 354.408 60.903L350.909 62.841C352.625 65.9393 355.029 68.3481 358.099 70.0267L360.018 66.5173ZM354.408 60.903C353.062 58.4733 352.354 55.5752 352.354 52.144H348.354C348.354 56.1368 349.183 59.724 350.909 62.841L354.408 60.903ZM352.354 52.144C352.354 48.7039 353.045 45.7982 354.355 43.3642L350.834 41.4678C349.157 44.5805 348.354 48.1601 348.354 52.144H352.354ZM354.344 43.385C355.7 40.9366 357.562 39.0787 359.954 37.7707L358.035 34.2613C354.965 35.9399 352.561 38.3487 350.845 41.447L354.344 43.385ZM359.954 37.7707C362.352 36.4594 365.15 35.776 368.402 35.776V31.776C364.573 31.776 361.098 32.5859 358.035 34.2613L359.954 37.7707ZM368.402 35.776C371.571 35.776 374.309 36.4386 376.669 37.712L378.568 34.192C375.552 32.5641 372.146 31.776 368.402 31.776V35.776ZM376.669 37.712C379.018 38.9801 380.833 40.7746 382.142 43.1313L385.639 41.1887C383.961 38.1693 381.595 35.8252 378.568 34.192L376.669 37.712ZM382.154 43.1523C383.492 45.4933 384.194 48.2766 384.194 51.568H388.194C388.194 47.6914 387.361 44.2027 385.627 41.1677L382.154 43.1523ZM376.995 48.688C376.995 46.3012 376.153 44.2297 374.384 42.6966L371.765 45.7194C372.556 46.4049 372.995 47.3202 372.995 48.688H376.995ZM374.384 42.6966C372.692 41.23 370.607 40.544 368.275 40.544V44.544C369.782 44.544 370.897 44.9673 371.765 45.7194L374.384 42.6966ZM368.275 40.544C366.023 40.544 363.999 41.2105 362.322 42.6076L364.883 45.6804C365.766 44.9442 366.857 44.544 368.275 44.544V40.544ZM362.297 42.6292C360.624 44.0709 359.676 46.0585 359.321 48.3871L363.276 48.9889C363.519 47.3922 364.106 46.3505 364.908 45.6588L362.297 42.6292ZM361.298 50.688H374.995V46.688H361.298V50.688ZM402.912 40.24H400.912V46.9679L404.587 41.3325L402.912 40.24ZM407.712 35.632L408.713 37.3637L408.727 37.3555L408.741 37.347L407.712 35.632ZM414.112 33.904H416.112V31.904H414.112V33.904ZM414.112 45.488V47.488H416.112V45.488H414.112ZM404.96 47.28L406.25 48.8086L406.263 48.797L406.277 48.7852L404.96 47.28ZM402.912 70V72H404.912V70H402.912ZM391.968 70H389.968V72H391.968V70ZM391.968 34.288V32.288H389.968V34.288H391.968ZM402.912 34.288H404.912V32.288H402.912V34.288ZM404.587 41.3325C405.706 39.6176 407.08 38.307 408.713 37.3637L406.711 33.9003C404.504 35.1756 402.678 36.937 401.237 39.1475L404.587 41.3325ZM408.741 37.347C410.335 36.3906 412.11 35.904 414.112 35.904V31.904C411.421 31.904 408.929 32.5694 406.683 33.917L408.741 37.347ZM412.112 33.904V45.488H416.112V33.904H412.112ZM414.112 43.488H411.104V47.488H414.112V43.488ZM411.104 43.488C408.126 43.488 405.519 44.1337 403.643 45.7748L406.277 48.7852C407.132 48.0369 408.621 47.488 411.104 47.488V43.488ZM403.67 45.7514C401.632 47.4715 400.912 50.2634 400.912 53.424H404.912C404.912 50.6966 405.558 49.3925 406.25 48.8086L403.67 45.7514ZM400.912 53.424V70H404.912V53.424H400.912ZM402.912 68H391.968V72H402.912V68ZM393.968 70V34.288H389.968V70H393.968ZM391.968 36.288H402.912V32.288H391.968V36.288ZM400.912 34.288V40.24H404.912V34.288H400.912ZM420.111 28.912L418.723 30.3517L418.749 30.3769L418.776 30.4011L420.111 28.912ZM420.111 20.464L421.472 21.9296L421.474 21.9278L420.111 20.464ZM429.455 20.464L428.067 21.9037L428.093 21.9289L428.12 21.9531L429.455 20.464ZM429.455 28.912L430.816 30.3776L430.818 30.3758L429.455 28.912ZM430.287 34.288H432.287V32.288H430.287V34.288ZM430.287 70V72H432.287V70H430.287ZM419.343 70H417.343V72H419.343V70ZM419.343 34.288V32.288H417.343V34.288H419.343ZM424.847 28.576C423.338 28.576 422.26 28.1526 421.446 27.4229L418.776 30.4011C420.437 31.8901 422.516 32.576 424.847 32.576V28.576ZM421.499 27.4723C420.697 26.6984 420.319 25.8106 420.319 24.688H416.319C416.319 26.8934 417.136 28.8216 418.723 30.3517L421.499 27.4723ZM420.319 24.688C420.319 23.5081 420.706 22.641 421.472 21.9296L418.75 18.9984C417.127 20.5057 416.319 22.4546 416.319 24.688H420.319ZM421.474 21.9278C422.29 21.1677 423.359 20.736 424.847 20.736V16.736C422.495 16.736 420.406 17.4563 418.748 19.0002L421.474 21.9278ZM424.847 20.736C426.28 20.736 427.295 21.1592 428.067 21.9037L430.843 19.0243C429.226 17.4648 427.169 16.736 424.847 16.736V20.736ZM428.12 21.9531C428.921 22.6716 429.311 23.5322 429.311 24.688H433.311C433.311 22.4305 432.463 20.4751 430.79 18.9749L428.12 21.9531ZM429.311 24.688C429.311 25.7868 428.931 26.6677 428.092 27.4482L430.818 30.3758C432.454 28.8523 433.311 26.9172 433.311 24.688H429.311ZM428.094 27.4464C427.325 28.1602 426.302 28.576 424.847 28.576V32.576C427.147 32.576 429.195 31.8824 430.816 30.3776L428.094 27.4464ZM428.287 34.288V70H432.287V34.288H428.287ZM430.287 68H419.343V72H430.287V68ZM421.343 70V34.288H417.343V70H421.343ZM419.343 36.288H430.287V32.288H419.343V36.288ZM471.69 54.768V56.768H473.473L473.677 54.9972L471.69 54.768ZM446.922 54.768V52.768H444.762L444.928 54.9214L446.922 54.768ZM449.034 59.888L447.645 61.3268L447.67 61.3511L447.696 61.3746L449.034 59.888ZM459.402 58.16V56.16H458.124L457.587 57.3198L459.402 58.16ZM471.05 58.16L472.988 58.6534L473.623 56.16H471.05V58.16ZM467.786 64.496L466.255 63.2088L466.247 63.2191L466.238 63.2295L467.786 64.496ZM461.962 68.912L462.79 70.7327L461.962 68.912ZM444.746 68.272L443.786 70.0267L444.746 68.272ZM438.346 61.872L440.096 60.903L438.346 61.872ZM438.282 42.416L436.532 41.447L436.527 41.4574L436.521 41.4678L438.282 42.416ZM444.682 36.016L445.642 37.7707L444.682 36.016ZM463.306 35.952L462.356 37.712L463.306 35.952ZM469.578 42.16L467.83 43.1313L467.836 43.1418L467.842 43.1523L469.578 42.16ZM460.682 48.688V50.688H462.682V48.688H460.682ZM458.762 44.208L460.072 42.6966L458.762 44.208ZM449.29 44.144L448.01 42.6076L447.997 42.6183L447.984 42.6292L449.29 44.144ZM446.986 48.688L445.009 48.3871L444.659 50.688H446.986V48.688ZM469.882 51.568C469.882 52.5089 469.823 53.4988 469.703 54.5388L473.677 54.9972C473.813 53.8186 473.882 52.6751 473.882 51.568H469.882ZM471.69 52.768H446.922V56.768H471.69V52.768ZM444.928 54.9214C445.125 57.481 445.962 59.702 447.645 61.3268L450.423 58.4492C449.631 57.6847 449.061 56.4923 448.916 54.6146L444.928 54.9214ZM447.696 61.3746C449.369 62.88 451.413 63.616 453.706 63.616V59.616C452.33 59.616 451.259 59.2 450.372 58.4014L447.696 61.3746ZM453.706 63.616C455.353 63.616 456.889 63.2669 458.215 62.4619C459.552 61.6512 460.541 60.4597 461.217 59.0002L457.587 57.3198C457.196 58.1643 456.703 58.7008 456.141 59.0421C455.569 59.3891 454.789 59.616 453.706 59.616V63.616ZM459.402 60.16H471.05V56.16H459.402V60.16ZM469.112 57.6666C468.59 59.7175 467.643 61.5589 466.255 63.2088L469.317 65.7832C471.087 63.6784 472.316 61.2958 472.988 58.6534L469.112 57.6666ZM466.238 63.2295C464.909 64.8545 463.22 66.1435 461.134 67.0913L462.79 70.7327C465.398 69.5472 467.591 67.8922 469.334 65.7625L466.238 63.2295ZM461.134 67.0913C459.078 68.0258 456.742 68.512 454.09 68.512V72.512C457.241 72.512 460.152 71.9316 462.79 70.7327L461.134 67.0913ZM454.09 68.512C450.884 68.512 448.107 67.8305 445.706 66.5173L443.786 70.0267C446.846 71.7001 450.298 72.512 454.09 72.512V68.512ZM445.706 66.5173C443.314 65.2093 441.452 63.3514 440.096 60.903L436.596 62.841C438.312 65.9393 440.717 68.3481 443.786 70.0267L445.706 66.5173ZM440.096 60.903C438.75 58.4733 438.042 55.5752 438.042 52.144H434.042C434.042 56.1368 434.87 59.724 436.596 62.841L440.096 60.903ZM438.042 52.144C438.042 48.7039 438.732 45.7982 440.043 43.3642L436.521 41.4678C434.845 44.5805 434.042 48.1601 434.042 52.144H438.042ZM440.032 43.385C441.388 40.9366 443.25 39.0787 445.642 37.7707L443.722 34.2613C440.653 35.9399 438.248 38.3487 436.532 41.447L440.032 43.385ZM445.642 37.7707C448.04 36.4594 450.837 35.776 454.09 35.776V31.776C450.26 31.776 446.786 32.5859 443.722 34.2613L445.642 37.7707ZM454.09 35.776C457.259 35.776 459.997 36.4386 462.356 37.712L464.256 34.192C461.24 32.5641 457.833 31.776 454.09 31.776V35.776ZM462.356 37.712C464.706 38.9801 466.52 40.7746 467.83 43.1313L471.326 41.1887C469.649 38.1693 467.282 35.8252 464.256 34.192L462.356 37.712ZM467.842 43.1523C469.179 45.4933 469.882 48.2766 469.882 51.568H473.882C473.882 47.6914 473.049 44.2027 471.314 41.1677L467.842 43.1523ZM462.682 48.688C462.682 46.3012 461.841 44.2297 460.072 42.6966L457.452 45.7194C458.243 46.4049 458.682 47.3202 458.682 48.688H462.682ZM460.072 42.6966C458.38 41.23 456.295 40.544 453.962 40.544V44.544C455.469 44.544 456.584 44.9673 457.452 45.7194L460.072 42.6966ZM453.962 40.544C451.71 40.544 449.686 41.2105 448.01 42.6076L450.57 45.6804C451.454 44.9442 452.545 44.544 453.962 44.544V40.544ZM447.984 42.6292C446.312 44.0709 445.363 46.0585 445.009 48.3871L448.963 48.9889C449.206 47.3922 449.794 46.3505 450.596 45.6588L447.984 42.6292ZM446.986 50.688H460.682V46.688H446.986V50.688ZM509.4 38L507.918 39.343L507.929 39.3552L507.94 39.3671L509.4 38ZM513.175 70V72H515.175V70H513.175ZM502.296 70H500.296V72H502.296V70ZM500.44 45.04L498.979 46.4063L498.979 46.4063L500.44 45.04ZM490.456 45.04L491.916 46.4063V46.4063L490.456 45.04ZM488.599 70V72H490.599V70H488.599ZM477.655 70H475.655V72H477.655V70ZM477.655 34.288V32.288H475.655V34.288H477.655ZM488.599 34.288H490.599V32.288H488.599V34.288ZM488.599 39.024H486.599V45.3487L490.236 40.1739L488.599 39.024ZM493.079 35.312L493.941 37.117L493.958 37.1091L493.974 37.1009L493.079 35.312ZM499.415 35.904C503.116 35.904 505.875 37.0892 507.918 39.343L510.881 36.657C507.975 33.4494 504.077 31.904 499.415 31.904V35.904ZM507.94 39.3671C510.019 41.5876 511.176 44.7573 511.176 49.136H515.175C515.175 44.0427 513.814 39.7884 510.859 36.6329L507.94 39.3671ZM511.176 49.136V70H515.175V49.136H511.176ZM513.175 68H502.296V72H513.175V68ZM504.296 70V50.608H500.296V70H504.296ZM504.296 50.608C504.296 47.8776 503.583 45.4727 501.9 43.6737L498.979 46.4063C499.771 47.2527 500.296 48.5598 500.296 50.608H504.296ZM501.9 43.6737C500.225 41.8832 497.998 41.056 495.448 41.056V45.056C497.078 45.056 498.179 45.5515 498.979 46.4063L501.9 43.6737ZM495.448 41.056C492.897 41.056 490.67 41.8832 488.995 43.6737L491.916 46.4063C492.716 45.5515 493.817 45.056 495.448 45.056V41.056ZM488.995 43.6737C487.312 45.4727 486.599 47.8776 486.599 50.608H490.599C490.599 48.5598 491.124 47.2527 491.916 46.4063L488.995 43.6737ZM486.599 50.608V70H490.599V50.608H486.599ZM488.599 68H477.655V72H488.599V68ZM479.655 70V34.288H475.655V70H479.655ZM477.655 36.288H488.599V32.288H477.655V36.288ZM486.599 34.288V39.024H490.599V34.288H486.599ZM490.236 40.1739C491.132 38.8984 492.349 37.8768 493.941 37.117L492.218 33.507C490.055 34.5392 488.285 35.9923 486.963 37.8741L490.236 40.1739ZM493.974 37.1009C495.542 36.3167 497.342 35.904 499.415 35.904V31.904C496.795 31.904 494.371 32.43 492.185 33.5231L493.974 37.1009ZM520.844 42.416L519.095 41.447L519.089 41.4574L519.084 41.4678L520.844 42.416ZM527.18 36.016L526.221 34.2612L526.209 34.2677L527.18 36.016ZM547.724 37.296L546.489 38.8687L546.5 38.8771L547.724 37.296ZM553.677 47.216V49.216H556.164L555.63 46.7863L553.677 47.216ZM542.029 47.216L540.146 47.8924L540.622 49.216H542.029V47.216ZM531.532 45.488L533.111 46.7159L533.119 46.7054L533.127 46.6949L531.532 45.488ZM531.532 58.864L529.938 60.0709L529.946 60.0814L529.954 60.0919L531.532 58.864ZM542.029 57.072V55.072H540.622L540.146 56.3956L542.029 57.072ZM553.677 57.072L555.628 57.5101L556.175 55.072H553.677V57.072ZM547.724 66.928L546.486 65.3577L547.724 66.928ZM527.18 68.272L526.209 70.0204L526.221 70.0267L527.18 68.272ZM520.844 61.872L519.084 62.8202L519.089 62.8306L519.095 62.841L520.844 61.872ZM520.604 52.144C520.604 48.7039 521.295 45.7982 522.605 43.3642L519.084 41.4678C517.407 44.5805 516.604 48.1601 516.604 52.144H520.604ZM522.594 43.385C523.955 40.9285 525.802 39.07 528.152 37.7643L526.209 34.2677C523.183 35.9487 520.806 38.3569 519.095 41.447L522.594 43.385ZM528.14 37.7707C530.542 36.4575 533.319 35.776 536.524 35.776V31.776C532.733 31.776 529.281 32.5879 526.221 34.2613L528.14 37.7707ZM536.524 35.776C540.64 35.776 543.915 36.8464 546.489 38.8686L548.96 35.7234C545.561 33.0522 541.369 31.776 536.524 31.776V35.776ZM546.5 38.8771C549.108 40.8972 550.87 43.7685 551.723 47.6457L555.63 46.7863C554.605 42.1302 552.4 38.3881 548.949 35.7149L546.5 38.8771ZM553.677 45.216H542.029V49.216H553.677V45.216ZM543.911 46.5396C543.316 44.8858 542.386 43.4906 541.036 42.5202C539.682 41.5464 538.072 41.12 536.333 41.12V45.12C537.409 45.12 538.156 45.3763 538.701 45.7678C539.25 46.1627 539.759 46.8155 540.146 47.8924L543.911 46.5396ZM536.333 41.12C533.71 41.12 531.516 42.1953 529.938 44.2811L533.127 46.6949C533.938 45.6233 534.944 45.12 536.333 45.12V41.12ZM529.954 44.2601C528.381 46.2826 527.74 49.0069 527.74 52.144H531.74C531.74 49.4785 532.295 47.7654 533.111 46.7159L529.954 44.2601ZM527.74 52.144C527.74 55.2863 528.383 58.0163 529.938 60.0709L533.127 57.6571C532.293 56.5544 531.74 54.8044 531.74 52.144H527.74ZM529.954 60.0919C531.541 62.1322 533.732 63.168 536.333 63.168V59.168C534.922 59.168 533.914 58.6678 533.111 57.6361L529.954 60.0919ZM536.333 63.168C538.072 63.168 539.682 62.7416 541.036 61.7678C542.386 60.7974 543.316 59.4022 543.911 57.7484L540.146 56.3956C539.759 57.4725 539.25 58.1253 538.701 58.5202C538.156 58.9117 537.409 59.168 536.333 59.168V63.168ZM542.029 59.072H553.677V55.072H542.029V59.072ZM551.725 56.6339C550.875 60.4199 549.114 63.2845 546.486 65.3577L548.963 68.4983C552.393 65.7928 554.601 62.0867 555.628 57.5101L551.725 56.6339ZM546.486 65.3577C543.861 67.4278 540.583 68.512 536.524 68.512V72.512C541.341 72.512 545.529 71.2068 548.963 68.4983L546.486 65.3577ZM536.524 68.512C533.319 68.512 530.542 67.8305 528.14 66.5173L526.221 70.0267C529.281 71.7001 532.733 72.512 536.524 72.512V68.512ZM528.152 66.5237C525.802 65.218 523.955 63.3595 522.594 60.903L519.095 62.841C520.806 65.9311 523.183 68.3393 526.209 70.0203L528.152 66.5237ZM522.605 60.9238C521.295 58.4898 520.604 55.5841 520.604 52.144H516.604C516.604 56.1279 517.407 59.7075 519.084 62.8202L522.605 60.9238ZM593.003 54.768V56.768H594.785L594.989 54.9972L593.003 54.768ZM568.234 54.768V52.768H566.075L566.24 54.9214L568.234 54.768ZM570.346 59.888L568.957 61.3268L568.983 61.3511L569.009 61.3746L570.346 59.888ZM580.714 58.16V56.16H579.436L578.9 57.3198L580.714 58.16ZM592.362 58.16L594.301 58.6534L594.935 56.16H592.362V58.16ZM589.099 64.496L587.568 63.2088L587.559 63.2191L587.551 63.2295L589.099 64.496ZM583.274 68.912L584.102 70.7327L583.274 68.912ZM566.058 68.272L565.099 70.0267L566.058 68.272ZM559.659 61.872L561.408 60.903L559.659 61.872ZM559.594 42.416L557.845 41.447L557.839 41.4574L557.834 41.4678L559.594 42.416ZM565.995 36.016L566.954 37.7707L565.995 36.016ZM584.619 35.952L583.669 37.712L584.619 35.952ZM590.891 42.16L589.142 43.1313L589.148 43.1418L589.154 43.1523L590.891 42.16ZM581.995 48.688V50.688H583.995V48.688H581.995ZM580.075 44.208L581.384 42.6966L580.075 44.208ZM570.602 44.144L569.322 42.6076L569.309 42.6183L569.297 42.6292L570.602 44.144ZM568.299 48.688L566.321 48.3871L565.971 50.688H568.299V48.688ZM591.195 51.568C591.195 52.5089 591.136 53.4988 591.016 54.5388L594.989 54.9972C595.125 53.8186 595.195 52.6751 595.195 51.568H591.195ZM593.003 52.768H568.234V56.768H593.003V52.768ZM566.24 54.9214C566.437 57.481 567.274 59.702 568.957 61.3268L571.736 58.4492C570.944 57.6847 570.373 56.4923 570.229 54.6146L566.24 54.9214ZM569.009 61.3746C570.681 62.88 572.725 63.616 575.018 63.616V59.616C573.643 59.616 572.572 59.2 571.684 58.4014L569.009 61.3746ZM575.018 63.616C576.666 63.616 578.201 63.2669 579.528 62.4619C580.864 61.6512 581.854 60.4597 582.529 59.0002L578.9 57.3198C578.509 58.1643 578.016 58.7008 577.453 59.0421C576.881 59.3891 576.102 59.616 575.018 59.616V63.616ZM580.714 60.16H592.362V56.16H580.714V60.16ZM590.424 57.6666C589.902 59.7175 588.955 61.5589 587.568 63.2088L590.629 65.7832C592.399 63.6784 593.628 61.2958 594.301 58.6534L590.424 57.6666ZM587.551 63.2295C586.221 64.8545 584.532 66.1435 582.447 67.0913L584.102 70.7327C586.71 69.5472 588.904 67.8922 590.646 65.7625L587.551 63.2295ZM582.447 67.0913C580.391 68.0258 578.054 68.512 575.403 68.512V72.512C578.553 72.512 581.465 71.9316 584.102 70.7327L582.447 67.0913ZM575.403 68.512C572.197 68.512 569.42 67.8305 567.018 66.5173L565.099 70.0267C568.159 71.7001 571.611 72.512 575.403 72.512V68.512ZM567.018 66.5173C564.626 65.2093 562.764 63.3514 561.408 60.903L557.909 62.841C559.625 65.9393 562.029 68.3481 565.099 70.0267L567.018 66.5173ZM561.408 60.903C560.062 58.4733 559.354 55.5752 559.354 52.144H555.354C555.354 56.1368 556.183 59.724 557.909 62.841L561.408 60.903ZM559.354 52.144C559.354 48.7039 560.045 45.7982 561.355 43.3642L557.834 41.4678C556.157 44.5805 555.354 48.1601 555.354 52.144H559.354ZM561.344 43.385C562.7 40.9366 564.562 39.0787 566.954 37.7707L565.035 34.2613C561.965 35.9399 559.561 38.3487 557.845 41.447L561.344 43.385ZM566.954 37.7707C569.352 36.4594 572.15 35.776 575.403 35.776V31.776C571.573 31.776 568.098 32.5859 565.035 34.2613L566.954 37.7707ZM575.403 35.776C578.571 35.776 581.309 36.4386 583.669 37.712L585.568 34.192C582.552 32.5641 579.146 31.776 575.403 31.776V35.776ZM583.669 37.712C586.018 38.9801 587.833 40.7746 589.142 43.1313L592.639 41.1887C590.961 38.1693 588.595 35.8252 585.568 34.192L583.669 37.712ZM589.154 43.1523C590.492 45.4933 591.195 48.2766 591.195 51.568H595.195C595.195 47.6914 594.361 44.2027 592.627 41.1677L589.154 43.1523ZM583.995 48.688C583.995 46.3012 583.153 44.2297 581.384 42.6966L578.765 45.7194C579.556 46.4049 579.995 47.3202 579.995 48.688H583.995ZM581.384 42.6966C579.692 41.23 577.607 40.544 575.274 40.544V44.544C576.782 44.544 577.897 44.9673 578.765 45.7194L581.384 42.6966ZM575.274 40.544C573.023 40.544 570.999 41.2105 569.322 42.6076L571.883 45.6804C572.766 44.9442 573.857 44.544 575.274 44.544V40.544ZM569.297 42.6292C567.624 44.0709 566.676 46.0585 566.321 48.3871L570.276 48.9889C570.519 47.3922 571.106 46.3505 571.908 45.6588L569.297 42.6292ZM568.299 50.688H581.995V46.688H568.299V50.688ZM612.403 42.416L610.619 41.5106L610.614 41.5216L610.608 41.5326L612.403 42.416ZM618.099 36.016L619.159 37.712L618.099 36.016ZM632.498 35.248L631.588 37.0289L631.596 37.0329L631.604 37.0368L632.498 35.248ZM637.107 39.216L635.442 40.3254L639.107 45.8216V39.216H637.107ZM637.107 22.64V20.64H635.107V22.64H637.107ZM648.05 22.64H650.05V20.64H648.05V22.64ZM648.05 70V72H650.05V70H648.05ZM637.107 70H635.107V72H637.107V70ZM637.107 64.88H639.107V57.6594L635.392 63.851L637.107 64.88ZM632.69 68.976L631.749 67.2113L631.741 67.2157L631.733 67.2202L632.69 68.976ZM618.099 68.272L617.017 69.9544L617.028 69.9612L617.039 69.968L618.099 68.272ZM612.403 61.808L610.603 62.6805L610.611 62.697L610.619 62.7134L612.403 61.808ZM634.802 45.68L633.35 47.0544L633.359 47.0646L633.369 47.0747L634.802 45.68ZM623.731 45.68L622.297 44.2853L622.297 44.2858L623.731 45.68ZM623.731 58.608L622.259 59.963L622.278 59.9831L622.297 60.0027L623.731 58.608ZM634.802 58.608L633.369 57.2133L633.359 57.2234L633.35 57.2336L634.802 58.608ZM612.354 52.08C612.354 48.6602 612.99 45.7511 614.197 43.2994L610.608 41.5326C609.084 44.6276 608.354 48.1612 608.354 52.08H612.354ZM614.186 43.3214C615.447 40.8378 617.109 38.9929 619.159 37.712L617.039 34.32C614.309 36.0258 612.174 38.4476 610.619 41.5106L614.186 43.3214ZM619.159 37.712C621.215 36.4265 623.512 35.776 626.099 35.776V31.776C622.797 31.776 619.76 32.6189 617.039 34.32L619.159 37.712ZM626.099 35.776C628.157 35.776 629.974 36.204 631.588 37.0289L633.409 33.4671C631.183 32.3293 628.733 31.776 626.099 31.776V35.776ZM631.604 37.0368C633.286 37.8781 634.545 38.9786 635.442 40.3254L638.771 38.1066C637.45 36.1254 635.636 34.5806 633.393 33.4591L631.604 37.0368ZM639.107 39.216V22.64H635.107V39.216H639.107ZM637.107 24.64H648.05V20.64H637.107V24.64ZM646.05 22.64V70H650.05V22.64H646.05ZM648.05 68H637.107V72H648.05V68ZM639.107 70V64.88H635.107V70H639.107ZM635.392 63.851C634.571 65.2182 633.38 66.3414 631.749 67.2113L633.632 70.7407C635.841 69.5626 637.594 67.9551 638.821 65.909L635.392 63.851ZM631.733 67.2202C630.197 68.0577 628.341 68.512 626.099 68.512V72.512C628.891 72.512 631.429 71.9423 633.648 70.7318L631.733 67.2202ZM626.099 68.512C623.512 68.512 621.215 67.8615 619.159 66.576L617.039 69.968C619.76 71.6691 622.797 72.512 626.099 72.512V68.512ZM619.18 66.5896C617.117 65.2637 615.449 63.3902 614.186 60.9026L610.619 62.7134C612.172 65.7725 614.301 68.2083 617.017 69.9544L619.18 66.5896ZM614.202 60.9355C612.99 58.4345 612.354 55.4989 612.354 52.08H608.354C608.354 55.9997 609.085 59.5495 610.603 62.6805L614.202 60.9355ZM639.107 52.144C639.107 49.0241 638.218 46.3222 636.236 44.2853L633.369 47.0747C634.459 48.1952 635.107 49.8026 635.107 52.144H639.107ZM636.255 44.3056C634.384 42.327 632.023 41.312 629.299 41.312V45.312C630.926 45.312 632.235 45.8757 633.35 47.0544L636.255 44.3056ZM629.299 41.312C626.575 41.312 624.204 42.325 622.297 44.2853L625.164 47.0747C626.329 45.8777 627.67 45.312 629.299 45.312V41.312ZM622.297 44.2858C620.348 46.2901 619.49 48.9781 619.49 52.08H623.49C623.49 49.7206 624.126 48.1419 625.164 47.0742L622.297 44.2858ZM619.49 52.08C619.49 55.1872 620.35 57.8894 622.259 59.963L625.202 57.253C624.125 56.0839 623.49 54.4341 623.49 52.08H619.49ZM622.297 60.0027C624.204 61.963 626.575 62.976 629.299 62.976V58.976C627.67 58.976 626.329 58.4103 625.164 57.2133L622.297 60.0027ZM629.299 62.976C632.023 62.976 634.384 61.961 636.255 59.9824L633.35 57.2336C632.235 58.4123 630.926 58.976 629.299 58.976V62.976ZM636.236 60.0027C638.218 57.9658 639.107 55.2639 639.107 52.144H635.107C635.107 54.4854 634.459 56.0928 633.369 57.2133L636.236 60.0027ZM662.752 68.272L661.804 70.033L661.815 70.0389L662.752 68.272ZM656.16 61.872L654.422 62.8614L654.428 62.8714L654.433 62.8814L656.16 61.872ZM656.224 42.48L657.951 43.4894L657.957 43.4779L656.224 42.48ZM662.88 36.016L663.817 37.7829L662.88 36.016ZM681.824 36.016L680.887 37.7829L681.824 36.016ZM688.48 42.48L686.747 43.478L686.753 43.4894L688.48 42.48ZM688.416 61.872L686.694 60.8545L686.689 60.8626L688.416 61.872ZM681.696 68.272L680.77 66.4993L680.759 66.5051L681.696 68.272ZM677.536 58.736L676.102 57.3418L676.092 57.3522L676.082 57.3628L677.536 58.736ZM677.6 45.552L676.126 46.9034L676.136 46.9144L676.146 46.9252L677.6 45.552ZM667.04 45.552L668.495 46.924L668.505 46.9138L668.514 46.9034L667.04 45.552ZM666.976 58.736L665.481 60.0647L665.491 60.0762L665.502 60.0874L666.976 58.736ZM672.224 68.512C669.019 68.512 666.189 67.8308 663.689 66.5051L661.815 70.0389C664.947 71.6999 668.431 72.512 672.224 72.512V68.512ZM663.7 66.5111C661.257 65.1956 659.326 63.3253 657.887 60.8626L654.433 62.8814C656.236 65.9654 658.7 68.3618 661.804 70.0329L663.7 66.5111ZM657.898 60.8826C656.517 58.4568 655.792 55.5662 655.792 52.144H651.792C651.792 56.1458 652.645 59.7405 654.422 62.8614L657.898 60.8826ZM655.792 52.144C655.792 48.7781 656.533 45.915 657.951 43.4894L654.497 41.4706C652.673 44.5917 651.792 48.1712 651.792 52.144H655.792ZM657.957 43.4779C659.395 40.9814 661.34 39.0964 663.817 37.7829L661.943 34.2491C658.788 35.9223 656.296 38.3466 654.491 41.4821L657.957 43.4779ZM663.817 37.7829C666.317 36.4572 669.147 35.776 672.352 35.776V31.776C668.559 31.776 665.075 32.5881 661.943 34.2491L663.817 37.7829ZM672.352 35.776C675.557 35.776 678.387 36.4572 680.887 37.7829L682.761 34.2491C679.629 32.5881 676.145 31.776 672.352 31.776V35.776ZM680.887 37.7829C683.364 39.0964 685.309 40.9814 686.747 43.4779L690.213 41.4821C688.408 38.3466 685.916 35.9223 682.761 34.2491L680.887 37.7829ZM686.753 43.4894C688.171 45.915 688.912 48.7781 688.912 52.144H692.912C692.912 48.1712 692.031 44.5917 690.207 41.4706L686.753 43.4894ZM688.912 52.144C688.912 55.5 688.155 58.383 686.694 60.8545L690.138 62.8895C692.005 59.729 692.912 56.1266 692.912 52.144H688.912ZM686.689 60.8626C685.259 63.3099 683.297 65.1794 680.77 66.4993L682.622 70.0447C685.813 68.378 688.331 65.9807 690.143 62.8814L686.689 60.8626ZM680.759 66.5051C678.259 67.8308 675.429 68.512 672.224 68.512V72.512C676.017 72.512 679.501 71.6999 682.633 70.0389L680.759 66.5051ZM672.224 63.04C674.871 63.04 677.166 62.0405 678.99 60.1092L676.082 57.3628C675.005 58.5035 673.758 59.04 672.224 59.04V63.04ZM678.97 60.1302C680.934 58.1096 681.776 55.3443 681.776 52.144H677.776C677.776 54.661 677.124 56.2904 676.102 57.3418L678.97 60.1302ZM681.776 52.144C681.776 48.9584 680.964 46.2009 679.054 44.1788L676.146 46.9252C677.137 47.9751 677.776 49.6123 677.776 52.144H681.776ZM679.074 44.2006C677.286 42.2497 675.001 41.248 672.352 41.248V45.248C673.884 45.248 675.098 45.7823 676.126 46.9034L679.074 44.2006ZM672.352 41.248C669.673 41.248 667.363 42.2402 665.566 44.2006L668.514 46.9034C669.533 45.7918 670.764 45.248 672.352 45.248V41.248ZM665.585 44.18C663.705 46.174 662.928 48.944 662.928 52.144H666.928C666.928 49.5413 667.559 47.9166 668.495 46.924L665.585 44.18ZM662.928 52.144C662.928 55.301 663.682 58.0411 665.481 60.0647L668.471 57.4073C667.539 56.3589 666.928 54.7043 666.928 52.144H662.928ZM665.502 60.0874C667.29 62.0383 669.575 63.04 672.224 63.04V59.04C670.692 59.04 669.478 58.5057 668.45 57.3845L665.502 60.0874ZM746.76 34.288L748.601 35.0707L749.784 32.288H746.76V34.288ZM724.36 86.96V88.96H725.683L726.201 87.7427L724.36 86.96ZM712.584 86.96L710.761 86.1382L709.489 88.96H712.584V86.96ZM720.776 68.784L722.6 69.6058L722.958 68.8111L722.62 68.0077L720.776 68.784ZM706.248 34.288V32.288H703.236L704.405 35.0643L706.248 34.288ZM718.472 34.288L720.348 33.5946L719.865 32.288H718.472V34.288ZM726.729 56.624L724.853 57.3174L726.736 62.4124L728.606 57.3127L726.729 56.624ZM734.921 34.288V32.288H733.524L733.043 33.5993L734.921 34.288ZM744.92 33.5053L722.52 86.1773L726.201 87.7427L748.601 35.0707L744.92 33.5053ZM724.36 84.96H712.584V88.96H724.36V84.96ZM714.408 87.7818L722.6 69.6058L718.953 67.9622L710.761 86.1382L714.408 87.7818ZM722.62 68.0077L708.092 33.5117L704.405 35.0643L718.933 69.5603L722.62 68.0077ZM706.248 36.288H718.472V32.288H706.248V36.288ZM716.597 34.9814L724.853 57.3174L728.604 55.9306L720.348 33.5946L716.597 34.9814ZM728.606 57.3127L736.798 34.9767L733.043 33.5993L724.851 55.9353L728.606 57.3127ZM734.921 36.288H746.76V32.288H734.921V36.288ZM757.502 68.272L756.554 70.033L756.565 70.0389L757.502 68.272ZM750.91 61.872L749.172 62.8614L749.178 62.8714L749.183 62.8814L750.91 61.872ZM750.974 42.48L752.701 43.4894L752.707 43.4779L750.974 42.48ZM757.63 36.016L758.567 37.7829L757.63 36.016ZM776.574 36.016L775.637 37.7829L776.574 36.016ZM783.23 42.48L781.497 43.478L781.503 43.4894L783.23 42.48ZM783.166 61.872L781.444 60.8545L781.439 60.8626L783.166 61.872ZM776.446 68.272L775.52 66.4993L775.509 66.5051L776.446 68.272ZM772.286 58.736L770.852 57.3418L770.842 57.3522L770.832 57.3628L772.286 58.736ZM772.35 45.552L770.876 46.9034L770.886 46.9144L770.896 46.9252L772.35 45.552ZM761.79 45.552L763.245 46.924L763.255 46.9138L763.264 46.9034L761.79 45.552ZM761.726 58.736L760.231 60.0647L760.241 60.0762L760.252 60.0874L761.726 58.736ZM766.974 68.512C763.769 68.512 760.939 67.8308 758.439 66.5051L756.565 70.0389C759.697 71.6999 763.181 72.512 766.974 72.512V68.512ZM758.45 66.5111C756.007 65.1956 754.076 63.3253 752.637 60.8626L749.183 62.8814C750.986 65.9654 753.45 68.3618 756.554 70.0329L758.45 66.5111ZM752.648 60.8826C751.267 58.4568 750.542 55.5662 750.542 52.144H746.542C746.542 56.1458 747.395 59.7405 749.172 62.8614L752.648 60.8826ZM750.542 52.144C750.542 48.7781 751.283 45.915 752.701 43.4894L749.247 41.4706C747.423 44.5917 746.542 48.1712 746.542 52.144H750.542ZM752.707 43.4779C754.145 40.9814 756.09 39.0964 758.567 37.7829L756.693 34.2491C753.538 35.9223 751.046 38.3466 749.241 41.4821L752.707 43.4779ZM758.567 37.7829C761.067 36.4572 763.897 35.776 767.102 35.776V31.776C763.309 31.776 759.825 32.5881 756.693 34.2491L758.567 37.7829ZM767.102 35.776C770.307 35.776 773.137 36.4572 775.637 37.7829L777.511 34.2491C774.379 32.5881 770.895 31.776 767.102 31.776V35.776ZM775.637 37.7829C778.114 39.0964 780.059 40.9814 781.497 43.4779L784.963 41.4821C783.158 38.3466 780.666 35.9223 777.511 34.2491L775.637 37.7829ZM781.503 43.4894C782.921 45.915 783.662 48.7781 783.662 52.144H787.662C787.662 48.1712 786.781 44.5917 784.957 41.4706L781.503 43.4894ZM783.662 52.144C783.662 55.5 782.905 58.383 781.444 60.8545L784.888 62.8895C786.755 59.729 787.662 56.1266 787.662 52.144H783.662ZM781.439 60.8626C780.009 63.3099 778.047 65.1794 775.52 66.4993L777.372 70.0447C780.563 68.378 783.081 65.9807 784.893 62.8814L781.439 60.8626ZM775.509 66.5051C773.009 67.8308 770.179 68.512 766.974 68.512V72.512C770.767 72.512 774.251 71.6999 777.383 70.0389L775.509 66.5051ZM766.974 63.04C769.621 63.04 771.916 62.0405 773.74 60.1092L770.832 57.3628C769.755 58.5035 768.508 59.04 766.974 59.04V63.04ZM773.72 60.1302C775.684 58.1096 776.526 55.3443 776.526 52.144H772.526C772.526 54.661 771.874 56.2904 770.852 57.3418L773.72 60.1302ZM776.526 52.144C776.526 48.9584 775.714 46.2009 773.804 44.1788L770.896 46.9252C771.887 47.9751 772.526 49.6123 772.526 52.144H776.526ZM773.824 44.2006C772.036 42.2497 769.751 41.248 767.102 41.248V45.248C768.634 45.248 769.848 45.7823 770.876 46.9034L773.824 44.2006ZM767.102 41.248C764.423 41.248 762.113 42.2402 760.316 44.2006L763.264 46.9034C764.283 45.7918 765.514 45.248 767.102 45.248V41.248ZM760.335 44.18C758.455 46.174 757.678 48.944 757.678 52.144H761.678C761.678 49.5413 762.309 47.9166 763.245 46.924L760.335 44.18ZM757.678 52.144C757.678 55.301 758.432 58.0411 760.231 60.0647L763.221 57.4073C762.289 56.3589 761.678 54.7043 761.678 52.144H757.678ZM760.252 60.0874C762.04 62.0383 764.325 63.04 766.974 63.04V59.04C765.442 59.04 764.228 58.5057 763.2 57.3845L760.252 60.0874ZM826.732 34.288H828.732V32.288H826.732V34.288ZM826.732 70V72H828.732V70H826.732ZM815.788 70H813.788V72H815.788V70ZM815.788 65.136H817.788V58.8113L814.152 63.9861L815.788 65.136ZM811.244 68.976L812.138 70.7649L812.146 70.7609L812.154 70.7569L811.244 68.976ZM797.74 68.592L796.721 70.3132L796.734 70.3209L796.748 70.3285L797.74 68.592ZM792.876 63.28L791.087 64.1744L792.876 63.28ZM791.148 34.288V32.288H789.148V34.288H791.148ZM802.028 34.288H804.028V32.288H802.028V34.288ZM803.884 59.248L802.423 60.6143L803.884 59.248ZM815.788 34.288V32.288H813.788V34.288H815.788ZM824.732 34.288V70H828.732V34.288H824.732ZM826.732 68H815.788V72H826.732V68ZM817.788 70V65.136H813.788V70H817.788ZM814.152 63.9861C813.25 65.2684 811.999 66.3442 810.334 67.1951L812.154 70.7569C814.329 69.6451 816.107 68.1609 817.424 66.2859L814.152 63.9861ZM810.35 67.1871C808.776 67.9738 806.996 68.384 804.972 68.384V72.384C807.556 72.384 809.957 71.8555 812.138 70.7649L810.35 67.1871ZM804.972 68.384C802.542 68.384 800.482 67.8554 798.732 66.8555L796.748 70.3285C799.179 71.7179 801.941 72.384 804.972 72.384V68.384ZM798.759 66.8708C797.019 65.8414 795.656 64.3674 794.665 62.3856L791.087 64.1744C792.4 66.8006 794.279 68.868 796.721 70.3132L798.759 66.8708ZM794.665 62.3856C793.678 60.4114 793.148 58.0203 793.148 55.152H789.148C789.148 58.513 789.77 61.5406 791.087 64.1744L794.665 62.3856ZM793.148 55.152V34.288H789.148V55.152H793.148ZM791.148 36.288H802.028V32.288H791.148V36.288ZM800.028 34.288V53.68H804.028V34.288H800.028ZM800.028 53.68C800.028 56.4104 800.741 58.8153 802.423 60.6143L805.345 57.8817C804.553 57.0353 804.028 55.7282 804.028 53.68H800.028ZM802.423 60.6143C804.098 62.4048 806.325 63.232 808.876 63.232V59.232C807.245 59.232 806.144 58.7365 805.345 57.8817L802.423 60.6143ZM808.876 63.232C811.456 63.232 813.71 62.4133 815.393 60.6143L812.471 57.8817C811.68 58.728 810.563 59.232 808.876 59.232V63.232ZM815.393 60.6143C817.075 58.8153 817.788 56.4104 817.788 53.68H813.788C813.788 55.7282 813.263 57.0353 812.471 57.8817L815.393 60.6143ZM817.788 53.68V34.288H813.788V53.68H817.788ZM815.788 36.288H826.732V32.288H815.788V36.288ZM879.964 38L878.482 39.343L878.487 39.3489L878.492 39.3546L879.964 38ZM883.675 70V72H885.675V70H883.675ZM872.796 70H870.796V72H872.796V70ZM870.94 45.04L869.479 46.4063V46.4063L870.94 45.04ZM860.956 45.04L862.416 46.4063V46.4063L860.956 45.04ZM859.099 70V72H861.099V70H859.099ZM848.156 70H846.156V72H848.156V70ZM848.156 22.64V20.64H846.156V22.64H848.156ZM859.099 22.64H861.099V20.64H859.099V22.64ZM859.099 39.088H857.099V45.4128L860.736 40.2379L859.099 39.088ZM863.643 35.312L862.765 33.5152L863.643 35.312ZM870.107 35.904C873.709 35.904 876.431 37.08 878.482 39.343L881.445 36.657C878.547 33.4587 874.698 31.904 870.107 31.904V35.904ZM878.492 39.3546C880.536 41.5743 881.675 44.7487 881.675 49.136H885.675C885.675 44.0513 884.341 39.8017 881.435 36.6454L878.492 39.3546ZM881.675 49.136V70H885.675V49.136H881.675ZM883.675 68H872.796V72H883.675V68ZM874.796 70V50.608H870.796V70H874.796ZM874.796 50.608C874.796 47.8776 874.083 45.4727 872.4 43.6737L869.479 46.4063C870.271 47.2527 870.796 48.5598 870.796 50.608H874.796ZM872.4 43.6737C870.725 41.8832 868.498 41.056 865.948 41.056V45.056C867.578 45.056 868.679 45.5515 869.479 46.4063L872.4 43.6737ZM865.948 41.056C863.397 41.056 861.17 41.8832 859.495 43.6737L862.416 46.4063C863.216 45.5515 864.317 45.056 865.948 45.056V41.056ZM859.495 43.6737C857.812 45.4727 857.099 47.8776 857.099 50.608H861.099C861.099 48.5598 861.624 47.2527 862.416 46.4063L859.495 43.6737ZM857.099 50.608V70H861.099V50.608H857.099ZM859.099 68H848.156V72H859.099V68ZM850.156 70V22.64H846.156V70H850.156ZM848.156 24.64H859.099V20.64H848.156V24.64ZM857.099 22.64V39.088H861.099V22.64H857.099ZM860.736 40.2379C861.631 38.9642 862.872 37.9155 864.522 37.1088L862.765 33.5152C860.575 34.5858 858.787 36.0545 857.463 37.9381L860.736 40.2379ZM864.522 37.1088C866.138 36.3189 867.986 35.904 870.107 35.904V31.904C867.45 31.904 864.989 32.4278 862.765 33.5152L864.522 37.1088ZM891.153 42.416L889.369 41.5106L889.364 41.5216L889.358 41.5326L891.153 42.416ZM896.849 36.016L897.909 37.712L896.849 36.016ZM911.44 35.312L910.483 37.0678L910.491 37.0723L910.499 37.0767L911.44 35.312ZM915.857 39.344L914.153 40.3922L917.857 46.4101V39.344H915.857ZM915.857 34.288V32.288H913.857V34.288H915.857ZM926.8 34.288H928.8V32.288H926.8V34.288ZM926.8 70V72H928.8V70H926.8ZM915.857 70H913.857V72H915.857V70ZM915.857 64.944H917.857V58.118L914.173 63.8647L915.857 64.944ZM911.377 68.976L910.435 67.2113L910.427 67.2157L910.419 67.2202L911.377 68.976ZM896.849 68.272L895.767 69.9544L895.778 69.9612L895.789 69.968L896.849 68.272ZM891.153 61.808L889.353 62.6805L889.361 62.697L889.369 62.7134L891.153 61.808ZM913.552 45.68L912.1 47.0544L912.109 47.0646L912.119 47.0747L913.552 45.68ZM902.481 45.68L901.047 44.2853L901.047 44.2858L902.481 45.68ZM902.481 58.608L901.009 59.963L901.028 59.9831L901.047 60.0027L902.481 58.608ZM913.552 58.608L912.119 57.2133L912.109 57.2234L912.1 57.2336L913.552 58.608ZM891.104 52.08C891.104 48.6602 891.74 45.7511 892.947 43.2994L889.358 41.5326C887.834 44.6276 887.104 48.1612 887.104 52.08H891.104ZM892.936 43.3214C894.197 40.8378 895.859 38.9929 897.909 37.712L895.789 34.32C893.059 36.0258 890.924 38.4476 889.369 41.5106L892.936 43.3214ZM897.909 37.712C899.965 36.4265 902.262 35.776 904.849 35.776V31.776C901.547 31.776 898.51 32.6189 895.789 34.32L897.909 37.712ZM904.849 35.776C907.091 35.776 908.947 36.2303 910.483 37.0678L912.398 33.5562C910.179 32.3457 907.641 31.776 904.849 31.776V35.776ZM910.499 37.0767C912.143 37.9532 913.336 39.0638 914.153 40.3922L917.56 38.2958C916.329 36.2962 914.578 34.7188 912.382 33.5473L910.499 37.0767ZM917.857 39.344V34.288H913.857V39.344H917.857ZM915.857 36.288H926.8V32.288H915.857V36.288ZM924.8 34.288V70H928.8V34.288H924.8ZM926.8 68H915.857V72H926.8V68ZM917.857 70V64.944H913.857V70H917.857ZM914.173 63.8647C913.309 65.212 912.084 66.3318 910.435 67.2113L912.318 70.7407C914.509 69.5722 916.271 68.004 917.54 66.0233L914.173 63.8647ZM910.419 67.2202C908.883 68.0577 907.027 68.512 904.784 68.512V72.512C907.577 72.512 910.115 71.9423 912.334 70.7318L910.419 67.2202ZM904.784 68.512C902.246 68.512 899.97 67.8645 897.909 66.576L895.789 69.968C898.505 71.6661 901.52 72.512 904.784 72.512V68.512ZM897.93 66.5896C895.867 65.2637 894.199 63.3902 892.936 60.9026L889.369 62.7134C890.922 65.7725 893.051 68.2083 895.767 69.9544L897.93 66.5896ZM892.952 60.9355C891.74 58.4345 891.104 55.4989 891.104 52.08H887.104C887.104 55.9997 887.835 59.5495 889.353 62.6805L892.952 60.9355ZM917.857 52.144C917.857 49.0241 916.968 46.3222 914.986 44.2853L912.119 47.0747C913.209 48.1952 913.857 49.8026 913.857 52.144H917.857ZM915.005 44.3056C913.134 42.327 910.773 41.312 908.049 41.312V45.312C909.676 45.312 910.985 45.8757 912.1 47.0544L915.005 44.3056ZM908.049 41.312C905.325 41.312 902.954 42.325 901.047 44.2853L903.914 47.0747C905.079 45.8777 906.42 45.312 908.049 45.312V41.312ZM901.047 44.2858C899.098 46.2901 898.24 48.9781 898.24 52.08H902.24C902.24 49.7206 902.876 48.1419 903.914 47.0742L901.047 44.2858ZM898.24 52.08C898.24 55.1872 899.1 57.8894 901.009 59.963L903.952 57.253C902.875 56.0839 902.24 54.4341 902.24 52.08H898.24ZM901.047 60.0027C902.954 61.963 905.325 62.976 908.049 62.976V58.976C906.42 58.976 905.079 58.4103 903.914 57.2133L901.047 60.0027ZM908.049 62.976C910.773 62.976 913.134 61.961 915.005 59.9824L912.1 57.2336C910.985 58.4123 909.676 58.976 908.049 58.976V62.976ZM914.986 60.0027C916.968 57.9658 917.857 55.2639 917.857 52.144H913.857C913.857 54.4854 913.209 56.0928 912.119 57.2133L914.986 60.0027ZM950.782 59.76L948.868 60.3417L950.782 66.6358L952.695 60.3417L950.782 59.76ZM958.526 34.288V32.288H957.044L956.612 33.7062L958.526 34.288ZM970.174 34.288L972.059 34.9568L973.006 32.288H970.174V34.288ZM957.502 70V72H958.914L959.387 70.6688L957.502 70ZM943.998 70L942.113 70.6688L942.586 72H943.998V70ZM931.326 34.288V32.288H928.494L929.441 34.9568L931.326 34.288ZM943.038 34.288L944.952 33.7062L944.52 32.288H943.038V34.288ZM952.695 60.3417L960.44 34.8697L956.612 33.7062L948.868 59.1782L952.695 60.3417ZM958.526 36.288H970.174V32.288H958.526V36.288ZM968.289 33.6192L955.617 69.3312L959.387 70.6688L972.059 34.9568L968.289 33.6192ZM957.502 68H943.998V72H957.502V68ZM945.883 69.3312L933.211 33.6192L929.441 34.9568L942.113 70.6688L945.883 69.3312ZM931.326 36.288H943.038V32.288H931.326V36.288ZM941.124 34.8697L948.868 60.3417L952.695 59.1782L944.952 33.7062L941.124 34.8697ZM1008.25 54.768V56.768H1010.04L1010.24 54.9972L1008.25 54.768ZM983.484 54.768V52.768H981.325L981.49 54.9214L983.484 54.768ZM985.596 59.888L984.207 61.3268L984.233 61.3511L984.259 61.3746L985.596 59.888ZM995.964 58.16V56.16H994.686L994.15 57.3198L995.964 58.16ZM1007.61 58.16L1009.55 58.6534L1010.19 56.16H1007.61V58.16ZM1004.35 64.496L1002.82 63.2088L1002.81 63.2191L1002.8 63.2295L1004.35 64.496ZM998.524 68.912L999.352 70.7327L998.524 68.912ZM981.308 68.272L980.349 70.0267L981.308 68.272ZM974.909 61.872L976.658 60.903L974.909 61.872ZM974.844 42.416L973.095 41.447L973.089 41.4574L973.084 41.4678L974.844 42.416ZM981.245 36.016L982.204 37.7707L981.245 36.016ZM999.869 35.952L998.919 37.712L999.869 35.952ZM1006.14 42.16L1004.39 43.1313L1004.4 43.1418L1004.4 43.1523L1006.14 42.16ZM997.245 48.688V50.688H999.245V48.688H997.245ZM995.325 44.208L996.634 42.6966L995.325 44.208ZM985.852 44.144L984.572 42.6076L984.559 42.6183L984.547 42.6292L985.852 44.144ZM983.549 48.688L981.571 48.3871L981.221 50.688H983.549V48.688ZM1006.44 51.568C1006.44 52.5089 1006.39 53.4988 1006.27 54.5388L1010.24 54.9972C1010.38 53.8186 1010.44 52.6751 1010.44 51.568H1006.44ZM1008.25 52.768H983.484V56.768H1008.25V52.768ZM981.49 54.9214C981.687 57.481 982.524 59.702 984.207 61.3268L986.986 58.4492C986.194 57.6847 985.623 56.4923 985.479 54.6146L981.49 54.9214ZM984.259 61.3746C985.931 62.88 987.975 63.616 990.268 63.616V59.616C988.893 59.616 987.822 59.2 986.934 58.4014L984.259 61.3746ZM990.268 63.616C991.916 63.616 993.451 63.2669 994.778 62.4619C996.114 61.6512 997.104 60.4597 997.779 59.0002L994.15 57.3198C993.759 58.1643 993.266 58.7008 992.703 59.0421C992.131 59.3891 991.352 59.616 990.268 59.616V63.616ZM995.964 60.16H1007.61V56.16H995.964V60.16ZM1005.67 57.6666C1005.15 59.7175 1004.21 61.5589 1002.82 63.2088L1005.88 65.7832C1007.65 63.6784 1008.88 61.2958 1009.55 58.6534L1005.67 57.6666ZM1002.8 63.2295C1001.47 64.8545 999.782 66.1435 997.697 67.0913L999.352 70.7327C1001.96 69.5472 1004.15 67.8922 1005.9 65.7625L1002.8 63.2295ZM997.697 67.0913C995.641 68.0258 993.304 68.512 990.653 68.512V72.512C993.803 72.512 996.715 71.9316 999.352 70.7327L997.697 67.0913ZM990.653 68.512C987.447 68.512 984.67 67.8305 982.268 66.5173L980.349 70.0267C983.409 71.7001 986.861 72.512 990.653 72.512V68.512ZM982.268 66.5173C979.876 65.2093 978.014 63.3514 976.658 60.903L973.159 62.841C974.875 65.9393 977.279 68.3481 980.349 70.0267L982.268 66.5173ZM976.658 60.903C975.312 58.4733 974.604 55.5752 974.604 52.144H970.604C970.604 56.1368 971.433 59.724 973.159 62.841L976.658 60.903ZM974.604 52.144C974.604 48.7039 975.295 45.7982 976.605 43.3642L973.084 41.4678C971.407 44.5805 970.604 48.1601 970.604 52.144H974.604ZM976.594 43.385C977.95 40.9366 979.812 39.0787 982.204 37.7707L980.285 34.2613C977.215 35.9399 974.811 38.3487 973.095 41.447L976.594 43.385ZM982.204 37.7707C984.602 36.4594 987.4 35.776 990.653 35.776V31.776C986.823 31.776 983.348 32.5859 980.285 34.2613L982.204 37.7707ZM990.653 35.776C993.821 35.776 996.559 36.4386 998.919 37.712L1000.82 34.192C997.802 32.5641 994.396 31.776 990.653 31.776V35.776ZM998.919 37.712C1001.27 38.9801 1003.08 40.7746 1004.39 43.1313L1007.89 41.1887C1006.21 38.1693 1003.84 35.8252 1000.82 34.192L998.919 37.712ZM1004.4 43.1523C1005.74 45.4933 1006.44 48.2766 1006.44 51.568H1010.44C1010.44 47.6914 1009.61 44.2027 1007.88 41.1677L1004.4 43.1523ZM999.245 48.688C999.245 46.3012 998.403 44.2297 996.634 42.6966L994.015 45.7194C994.806 46.4049 995.245 47.3202 995.245 48.688H999.245ZM996.634 42.6966C994.942 41.23 992.857 40.544 990.524 40.544V44.544C992.032 44.544 993.147 44.9673 994.015 45.7194L996.634 42.6966ZM990.524 40.544C988.273 40.544 986.249 41.2105 984.572 42.6076L987.133 45.6804C988.016 44.9442 989.107 44.544 990.524 44.544V40.544ZM984.547 42.6292C982.874 44.0709 981.926 46.0585 981.571 48.3871L985.526 48.9889C985.769 47.3922 986.356 46.3505 987.158 45.6588L984.547 42.6292ZM983.549 50.688H997.245V46.688H983.549V50.688ZM1038.28 26.16L1036.96 27.6651L1036.97 27.6702L1036.98 27.6752L1038.28 26.16ZM1038.47 45.68L1039.77 47.202L1039.77 47.2002L1038.47 45.68ZM1028.11 49.072L1028.09 47.0721L1026.23 47.0904L1026.11 48.939L1028.11 49.072ZM1027.79 53.872V55.872H1029.66L1029.78 54.005L1027.79 53.872ZM1018.19 53.872L1016.19 53.9257L1016.24 55.872H1018.19V53.872ZM1017.87 41.968V39.968H1015.81L1015.87 42.0217L1017.87 41.968ZM1029.19 40.752L1028.35 38.9374L1028.34 38.9414L1028.34 38.9454L1029.19 40.752ZM1023.63 32.88L1025.04 34.2942L1025.06 34.277L1025.07 34.2593L1023.63 32.88ZM1022.35 36.4V38.4H1024.35V36.4H1022.35ZM1012.04 36.4L1010.04 36.4655L1010.11 38.4H1012.04V36.4ZM1013.64 29.36L1011.91 28.3677L1011.9 28.3812L1011.89 28.3948L1013.64 29.36ZM1018.89 24.432L1019.81 26.2076L1019.82 26.2011L1018.89 24.432ZM1018.38 68.848L1016.99 70.2877L1017.02 70.3129L1017.04 70.3371L1018.38 68.848ZM1018.38 60.336L1017.02 58.8722L1017 58.8842L1016.99 58.8963L1018.38 60.336ZM1027.72 60.336L1026.33 61.7757L1026.35 61.7878L1026.36 61.7998L1027.72 60.336ZM1027.72 68.848L1029.08 70.3136L1029.08 70.3118L1027.72 68.848ZM1027.34 24.576C1031.55 24.576 1034.69 25.6707 1036.96 27.6651L1039.6 24.6548C1036.42 21.8706 1032.26 20.576 1027.34 20.576V24.576ZM1036.98 27.6752C1039.22 29.6122 1040.44 32.3811 1040.44 36.272H1044.44C1044.44 31.4589 1042.89 27.4865 1039.59 24.6448L1036.98 27.6752ZM1040.44 36.272C1040.44 39.797 1039.31 42.3384 1037.17 44.1598L1039.77 47.2002C1042.93 44.4989 1044.44 40.7683 1044.44 36.272H1040.44ZM1037.18 44.158C1035.02 46.0002 1032.05 47.0328 1028.09 47.0721L1028.13 51.0719C1032.78 51.0258 1036.73 49.7971 1039.77 47.202L1037.18 44.158ZM1026.11 48.939L1025.79 53.739L1029.78 54.005L1030.1 49.205L1026.11 48.939ZM1027.79 51.872H1018.19V55.872H1027.79V51.872ZM1020.19 53.8183L1019.87 41.9143L1015.87 42.0217L1016.19 53.9257L1020.19 53.8183ZM1017.87 43.968H1021.71V39.968H1017.87V43.968ZM1021.71 43.968C1025.1 43.968 1027.95 43.5582 1030.05 42.5586L1028.34 38.9454C1027.03 39.5671 1024.88 39.968 1021.71 39.968V43.968ZM1030.03 42.5666C1031.23 42.0138 1032.21 41.1873 1032.88 40.0617C1033.54 38.949 1033.82 37.6746 1033.82 36.336H1029.82C1029.82 37.1308 1029.66 37.659 1029.44 38.0183C1029.24 38.3647 1028.91 38.6795 1028.35 38.9374L1030.03 42.5666ZM1033.82 36.336C1033.82 34.4737 1033.3 32.7561 1032.05 31.4385L1029.15 34.1935C1029.52 34.5826 1029.82 35.2117 1029.82 36.336H1033.82ZM1032.05 31.4385C1030.78 30.0986 1029.07 29.536 1027.21 29.536V33.536C1028.25 33.536 1028.8 33.8267 1029.15 34.1935L1032.05 31.4385ZM1027.21 29.536C1025.27 29.536 1023.5 30.1167 1022.18 31.5007L1025.07 34.2593C1025.46 33.8513 1026.08 33.536 1027.21 33.536V29.536ZM1022.21 31.4658C1020.9 32.7791 1020.35 34.5097 1020.35 36.4H1024.35C1024.35 35.3036 1024.65 34.6876 1025.04 34.2942L1022.21 31.4658ZM1022.35 34.4H1012.04V38.4H1022.35V34.4ZM1014.04 36.3345C1013.97 34.0576 1014.43 32.0725 1015.39 30.3252L1011.89 28.3948C1010.55 30.8289 1009.95 33.537 1010.04 36.4655L1014.04 36.3345ZM1015.38 30.3523C1016.37 28.6219 1017.82 27.2394 1019.81 26.2075L1017.97 22.6565C1015.35 24.0139 1013.31 25.9168 1011.91 28.3677L1015.38 30.3523ZM1019.82 26.2011C1021.82 25.1474 1024.3 24.576 1027.34 24.576V20.576C1023.8 20.576 1020.65 21.2419 1017.96 22.6629L1019.82 26.2011ZM1023.11 68.512C1021.61 68.512 1020.53 68.0886 1019.71 67.3589L1017.04 70.3371C1018.7 71.8261 1020.78 72.512 1023.11 72.512V68.512ZM1019.77 67.4083C1018.96 66.6344 1018.59 65.7466 1018.59 64.624H1014.59C1014.59 66.8294 1015.4 68.7576 1016.99 70.2877L1019.77 67.4083ZM1018.59 64.624C1018.59 63.4431 1018.97 62.5389 1019.77 61.7757L1016.99 58.8963C1015.39 60.4371 1014.59 62.3916 1014.59 64.624H1018.59ZM1019.74 61.7998C1020.56 61.0397 1021.63 60.608 1023.11 60.608V56.608C1020.76 56.608 1018.67 57.3283 1017.02 58.8722L1019.74 61.7998ZM1023.11 60.608C1024.55 60.608 1025.56 61.0312 1026.33 61.7757L1029.11 58.8963C1027.49 57.3368 1025.44 56.608 1023.11 56.608V60.608ZM1026.36 61.7998C1027.19 62.5694 1027.58 63.4665 1027.58 64.624H1031.58C1031.58 62.3681 1030.73 60.4066 1029.08 58.8722L1026.36 61.7998ZM1027.58 64.624C1027.58 65.7228 1027.2 66.6037 1026.36 67.3842L1029.08 70.3118C1030.72 68.7883 1031.58 66.8532 1031.58 64.624H1027.58ZM1026.36 67.3824C1025.59 68.0962 1024.57 68.512 1023.11 68.512V72.512C1025.41 72.512 1027.46 71.8184 1029.08 70.3136L1026.36 67.3824ZM1051.15 25.072V23.072H1049.5L1049.19 24.691L1051.15 25.072ZM1062.35 25.072L1064.2 25.8432L1065.35 23.072H1062.35V25.072ZM1055.18 42.224V44.224H1056.52L1057.03 42.9952L1055.18 42.224ZM1047.82 42.224L1045.86 41.843L1045.4 44.224H1047.82V42.224ZM1065.68 25.072V23.072H1064.03L1063.72 24.691L1065.68 25.072ZM1076.88 25.072L1078.72 25.8432L1079.88 23.072H1076.88V25.072ZM1069.71 42.224V44.224H1071.04L1071.56 42.9952L1069.71 42.224ZM1062.35 42.224L1060.39 41.843L1059.93 44.224H1062.35V42.224ZM1051.15 27.072H1062.35V23.072H1051.15V27.072ZM1060.51 24.3008L1053.34 41.4528L1057.03 42.9952L1064.2 25.8432L1060.51 24.3008ZM1055.18 40.224H1047.82V44.224H1055.18V40.224ZM1049.79 42.605L1053.11 25.453L1049.19 24.691L1045.86 41.843L1049.79 42.605ZM1065.68 27.072H1076.88V23.072H1065.68V27.072ZM1075.03 24.3008L1067.87 41.4528L1071.56 42.9952L1078.72 25.8432L1075.03 24.3008ZM1069.71 40.224H1062.35V44.224H1069.71V40.224ZM1064.31 42.605L1067.64 25.453L1063.72 24.691L1060.39 41.843L1064.31 42.605Z" fill="#6552F5"/>
</svg>
