<svg width="521" height="105" viewBox="0 0 521 105" fill="none" xmlns="http://www.w3.org/2000/svg">
<path d="M17.632 51.224V52.224H18.4566L18.6137 51.4145L17.632 51.224ZM6.432 51.224L5.50933 50.8384L4.93028 52.224H6.432V51.224ZM13.6 34.072V33.072H12.9341L12.6773 33.6864L13.6 34.072ZM20.96 34.072L21.9417 34.2625L22.1727 33.072H20.96V34.072ZM32.16 51.224V52.224H32.9846L33.1417 51.4145L32.16 51.224ZM21.024 51.224L20.1013 50.8384L19.5223 52.224H21.024V51.224ZM28.192 34.072V33.072H27.5261L27.2693 33.6864L28.192 34.072ZM35.488 34.072L36.4697 34.2625L36.7007 33.072H35.488V34.072ZM17.632 50.224H6.432V52.224H17.632V50.224ZM7.35467 51.6096L14.5227 34.4576L12.6773 33.6864L5.50933 50.8384L7.35467 51.6096ZM13.6 35.072H20.96V33.072H13.6V35.072ZM19.9783 33.8815L16.6503 51.0335L18.6137 51.4145L21.9417 34.2625L19.9783 33.8815ZM32.16 50.224H21.024V52.224H32.16V50.224ZM21.9467 51.6096L29.1147 34.4576L27.2693 33.6864L20.1013 50.8384L21.9467 51.6096ZM28.192 35.072H35.488V33.072H28.192V35.072ZM34.5063 33.8815L31.1783 51.0335L33.1417 51.4145L36.4697 34.2625L34.5063 33.8815ZM104.417 34.072L105.385 34.3243L105.711 33.072H104.417V34.072ZM92.705 79V80H93.4777L93.6727 79.2523L92.705 79ZM79.457 79L78.4852 79.2356L78.6705 80H79.457V79ZM72.289 49.432L73.2608 49.1964L71.3191 49.1885L72.289 49.432ZM64.865 79V80H65.645L65.8349 79.2435L64.865 79ZM51.617 79L50.6477 79.2458L50.8389 80H51.617V79ZM40.225 34.072V33.072H38.9398L39.2557 34.3178L40.225 34.072ZM51.937 34.072L52.918 33.8781L52.7587 33.072H51.937V34.072ZM58.401 66.776L57.42 66.9699L59.3724 67.0136L58.401 66.776ZM66.401 34.072V33.072H65.6161L65.4296 33.8344L66.401 34.072ZM78.433 34.072L79.4065 33.8434L79.2254 33.072H78.433V34.072ZM86.113 66.776L85.1395 67.0046L87.0937 66.9717L86.113 66.776ZM92.641 34.072V33.072H91.8209L91.6603 33.8763L92.641 34.072ZM103.449 33.8197L91.7373 78.7477L93.6727 79.2523L105.385 34.3243L103.449 33.8197ZM92.705 78H79.457V80H92.705V78ZM80.4288 78.7644L73.2608 49.1964L71.3172 49.6676L78.4852 79.2356L80.4288 78.7644ZM71.3191 49.1885L63.8951 78.7565L65.8349 79.2435L73.2589 49.6755L71.3191 49.1885ZM64.865 78H51.617V80H64.865V78ZM52.5863 78.7542L41.1943 33.8262L39.2557 34.3178L50.6477 79.2458L52.5863 78.7542ZM40.225 35.072H51.937V33.072H40.225V35.072ZM50.956 34.2659L57.42 66.9699L59.382 66.5821L52.918 33.8781L50.956 34.2659ZM59.3724 67.0136L67.3724 34.3096L65.4296 33.8344L57.4296 66.5384L59.3724 67.0136ZM66.401 35.072H78.433V33.072H66.401V35.072ZM77.4595 34.3006L85.1395 67.0046L87.0865 66.5474L79.4065 33.8434L77.4595 34.3006ZM87.0937 66.9717L93.6217 34.2677L91.6603 33.8763L85.1323 66.5803L87.0937 66.9717ZM92.641 35.072H104.417V33.072H92.641V35.072ZM141.714 47L140.972 47.6715L140.978 47.6773L141.714 47ZM145.426 79V80H146.426V79H145.426ZM134.546 79H133.546V80H134.546V79ZM132.689 54.04L131.959 54.7232L132.689 54.04ZM122.706 54.04L123.436 54.7232L122.706 54.04ZM120.85 79V80H121.85V79H120.85ZM109.906 79H108.906V80H109.906V79ZM109.906 31.64V30.64H108.906V31.64H109.906ZM120.85 31.64H121.85V30.64H120.85V31.64ZM120.85 48.088H119.85V51.2504L121.668 48.6629L120.85 48.088ZM125.394 44.312L124.954 43.4136L125.394 44.312ZM131.857 43.904C135.706 43.904 138.71 45.1746 140.973 47.6715L142.454 46.3285C139.768 43.364 136.201 41.904 131.857 41.904V43.904ZM140.978 47.6773C143.237 50.1312 144.426 53.5743 144.426 58.136H146.426C146.426 53.2257 145.139 49.2448 142.449 46.3227L140.978 47.6773ZM144.426 58.136V79H146.426V58.136H144.426ZM145.426 78H134.546V80H145.426V78ZM135.546 79V59.608H133.546V79H135.546ZM135.546 59.608C135.546 57.0481 134.88 54.9177 133.42 53.3568L131.959 54.7232C132.974 55.8077 133.546 57.3892 133.546 59.608H135.546ZM133.42 53.3568C131.964 51.8003 130.018 51.056 127.698 51.056V53.056C129.558 53.056 130.941 53.6344 131.959 54.7232L133.42 53.3568ZM127.698 51.056C125.377 51.056 123.431 51.8003 121.975 53.3568L123.436 54.7232C124.454 53.6344 125.837 53.056 127.698 53.056V51.056ZM121.975 53.3568C120.515 54.9177 119.85 57.0481 119.85 59.608H121.85C121.85 57.3892 122.421 55.8077 123.436 54.7232L121.975 53.3568ZM119.85 59.608V79H121.85V59.608H119.85ZM120.85 78H109.906V80H120.85V78ZM110.906 79V31.64H108.906V79H110.906ZM109.906 32.64H120.85V30.64H109.906V32.64ZM119.85 31.64V48.088H121.85V31.64H119.85ZM121.668 48.6629C122.67 47.2368 124.048 46.0831 125.833 45.2104L124.954 43.4136C122.899 44.4182 121.248 45.7819 120.031 47.5131L121.668 48.6629ZM125.833 45.2104C127.601 44.3461 129.602 43.904 131.857 43.904V41.904C129.334 41.904 127.026 42.4006 124.954 43.4136L125.833 45.2104ZM159.814 77.272L159.34 78.1525L159.346 78.1555L159.814 77.272ZM153.223 70.872L152.353 71.3667L152.359 71.3767L153.223 70.872ZM153.286 51.48L154.15 51.9847L154.153 51.979L153.286 51.48ZM159.943 45.016L160.411 45.8995L159.943 45.016ZM178.887 45.016L178.418 45.8995L178.887 45.016ZM185.543 51.48L184.676 51.979L184.679 51.9847L185.543 51.48ZM185.479 70.872L184.618 70.3633L184.615 70.3673L185.479 70.872ZM178.758 77.272L178.295 76.3856L178.29 76.3885L178.758 77.272ZM174.598 67.736L173.882 67.0389L173.876 67.0441L173.871 67.0494L174.598 67.736ZM174.663 54.552L173.925 55.2277L173.93 55.2332L173.935 55.2386L174.663 54.552ZM164.103 54.552L164.83 55.2381L164.84 55.2277L164.103 54.552ZM164.038 67.736L163.291 68.4004L163.296 68.4061L163.301 68.4117L164.038 67.736ZM169.286 78.512C165.935 78.512 162.941 77.7981 160.283 76.3885L159.346 78.1555C162.32 79.7326 165.641 80.512 169.286 80.512V78.512ZM160.289 76.3915C157.68 74.9871 155.616 72.9853 154.086 70.3673L152.359 71.3767C154.071 74.3053 156.402 76.5702 159.34 78.1525L160.289 76.3915ZM154.092 70.3773C152.612 67.7777 151.855 64.7111 151.855 61.144H149.855C149.855 65.0009 150.676 68.4196 152.353 71.3667L154.092 70.3773ZM151.855 61.144C151.855 57.6264 152.63 54.5842 154.15 51.9847L152.423 50.9753C150.7 53.9225 149.855 57.3229 149.855 61.144H151.855ZM154.153 51.979C155.682 49.3227 157.765 47.3028 160.411 45.8995L159.474 44.1325C156.488 45.7158 154.133 48.0053 152.42 50.981L154.153 51.979ZM160.411 45.8995C163.069 44.4899 166.063 43.776 169.415 43.776V41.776C165.769 41.776 162.448 42.5554 159.474 44.1325L160.411 45.8995ZM169.415 43.776C172.766 43.776 175.76 44.4899 178.418 45.8995L179.355 44.1325C176.381 42.5554 173.06 41.776 169.415 41.776V43.776ZM178.418 45.8995C181.064 47.3028 183.146 49.3227 184.676 51.979L186.409 50.981C184.696 48.0053 182.341 45.7158 179.355 44.1325L178.418 45.8995ZM184.679 51.9847C186.199 54.5842 186.975 57.6264 186.975 61.144H188.975C188.975 57.3229 188.129 53.9225 186.406 50.9753L184.679 51.9847ZM186.975 61.144C186.975 64.6567 186.18 67.7195 184.618 70.3633L186.339 71.3807C188.105 68.3925 188.975 64.97 188.975 61.144H186.975ZM184.615 70.3673C183.089 72.9776 180.988 74.979 178.295 76.3857L179.222 78.1583C182.246 76.5783 184.625 74.313 186.342 71.3767L184.615 70.3673ZM178.29 76.3885C175.632 77.7981 172.638 78.512 169.286 78.512V80.512C172.932 80.512 176.253 79.7326 179.227 78.1555L178.29 76.3885ZM169.286 71.04C171.656 71.04 173.688 70.1562 175.326 68.4226L173.871 67.0494C172.607 68.3878 171.099 69.04 169.286 69.04V71.04ZM175.315 68.4331C177.044 66.6548 177.839 64.1735 177.839 61.144H175.839C175.839 63.8319 175.139 65.7452 173.882 67.0389L175.315 68.4331ZM177.839 61.144C177.839 58.1218 177.07 55.6445 175.39 53.8654L173.935 55.2386C175.157 56.5315 175.839 58.4488 175.839 61.144H177.839ZM175.4 53.8763C173.802 52.1329 171.784 51.248 169.415 51.248V53.248C171.226 53.248 172.707 53.8991 173.925 55.2277L175.4 53.8763ZM169.415 51.248C167.008 51.248 164.968 52.1281 163.365 53.8763L164.84 55.2277C166.053 53.9039 167.554 53.248 169.415 53.248V51.248ZM163.375 53.866C161.731 55.6097 160.99 58.0934 160.99 61.144H162.99C162.99 58.392 163.658 56.481 164.83 55.238L163.375 53.866ZM160.99 61.144C160.99 64.1518 161.709 66.6206 163.291 68.4004L164.786 67.0716C163.637 65.7794 162.99 63.8535 162.99 61.144H160.99ZM163.301 68.4117C164.899 70.1551 166.917 71.04 169.286 71.04V69.04C167.475 69.04 165.994 68.3889 164.776 67.0603L163.301 68.4117ZM207.215 51.416L206.323 50.9633L206.318 50.9743L207.215 51.416ZM212.911 45.016L213.441 45.864L212.911 45.016ZM227.503 44.312L227.024 45.1899L227.032 45.1943L227.503 44.312ZM231.919 48.344L231.067 48.8681L232.919 51.877V48.344H231.919ZM231.919 43.288V42.288H230.919V43.288H231.919ZM242.863 43.288H243.863V42.288H242.863V43.288ZM242.863 79V80H243.863V79H242.863ZM231.919 79H230.919V80H231.919V79ZM231.919 73.944H232.919V70.531L231.077 73.4043L231.919 73.944ZM227.439 77.976L226.968 77.0936L226.96 77.0981L227.439 77.976ZM212.911 77.272L212.37 78.1132L212.381 78.12L212.911 77.272ZM207.215 70.808L206.315 71.2443L206.319 71.2525L206.323 71.2607L207.215 70.808ZM229.615 54.68L228.888 55.3673L228.898 55.3774L229.615 54.68ZM218.543 54.68L217.826 53.9826L217.826 53.9829L218.543 54.68ZM218.543 67.608L217.807 68.2855L217.817 68.2955L217.826 68.3054L218.543 67.608ZM229.615 67.608L228.898 66.9106L228.889 66.9208L229.615 67.608ZM206.167 61.08C206.167 57.5354 206.826 54.4702 208.112 51.8577L206.318 50.9743C204.873 53.9085 204.167 57.2859 204.167 61.08H206.167ZM208.107 51.8687C209.441 49.2402 211.222 47.2511 213.441 45.864L212.381 44.168C209.822 45.7676 207.805 48.0451 206.323 50.9633L208.107 51.8687ZM213.441 45.864C215.664 44.4746 218.146 43.776 220.911 43.776V41.776C217.788 41.776 214.937 42.5708 212.381 44.168L213.441 45.864ZM220.911 43.776C223.291 43.776 225.318 44.2591 227.024 45.1899L227.982 43.4341C225.934 42.3169 223.566 41.776 220.911 41.776V43.776ZM227.032 45.1943C228.814 46.1446 230.147 47.3719 231.067 48.8681L232.771 47.8199C231.643 45.9881 230.032 44.5274 227.974 43.4296L227.032 45.1943ZM232.919 48.344V43.288H230.919V48.344H232.919ZM231.919 44.288H242.863V42.288H231.919V44.288ZM241.863 43.288V79H243.863V43.288H241.863ZM242.863 78H231.919V80H242.863V78ZM232.919 79V73.944H230.919V79H232.919ZM231.077 73.4043C230.112 74.91 228.753 76.1419 226.968 77.0936L227.91 78.8584C229.965 77.7621 231.593 76.306 232.761 74.4837L231.077 73.4043ZM226.96 77.0981C225.254 78.0289 223.227 78.512 220.847 78.512V80.512C223.502 80.512 225.87 79.9711 227.918 78.8539L226.96 77.0981ZM220.847 78.512C218.127 78.512 215.667 77.8149 213.441 76.424L212.381 78.12C214.934 79.7157 217.764 80.512 220.847 80.512V78.512ZM213.452 76.4308C211.226 74.9998 209.442 72.9858 208.107 70.3553L206.323 71.2607C207.804 74.1769 209.818 76.4722 212.37 78.1132L213.452 76.4308ZM208.115 70.3717C206.826 67.7133 206.167 64.6241 206.167 61.08H204.167C204.167 64.8745 204.873 68.2707 206.315 71.2443L208.115 70.3717ZM232.919 61.144C232.919 58.2187 232.091 55.7904 230.332 53.9826L228.898 55.3774C230.211 56.7269 230.919 58.6079 230.919 61.144H232.919ZM230.341 53.9928C228.659 52.2142 226.561 51.312 224.111 51.312V53.312C226.013 53.312 227.584 53.9885 228.889 55.3672L230.341 53.9928ZM224.111 51.312C221.661 51.312 219.548 52.2132 217.826 53.9826L219.26 55.3774C220.61 53.9895 222.209 53.312 224.111 53.312V51.312ZM217.826 53.9829C216.105 55.7531 215.303 58.1637 215.303 61.08H217.303C217.303 58.535 217.994 56.6789 219.26 55.3771L217.826 53.9829ZM215.303 61.08C215.303 63.999 216.106 66.438 217.807 68.2855L219.279 66.9305C217.993 65.5353 217.303 63.6224 217.303 61.08H215.303ZM217.826 68.3054C219.548 70.0748 221.661 70.976 224.111 70.976V68.976C222.209 68.976 220.61 68.2985 219.26 66.9106L217.826 68.3054ZM224.111 70.976C226.561 70.976 228.659 70.0738 230.341 68.2952L228.889 66.9208C227.584 68.2995 226.013 68.976 224.111 68.976V70.976ZM230.332 68.3054C232.091 66.4976 232.919 64.0693 232.919 61.144H230.919C230.919 63.6801 230.211 65.5611 228.898 66.9106L230.332 68.3054ZM261.724 49.24H260.724V52.6039L262.562 49.7863L261.724 49.24ZM266.525 44.632L267.025 45.4979L267.032 45.4937L267.039 45.4895L266.525 44.632ZM272.924 42.904H273.924V41.904H272.924V42.904ZM272.924 54.488V55.488H273.924V54.488H272.924ZM263.772 56.28L264.417 57.0443L264.424 57.0385L264.431 57.0326L263.772 56.28ZM261.724 79V80H262.724V79H261.724ZM250.781 79H249.781V80H250.781V79ZM250.781 43.288V42.288H249.781V43.288H250.781ZM261.724 43.288H262.724V42.288H261.724V43.288ZM262.562 49.7863C263.761 47.9475 265.248 46.5242 267.025 45.4979L266.024 43.7661C263.961 44.9585 262.248 46.6072 260.887 48.6937L262.562 49.7863ZM267.039 45.4895C268.796 44.4353 270.75 43.904 272.924 43.904V41.904C270.406 41.904 268.093 42.5247 266.01 43.7745L267.039 45.4895ZM271.924 42.904V54.488H273.924V42.904H271.924ZM272.924 53.488H269.917V55.488H272.924V53.488ZM269.917 53.488C267.062 53.488 264.734 54.1095 263.114 55.5274L264.431 57.0326C265.541 56.0611 267.31 55.488 269.917 55.488V53.488ZM263.128 55.5157C261.426 56.9518 260.724 59.3717 260.724 62.424H262.724C262.724 59.5883 263.389 57.9122 264.417 57.0443L263.128 55.5157ZM260.724 62.424V79H262.724V62.424H260.724ZM261.724 78H250.781V80H261.724V78ZM251.781 79V43.288H249.781V79H251.781ZM250.781 44.288H261.724V42.288H250.781V44.288ZM260.724 43.288V49.24H262.724V43.288H260.724ZM311.628 63.768V64.768H312.519L312.621 63.8826L311.628 63.768ZM286.859 63.768V62.768H285.78L285.862 63.8447L286.859 63.768ZM288.971 68.888L288.277 69.6074L288.29 69.6196L288.303 69.6313L288.971 68.888ZM299.34 67.16V66.16H298.701L298.432 66.7399L299.34 67.16ZM310.987 67.16L311.957 67.4067L312.274 66.16H310.987V67.16ZM307.724 73.496L306.958 72.8523L306.95 72.8628L307.724 73.496ZM301.9 77.912L302.313 78.8224L301.9 77.912ZM284.684 77.272L284.204 78.1494L284.684 77.272ZM278.284 70.872L279.158 70.3875L278.284 70.872ZM278.22 51.416L277.345 50.9315L277.339 50.9419L278.22 51.416ZM284.62 45.016L285.099 45.8934L284.62 45.016ZM303.243 44.952L302.769 45.832V45.832L303.243 44.952ZM309.516 51.16L308.641 51.6457L308.647 51.6561L309.516 51.16ZM300.62 57.688V58.688H301.62V57.688H300.62ZM298.699 53.208L299.354 52.4523L298.699 53.208ZM289.228 53.144L288.587 52.3758L288.581 52.3811L288.575 52.3866L289.228 53.144ZM286.923 57.688L285.935 57.5376L285.76 58.688H286.923V57.688ZM310.819 60.568C310.819 61.5504 310.758 62.5787 310.634 63.6534L312.621 63.8826C312.753 62.7386 312.819 61.6336 312.819 60.568H310.819ZM311.628 62.768H286.859V64.768H311.628V62.768ZM285.862 63.8447C286.046 66.2339 286.817 68.1977 288.277 69.6074L289.666 68.1686C288.652 67.189 288.014 65.7395 287.857 63.6913L285.862 63.8447ZM288.303 69.6313C289.779 70.96 291.579 71.616 293.643 71.616V69.616C292.038 69.616 290.724 69.12 289.64 68.1447L288.303 69.6313ZM293.643 71.616C295.15 71.616 296.496 71.2974 297.634 70.6069C298.777 69.9136 299.642 68.8858 300.247 67.5801L298.432 66.7399C297.97 67.7382 297.353 68.4384 296.597 68.8971C295.836 69.3586 294.868 69.616 293.643 69.616V71.616ZM299.34 68.16H310.987V66.16H299.34V68.16ZM310.018 66.9133C309.459 69.1121 308.441 71.0888 306.958 72.8524L308.489 74.1396C310.163 72.1485 311.322 69.9013 311.957 67.4067L310.018 66.9133ZM306.95 72.8628C305.517 74.6139 303.702 75.9944 301.486 77.0016L302.313 78.8224C304.791 77.6963 306.858 76.1328 308.497 74.1292L306.95 72.8628ZM301.486 77.0016C299.284 78.0022 296.804 78.512 294.027 78.512V80.512C297.054 80.512 299.821 79.9551 302.313 78.8224L301.486 77.0016ZM294.027 78.512C290.675 78.512 287.729 77.7979 285.163 76.3946L284.204 78.1494C287.099 79.7327 290.382 80.512 294.027 80.512V78.512ZM285.163 76.3946C282.602 74.994 280.604 72.9984 279.158 70.3875L277.409 71.3565C279.035 74.2923 281.304 76.5634 284.204 78.1494L285.163 76.3946ZM279.158 70.3875C277.717 67.786 276.979 64.7156 276.979 61.144H274.979C274.979 64.9964 275.778 68.4114 277.409 71.3565L279.158 70.3875ZM276.979 61.144C276.979 57.5679 277.698 54.4937 279.1 51.8901L277.339 50.9419C275.754 53.8849 274.979 57.2961 274.979 61.144H276.979ZM279.094 51.9005C280.54 49.2896 282.538 47.294 285.099 45.8934L284.14 44.1386C281.24 45.7246 278.971 47.9957 277.345 50.9315L279.094 51.9005ZM285.099 45.8934C287.664 44.491 290.63 43.776 294.027 43.776V41.776C290.342 41.776 287.037 42.5543 284.14 44.1386L285.099 45.8934ZM294.027 43.776C297.34 43.776 300.245 44.47 302.769 45.832L303.718 44.072C300.866 42.5327 297.627 41.776 294.027 41.776V43.776ZM302.769 45.832C305.287 47.1914 307.24 49.1233 308.641 51.6456L310.39 50.6744C308.804 47.8207 306.576 45.6139 303.718 44.072L302.769 45.832ZM308.647 51.6561C310.084 54.1707 310.819 57.1303 310.819 60.568H312.819C312.819 56.8377 312.019 53.5253 310.384 50.6639L308.647 51.6561ZM301.62 57.688C301.62 55.5559 300.879 53.7735 299.354 52.4523L298.045 53.9637C299.08 54.8611 299.62 56.0654 299.62 57.688H301.62ZM299.354 52.4523C297.868 51.1643 296.026 50.544 293.9 50.544V52.544C295.613 52.544 296.971 53.033 298.045 53.9637L299.354 52.4523ZM293.9 50.544C291.856 50.544 290.066 51.1439 288.587 52.3758L289.868 53.9122C290.949 53.0107 292.273 52.544 293.9 52.544V50.544ZM288.575 52.3866C287.12 53.6408 286.261 55.3919 285.935 57.5376L287.912 57.8384C288.183 56.0588 288.861 54.7806 289.88 53.9014L288.575 52.3866ZM286.923 58.688H300.62V56.688H286.923V58.688ZM367.635 43.288L368.556 43.6794L369.147 42.288H367.635V43.288ZM345.236 95.96V96.96H345.897L346.156 96.3514L345.236 95.96ZM333.46 95.96L332.548 95.5491L331.912 96.96H333.46V95.96ZM341.651 77.784L342.563 78.1949L342.742 77.7975L342.573 77.3959L341.651 77.784ZM327.124 43.288V42.288H325.617L326.202 43.6761L327.124 43.288ZM339.348 43.288L340.285 42.9413L340.044 42.288H339.348V43.288ZM347.604 65.624L346.666 65.9707L347.607 68.5182L348.542 65.9683L347.604 65.624ZM355.796 43.288V42.288H355.097L354.857 42.9437L355.796 43.288ZM366.715 42.8966L344.315 95.5686L346.156 96.3514L368.556 43.6794L366.715 42.8966ZM345.236 94.96H333.46V96.96H345.236V94.96ZM334.371 96.3709L342.563 78.1949L340.74 77.3731L332.548 95.5491L334.371 96.3709ZM342.573 77.3959L328.045 42.8999L326.202 43.6761L340.73 78.1721L342.573 77.3959ZM327.124 44.288H339.348V42.288H327.124V44.288ZM338.41 43.6347L346.666 65.9707L348.541 65.2773L340.285 42.9413L338.41 43.6347ZM348.542 65.9683L356.734 43.6323L354.857 42.9437L346.665 65.2797L348.542 65.9683ZM355.796 44.288H367.635V42.288H355.796V44.288ZM378.377 77.272L377.903 78.1525L377.909 78.1555L378.377 77.272ZM371.785 70.872L370.916 71.3667L370.922 71.3767L371.785 70.872ZM371.849 51.48L372.712 51.9847L372.716 51.979L371.849 51.48ZM378.505 45.016L378.974 45.8995L378.505 45.016ZM397.449 45.016L396.98 45.8995L397.449 45.016ZM404.105 51.48L403.238 51.979L403.242 51.9847L404.105 51.48ZM404.041 70.872L403.18 70.3633L403.178 70.3673L404.041 70.872ZM397.321 77.272L396.858 76.3856L396.853 76.3885L397.321 77.272ZM393.161 67.736L392.444 67.0389L392.439 67.0441L392.434 67.0494L393.161 67.736ZM393.225 54.552L392.488 55.2277L392.493 55.2332L392.498 55.2386L393.225 54.552ZM382.665 54.552L383.393 55.2381L383.402 55.2277L382.665 54.552ZM382.601 67.736L381.854 68.4004L381.859 68.4061L381.864 68.4117L382.601 67.736ZM387.849 78.512C384.497 78.512 381.503 77.7981 378.845 76.3885L377.909 78.1555C380.883 79.7326 384.203 80.512 387.849 80.512V78.512ZM378.851 76.3915C376.243 74.9871 374.179 72.9853 372.648 70.3673L370.922 71.3767C372.634 74.3053 374.964 76.5702 377.903 78.1525L378.851 76.3915ZM372.654 70.3773C371.174 67.7777 370.417 64.7111 370.417 61.144H368.417C368.417 65.0009 369.238 68.4196 370.916 71.3667L372.654 70.3773ZM370.417 61.144C370.417 57.6264 371.193 54.5842 372.712 51.9847L370.986 50.9753C369.263 53.9225 368.417 57.3229 368.417 61.144H370.417ZM372.716 51.979C374.245 49.3227 376.327 47.3028 378.974 45.8995L378.036 44.1325C375.051 45.7158 372.696 48.0053 370.982 50.981L372.716 51.979ZM378.974 45.8995C381.631 44.4899 384.625 43.776 387.977 43.776V41.776C384.331 41.776 381.011 42.5554 378.036 44.1325L378.974 45.8995ZM387.977 43.776C391.329 43.776 394.323 44.4899 396.98 45.8995L397.918 44.1325C394.943 42.5554 391.623 41.776 387.977 41.776V43.776ZM396.98 45.8995C399.627 47.3028 401.709 49.3227 403.238 51.979L404.972 50.981C403.258 48.0053 400.903 45.7158 397.918 44.1325L396.98 45.8995ZM403.242 51.9847C404.761 54.5842 405.537 57.6264 405.537 61.144H407.537C407.537 57.3229 406.691 53.9225 404.968 50.9753L403.242 51.9847ZM405.537 61.144C405.537 64.6567 404.742 67.7195 403.18 70.3633L404.902 71.3807C406.668 68.3925 407.537 64.97 407.537 61.144H405.537ZM403.178 70.3673C401.652 72.9776 399.551 74.979 396.858 76.3857L397.784 78.1583C400.809 76.5783 403.188 74.313 404.904 71.3767L403.178 70.3673ZM396.853 76.3885C394.195 77.7981 391.201 78.512 387.849 78.512V80.512C391.495 80.512 394.815 79.7326 397.789 78.1555L396.853 76.3885ZM387.849 71.04C390.218 71.04 392.251 70.1562 393.888 68.4226L392.434 67.0494C391.17 68.3878 389.661 69.04 387.849 69.04V71.04ZM393.878 68.4331C395.607 66.6548 396.401 64.1735 396.401 61.144H394.401C394.401 63.8319 393.702 65.7452 392.444 67.0389L393.878 68.4331ZM396.401 61.144C396.401 58.1218 395.632 55.6445 393.952 53.8654L392.498 55.2386C393.719 56.5315 394.401 58.4488 394.401 61.144H396.401ZM393.962 53.8763C392.364 52.1329 390.347 51.248 387.977 51.248V53.248C389.788 53.248 391.27 53.8991 392.488 55.2277L393.962 53.8763ZM387.977 51.248C385.571 51.248 383.53 52.1281 381.928 53.8763L383.402 55.2277C384.616 53.9039 386.116 53.248 387.977 53.248V51.248ZM381.937 53.866C380.293 55.6097 379.553 58.0934 379.553 61.144H381.553C381.553 58.392 382.221 56.481 383.393 55.238L381.937 53.866ZM379.553 61.144C379.553 64.1518 380.272 66.6206 381.854 68.4004L383.348 67.0716C382.2 65.7794 381.553 63.8535 381.553 61.144H379.553ZM381.864 68.4117C383.462 70.1551 385.479 71.04 387.849 71.04V69.04C386.038 69.04 384.556 68.3889 383.338 67.0603L381.864 68.4117ZM447.607 43.288H448.607V42.288H447.607V43.288ZM447.607 79V80H448.607V79H447.607ZM436.663 79H435.663V80H436.663V79ZM436.663 74.136H437.663V70.9736L435.845 73.5611L436.663 74.136ZM432.119 77.976L432.566 78.8705L432.574 78.8664L432.119 77.976ZM418.615 77.592L418.106 78.4526L418.112 78.4565L418.119 78.4602L418.615 77.592ZM413.751 72.28L412.857 72.7272L413.751 72.28ZM412.023 43.288V42.288H411.023V43.288H412.023ZM422.903 43.288H423.903V42.288H422.903V43.288ZM424.759 68.248L424.029 68.9312L424.759 68.248ZM436.663 43.288V42.288H435.663V43.288H436.663ZM446.607 43.288V79H448.607V43.288H446.607ZM447.607 78H436.663V80H447.607V78ZM437.663 79V74.136H435.663V79H437.663ZM435.845 73.5611C434.84 74.9916 433.456 76.1694 431.664 77.0856L432.574 78.8664C434.622 77.8199 436.268 76.4378 437.481 74.7109L435.845 73.5611ZM431.672 77.0816C429.946 77.9442 428.011 78.384 425.847 78.384V80.384C428.291 80.384 430.537 79.8851 432.566 78.8704L431.672 77.0816ZM425.847 78.384C423.267 78.384 421.031 77.821 419.111 76.7238L418.119 78.4602C420.38 79.7523 422.966 80.384 425.847 80.384V78.384ZM419.124 76.7314C417.209 75.598 415.717 73.9757 414.645 71.8328L412.857 72.7272C414.089 75.1923 415.839 77.1113 418.106 78.4526L419.124 76.7314ZM414.645 71.8328C413.576 69.6937 413.023 67.1435 413.023 64.152H411.023C411.023 67.3899 411.622 70.2583 412.857 72.7272L414.645 71.8328ZM413.023 64.152V43.288H411.023V64.152H413.023ZM412.023 44.288H422.903V42.288H412.023V44.288ZM421.903 43.288V62.68H423.903V43.288H421.903ZM421.903 62.68C421.903 65.2399 422.569 67.3703 424.029 68.9312L425.489 67.5648C424.475 66.4803 423.903 64.8988 423.903 62.68H421.903ZM424.029 68.9312C425.485 70.4877 427.43 71.232 429.751 71.232V69.232C427.89 69.232 426.508 68.6536 425.489 67.5648L424.029 68.9312ZM429.751 71.232C432.108 71.232 434.077 70.492 435.537 68.9312L434.077 67.5648C433.062 68.6493 431.661 69.232 429.751 69.232V71.232ZM435.537 68.9312C436.997 67.3703 437.663 65.2399 437.663 62.68H435.663C435.663 64.8988 435.091 66.4803 434.077 67.5648L435.537 68.9312ZM437.663 62.68V43.288H435.663V62.68H437.663ZM436.663 44.288H447.607V42.288H436.663V44.288ZM479.532 35.16L478.873 35.9126L478.879 35.9176L479.532 35.16ZM479.724 54.68L480.373 55.441L480.374 55.4401L479.724 54.68ZM469.356 58.072L469.346 57.072L468.42 57.0812L468.358 58.0055L469.356 58.072ZM469.036 62.872V63.872H469.972L470.034 62.9385L469.036 62.872ZM459.436 62.872L458.436 62.8989L458.463 63.872H459.436V62.872ZM459.116 50.968V49.968H458.089L458.116 50.9949L459.116 50.968ZM470.444 49.752L470.024 48.8446L470.015 48.8487L470.444 49.752ZM464.876 41.88L465.583 42.5871L465.592 42.5785L465.6 42.5697L464.876 41.88ZM463.596 45.4V46.4H464.596V45.4H463.596ZM453.292 45.4L452.293 45.4328L452.324 46.4H453.292V45.4ZM454.892 38.36L454.024 37.8639L454.02 37.8706L454.016 37.8774L454.892 38.36ZM460.14 33.432L460.6 34.3198L460.606 34.3166L460.14 33.432ZM459.628 77.848L458.934 78.5678L458.947 78.5805L458.96 78.5926L459.628 77.848ZM459.628 69.336L458.947 68.6041L458.94 68.6101L458.934 68.6162L459.628 69.336ZM468.972 69.336L468.278 70.0558L468.284 70.0619L468.291 70.0679L468.972 69.336ZM468.972 77.848L469.652 78.5808L469.653 78.5799L468.972 77.848ZM468.588 32.576C472.976 32.576 476.368 33.7207 478.874 35.9126L480.191 34.4074C477.234 31.8206 473.331 30.576 468.588 30.576V32.576ZM478.879 35.9176C481.39 38.0808 482.692 41.1506 482.692 45.272H484.692C484.692 40.6894 483.221 37.0179 480.185 34.4024L478.879 35.9176ZM482.692 45.272C482.692 49.0398 481.462 51.8785 479.074 53.9199L480.374 55.4401C483.276 52.9588 484.692 49.5255 484.692 45.272H482.692ZM479.075 53.919C476.693 55.9494 473.484 57.0311 469.346 57.072L469.366 59.0719C473.847 59.0276 477.549 57.8479 480.373 55.441L479.075 53.919ZM468.358 58.0055L468.038 62.8055L470.034 62.9385L470.354 58.1385L468.358 58.0055ZM469.036 61.872H459.436V63.872H469.036V61.872ZM460.436 62.8451L460.116 50.9411L458.116 50.9949L458.436 62.8989L460.436 62.8451ZM459.116 51.968H462.956V49.968H459.116V51.968ZM462.956 51.968C466.296 51.968 468.967 51.5604 470.873 50.6553L470.015 48.8487C468.507 49.5649 466.187 49.968 462.956 49.968V51.968ZM470.864 50.6593C471.898 50.1802 472.719 49.4816 473.272 48.5508C473.821 47.6265 474.068 46.5386 474.068 45.336H472.068C472.068 46.2667 471.878 46.9815 471.552 47.5292C471.231 48.0704 470.739 48.5131 470.024 48.8447L470.864 50.6593ZM474.068 45.336C474.068 43.6582 473.608 42.2127 472.577 41.1272L471.127 42.5047C471.717 43.126 472.068 44.0272 472.068 45.336H474.068ZM472.577 41.1272C471.535 40.0306 470.117 39.536 468.46 39.536V41.536C469.705 41.536 470.547 41.8947 471.127 42.5047L472.577 41.1272ZM468.46 39.536C466.721 39.536 465.238 40.0503 464.152 41.1903L465.6 42.5697C466.221 41.9177 467.127 41.536 468.46 41.536V39.536ZM464.169 41.1729C463.086 42.2562 462.596 43.7082 462.596 45.4H464.596C464.596 44.1051 464.96 43.2105 465.583 42.5871L464.169 41.1729ZM463.596 44.4H453.292V46.4H463.596V44.4ZM454.291 45.3672C454.211 42.9275 454.71 40.7616 455.768 38.8426L454.016 37.8774C452.77 40.1398 452.202 42.6672 452.293 45.4328L454.291 45.3672ZM455.76 38.8561C456.852 36.9456 458.453 35.433 460.6 34.3198L459.68 32.5442C457.219 33.8203 455.321 35.5931 454.024 37.8639L455.76 38.8561ZM460.606 34.3166C462.779 33.171 465.427 32.576 468.588 32.576V30.576C465.178 30.576 462.194 31.2183 459.674 32.5474L460.606 34.3166ZM464.364 78.512C462.65 78.512 461.321 78.023 460.296 77.1034L458.96 78.5926C460.409 79.8917 462.238 80.512 464.364 80.512V78.512ZM460.322 77.1282C459.324 76.1652 458.836 75.0173 458.836 73.624H456.836C456.836 75.5587 457.543 77.2268 458.934 78.5678L460.322 77.1282ZM458.836 73.624C458.836 72.1802 459.329 71.0134 460.322 70.0558L458.934 68.6162C457.538 69.9626 456.836 71.6545 456.836 73.624H458.836ZM460.309 70.0679C461.336 69.1118 462.66 68.608 464.364 68.608V66.608C462.228 66.608 460.394 67.2562 458.947 68.6041L460.309 70.0679ZM464.364 68.608C466.019 68.608 467.294 69.1076 468.278 70.0558L469.666 68.6162C468.26 67.2604 466.463 66.608 464.364 66.608V68.608ZM468.291 70.0679C469.323 71.0287 469.828 72.1919 469.828 73.624H471.828C471.828 71.6427 471.096 69.9473 469.653 68.6041L468.291 70.0679ZM469.828 73.624C469.828 75.0054 469.328 76.1498 468.291 77.1161L469.653 78.5799C471.09 77.2422 471.828 75.5706 471.828 73.624H469.828ZM468.292 77.1152C467.31 78.0268 466.03 78.512 464.364 78.512V80.512C466.453 80.512 468.245 79.8879 469.652 78.5808L468.292 77.1152ZM492.401 34.072V33.072H491.577L491.42 33.8815L492.401 34.072ZM503.602 34.072L504.524 34.4576L505.103 33.072H503.602V34.072ZM496.434 51.224V52.224H497.099L497.356 51.6096L496.434 51.224ZM489.073 51.224L488.092 51.0335L487.861 52.224H489.073V51.224ZM506.93 34.072V33.072H506.105L505.948 33.8815L506.93 34.072ZM518.13 34.072L519.052 34.4576L519.631 33.072H518.13V34.072ZM510.961 51.224V52.224H511.627L511.884 51.6096L510.961 51.224ZM503.602 51.224L502.62 51.0335L502.389 52.224H503.602V51.224ZM492.401 35.072H503.602V33.072H492.401V35.072ZM502.679 33.6864L495.511 50.8384L497.356 51.6096L504.524 34.4576L502.679 33.6864ZM496.434 50.224H489.073V52.224H496.434V50.224ZM490.055 51.4145L493.383 34.2625L491.42 33.8815L488.092 51.0335L490.055 51.4145ZM506.93 35.072H518.13V33.072H506.93V35.072ZM517.207 33.6864L510.039 50.8384L511.884 51.6096L519.052 34.4576L517.207 33.6864ZM510.961 50.224H503.602V52.224H510.961V50.224ZM504.583 51.4145L507.911 34.2625L505.948 33.8815L502.62 51.0335L504.583 51.4145Z" fill="#FFD941"/>
<path d="M13.632 42.224V44.224H15.2812L15.5954 42.605L13.632 42.224ZM2.432 42.224L0.586662 41.4528L-0.571445 44.224H2.432V42.224ZM9.6 25.072V23.072H8.2682L7.75466 24.3008L9.6 25.072ZM16.96 25.072L18.9234 25.453L19.3854 23.072H16.96V25.072ZM28.16 42.224V44.224H29.8092L30.1234 42.605L28.16 42.224ZM17.024 42.224L15.1787 41.4528L14.0206 44.224H17.024V42.224ZM24.192 25.072V23.072H22.8602L22.3467 24.3008L24.192 25.072ZM31.488 25.072L33.4514 25.453L33.9134 23.072H31.488V25.072ZM13.632 40.224H2.432V44.224H13.632V40.224ZM4.27734 42.9952L11.4453 25.8432L7.75466 24.3008L0.586662 41.4528L4.27734 42.9952ZM9.6 27.072H16.96V23.072H9.6V27.072ZM14.9966 24.691L11.6686 41.843L15.5954 42.605L18.9234 25.453L14.9966 24.691ZM28.16 40.224H17.024V44.224H28.16V40.224ZM18.8693 42.9952L26.0373 25.8432L22.3467 24.3008L15.1787 41.4528L18.8693 42.9952ZM24.192 27.072H31.488V23.072H24.192V27.072ZM29.5246 24.691L26.1966 41.843L30.1234 42.605L33.4514 25.453L29.5246 24.691ZM100.417 25.072L102.352 25.5765L103.005 23.072H100.417V25.072ZM88.705 70V72H90.2505L90.6403 70.5045L88.705 70ZM75.457 70L73.5133 70.4712L73.8839 72H75.457V70ZM68.289 40.432L70.2327 39.9608L66.3492 39.945L68.289 40.432ZM60.865 70V72H62.4249L62.8048 70.487L60.865 70ZM47.617 70L45.6784 70.4916L46.0608 72H47.617V70ZM36.225 25.072V23.072H33.6546L34.2864 25.5636L36.225 25.072ZM47.937 25.072L49.899 24.6842L49.5804 23.072H47.937V25.072ZM54.401 57.776L52.439 58.1638L56.3437 58.2512L54.401 57.776ZM62.401 25.072V23.072H60.8313L60.4583 24.5968L62.401 25.072ZM74.433 25.072L76.38 24.6148L76.0177 23.072H74.433V25.072ZM82.113 57.776L80.166 58.2332L84.0743 58.1675L82.113 57.776ZM88.641 25.072V23.072H87.0008L86.6797 24.6805L88.641 25.072ZM98.4817 24.5675L86.7697 69.4955L90.6403 70.5045L102.352 25.5765L98.4817 24.5675ZM88.705 68H75.457V72H88.705V68ZM77.4007 69.5288L70.2327 39.9608L66.3453 40.9032L73.5133 70.4712L77.4007 69.5288ZM66.3492 39.945L58.9252 69.513L62.8048 70.487L70.2288 40.919L66.3492 39.945ZM60.865 68H47.617V72H60.865V68ZM49.5556 69.5084L38.1637 24.5804L34.2864 25.5636L45.6784 70.4916L49.5556 69.5084ZM36.225 27.072H47.937V23.072H36.225V27.072ZM45.975 25.4598L52.439 58.1638L56.363 57.3882L49.899 24.6842L45.975 25.4598ZM56.3437 58.2512L64.3437 25.5472L60.4583 24.5968L52.4583 57.3008L56.3437 58.2512ZM62.401 27.072H74.433V23.072H62.401V27.072ZM72.486 25.5292L80.166 58.2332L84.06 57.3188L76.38 24.6148L72.486 25.5292ZM84.0743 58.1675L90.6023 25.4635L86.6797 24.6805L80.1517 57.3845L84.0743 58.1675ZM88.641 27.072H100.417V23.072H88.641V27.072ZM137.714 38L136.232 39.343L136.237 39.3489L136.242 39.3546L137.714 38ZM141.426 70V72H143.426V70H141.426ZM130.546 70H128.546V72H130.546V70ZM128.689 45.04L127.229 46.4063V46.4063L128.689 45.04ZM118.706 45.04L120.166 46.4063V46.4063L118.706 45.04ZM116.85 70V72H118.85V70H116.85ZM105.906 70H103.906V72H105.906V70ZM105.906 22.64V20.64H103.906V22.64H105.906ZM116.85 22.64H118.85V20.64H116.85V22.64ZM116.85 39.088H114.85V45.4128L118.486 40.2379L116.85 39.088ZM121.394 35.312L120.515 33.5152L121.394 35.312ZM127.857 35.904C131.459 35.904 134.181 37.08 136.232 39.343L139.195 36.657C136.297 33.4587 132.448 31.904 127.857 31.904V35.904ZM136.242 39.3546C138.286 41.5743 139.426 44.7487 139.426 49.136H143.426C143.426 44.0513 142.091 39.8017 139.185 36.6454L136.242 39.3546ZM139.426 49.136V70H143.426V49.136H139.426ZM141.426 68H130.546V72H141.426V68ZM132.546 70V50.608H128.546V70H132.546ZM132.546 50.608C132.546 47.8776 131.833 45.4727 130.15 43.6737L127.229 46.4063C128.021 47.2527 128.546 48.5598 128.546 50.608H132.546ZM130.15 43.6737C128.475 41.8832 126.248 41.056 123.698 41.056V45.056C125.328 45.056 126.429 45.5515 127.229 46.4063L130.15 43.6737ZM123.698 41.056C121.147 41.056 118.92 41.8832 117.245 43.6737L120.166 46.4063C120.966 45.5515 122.067 45.056 123.698 45.056V41.056ZM117.245 43.6737C115.562 45.4727 114.85 47.8776 114.85 50.608H118.85C118.85 48.5598 119.374 47.2527 120.166 46.4063L117.245 43.6737ZM114.85 50.608V70H118.85V50.608H114.85ZM116.85 68H105.906V72H116.85V68ZM107.906 70V22.64H103.906V70H107.906ZM105.906 24.64H116.85V20.64H105.906V24.64ZM114.85 22.64V39.088H118.85V22.64H114.85ZM118.486 40.2379C119.381 38.9642 120.622 37.9155 122.272 37.1088L120.515 33.5152C118.325 34.5858 116.537 36.0545 115.213 37.9381L118.486 40.2379ZM122.272 37.1088C123.888 36.3189 125.736 35.904 127.857 35.904V31.904C125.2 31.904 122.739 32.4278 120.515 33.5152L122.272 37.1088ZM155.814 68.272L154.866 70.033L154.878 70.0389L155.814 68.272ZM149.223 61.872L147.484 62.8614L147.49 62.8714L147.496 62.8814L149.223 61.872ZM149.286 42.48L151.013 43.4894L151.02 43.4779L149.286 42.48ZM155.943 36.016L156.88 37.7829L155.943 36.016ZM174.887 36.016L173.949 37.7829L174.887 36.016ZM181.543 42.48L179.809 43.478L179.816 43.4894L181.543 42.48ZM181.479 61.872L179.757 60.8545L179.752 60.8626L181.479 61.872ZM174.758 68.272L173.832 66.4993L173.822 66.5051L174.758 68.272ZM170.598 58.736L169.165 57.3418L169.154 57.3522L169.144 57.3628L170.598 58.736ZM170.663 45.552L169.188 46.9034L169.198 46.9144L169.208 46.9252L170.663 45.552ZM160.103 45.552L161.558 46.924L161.567 46.9138L161.577 46.9034L160.103 45.552ZM160.038 58.736L158.544 60.0647L158.554 60.0762L158.564 60.0874L160.038 58.736ZM165.286 68.512C162.082 68.512 159.251 67.8308 156.752 66.5051L154.878 70.0389C158.01 71.6999 161.494 72.512 165.286 72.512V68.512ZM156.763 66.5111C154.32 65.1956 152.389 63.3253 150.949 60.8626L147.496 62.8814C149.299 65.9654 151.763 68.3618 154.866 70.0329L156.763 66.5111ZM150.961 60.8826C149.58 58.4568 148.855 55.5662 148.855 52.144H144.855C144.855 56.1458 145.708 59.7405 147.484 62.8614L150.961 60.8826ZM148.855 52.144C148.855 48.7781 149.595 45.915 151.013 43.4894L147.56 41.4706C145.735 44.5917 144.855 48.1712 144.855 52.144H148.855ZM151.02 43.4779C152.457 40.9814 154.403 39.0964 156.88 37.7829L155.005 34.2491C151.85 35.9223 149.359 38.3466 147.553 41.4821L151.02 43.4779ZM156.88 37.7829C159.379 36.4572 162.21 35.776 165.415 35.776V31.776C161.622 31.776 158.138 32.5881 155.005 34.2491L156.88 37.7829ZM165.415 35.776C168.619 35.776 171.45 36.4572 173.949 37.7829L175.824 34.2491C172.691 32.5881 169.207 31.776 165.415 31.776V35.776ZM173.949 37.7829C176.426 39.0964 178.372 40.9814 179.809 43.4779L183.276 41.4821C181.47 38.3466 178.979 35.9223 175.824 34.2491L173.949 37.7829ZM179.816 43.4894C181.234 45.915 181.975 48.7781 181.975 52.144H185.975C185.975 48.1712 185.094 44.5917 183.269 41.4706L179.816 43.4894ZM181.975 52.144C181.975 55.5 181.217 58.383 179.757 60.8545L183.2 62.8895C185.068 59.729 185.975 56.1266 185.975 52.144H181.975ZM179.752 60.8626C178.321 63.3099 176.359 65.1794 173.832 66.4993L175.685 70.0447C178.875 68.378 181.393 65.9807 183.205 62.8814L179.752 60.8626ZM173.822 66.5051C171.322 67.8308 168.491 68.512 165.286 68.512V72.512C169.079 72.512 172.563 71.6999 175.696 70.0389L173.822 66.5051ZM165.286 63.04C167.934 63.04 170.229 62.0405 172.053 60.1092L169.144 57.3628C168.067 58.5035 166.82 59.04 165.286 59.04V63.04ZM172.032 60.1302C173.997 58.1096 174.839 55.3443 174.839 52.144H170.839C170.839 54.661 170.187 56.2904 169.165 57.3418L172.032 60.1302ZM174.839 52.144C174.839 48.9584 174.026 46.2009 172.117 44.1788L169.208 46.9252C170.2 47.9751 170.839 49.6123 170.839 52.144H174.839ZM172.137 44.2006C170.349 42.2497 168.064 41.248 165.415 41.248V45.248C166.947 45.248 168.16 45.7823 169.188 46.9034L172.137 44.2006ZM165.415 41.248C162.736 41.248 160.425 42.2402 158.628 44.2006L161.577 46.9034C162.596 45.7918 163.827 45.248 165.415 45.248V41.248ZM158.647 44.18C156.767 46.174 155.99 48.944 155.99 52.144H159.99C159.99 49.5413 160.622 47.9166 161.558 46.924L158.647 44.18ZM155.99 52.144C155.99 55.301 156.745 58.0411 158.544 60.0647L161.533 57.4073C160.601 56.3589 159.99 54.7043 159.99 52.144H155.99ZM158.564 60.0874C160.352 62.0383 162.637 63.04 165.286 63.04V59.04C163.754 59.04 162.541 58.5057 161.513 57.3845L158.564 60.0874ZM203.215 42.416L201.432 41.5106L201.426 41.5216L201.421 41.5326L203.215 42.416ZM208.911 36.016L209.971 37.712L208.911 36.016ZM223.503 35.312L222.545 37.0678L222.554 37.0723L222.562 37.0767L223.503 35.312ZM227.919 39.344L226.216 40.3922L229.919 46.4101V39.344H227.919ZM227.919 34.288V32.288H225.919V34.288H227.919ZM238.863 34.288H240.863V32.288H238.863V34.288ZM238.863 70V72H240.863V70H238.863ZM227.919 70H225.919V72H227.919V70ZM227.919 64.944H229.919V58.118L226.235 63.8647L227.919 64.944ZM223.439 68.976L222.498 67.2113L222.49 67.2157L222.481 67.2202L223.439 68.976ZM208.911 68.272L207.829 69.9544L207.84 69.9612L207.851 69.968L208.911 68.272ZM203.215 61.808L201.415 62.6805L201.423 62.697L201.432 62.7134L203.215 61.808ZM225.615 45.68L224.162 47.0544L224.172 47.0646L224.182 47.0747L225.615 45.68ZM214.543 45.68L213.11 44.2853L213.109 44.2858L214.543 45.68ZM214.543 58.608L213.072 59.963L213.09 59.9831L213.11 60.0027L214.543 58.608ZM225.615 58.608L224.182 57.2133L224.172 57.2234L224.162 57.2336L225.615 58.608ZM203.167 52.08C203.167 48.6602 203.802 45.7511 205.009 43.2994L201.421 41.5326C199.897 44.6276 199.167 48.1612 199.167 52.08H203.167ZM204.998 43.3214C206.259 40.8378 207.922 38.9929 209.971 37.712L207.851 34.32C205.122 36.0258 202.987 38.4476 201.432 41.5106L204.998 43.3214ZM209.971 37.712C212.028 36.4265 214.324 35.776 216.911 35.776V31.776C213.61 31.776 210.573 32.6189 207.851 34.32L209.971 37.712ZM216.911 35.776C219.153 35.776 221.01 36.2303 222.545 37.0678L224.461 33.5562C222.242 32.3457 219.704 31.776 216.911 31.776V35.776ZM222.562 37.0767C224.205 37.9532 225.398 39.0638 226.216 40.3922L229.622 38.2958C228.392 36.2962 226.641 34.7188 224.444 33.5473L222.562 37.0767ZM229.919 39.344V34.288H225.919V39.344H229.919ZM227.919 36.288H238.863V32.288H227.919V36.288ZM236.863 34.288V70H240.863V34.288H236.863ZM238.863 68H227.919V72H238.863V68ZM229.919 70V64.944H225.919V70H229.919ZM226.235 63.8647C225.372 65.212 224.147 66.3318 222.498 67.2113L224.38 70.7407C226.571 69.5722 228.333 68.004 229.603 66.0233L226.235 63.8647ZM222.481 67.2202C220.946 68.0577 219.089 68.512 216.847 68.512V72.512C219.64 72.512 222.178 71.9423 224.397 70.7318L222.481 67.2202ZM216.847 68.512C214.309 68.512 212.033 67.8645 209.971 66.576L207.851 69.968C210.568 71.6661 213.583 72.512 216.847 72.512V68.512ZM209.993 66.5896C207.93 65.2637 206.261 63.3902 204.998 60.9026L201.432 62.7134C202.985 65.7725 205.113 68.2083 207.829 69.9544L209.993 66.5896ZM205.015 60.9355C203.802 58.4345 203.167 55.4989 203.167 52.08H199.167C199.167 55.9997 199.897 59.5495 201.415 62.6805L205.015 60.9355ZM229.919 52.144C229.919 49.0241 229.03 46.3222 227.048 44.2853L224.182 47.0747C225.272 48.1952 225.919 49.8026 225.919 52.144H229.919ZM227.068 44.3056C225.196 42.327 222.836 41.312 220.111 41.312V45.312C221.738 45.312 223.047 45.8757 224.162 47.0544L227.068 44.3056ZM220.111 41.312C217.388 41.312 215.017 42.325 213.11 44.2853L215.976 47.0747C217.141 45.8777 218.482 45.312 220.111 45.312V41.312ZM213.109 44.2858C211.16 46.2901 210.303 48.9781 210.303 52.08H214.303C214.303 49.7206 214.939 48.1419 215.977 47.0742L213.109 44.2858ZM210.303 52.08C210.303 55.1872 211.162 57.8894 213.072 59.963L216.014 57.253C214.937 56.0839 214.303 54.4341 214.303 52.08H210.303ZM213.11 60.0027C215.017 61.963 217.388 62.976 220.111 62.976V58.976C218.482 58.976 217.141 58.4103 215.976 57.2133L213.11 60.0027ZM220.111 62.976C222.836 62.976 225.196 61.961 227.068 59.9824L224.162 57.2336C223.047 58.4123 221.738 58.976 220.111 58.976V62.976ZM227.048 60.0027C229.03 57.9658 229.919 55.2639 229.919 52.144H225.919C225.919 54.4854 225.272 56.0928 224.182 57.2133L227.048 60.0027ZM257.724 40.24H255.725V46.9679L259.4 41.3325L257.724 40.24ZM262.525 35.632L263.525 37.3637L263.539 37.3555L263.553 37.347L262.525 35.632ZM268.924 33.904H270.924V31.904H268.924V33.904ZM268.924 45.488V47.488H270.924V45.488H268.924ZM259.772 47.28L261.062 48.8086L261.076 48.797L261.09 48.7852L259.772 47.28ZM257.724 70V72H259.724V70H257.724ZM246.781 70H244.781V72H246.781V70ZM246.781 34.288V32.288H244.781V34.288H246.781ZM257.724 34.288H259.724V32.288H257.724V34.288ZM259.4 41.3325C260.518 39.6176 261.892 38.307 263.525 37.3637L261.524 33.9003C259.317 35.1756 257.491 36.937 256.049 39.1475L259.4 41.3325ZM263.553 37.347C265.147 36.3906 266.922 35.904 268.924 35.904V31.904C266.234 31.904 263.742 32.5694 261.496 33.917L263.553 37.347ZM266.924 33.904V45.488H270.924V33.904H266.924ZM268.924 43.488H265.917V47.488H268.924V43.488ZM265.917 43.488C262.938 43.488 260.331 44.1337 258.456 45.7748L261.09 48.7852C261.945 48.0369 263.433 47.488 265.917 47.488V43.488ZM258.483 45.7514C256.444 47.4715 255.725 50.2634 255.725 53.424H259.724C259.724 50.6966 260.37 49.3925 261.062 48.8086L258.483 45.7514ZM255.725 53.424V70H259.724V53.424H255.725ZM257.724 68H246.781V72H257.724V68ZM248.781 70V34.288H244.781V70H248.781ZM246.781 36.288H257.724V32.288H246.781V36.288ZM255.725 34.288V40.24H259.724V34.288H255.725ZM307.628 54.768V56.768H309.41L309.614 54.9972L307.628 54.768ZM282.859 54.768V52.768H280.7L280.865 54.9214L282.859 54.768ZM284.971 59.888L283.582 61.3268L283.608 61.3511L283.634 61.3746L284.971 59.888ZM295.34 58.16V56.16H294.061L293.525 57.3198L295.34 58.16ZM306.987 58.16L308.926 58.6534L309.56 56.16H306.987V58.16ZM303.724 64.496L302.193 63.2088L302.184 63.2191L302.176 63.2295L303.724 64.496ZM297.9 68.912L298.727 70.7327L297.9 68.912ZM280.684 68.272L279.724 70.0267L280.684 68.272ZM274.284 61.872L276.033 60.903L274.284 61.872ZM274.22 42.416L272.47 41.447L272.464 41.4574L272.459 41.4678L274.22 42.416ZM280.62 36.016L281.579 37.7707L280.62 36.016ZM299.243 35.952L298.294 37.712L299.243 35.952ZM305.516 42.16L303.767 43.1313L303.773 43.1418L303.779 43.1523L305.516 42.16ZM296.62 48.688V50.688H298.62V48.688H296.62ZM294.699 44.208L296.009 42.6966L294.699 44.208ZM285.228 44.144L283.947 42.6076L283.934 42.6183L283.922 42.6292L285.228 44.144ZM282.923 48.688L280.946 48.3871L280.596 50.688H282.923V48.688ZM305.819 51.568C305.819 52.5089 305.761 53.4988 305.641 54.5388L309.614 54.9972C309.75 53.8186 309.819 52.6751 309.819 51.568H305.819ZM307.628 52.768H282.859V56.768H307.628V52.768ZM280.865 54.9214C281.062 57.481 281.899 59.702 283.582 61.3268L286.361 58.4492C285.569 57.6847 284.998 56.4923 284.854 54.6146L280.865 54.9214ZM283.634 61.3746C285.306 62.88 287.35 63.616 289.643 63.616V59.616C288.268 59.616 287.197 59.2 286.309 58.4014L283.634 61.3746ZM289.643 63.616C291.291 63.616 292.826 63.2669 294.153 62.4619C295.489 61.6512 296.479 60.4597 297.154 59.0002L293.525 57.3198C293.134 58.1643 292.641 58.7008 292.078 59.0421C291.506 59.3891 290.727 59.616 289.643 59.616V63.616ZM295.34 60.16H306.987V56.16H295.34V60.16ZM305.049 57.6666C304.527 59.7175 303.58 61.5589 302.193 63.2088L305.254 65.7832C307.024 63.6784 308.253 61.2958 308.926 58.6534L305.049 57.6666ZM302.176 63.2295C300.846 64.8545 299.157 66.1435 297.072 67.0913L298.727 70.7327C301.335 69.5472 303.529 67.8922 305.271 65.7625L302.176 63.2295ZM297.072 67.0913C295.016 68.0258 292.679 68.512 290.027 68.512V72.512C293.178 72.512 296.09 71.9316 298.727 70.7327L297.072 67.0913ZM290.027 68.512C286.822 68.512 284.045 67.8305 281.643 66.5173L279.724 70.0267C282.784 71.7001 286.236 72.512 290.027 72.512V68.512ZM281.643 66.5173C279.251 65.2093 277.389 63.3514 276.033 60.903L272.534 62.841C274.25 65.9393 276.654 68.3481 279.724 70.0267L281.643 66.5173ZM276.033 60.903C274.687 58.4733 273.979 55.5752 273.979 52.144H269.979C269.979 56.1368 270.808 59.724 272.534 62.841L276.033 60.903ZM273.979 52.144C273.979 48.7039 274.67 45.7982 275.98 43.3642L272.459 41.4678C270.782 44.5805 269.979 48.1601 269.979 52.144H273.979ZM275.969 43.385C277.325 40.9366 279.187 39.0787 281.579 37.7707L279.66 34.2613C276.59 35.9399 274.186 38.3487 272.47 41.447L275.969 43.385ZM281.579 37.7707C283.977 36.4594 286.775 35.776 290.027 35.776V31.776C286.198 31.776 282.723 32.5859 279.66 34.2613L281.579 37.7707ZM290.027 35.776C293.196 35.776 295.934 36.4386 298.294 37.712L300.193 34.192C297.177 32.5641 293.771 31.776 290.027 31.776V35.776ZM298.294 37.712C300.643 38.9801 302.458 40.7746 303.767 43.1313L307.264 41.1887C305.586 38.1693 303.22 35.8252 300.193 34.192L298.294 37.712ZM303.779 43.1523C305.117 45.4933 305.819 48.2766 305.819 51.568H309.819C309.819 47.6914 308.986 44.2027 307.252 41.1677L303.779 43.1523ZM298.62 48.688C298.62 46.3012 297.778 44.2297 296.009 42.6966L293.39 45.7194C294.181 46.4049 294.62 47.3202 294.62 48.688H298.62ZM296.009 42.6966C294.317 41.23 292.232 40.544 289.9 40.544V44.544C291.407 44.544 292.522 44.9673 293.39 45.7194L296.009 42.6966ZM289.9 40.544C287.648 40.544 285.624 41.2105 283.947 42.6076L286.508 45.6804C287.391 44.9442 288.482 44.544 289.9 44.544V40.544ZM283.922 42.6292C282.249 44.0709 281.301 46.0585 280.946 48.3871L284.901 48.9889C285.144 47.3922 285.731 46.3505 286.533 45.6588L283.922 42.6292ZM282.923 50.688H296.62V46.688H282.923V50.688ZM363.635 34.288L365.476 35.0707L366.659 32.288H363.635V34.288ZM341.236 86.96V88.96H342.558L343.076 87.7427L341.236 86.96ZM329.46 86.96L327.636 86.1382L326.364 88.96H329.46V86.96ZM337.651 68.784L339.475 69.6058L339.833 68.8111L339.495 68.0077L337.651 68.784ZM323.124 34.288V32.288H320.111L321.28 35.0643L323.124 34.288ZM335.348 34.288L337.223 33.5946L336.741 32.288H335.348V34.288ZM343.604 56.624L341.728 57.3174L343.611 62.4124L345.481 57.3127L343.604 56.624ZM351.796 34.288V32.288H350.399L349.918 33.5993L351.796 34.288ZM361.795 33.5053L339.395 86.1773L343.076 87.7427L365.476 35.0707L361.795 33.5053ZM341.236 84.96H329.46V88.96H341.236V84.96ZM331.283 87.7818L339.475 69.6058L335.828 67.9622L327.636 86.1382L331.283 87.7818ZM339.495 68.0077L324.967 33.5117L321.28 35.0643L335.808 69.5603L339.495 68.0077ZM323.124 36.288H335.348V32.288H323.124V36.288ZM333.472 34.9814L341.728 57.3174L345.479 55.9306L337.223 33.5946L333.472 34.9814ZM345.481 57.3127L353.673 34.9767L349.918 33.5993L341.726 55.9353L345.481 57.3127ZM351.796 36.288H363.635V32.288H351.796V36.288ZM374.377 68.272L373.429 70.033L373.44 70.0389L374.377 68.272ZM367.785 61.872L366.047 62.8614L366.053 62.8714L366.058 62.8814L367.785 61.872ZM367.849 42.48L369.576 43.4894L369.582 43.4779L367.849 42.48ZM374.505 36.016L375.442 37.7829L374.505 36.016ZM393.449 36.016L392.512 37.7829L393.449 36.016ZM400.105 42.48L398.372 43.478L398.378 43.4894L400.105 42.48ZM400.041 61.872L398.319 60.8545L398.314 60.8626L400.041 61.872ZM393.321 68.272L392.395 66.4993L392.384 66.5051L393.321 68.272ZM389.161 58.736L387.727 57.3418L387.717 57.3522L387.707 57.3628L389.161 58.736ZM389.225 45.552L387.751 46.9034L387.761 46.9144L387.771 46.9252L389.225 45.552ZM378.665 45.552L380.12 46.924L380.13 46.9138L380.139 46.9034L378.665 45.552ZM378.601 58.736L377.106 60.0647L377.116 60.0762L377.127 60.0874L378.601 58.736ZM383.849 68.512C380.644 68.512 377.814 67.8308 375.314 66.5051L373.44 70.0389C376.572 71.6999 380.056 72.512 383.849 72.512V68.512ZM375.325 66.5111C372.882 65.1956 370.951 63.3253 369.512 60.8626L366.058 62.8814C367.861 65.9654 370.325 68.3618 373.429 70.0329L375.325 66.5111ZM369.523 60.8826C368.142 58.4568 367.417 55.5662 367.417 52.144H363.417C363.417 56.1458 364.27 59.7405 366.047 62.8614L369.523 60.8826ZM367.417 52.144C367.417 48.7781 368.158 45.915 369.576 43.4894L366.122 41.4706C364.298 44.5917 363.417 48.1712 363.417 52.144H367.417ZM369.582 43.4779C371.02 40.9814 372.965 39.0964 375.442 37.7829L373.568 34.2491C370.413 35.9223 367.921 38.3466 366.116 41.4821L369.582 43.4779ZM375.442 37.7829C377.942 36.4572 380.772 35.776 383.977 35.776V31.776C380.184 31.776 376.7 32.5881 373.568 34.2491L375.442 37.7829ZM383.977 35.776C387.182 35.776 390.012 36.4572 392.512 37.7829L394.386 34.2491C391.254 32.5881 387.77 31.776 383.977 31.776V35.776ZM392.512 37.7829C394.989 39.0964 396.934 40.9814 398.372 43.4779L401.838 41.4821C400.033 38.3466 397.541 35.9223 394.386 34.2491L392.512 37.7829ZM398.378 43.4894C399.796 45.915 400.537 48.7781 400.537 52.144H404.537C404.537 48.1712 403.656 44.5917 401.832 41.4706L398.378 43.4894ZM400.537 52.144C400.537 55.5 399.78 58.383 398.319 60.8545L401.763 62.8895C403.63 59.729 404.537 56.1266 404.537 52.144H400.537ZM398.314 60.8626C396.884 63.3099 394.922 65.1794 392.395 66.4993L394.247 70.0447C397.438 68.378 399.956 65.9807 401.768 62.8814L398.314 60.8626ZM392.384 66.5051C389.884 67.8308 387.054 68.512 383.849 68.512V72.512C387.642 72.512 391.126 71.6999 394.258 70.0389L392.384 66.5051ZM383.849 63.04C386.496 63.04 388.791 62.0405 390.615 60.1092L387.707 57.3628C386.63 58.5035 385.383 59.04 383.849 59.04V63.04ZM390.595 60.1302C392.559 58.1096 393.401 55.3443 393.401 52.144H389.401C389.401 54.661 388.749 56.2904 387.727 57.3418L390.595 60.1302ZM393.401 52.144C393.401 48.9584 392.589 46.2009 390.679 44.1788L387.771 46.9252C388.762 47.9751 389.401 49.6123 389.401 52.144H393.401ZM390.699 44.2006C388.911 42.2497 386.626 41.248 383.977 41.248V45.248C385.509 45.248 386.723 45.7823 387.751 46.9034L390.699 44.2006ZM383.977 41.248C381.298 41.248 378.988 42.2402 377.191 44.2006L380.139 46.9034C381.158 45.7918 382.389 45.248 383.977 45.248V41.248ZM377.21 44.18C375.33 46.174 374.553 48.944 374.553 52.144H378.553C378.553 49.5413 379.184 47.9166 380.12 46.924L377.21 44.18ZM374.553 52.144C374.553 55.301 375.307 58.0411 377.106 60.0647L380.096 57.4073C379.164 56.3589 378.553 54.7043 378.553 52.144H374.553ZM377.127 60.0874C378.915 62.0383 381.2 63.04 383.849 63.04V59.04C382.317 59.04 381.103 58.5057 380.075 57.3845L377.127 60.0874ZM443.607 34.288H445.607V32.288H443.607V34.288ZM443.607 70V72H445.607V70H443.607ZM432.663 70H430.663V72H432.663V70ZM432.663 65.136H434.663V58.8113L431.027 63.9861L432.663 65.136ZM428.119 68.976L429.013 70.7649L429.021 70.7609L429.029 70.7569L428.119 68.976ZM414.615 68.592L413.596 70.3132L413.609 70.3209L413.623 70.3285L414.615 68.592ZM409.751 63.28L407.962 64.1744L409.751 63.28ZM408.023 34.288V32.288H406.023V34.288H408.023ZM418.903 34.288H420.903V32.288H418.903V34.288ZM420.759 59.248L419.298 60.6143L420.759 59.248ZM432.663 34.288V32.288H430.663V34.288H432.663ZM441.607 34.288V70H445.607V34.288H441.607ZM443.607 68H432.663V72H443.607V68ZM434.663 70V65.136H430.663V70H434.663ZM431.027 63.9861C430.126 65.2684 428.874 66.3442 427.209 67.1951L429.029 70.7569C431.204 69.6451 432.982 68.1609 434.299 66.2859L431.027 63.9861ZM427.225 67.1871C425.651 67.9738 423.871 68.384 421.847 68.384V72.384C424.431 72.384 426.832 71.8555 429.013 70.7649L427.225 67.1871ZM421.847 68.384C419.417 68.384 417.357 67.8554 415.607 66.8555L413.623 70.3285C416.054 71.7179 418.816 72.384 421.847 72.384V68.384ZM415.634 66.8708C413.894 65.8414 412.531 64.3674 411.54 62.3856L407.962 64.1744C409.275 66.8006 411.155 68.868 413.596 70.3132L415.634 66.8708ZM411.54 62.3856C410.553 60.4114 410.023 58.0203 410.023 55.152H406.023C406.023 58.513 406.645 61.5406 407.962 64.1744L411.54 62.3856ZM410.023 55.152V34.288H406.023V55.152H410.023ZM408.023 36.288H418.903V32.288H408.023V36.288ZM416.903 34.288V53.68H420.903V34.288H416.903ZM416.903 53.68C416.903 56.4104 417.616 58.8153 419.298 60.6143L422.22 57.8817C421.428 57.0353 420.903 55.7282 420.903 53.68H416.903ZM419.298 60.6143C420.973 62.4048 423.2 63.232 425.751 63.232V59.232C424.12 59.232 423.019 58.7365 422.22 57.8817L419.298 60.6143ZM425.751 63.232C428.331 63.232 430.585 62.4133 432.268 60.6143L429.346 57.8817C428.555 58.728 427.438 59.232 425.751 59.232V63.232ZM432.268 60.6143C433.95 58.8153 434.663 56.4104 434.663 53.68H430.663C430.663 55.7282 430.138 57.0353 429.346 57.8817L432.268 60.6143ZM434.663 53.68V34.288H430.663V53.68H434.663ZM432.663 36.288H443.607V32.288H432.663V36.288ZM475.532 26.16L474.215 27.6651L474.221 27.6702L474.227 27.6752L475.532 26.16ZM475.724 45.68L477.021 47.202L477.024 47.2002L475.724 45.68ZM465.356 49.072L465.336 47.0721L463.484 47.0904L463.36 48.939L465.356 49.072ZM465.036 53.872V55.872H466.907L467.032 54.005L465.036 53.872ZM455.436 53.872L453.437 53.9257L453.489 55.872H455.436V53.872ZM455.116 41.968V39.968H453.062L453.117 42.0217L455.116 41.968ZM466.444 40.752L465.603 38.9374L465.594 38.9414L465.586 38.9454L466.444 40.752ZM460.876 32.88L462.29 34.2942L462.307 34.277L462.324 34.2593L460.876 32.88ZM459.596 36.4V38.4H461.596V36.4H459.596ZM449.292 36.4L447.293 36.4655L447.357 38.4H449.292V36.4ZM450.892 29.36L449.156 28.3677L449.148 28.3812L449.14 28.3948L450.892 29.36ZM456.14 24.432L457.061 26.2076L457.073 26.2011L456.14 24.432ZM455.628 68.848L454.24 70.2877L454.266 70.3129L454.293 70.3371L455.628 68.848ZM455.628 60.336L454.265 58.8722L454.252 58.8842L454.24 58.8963L455.628 60.336ZM464.972 60.336L463.584 61.7757L463.596 61.7878L463.609 61.7998L464.972 60.336ZM464.972 68.848L466.333 70.3136L466.335 70.3118L464.972 68.848ZM464.588 24.576C468.798 24.576 471.936 25.6707 474.215 27.6651L476.849 24.6548C473.667 21.8706 469.509 20.576 464.588 20.576V24.576ZM474.227 27.6752C476.475 29.6122 477.692 32.3811 477.692 36.272H481.692C481.692 31.4589 480.136 27.4865 476.837 24.6448L474.227 27.6752ZM477.692 36.272C477.692 39.797 476.555 42.3384 474.424 44.1598L477.024 47.2002C480.184 44.4989 481.692 40.7683 481.692 36.272H477.692ZM474.427 44.158C472.265 46.0002 469.302 47.0328 465.336 47.0721L465.376 51.0719C470.029 51.0258 473.977 49.7971 477.021 47.202L474.427 44.158ZM463.36 48.939L463.04 53.739L467.032 54.005L467.352 49.205L463.36 48.939ZM465.036 51.872H455.436V55.872H465.036V51.872ZM457.435 53.8183L457.115 41.9143L453.117 42.0217L453.437 53.9257L457.435 53.8183ZM455.116 43.968H458.956V39.968H455.116V43.968ZM458.956 43.968C462.35 43.968 465.198 43.5582 467.302 42.5586L465.586 38.9454C464.277 39.5671 462.133 39.968 458.956 39.968V43.968ZM467.285 42.5666C468.478 42.0138 469.463 41.1873 470.131 40.0617C470.793 38.949 471.068 37.6746 471.068 36.336H467.068C467.068 37.1308 466.906 37.659 466.693 38.0183C466.487 38.3647 466.16 38.6795 465.603 38.9374L467.285 42.5666ZM471.068 36.336C471.068 34.4737 470.554 32.7561 469.302 31.4385L466.402 34.1935C466.772 34.5826 467.068 35.2117 467.068 36.336H471.068ZM469.302 31.4385C468.029 30.0986 466.323 29.536 464.46 29.536V33.536C465.499 33.536 466.054 33.8267 466.402 34.1935L469.302 31.4385ZM464.46 29.536C462.518 29.536 460.746 30.1167 459.428 31.5007L462.324 34.2593C462.713 33.8513 463.33 33.536 464.46 33.536V29.536ZM459.462 31.4658C458.148 32.7791 457.596 34.5097 457.596 36.4H461.596C461.596 35.3036 461.897 34.6876 462.29 34.2942L459.462 31.4658ZM459.596 34.4H449.292V38.4H459.596V34.4ZM451.291 36.3345C451.216 34.0576 451.681 32.0725 452.644 30.3252L449.14 28.3948C447.799 30.8289 447.197 33.537 447.293 36.4655L451.291 36.3345ZM452.628 30.3523C453.617 28.6219 455.071 27.2394 457.061 26.2075L455.219 22.6565C452.601 24.0139 450.556 25.9168 449.156 28.3677L452.628 30.3523ZM457.073 26.2011C459.071 25.1474 461.552 24.576 464.588 24.576V20.576C461.054 20.576 457.902 21.2419 455.207 22.6629L457.073 26.2011ZM460.364 68.512C458.855 68.512 457.777 68.0886 456.963 67.3589L454.293 70.3371C455.954 71.8261 458.033 72.512 460.364 72.512V68.512ZM457.016 67.4083C456.214 66.6344 455.836 65.7466 455.836 64.624H451.836C451.836 66.8294 452.653 68.7576 454.24 70.2877L457.016 67.4083ZM455.836 64.624C455.836 63.4431 456.225 62.5389 457.016 61.7757L454.24 58.8963C452.642 60.4371 451.836 62.3916 451.836 64.624H455.836ZM456.991 61.7998C457.807 61.0397 458.876 60.608 460.364 60.608V56.608C458.012 56.608 455.923 57.3283 454.265 58.8722L456.991 61.7998ZM460.364 60.608C461.797 60.608 462.812 61.0312 463.584 61.7757L466.36 58.8963C464.743 57.3368 462.686 56.608 460.364 56.608V60.608ZM463.609 61.7998C464.436 62.5694 464.828 63.4665 464.828 64.624H468.828C468.828 62.3681 467.983 60.4066 466.335 58.8722L463.609 61.7998ZM464.828 64.624C464.828 65.7228 464.448 66.6037 463.609 67.3842L466.335 70.3118C467.971 68.7883 468.828 66.8532 468.828 64.624H464.828ZM463.611 67.3824C462.842 68.0962 461.819 68.512 460.364 68.512V72.512C462.664 72.512 464.712 71.8184 466.333 70.3136L463.611 67.3824ZM488.401 25.072V23.072H486.752L486.438 24.691L488.401 25.072ZM499.602 25.072L501.447 25.8432L502.605 23.072H499.602V25.072ZM492.434 42.224V44.224H493.765L494.279 42.9952L492.434 42.224ZM485.073 42.224L483.11 41.843L482.648 44.224H485.073V42.224ZM502.93 25.072V23.072H501.28L500.966 24.691L502.93 25.072ZM514.13 25.072L515.975 25.8432L517.133 23.072H514.13V25.072ZM506.961 42.224V44.224H508.293L508.807 42.9952L506.961 42.224ZM499.602 42.224L497.638 41.843L497.176 44.224H499.602V42.224ZM488.401 27.072H499.602V23.072H488.401V27.072ZM497.756 24.3008L490.588 41.4528L494.279 42.9952L501.447 25.8432L497.756 24.3008ZM492.434 40.224H485.073V44.224H492.434V40.224ZM487.037 42.605L490.365 25.453L486.438 24.691L483.11 41.843L487.037 42.605ZM502.93 27.072H514.13V23.072H502.93V27.072ZM512.284 24.3008L505.116 41.4528L508.807 42.9952L515.975 25.8432L512.284 24.3008ZM506.961 40.224H499.602V44.224H506.961V40.224ZM501.565 42.605L504.893 25.453L500.966 24.691L497.638 41.843L501.565 42.605Z" fill="#6552F5"/>
</svg>
